<svg xmlns="http://www.w3.org/2000/svg" xmlns:xlink="http://www.w3.org/1999/xlink" width="414" zoomAndPan="magnify" viewBox="0 0 310.5 192.749995" height="257" preserveAspectRatio="xMidYMid meet" version="1.0"><defs><g/><clipPath id="7c3eaa9afc"><path d="M 107 46 L 124 46 L 124 79 L 107 79 Z M 107 46 " clip-rule="nonzero"/></clipPath><clipPath id="d648cc7fae"><path d="M 0 31.496094 L 107.796875 -0.0664062 L 154.714844 160.1875 L 46.921875 191.75 Z M 0 31.496094 " clip-rule="nonzero"/></clipPath><clipPath id="68dce21e8f"><path d="M 0 31.496094 L 107.796875 -0.0664062 L 154.714844 160.1875 L 46.921875 191.75 Z M 0 31.496094 " clip-rule="nonzero"/></clipPath><clipPath id="470c8dbed5"><path d="M 0 31.496094 L 107.796875 -0.0664062 L 154.714844 160.1875 L 46.921875 191.75 Z M 0 31.496094 " clip-rule="nonzero"/></clipPath><clipPath id="b80c82f05b"><path d="M 100.078125 49.164062 L 120.410156 43.210938 L 129.476562 74.183594 L 109.148438 80.136719 Z M 100.078125 49.164062 " clip-rule="nonzero"/></clipPath><clipPath id="4952d1cae5"><path d="M 66 11 L 88 11 L 88 47 L 66 47 Z M 66 11 " clip-rule="nonzero"/></clipPath><clipPath id="424acdcaa7"><path d="M 0 31.496094 L 107.796875 -0.0664062 L 154.714844 160.1875 L 46.921875 191.75 Z M 0 31.496094 " clip-rule="nonzero"/></clipPath><clipPath id="91ec290cba"><path d="M 0 31.496094 L 107.796875 -0.0664062 L 154.714844 160.1875 L 46.921875 191.75 Z M 0 31.496094 " clip-rule="nonzero"/></clipPath><clipPath id="5ba5758a65"><path d="M 0 31.496094 L 107.796875 -0.0664062 L 154.714844 160.1875 L 46.921875 191.75 Z M 0 31.496094 " clip-rule="nonzero"/></clipPath><clipPath id="5af99c1e80"><path d="M 20 80 L 54 80 L 54 135 L 20 135 Z M 20 80 " clip-rule="nonzero"/></clipPath><clipPath id="5523b3aca8"><path d="M 0 31.496094 L 107.796875 -0.0664062 L 154.714844 160.1875 L 46.921875 191.75 Z M 0 31.496094 " clip-rule="nonzero"/></clipPath><clipPath id="03fbcbd62d"><path d="M 0 31.496094 L 107.796875 -0.0664062 L 154.714844 160.1875 L 46.921875 191.75 Z M 0 31.496094 " clip-rule="nonzero"/></clipPath><clipPath id="008b50f0bc"><path d="M 0 31.496094 L 107.796875 -0.0664062 L 154.714844 160.1875 L 46.921875 191.75 Z M 0 31.496094 " clip-rule="nonzero"/></clipPath><clipPath id="fe2a3024f4"><path d="M 71 104 L 116 104 L 116 180 L 71 180 Z M 71 104 " clip-rule="nonzero"/></clipPath><clipPath id="6a8e0bfa41"><path d="M 0 31.496094 L 107.796875 -0.0664062 L 154.714844 160.1875 L 46.921875 191.75 Z M 0 31.496094 " clip-rule="nonzero"/></clipPath><clipPath id="b847a45a5e"><path d="M 0 31.496094 L 107.796875 -0.0664062 L 154.714844 160.1875 L 46.921875 191.75 Z M 0 31.496094 " clip-rule="nonzero"/></clipPath><clipPath id="d42c1e7892"><path d="M 0 31.496094 L 107.796875 -0.0664062 L 154.714844 160.1875 L 46.921875 191.75 Z M 0 31.496094 " clip-rule="nonzero"/></clipPath></defs><g clip-path="url(#7c3eaa9afc)"><g clip-path="url(#d648cc7fae)"><g clip-path="url(#68dce21e8f)"><g clip-path="url(#470c8dbed5)"><g clip-path="url(#b80c82f05b)"><path fill="#000000" d="M 122.433594 52.066406 C 121.46875 51.042969 120.117188 50.515625 118.785156 50.15625 C 117.390625 49.777344 115.964844 49.53125 114.601562 49.03125 C 113.085938 48.472656 111.65625 47.644531 110.546875 46.460938 C 110.519531 46.414062 110.480469 46.371094 110.4375 46.339844 C 110.351562 46.253906 110.214844 46.238281 110.101562 46.277344 C 110.09375 46.277344 110.089844 46.28125 110.085938 46.28125 C 109.871094 46.34375 109.746094 46.570312 109.808594 46.785156 L 115.339844 65.671875 C 115.566406 66.457031 114.996094 67.085938 114.21875 67.367188 C 112.097656 68.132812 110.296875 68.785156 108.769531 70.875 C 107.246094 72.957031 107 76.542969 109.996094 78.191406 C 110.074219 78.234375 110.148438 78.273438 110.226562 78.3125 C 114.070312 80.21875 118.507812 77.089844 118.082031 72.832031 C 117.972656 71.703125 117.261719 69.347656 117.261719 69.347656 L 111.339844 49.113281 C 112.023438 49.507812 112.9375 49.785156 113.746094 50.023438 C 115.371094 50.496094 116.300781 50.648438 117.757812 50.847656 C 119.421875 51.074219 120.289062 51.199219 121.351562 51.996094 C 122.425781 52.800781 123.039062 54.015625 123.167969 55.339844 C 123.3125 56.898438 122.910156 58.480469 122.191406 59.859375 C 121.992188 60.242188 122.578125 60.558594 122.777344 60.179688 C 124.066406 57.703125 124.492188 54.261719 122.433594 52.066406 " fill-opacity="1" fill-rule="nonzero"/></g></g></g></g></g><g clip-path="url(#4952d1cae5)"><g clip-path="url(#424acdcaa7)"><g clip-path="url(#91ec290cba)"><g clip-path="url(#5ba5758a65)"><path fill="#000000" d="M 84.308594 19.703125 C 84.320312 19.777344 84.367188 19.839844 84.4375 19.875 C 84.4375 19.875 84.441406 19.878906 84.441406 19.878906 C 84.628906 19.976562 84.847656 19.8125 84.796875 19.609375 C 84.246094 17.328125 83.304688 16.394531 81.683594 15.296875 C 80.382812 14.414062 78.78125 14.171875 77.242188 14.105469 C 75.628906 14.03125 74.015625 14.113281 72.414062 13.898438 C 70.824219 13.6875 69.257812 13.222656 67.878906 12.410156 C 67.753906 12.335938 67.652344 12.234375 67.585938 12.109375 C 67.472656 11.90625 67.226562 11.8125 67.011719 11.898438 C 66.96875 11.914062 66.9375 11.933594 66.90625 11.957031 C 66.828125 12.019531 66.769531 12.101562 66.746094 12.195312 C 66.710938 12.304688 66.722656 12.429688 66.785156 12.539062 L 66.824219 12.609375 L 69.652344 17.714844 L 69.816406 18.007812 L 77.429688 31.746094 C 77.871094 32.546875 77.402344 33.371094 76.625 33.863281 C 74.5 35.214844 72.703125 36.363281 71.550781 39.003906 C 70.398438 41.644531 71.007812 45.605469 74.675781 46.671875 C 74.769531 46.699219 74.863281 46.722656 74.957031 46.746094 C 79.605469 47.886719 83.679688 43.402344 82.171875 38.871094 C 81.773438 37.667969 80.425781 35.28125 80.425781 35.28125 L 72.09375 20.242188 C 72.894531 20.453125 73.855469 20.527344 74.710938 20.582031 C 76.597656 20.707031 77.648438 20.640625 79.285156 20.503906 C 81.152344 20.347656 82.128906 20.269531 83.480469 20.878906 C 83.546875 20.910156 83.609375 20.941406 83.671875 20.972656 C 83.933594 21.101562 84.179688 21.253906 84.410156 21.425781 C 85.289062 22.082031 85.925781 23.011719 86.277344 24.082031 C 86.816406 25.738281 86.765625 27.5625 86.320312 29.234375 C 86.199219 29.695312 86.910156 29.902344 87.035156 29.441406 C 87.835938 26.433594 87.457031 22.582031 84.675781 20.695312 C 84.582031 20.632812 84.484375 20.574219 84.386719 20.515625 C 84.136719 20.367188 83.875 20.238281 83.605469 20.132812 C 82.546875 19.699219 81.371094 19.554688 80.234375 19.503906 C 78.621094 19.429688 77.007812 19.511719 75.40625 19.296875 C 73.992188 19.109375 72.59375 18.722656 71.332031 18.066406 C 70.921875 17.851562 70.582031 17.519531 70.355469 17.113281 L 69.097656 14.84375 C 69.902344 15.054688 70.863281 15.128906 71.71875 15.183594 C 73.605469 15.304688 74.65625 15.242188 76.292969 15.105469 C 78.160156 14.945312 79.46875 14.890625 80.652344 15.410156 C 82.027344 16.015625 83.214844 17.046875 83.898438 18.367188 C 84.117188 18.792969 84.21875 19.253906 84.308594 19.703125 " fill-opacity="1" fill-rule="nonzero"/></g></g></g></g><g clip-path="url(#5af99c1e80)"><g clip-path="url(#5523b3aca8)"><g clip-path="url(#03fbcbd62d)"><g clip-path="url(#008b50f0bc)"><path fill="#000000" d="M 36.375 86.695312 L 24.40625 103.953125 L 22.820312 101.867188 L 34.792969 84.609375 Z M 33.183594 80.902344 L 20.0625 99.816406 L 34.480469 118.75 C 35.039062 119.484375 34.683594 120.375 33.980469 120.980469 C 32.050781 122.632812 30.417969 124.035156 29.644531 126.84375 C 28.875 129.640625 30.054688 133.515625 33.875 134.054688 C 33.972656 134.066406 34.070312 134.078125 34.164062 134.089844 C 38.980469 134.5625 42.402344 129.503906 40.246094 125.191406 C 39.675781 124.046875 37.984375 121.851562 37.984375 121.851562 L 26.589844 106.832031 L 38.558594 89.574219 L 47.179688 100.9375 C 47.738281 101.671875 47.386719 102.5625 46.683594 103.167969 C 44.753906 104.820312 43.117188 106.222656 42.347656 109.03125 C 41.578125 111.828125 42.753906 115.703125 46.578125 116.242188 C 46.671875 116.253906 46.769531 116.265625 46.867188 116.277344 C 51.679688 116.75 55.105469 111.691406 52.949219 107.378906 C 52.375 106.234375 50.6875 104.039062 50.6875 104.039062 L 33.183594 80.902344 " fill-opacity="1" fill-rule="nonzero"/></g></g></g></g><g clip-path="url(#fe2a3024f4)"><g clip-path="url(#6a8e0bfa41)"><g clip-path="url(#b847a45a5e)"><g clip-path="url(#d42c1e7892)"><path fill="#000000" d="M 114.371094 145.523438 C 114.371094 145.523438 115.539062 149.414062 115.726562 151.285156 C 116.429688 158.328125 109.085938 163.503906 102.730469 160.351562 C 102.601562 160.285156 102.476562 160.21875 102.351562 160.152344 C 97.390625 157.425781 97.800781 151.492188 100.320312 148.046875 C 102.847656 144.589844 105.820312 143.511719 109.335938 142.242188 C 110.617188 141.78125 111.566406 140.738281 111.183594 139.4375 L 104.789062 117.59375 L 79.339844 135.082031 L 87.628906 163.394531 C 87.628906 163.394531 88.796875 167.285156 88.984375 169.15625 C 89.6875 176.203125 82.34375 181.375 75.988281 178.222656 C 75.859375 178.160156 75.734375 178.09375 75.609375 178.023438 C 70.648438 175.296875 71.058594 169.367188 73.578125 165.917969 C 76.105469 162.464844 79.078125 161.382812 82.59375 160.117188 C 83.875 159.652344 84.824219 158.613281 84.441406 157.3125 L 74.570312 123.804688 L 102.460938 104.636719 L 114.371094 145.523438 " fill-opacity="1" fill-rule="nonzero"/></g></g></g></g><g fill="#ffffff" fill-opacity="1"><g transform="translate(28.455724, 90.181763)"><g><path d="M 2.109375 0 L 2.109375 -30.140625 L 8.90625 -30.140625 L 8.90625 -5.71875 L 33.109375 -5.71875 L 33.109375 0 Z M 2.109375 0 "/></g></g></g><g fill="#ffffff" fill-opacity="1"><g transform="translate(63.235257, 90.181763)"><g><path d="M 2.109375 0 L 2.109375 -30.140625 L 33.96875 -30.140625 L 33.96875 -24.671875 L 8.90625 -24.671875 L 8.90625 -17.65625 L 33.96875 -17.65625 L 33.96875 -12.484375 L 8.90625 -12.484375 L 8.90625 -5.46875 L 33.96875 -5.46875 L 33.96875 0 Z M 2.109375 0 "/></g></g></g><g fill="#ffffff" fill-opacity="1"><g transform="translate(98.875671, 90.181763)"><g><path d="M 19.625 0.4375 C 15.925781 0.4375 12.734375 -0.171875 10.046875 -1.390625 C 7.367188 -2.617188 5.300781 -4.382812 3.84375 -6.6875 C 2.394531 -9 1.671875 -11.789062 1.671875 -15.0625 C 1.671875 -20 3.328125 -23.816406 6.640625 -26.515625 C 9.960938 -29.210938 14.722656 -30.5625 20.921875 -30.5625 C 24.941406 -30.5625 28.289062 -30.050781 30.96875 -29.03125 C 33.65625 -28.007812 35.703125 -26.59375 37.109375 -24.78125 C 38.515625 -22.976562 39.289062 -20.859375 39.4375 -18.421875 L 32.546875 -18.421875 C 32.429688 -19.054688 32.1875 -19.738281 31.8125 -20.46875 C 31.4375 -21.195312 30.832031 -21.890625 30 -22.546875 C 29.164062 -23.210938 28.015625 -23.757812 26.546875 -24.1875 C 25.085938 -24.625 23.210938 -24.84375 20.921875 -24.84375 C 18.742188 -24.84375 16.90625 -24.617188 15.40625 -24.171875 C 13.914062 -23.722656 12.710938 -23.132812 11.796875 -22.40625 C 10.878906 -21.675781 10.179688 -20.875 9.703125 -20 C 9.234375 -19.125 8.910156 -18.25 8.734375 -17.375 C 8.566406 -16.5 8.484375 -15.703125 8.484375 -14.984375 C 8.484375 -14.234375 8.566406 -13.410156 8.734375 -12.515625 C 8.910156 -11.628906 9.234375 -10.738281 9.703125 -9.84375 C 10.179688 -8.957031 10.878906 -8.148438 11.796875 -7.421875 C 12.710938 -6.691406 13.914062 -6.097656 15.40625 -5.640625 C 16.90625 -5.179688 18.742188 -4.953125 20.921875 -4.953125 C 23.015625 -4.953125 24.789062 -5.164062 26.25 -5.59375 C 27.71875 -6.019531 28.910156 -6.570312 29.828125 -7.25 C 30.742188 -7.925781 31.414062 -8.628906 31.84375 -9.359375 C 32.28125 -10.085938 32.515625 -10.742188 32.546875 -11.328125 L 20.40625 -11.328125 L 20.40625 -16.09375 L 39.4375 -16.09375 L 39.4375 0 L 33.921875 0 L 33.703125 -4.859375 C 32.242188 -3.285156 30.34375 -2.007812 28 -1.03125 C 25.664062 -0.0507812 22.875 0.4375 19.625 0.4375 Z M 19.625 0.4375 "/></g></g></g><g fill="#ffffff" fill-opacity="1"><g transform="translate(139.982673, 90.181763)"><g><path d="M 19.625 0.4375 C 15.925781 0.4375 12.734375 -0.171875 10.046875 -1.390625 C 7.367188 -2.617188 5.300781 -4.382812 3.84375 -6.6875 C 2.394531 -9 1.671875 -11.789062 1.671875 -15.0625 C 1.671875 -20 3.328125 -23.816406 6.640625 -26.515625 C 9.960938 -29.210938 14.722656 -30.5625 20.921875 -30.5625 C 24.941406 -30.5625 28.289062 -30.050781 30.96875 -29.03125 C 33.65625 -28.007812 35.703125 -26.59375 37.109375 -24.78125 C 38.515625 -22.976562 39.289062 -20.859375 39.4375 -18.421875 L 32.546875 -18.421875 C 32.429688 -19.054688 32.1875 -19.738281 31.8125 -20.46875 C 31.4375 -21.195312 30.832031 -21.890625 30 -22.546875 C 29.164062 -23.210938 28.015625 -23.757812 26.546875 -24.1875 C 25.085938 -24.625 23.210938 -24.84375 20.921875 -24.84375 C 18.742188 -24.84375 16.90625 -24.617188 15.40625 -24.171875 C 13.914062 -23.722656 12.710938 -23.132812 11.796875 -22.40625 C 10.878906 -21.675781 10.179688 -20.875 9.703125 -20 C 9.234375 -19.125 8.910156 -18.25 8.734375 -17.375 C 8.566406 -16.5 8.484375 -15.703125 8.484375 -14.984375 C 8.484375 -14.234375 8.566406 -13.410156 8.734375 -12.515625 C 8.910156 -11.628906 9.234375 -10.738281 9.703125 -9.84375 C 10.179688 -8.957031 10.878906 -8.148438 11.796875 -7.421875 C 12.710938 -6.691406 13.914062 -6.097656 15.40625 -5.640625 C 16.90625 -5.179688 18.742188 -4.953125 20.921875 -4.953125 C 23.015625 -4.953125 24.789062 -5.164062 26.25 -5.59375 C 27.71875 -6.019531 28.910156 -6.570312 29.828125 -7.25 C 30.742188 -7.925781 31.414062 -8.628906 31.84375 -9.359375 C 32.28125 -10.085938 32.515625 -10.742188 32.546875 -11.328125 L 20.40625 -11.328125 L 20.40625 -16.09375 L 39.4375 -16.09375 L 39.4375 0 L 33.921875 0 L 33.703125 -4.859375 C 32.242188 -3.285156 30.34375 -2.007812 28 -1.03125 C 25.664062 -0.0507812 22.875 0.4375 19.625 0.4375 Z M 19.625 0.4375 "/></g></g></g><g fill="#ffffff" fill-opacity="1"><g transform="translate(181.089675, 90.181763)"><g/></g></g><g fill="#ffffff" fill-opacity="1"><g transform="translate(201.44947, 90.181763)"><g><path d="M 16.78125 0 L 16.78125 -24.40625 L 1.671875 -24.40625 L 1.671875 -30.140625 L 38.703125 -30.140625 L 38.703125 -24.40625 L 23.59375 -24.40625 L 23.59375 0 Z M 16.78125 0 "/></g></g></g><g fill="#ffffff" fill-opacity="1"><g transform="translate(241.824725, 90.181763)"><g><path d="M 2.109375 0 L 2.109375 -30.140625 L 8.90625 -30.140625 L 8.90625 0 Z M 2.109375 0 "/></g></g></g><g fill="#ffffff" fill-opacity="1"><g transform="translate(252.843983, 90.181763)"><g><path d="M 2.109375 0 L 2.109375 -30.140625 L 8.90625 -30.140625 L 8.90625 -5.71875 L 33.109375 -5.71875 L 33.109375 0 Z M 2.109375 0 "/></g></g></g><g fill="#ffffff" fill-opacity="1"><g transform="translate(35.265071, 128.370266)"><g><path d="M 21.5625 0.4375 C 17.457031 0.4375 13.910156 0.144531 10.921875 -0.4375 C 7.941406 -1.03125 5.65625 -2.109375 4.0625 -3.671875 C 2.46875 -5.242188 1.671875 -7.460938 1.671875 -10.328125 L 8.484375 -10.328125 C 8.484375 -9.117188 8.875 -8.117188 9.65625 -7.328125 C 10.445312 -6.546875 11.828125 -5.96875 13.796875 -5.59375 C 15.765625 -5.21875 18.5 -5.03125 22 -5.03125 C 24.84375 -5.03125 27.085938 -5.160156 28.734375 -5.421875 C 30.378906 -5.679688 31.5625 -6.082031 32.28125 -6.625 C 33 -7.175781 33.359375 -7.894531 33.359375 -8.78125 C 33.359375 -9.5 33.203125 -10.078125 32.890625 -10.515625 C 32.578125 -10.960938 31.972656 -11.316406 31.078125 -11.578125 C 30.191406 -11.835938 28.9375 -12.046875 27.3125 -12.203125 C 25.6875 -12.359375 23.554688 -12.507812 20.921875 -12.65625 C 16.617188 -12.882812 13.128906 -13.300781 10.453125 -13.90625 C 7.785156 -14.507812 5.832031 -15.457031 4.59375 -16.75 C 3.363281 -18.039062 2.75 -19.804688 2.75 -22.046875 C 2.75 -24.253906 3.472656 -25.972656 4.921875 -27.203125 C 6.378906 -28.441406 8.441406 -29.3125 11.109375 -29.8125 C 13.773438 -30.3125 16.957031 -30.5625 20.65625 -30.5625 C 24.414062 -30.5625 27.660156 -30.222656 30.390625 -29.546875 C 33.117188 -28.878906 35.210938 -27.789062 36.671875 -26.28125 C 38.140625 -24.769531 38.875 -22.78125 38.875 -20.3125 L 32.0625 -20.3125 C 32.0625 -21.582031 31.644531 -22.5625 30.8125 -23.25 C 29.988281 -23.9375 28.675781 -24.414062 26.875 -24.6875 C 25.082031 -24.957031 22.722656 -25.09375 19.796875 -25.09375 C 17.078125 -25.09375 14.96875 -24.984375 13.46875 -24.765625 C 11.976562 -24.554688 10.953125 -24.195312 10.390625 -23.6875 C 9.835938 -23.1875 9.5625 -22.523438 9.5625 -21.703125 C 9.5625 -21.035156 9.71875 -20.488281 10.03125 -20.0625 C 10.34375 -19.632812 10.90625 -19.289062 11.71875 -19.03125 C 12.539062 -18.769531 13.695312 -18.550781 15.1875 -18.375 C 16.6875 -18.207031 18.597656 -18.050781 20.921875 -17.90625 C 23.898438 -17.738281 26.570312 -17.53125 28.9375 -17.28125 C 31.3125 -17.039062 33.332031 -16.632812 35 -16.0625 C 36.664062 -15.488281 37.941406 -14.644531 38.828125 -13.53125 C 39.710938 -12.425781 40.15625 -10.929688 40.15625 -9.046875 C 40.15625 -7.035156 39.695312 -5.40625 38.78125 -4.15625 C 37.863281 -2.90625 36.570312 -1.945312 34.90625 -1.28125 C 33.25 -0.625 31.285156 -0.175781 29.015625 0.0625 C 26.742188 0.3125 24.257812 0.4375 21.5625 0.4375 Z M 21.5625 0.4375 "/></g></g></g><g fill="#ffffff" fill-opacity="1"><g transform="translate(77.10382, 128.370266)"><g><path d="M 1.671875 0 L 18.078125 -30.140625 L 26.859375 -30.140625 L 43.265625 0 L 35.734375 0 L 32.0625 -6.671875 L 12.875 -6.671875 L 9.21875 0 Z M 15.5 -11.921875 L 29.4375 -11.921875 L 22.46875 -24.578125 Z M 15.5 -11.921875 "/></g></g></g><g fill="#ffffff" fill-opacity="1"><g transform="translate(122.041731, 128.370266)"><g><path d="M 2.109375 0 L 2.109375 -30.140625 L 11.53125 -30.140625 L 34.140625 -6.96875 L 34.140625 -30.140625 L 40.9375 -30.140625 L 40.9375 0 L 31.546875 0 L 8.90625 -23.15625 L 8.90625 0 Z M 2.109375 0 "/></g></g></g><g fill="#ffffff" fill-opacity="1"><g transform="translate(165.085707, 128.370266)"><g><path d="M 19.625 0.4375 C 15.925781 0.4375 12.734375 -0.171875 10.046875 -1.390625 C 7.367188 -2.617188 5.300781 -4.382812 3.84375 -6.6875 C 2.394531 -9 1.671875 -11.789062 1.671875 -15.0625 C 1.671875 -20 3.328125 -23.816406 6.640625 -26.515625 C 9.960938 -29.210938 14.722656 -30.5625 20.921875 -30.5625 C 24.941406 -30.5625 28.289062 -30.050781 30.96875 -29.03125 C 33.65625 -28.007812 35.703125 -26.59375 37.109375 -24.78125 C 38.515625 -22.976562 39.289062 -20.859375 39.4375 -18.421875 L 32.546875 -18.421875 C 32.429688 -19.054688 32.1875 -19.738281 31.8125 -20.46875 C 31.4375 -21.195312 30.832031 -21.890625 30 -22.546875 C 29.164062 -23.210938 28.015625 -23.757812 26.546875 -24.1875 C 25.085938 -24.625 23.210938 -24.84375 20.921875 -24.84375 C 18.742188 -24.84375 16.90625 -24.617188 15.40625 -24.171875 C 13.914062 -23.722656 12.710938 -23.132812 11.796875 -22.40625 C 10.878906 -21.675781 10.179688 -20.875 9.703125 -20 C 9.234375 -19.125 8.910156 -18.25 8.734375 -17.375 C 8.566406 -16.5 8.484375 -15.703125 8.484375 -14.984375 C 8.484375 -14.234375 8.566406 -13.410156 8.734375 -12.515625 C 8.910156 -11.628906 9.234375 -10.738281 9.703125 -9.84375 C 10.179688 -8.957031 10.878906 -8.148438 11.796875 -7.421875 C 12.710938 -6.691406 13.914062 -6.097656 15.40625 -5.640625 C 16.90625 -5.179688 18.742188 -4.953125 20.921875 -4.953125 C 23.015625 -4.953125 24.789062 -5.164062 26.25 -5.59375 C 27.71875 -6.019531 28.910156 -6.570312 29.828125 -7.25 C 30.742188 -7.925781 31.414062 -8.628906 31.84375 -9.359375 C 32.28125 -10.085938 32.515625 -10.742188 32.546875 -11.328125 L 20.40625 -11.328125 L 20.40625 -16.09375 L 39.4375 -16.09375 L 39.4375 0 L 33.921875 0 L 33.703125 -4.859375 C 32.242188 -3.285156 30.34375 -2.007812 28 -1.03125 C 25.664062 -0.0507812 22.875 0.4375 19.625 0.4375 Z M 19.625 0.4375 "/></g></g></g><g fill="#ffffff" fill-opacity="1"><g transform="translate(206.192709, 128.370266)"><g><path d="M 2.109375 0 L 2.109375 -30.140625 L 33.96875 -30.140625 L 33.96875 -24.671875 L 8.90625 -24.671875 L 8.90625 -17.65625 L 33.96875 -17.65625 L 33.96875 -12.484375 L 8.90625 -12.484375 L 8.90625 -5.46875 L 33.96875 -5.46875 L 33.96875 0 Z M 2.109375 0 "/></g></g></g><g fill="#ffffff" fill-opacity="1"><g transform="translate(241.833135, 128.370266)"><g><path d="M 2.109375 0 L 2.109375 -30.140625 L 25.78125 -30.140625 C 28.082031 -30.140625 30.09375 -29.695312 31.8125 -28.8125 C 33.53125 -27.9375 34.878906 -26.679688 35.859375 -25.046875 C 36.835938 -23.410156 37.328125 -21.472656 37.328125 -19.234375 C 37.328125 -16.710938 36.707031 -14.582031 35.46875 -12.84375 C 34.238281 -11.113281 32.5625 -9.875 30.4375 -9.125 L 36.078125 0 L 28.0625 0 L 22.984375 -8.3125 L 8.90625 -8.3125 L 8.90625 0 Z M 8.90625 -14.03125 L 23.625 -14.03125 C 24.289062 -14.03125 25.015625 -14.054688 25.796875 -14.109375 C 26.585938 -14.171875 27.34375 -14.359375 28.0625 -14.671875 C 28.78125 -14.992188 29.367188 -15.515625 29.828125 -16.234375 C 30.285156 -16.953125 30.515625 -17.953125 30.515625 -19.234375 C 30.515625 -20.523438 30.285156 -21.519531 29.828125 -22.21875 C 29.367188 -22.925781 28.78125 -23.4375 28.0625 -23.75 C 27.34375 -24.070312 26.585938 -24.257812 25.796875 -24.3125 C 25.015625 -24.375 24.289062 -24.40625 23.625 -24.40625 L 8.90625 -24.40625 Z M 8.90625 -14.03125 "/></g></g></g></svg>