<svg xmlns="http://www.w3.org/2000/svg" xmlns:xlink="http://www.w3.org/1999/xlink" width="405" zoomAndPan="magnify" viewBox="0 0 303.75 209.999996" height="280" preserveAspectRatio="xMidYMid meet" version="1.0"><defs><g/><clipPath id="b10a4c25d3"><path d="M 77 72 L 226 72 L 226 209.136719 L 77 209.136719 Z M 77 72 " clip-rule="nonzero"/></clipPath></defs><g clip-path="url(#b10a4c25d3)"><path fill="#000000" d="M 93.332031 184.855469 C 94.300781 185.292969 94.859375 186.320312 94.683594 187.34375 C 94.359375 189.394531 93.976562 191.445312 93.480469 193.464844 C 93.011719 195.488281 92.421875 197.507812 91.777344 199.472656 L 91.542969 200.203125 C 91.425781 200.523438 91.484375 200.875 91.660156 201.167969 C 91.835938 201.460938 92.128906 201.667969 92.480469 201.726562 L 141.199219 209.136719 C 141.257812 209.136719 141.316406 209.136719 141.375 209.136719 C 141.667969 209.136719 141.933594 209.046875 142.136719 208.84375 C 142.402344 208.609375 142.550781 208.285156 142.550781 207.9375 C 142.550781 207.527344 142.550781 207.144531 142.550781 206.734375 C 142.550781 202.488281 142.871094 198.183594 143.515625 193.964844 L 151.496094 141.5625 L 152.226562 141.386719 L 159.621094 189.71875 C 160.324219 194.316406 160.644531 199.03125 160.585938 203.6875 C 160.585938 204.039062 160.734375 204.363281 160.996094 204.597656 C 161.203125 204.773438 161.496094 204.890625 161.761719 204.890625 C 161.820312 204.890625 161.878906 204.890625 161.9375 204.890625 L 210.652344 197.449219 C 211.007812 197.390625 211.300781 197.1875 211.476562 196.894531 C 211.652344 196.601562 211.710938 196.25 211.59375 195.925781 L 211.359375 195.195312 C 210.066406 191.238281 209.097656 187.167969 208.453125 183.066406 C 208.425781 182.949219 208.425781 182.832031 208.425781 182.714844 C 208.425781 181.808594 208.980469 180.960938 209.804688 180.578125 C 215.257812 178.03125 219.628906 173.898438 222.503906 168.597656 C 225.40625 163.238281 226.433594 157.234375 225.523438 151.199219 L 223.824219 140.011719 C 223.179688 135.765625 220.890625 132.015625 217.429688 129.46875 C 213.96875 126.917969 209.714844 125.863281 205.460938 126.539062 L 201.09375 127.210938 C 200.828125 127.242188 200.5625 127.210938 200.328125 127.066406 C 200.300781 125.746094 200.269531 124.515625 200.242188 123.433594 C 200.152344 119.246094 197.132812 115.757812 193.085938 115.113281 C 190.738281 114.734375 188.273438 115.085938 186.074219 115.582031 C 187.511719 114.117188 189.214844 112.390625 190.417969 111.191406 C 191.648438 109.960938 192.382812 108.289062 192.527344 106.5625 C 192.792969 102.988281 190.445312 99.765625 186.957031 98.886719 C 183.875 98.125 180.648438 99.445312 178.976562 102.140625 L 170.414062 115.816406 C 170.148438 116.226562 169.765625 116.492188 169.355469 116.519531 C 168.945312 116.578125 168.535156 116.402344 168.300781 116.082031 C 168.035156 115.757812 167.949219 115.320312 168.097656 114.910156 C 168.507812 113.648438 168.300781 112.246094 167.507812 111.160156 C 166.71875 110.078125 165.425781 109.433594 164.105469 109.460938 L 163.050781 109.460938 C 161.496094 109.492188 160.089844 110.371094 159.382812 111.746094 L 156.832031 116.8125 C 156.304688 117.839844 155.132812 118.335938 154.015625 117.957031 C 153.371094 117.75 152.875 117.253906 152.636719 116.578125 C 152.375 115.875 152.460938 115.113281 152.875 114.46875 L 162.171875 99.621094 L 175.28125 85.179688 C 176.925781 83.363281 177.628906 80.84375 177.160156 78.441406 C 176.691406 76.070312 175.195312 74.136719 173.050781 73.082031 C 171.058594 72.144531 168.769531 72.085938 166.746094 72.9375 C 164.722656 73.816406 163.167969 75.484375 162.492188 77.59375 L 158.621094 89.601562 C 158.300781 90.597656 157.507812 91.359375 156.539062 91.566406 C 155.394531 91.800781 154.191406 91.300781 153.546875 90.304688 L 153.488281 90.21875 C 149.910156 84.625 144.457031 80.375 138.179688 78.265625 L 136.449219 77.683594 C 134.191406 76.921875 131.726562 77.300781 129.90625 78.734375 C 128.089844 80.140625 127.121094 82.367188 127.296875 84.652344 C 127.472656 86.9375 128.792969 88.988281 130.816406 90.101562 L 141.667969 96.132812 C 142.578125 96.632812 142.902344 97.804688 142.433594 98.769531 C 141.640625 100.410156 141.992188 102.375 143.28125 103.664062 L 144.894531 105.273438 C 145.394531 105.769531 145.570312 106.53125 145.304688 107.117188 C 145.101562 107.585938 144.75 107.9375 144.25 108.085938 C 143.78125 108.230469 143.253906 108.144531 142.84375 107.878906 L 141.054688 106.679688 C 139.148438 105.417969 136.59375 105.59375 134.980469 107.117188 C 134.015625 108.027344 133.484375 109.226562 133.484375 110.546875 C 133.484375 111.863281 133.957031 113.09375 134.894531 114 L 136.769531 115.875 C 137.5625 116.667969 137.710938 117.867188 137.179688 118.835938 C 136.828125 119.449219 136.59375 120.09375 136.390625 120.710938 L 136.332031 120.855469 C 136.300781 120.914062 136.242188 121.0625 136.15625 121.089844 C 136.066406 121.121094 135.773438 121.089844 135.304688 120.796875 L 132.957031 119.214844 C 130.257812 117.429688 126.855469 116.960938 123.632812 117.984375 C 122.078125 118.484375 119.464844 118.601562 117.882812 118.308594 L 115.976562 117.925781 C 115.683594 117.867188 115.390625 117.808594 115.066406 117.78125 C 112.074219 117.457031 109.054688 118.453125 106.796875 120.476562 C 104.476562 122.671875 103.160156 125.6875 103.21875 128.824219 L 103.246094 130.84375 C 103.011719 131.28125 102.542969 131.546875 102.042969 131.457031 L 97.671875 130.785156 C 93.421875 130.140625 89.167969 131.195312 85.707031 133.742188 C 82.246094 136.292969 79.988281 140.039062 79.3125 144.289062 L 77.582031 155.476562 C 76.671875 161.511719 77.699219 167.542969 80.601562 172.875 C 83.476562 178.175781 87.878906 182.304688 93.332031 184.855469 Z M 140.203125 206.617188 L 94.210938 199.617188 C 94.683594 198.125 95.121094 196.601562 95.503906 195.078125 L 140.320312 201.902344 C 140.261719 203.453125 140.203125 205.035156 140.203125 206.617188 Z M 208.921875 195.339844 L 162.933594 202.371094 C 162.933594 200.757812 162.875 199.148438 162.785156 197.566406 L 207.605469 190.742188 C 208.015625 192.265625 208.453125 193.816406 208.921875 195.339844 Z M 200.886719 151.785156 C 200.859375 150.847656 200.859375 149.851562 200.828125 148.796875 L 204.320312 171.558594 C 204.496094 172.730469 205.257812 173.722656 206.34375 174.222656 C 206.8125 174.425781 207.308594 174.542969 207.808594 174.542969 C 208.453125 174.542969 209.097656 174.367188 209.65625 174.015625 C 217.105469 169.390625 221.09375 160.777344 219.746094 152.078125 L 218.046875 140.890625 C 217.632812 138.195312 216.199219 135.824219 213.996094 134.183594 C 211.796875 132.570312 209.097656 131.898438 206.371094 132.308594 L 202 132.980469 C 201.445312 133.070312 200.945312 133.273438 200.503906 133.597656 C 200.476562 132.191406 200.445312 130.8125 200.417969 129.527344 C 200.769531 129.585938 201.121094 129.585938 201.472656 129.527344 L 205.84375 128.851562 C 209.480469 128.296875 213.117188 129.203125 216.082031 131.371094 C 219.042969 133.539062 220.976562 136.730469 221.535156 140.363281 L 223.238281 151.550781 C 224.9375 162.652344 219.011719 173.722656 208.835938 178.441406 C 207.164062 179.203125 206.078125 180.902344 206.078125 182.714844 C 206.078125 182.949219 206.109375 183.183594 206.136719 183.417969 C 206.402344 185.089844 206.695312 186.757812 207.074219 188.429688 L 162.640625 195.195312 C 162.464844 193.230469 162.257812 191.296875 161.964844 189.367188 L 154.515625 140.832031 L 156.453125 140.363281 C 156.511719 140.332031 156.570312 140.332031 156.628906 140.304688 C 158.886719 139.308594 161.410156 139.25 163.667969 140.011719 C 163.726562 140.1875 163.753906 140.332031 163.785156 140.507812 L 170.53125 184.53125 C 170.707031 185.761719 170.414062 186.992188 169.679688 188.019531 C 168.945312 189.015625 167.832031 189.6875 166.601562 189.863281 C 165.953125 189.953125 165.515625 190.566406 165.601562 191.210938 C 165.691406 191.796875 166.1875 192.207031 166.746094 192.207031 C 166.804688 192.207031 166.863281 192.207031 166.921875 192.207031 C 168.769531 191.914062 170.414062 190.945312 171.527344 189.425781 C 171.820312 189.042969 172.054688 188.632812 172.261719 188.222656 C 173.582031 189.660156 175.429688 190.539062 177.453125 190.539062 C 177.804688 190.539062 178.15625 190.507812 178.507812 190.449219 C 180.941406 190.070312 182.878906 188.515625 183.847656 186.4375 C 185.164062 187.871094 187.015625 188.75 189.039062 188.75 C 189.390625 188.75 189.742188 188.722656 190.09375 188.664062 C 191.941406 188.371094 193.582031 187.402344 194.699219 185.878906 C 194.992188 185.5 195.226562 185.089844 195.402344 184.679688 C 195.726562 185.03125 196.078125 185.324219 196.457031 185.617188 C 197.691406 186.523438 199.128906 186.992188 200.625 186.992188 C 200.976562 186.992188 201.355469 186.964844 201.707031 186.90625 C 202.355469 186.816406 202.792969 186.203125 202.675781 185.558594 C 202.558594 184.914062 201.972656 184.472656 201.328125 184.589844 C 200.09375 184.765625 198.863281 184.472656 197.835938 183.742188 C 196.839844 183.007812 196.164062 181.898438 195.988281 180.667969 L 192.910156 160.484375 L 193.054688 160.484375 C 197.574219 160.015625 200.976562 156.207031 200.886719 151.785156 Z M 202.324219 135.324219 L 206.695312 134.652344 C 207.105469 134.59375 207.515625 134.5625 207.898438 134.5625 C 209.570312 134.5625 211.183594 135.089844 212.558594 136.085938 C 214.261719 137.347656 215.375 139.160156 215.699219 141.242188 L 217.398438 152.429688 C 218.574219 160.191406 215.054688 167.894531 208.394531 172.027344 C 208.074219 172.230469 207.664062 172.261719 207.308594 172.085938 C 206.929688 171.910156 206.695312 171.585938 206.636719 171.175781 L 201.355469 136.613281 C 201.269531 136.027344 201.707031 135.414062 202.324219 135.324219 Z M 182.144531 182.746094 C 182.527344 185.292969 180.765625 187.695312 178.214844 188.078125 C 175.664062 188.457031 173.257812 186.699219 172.875 184.152344 L 166.335938 141.328125 C 166.570312 141.503906 166.804688 141.679688 167.011719 141.855469 L 167.128906 141.972656 C 169.121094 143.703125 171.910156 144.257812 174.402344 143.4375 L 174.546875 143.378906 C 175.019531 143.234375 175.546875 143.144531 176.074219 143.117188 Z M 178.507812 143.410156 C 179.210938 143.613281 179.914062 143.90625 180.5625 144.289062 C 182.027344 145.195312 182.9375 146.398438 183.140625 147.714844 L 183.992188 153.398438 C 184.519531 156.910156 187.25 159.605469 190.59375 160.28125 L 193.757812 180.960938 C 193.9375 182.1875 193.640625 183.417969 192.910156 184.445312 C 192.175781 185.441406 191.0625 186.113281 189.828125 186.289062 C 188.597656 186.464844 187.367188 186.171875 186.339844 185.441406 C 185.34375 184.707031 184.667969 183.59375 184.492188 182.363281 Z M 108.378906 122.289062 C 110.167969 120.679688 112.457031 119.917969 114.800781 120.183594 C 115.039062 120.210938 115.273438 120.242188 115.507812 120.300781 L 117.414062 120.679688 C 119.378906 121.0625 122.398438 120.914062 124.304688 120.300781 C 126.855469 119.507812 129.527344 119.832031 131.609375 121.238281 L 133.957031 122.816406 C 134.953125 123.460938 135.949219 123.667969 136.828125 123.375 C 137.59375 123.109375 138.179688 122.523438 138.472656 121.703125 L 138.53125 121.558594 C 138.734375 121.003906 138.910156 120.476562 139.175781 120.035156 C 140.230469 118.160156 139.878906 115.816406 138.382812 114.292969 L 136.507812 112.421875 C 136.039062 111.953125 135.773438 111.308594 135.773438 110.632812 C 135.773438 109.960938 136.066406 109.34375 136.535156 108.875 C 137.359375 108.085938 138.707031 107.996094 139.703125 108.671875 L 141.492188 109.871094 C 142.492188 110.546875 143.722656 110.722656 144.867188 110.371094 C 146.011719 110.019531 146.949219 109.199219 147.417969 108.085938 C 148.035156 106.589844 147.683594 104.863281 146.507812 103.664062 L 144.894531 102.050781 C 144.308594 101.464844 144.164062 100.585938 144.515625 99.824219 C 145.511719 97.714844 144.75 95.226562 142.785156 94.113281 L 131.902344 88.109375 C 130.554688 87.375 129.703125 86.058594 129.585938 84.535156 C 129.46875 83.011719 130.082031 81.578125 131.316406 80.640625 C 132.519531 79.703125 134.132812 79.46875 135.65625 79.964844 L 137.386719 80.550781 C 143.195312 82.484375 148.179688 86.382812 151.464844 91.535156 L 151.554688 91.625 C 152.726562 93.441406 154.898438 94.347656 157.007812 93.910156 C 158.769531 93.527344 160.234375 92.179688 160.820312 90.394531 L 164.695312 78.382812 C 165.164062 76.949219 166.21875 75.777344 167.625 75.164062 C 169.035156 74.578125 170.617188 74.605469 171.996094 75.25 C 173.464844 75.953125 174.519531 77.300781 174.8125 78.941406 C 175.136719 80.640625 174.664062 82.367188 173.492188 83.65625 L 160.351562 98.15625 C 160.292969 98.214844 160.265625 98.273438 160.234375 98.332031 L 150.878906 113.269531 C 150.117188 114.5 149.941406 116.023438 150.4375 117.398438 C 150.90625 118.71875 151.933594 119.742188 153.253906 120.210938 C 155.453125 120.945312 157.890625 119.949219 158.914062 117.898438 L 161.4375 112.828125 C 161.730469 112.214844 162.347656 111.835938 163.050781 111.835938 L 164.105469 111.835938 C 164.695312 111.835938 165.25 112.097656 165.601562 112.566406 C 165.953125 113.035156 166.042969 113.648438 165.867188 114.207031 C 165.484375 115.378906 165.691406 116.636719 166.484375 117.574219 C 167.246094 118.511719 168.417969 119.011719 169.621094 118.863281 C 170.734375 118.746094 171.792969 118.074219 172.40625 117.046875 L 180.972656 103.371094 C 182.117188 101.523438 184.316406 100.644531 186.398438 101.171875 C 188.773438 101.757812 190.386719 103.957031 190.179688 106.386719 C 190.09375 107.585938 189.59375 108.699219 188.746094 109.550781 C 186.191406 112.128906 181.5 116.902344 181.5 116.902344 C 181.117188 117.28125 181.058594 117.839844 181.324219 118.308594 C 181.585938 118.777344 182.117188 118.980469 182.613281 118.863281 L 185.371094 118.160156 C 187.660156 117.605469 190.296875 117.078125 192.675781 117.457031 C 195.609375 117.925781 197.808594 120.476562 197.867188 123.519531 C 198.042969 130.636719 198.363281 143.789062 198.511719 151.84375 C 198.570312 155.066406 196.105469 157.820312 192.851562 158.113281 L 192.675781 158.140625 C 189.535156 158.433594 186.71875 156.207031 186.25 153.105469 L 185.402344 147.421875 C 185.105469 145.402344 183.789062 143.613281 181.734375 142.355469 C 180.09375 141.359375 178.183594 140.832031 176.367188 140.832031 C 175.457031 140.832031 174.578125 140.949219 173.757812 141.242188 L 173.609375 141.300781 C 171.878906 141.855469 169.972656 141.476562 168.59375 140.304688 L 168.476562 140.1875 C 167.449219 139.308594 166.335938 138.636719 165.105469 138.136719 C 165.046875 138.109375 164.988281 138.078125 164.929688 138.050781 C 161.996094 136.90625 158.679688 136.90625 155.746094 138.195312 L 148.503906 139.980469 C 145.597656 140.714844 143.195312 142.675781 141.933594 145.371094 C 141.582031 146.105469 140.9375 146.574219 140.144531 146.691406 C 139.351562 146.808594 138.589844 146.542969 138.03125 145.957031 L 135.421875 143.175781 C 133.339844 140.976562 129.964844 140.683594 127.53125 142.53125 C 126.652344 143.203125 125.539062 143.410156 124.480469 143.144531 L 123.632812 142.941406 C 121.871094 142.5 120.023438 142.792969 118.5 143.761719 C 116.972656 144.726562 115.917969 146.28125 115.566406 148.066406 L 115.007812 150.964844 C 114.625 152.898438 113.070312 154.421875 111.105469 154.6875 C 109.785156 154.890625 108.4375 154.480469 107.410156 153.632812 C 106.386719 152.753906 105.796875 151.492188 105.769531 150.144531 L 105.445312 128.851562 C 105.503906 126.332031 106.53125 123.960938 108.378906 122.289062 Z M 120.84375 187.082031 L 127.210938 145.3125 C 127.855469 145.109375 128.46875 144.785156 129.027344 144.375 C 130.464844 143.261719 132.519531 143.4375 133.777344 144.757812 L 136.359375 147.507812 L 130.113281 188.488281 C 129.9375 189.71875 129.261719 190.800781 128.265625 191.5625 C 127.269531 192.292969 126.007812 192.617188 124.773438 192.410156 C 122.222656 192.03125 120.464844 189.628906 120.84375 187.082031 Z M 118.527344 186.730469 C 118.351562 187.960938 117.675781 189.042969 116.679688 189.804688 C 115.683594 190.539062 114.421875 190.859375 113.1875 190.65625 C 110.636719 190.273438 108.878906 187.871094 109.257812 185.324219 L 113.6875 156.296875 C 115.59375 155.332031 117.003906 153.542969 117.441406 151.347656 L 118 148.445312 C 118.203125 147.304688 118.878906 146.308594 119.875 145.695312 C 120.875 145.078125 122.046875 144.875 123.191406 145.167969 L 124.042969 145.371094 C 124.304688 145.429688 124.597656 145.488281 124.863281 145.519531 Z M 79.898438 155.828125 L 81.601562 144.640625 C 82.15625 141.007812 84.09375 137.816406 87.054688 135.648438 C 90.019531 133.480469 93.65625 132.570312 97.292969 133.128906 L 101.664062 133.800781 C 102.21875 133.890625 102.777344 133.832031 103.277344 133.65625 L 103.335938 138.546875 C 102.777344 137.84375 102.015625 137.40625 101.132812 137.257812 L 96.765625 136.585938 C 91.164062 135.734375 85.941406 139.570312 85.089844 145.167969 L 83.390625 156.355469 C 82.070312 165.054688 86.03125 173.664062 93.507812 178.292969 C 94.066406 178.644531 94.710938 178.820312 95.355469 178.820312 C 95.855469 178.820312 96.355469 178.703125 96.824219 178.5 C 97.910156 178 98.671875 177.003906 98.847656 175.832031 L 103.453125 145.460938 L 103.511719 150.144531 C 103.539062 152.167969 104.449219 154.070312 105.972656 155.359375 C 107.410156 156.589844 109.289062 157.175781 111.164062 157 L 106.914062 184.972656 C 106.738281 186.203125 106.0625 187.285156 105.066406 188.046875 C 104.066406 188.78125 102.804688 189.101562 101.574219 188.898438 C 100.929688 188.808594 100.34375 189.25 100.226562 189.863281 C 100.136719 190.507812 100.578125 191.09375 101.191406 191.210938 C 101.546875 191.269531 101.925781 191.296875 102.277344 191.296875 C 103.773438 191.296875 105.210938 190.828125 106.445312 189.921875 C 106.824219 189.628906 107.175781 189.335938 107.5 188.984375 C 107.703125 189.394531 107.9375 189.804688 108.203125 190.1875 C 109.316406 191.707031 110.960938 192.675781 112.808594 192.96875 C 113.160156 193.027344 113.542969 193.054688 113.894531 193.054688 C 115.390625 193.054688 116.828125 192.585938 118.058594 191.679688 C 118.441406 191.386719 118.792969 191.09375 119.113281 190.742188 C 120.082031 192.792969 122.019531 194.375 124.421875 194.726562 C 124.773438 194.785156 125.15625 194.8125 125.507812 194.8125 C 127.003906 194.8125 128.441406 194.34375 129.671875 193.4375 C 130.054688 193.144531 130.40625 192.851562 130.730469 192.5 C 131.695312 194.550781 133.632812 196.132812 136.066406 196.484375 C 136.125 196.484375 136.183594 196.484375 136.242188 196.484375 C 136.800781 196.484375 137.300781 196.074219 137.386719 195.488281 C 137.476562 194.84375 137.035156 194.257812 136.390625 194.140625 C 133.839844 193.757812 132.078125 191.355469 132.460938 188.808594 L 138.558594 148.796875 C 139.207031 148.972656 139.910156 149.03125 140.582031 148.914062 C 142.136719 148.679688 143.457031 147.683594 144.105469 146.28125 C 145.070312 144.230469 146.859375 142.765625 149.058594 142.179688 L 141.230469 193.613281 C 140.9375 195.574219 140.703125 197.539062 140.523438 199.527344 L 96.058594 192.792969 C 96.441406 191.09375 96.765625 189.394531 97 187.695312 C 97.320312 185.617188 96.238281 183.625 94.300781 182.714844 C 84.152344 178 78.226562 166.929688 79.898438 155.828125 Z M 101.78125 140.917969 L 96.5 175.480469 C 96.441406 175.890625 96.207031 176.214844 95.824219 176.390625 C 95.472656 176.566406 95.0625 176.535156 94.742188 176.332031 C 88.082031 172.203125 84.535156 164.5 85.707031 156.734375 L 87.40625 145.546875 C 88.054688 141.242188 92.101562 138.285156 96.414062 138.925781 L 100.78125 139.601562 C 101.429688 139.6875 101.867188 140.273438 101.78125 140.917969 Z M 101.78125 140.917969 " fill-opacity="1" fill-rule="nonzero"/></g><path fill="#000000" d="M 108.4375 104.804688 C 108.4375 107.382812 110.550781 109.492188 113.128906 109.492188 C 115.710938 109.492188 117.824219 107.382812 117.824219 104.804688 C 117.824219 102.226562 115.710938 100.117188 113.128906 100.117188 C 110.550781 100.117188 108.4375 102.226562 108.4375 104.804688 Z M 115.476562 104.804688 C 115.476562 106.09375 114.421875 107.148438 113.128906 107.148438 C 111.839844 107.148438 110.785156 106.09375 110.785156 104.804688 C 110.785156 103.515625 111.839844 102.460938 113.128906 102.460938 C 114.421875 102.460938 115.476562 103.515625 115.476562 104.804688 Z M 115.476562 104.804688 " fill-opacity="1" fill-rule="nonzero"/><path fill="#000000" d="M 190.5625 75.515625 C 190.5625 73.582031 188.980469 72 187.042969 72 C 185.105469 72 183.523438 73.582031 183.523438 75.515625 C 183.523438 77.449219 185.105469 79.027344 187.042969 79.027344 C 188.980469 79.027344 190.5625 77.449219 190.5625 75.515625 Z M 187.042969 76.6875 C 186.398438 76.6875 185.871094 76.160156 185.871094 75.515625 C 185.871094 74.871094 186.398438 74.34375 187.042969 74.34375 C 187.6875 74.34375 188.214844 74.871094 188.214844 75.515625 C 188.214844 76.160156 187.6875 76.6875 187.042969 76.6875 Z M 187.042969 76.6875 " fill-opacity="1" fill-rule="nonzero"/><path fill="#000000" d="M 191.734375 97.773438 C 193.671875 97.773438 195.253906 96.191406 195.253906 94.261719 C 195.253906 92.328125 193.671875 90.746094 191.734375 90.746094 C 189.800781 90.746094 188.214844 92.328125 188.214844 94.261719 C 188.214844 96.191406 189.800781 97.773438 191.734375 97.773438 Z M 191.734375 93.089844 C 192.382812 93.089844 192.910156 93.617188 192.910156 94.261719 C 192.910156 94.90625 192.382812 95.429688 191.734375 95.429688 C 191.089844 95.429688 190.5625 94.90625 190.5625 94.261719 C 190.5625 93.617188 191.089844 93.089844 191.734375 93.089844 Z M 191.734375 93.089844 " fill-opacity="1" fill-rule="nonzero"/><path fill="#000000" d="M 122.515625 80.199219 C 122.515625 78.265625 120.933594 76.6875 118.996094 76.6875 C 117.0625 76.6875 115.476562 78.265625 115.476562 80.199219 C 115.476562 82.132812 117.0625 83.714844 118.996094 83.714844 C 120.933594 83.714844 122.515625 82.132812 122.515625 80.199219 Z M 117.824219 80.199219 C 117.824219 79.554688 118.351562 79.027344 118.996094 79.027344 C 119.640625 79.027344 120.171875 79.554688 120.171875 80.199219 C 120.171875 80.84375 119.640625 81.371094 118.996094 81.371094 C 118.351562 81.371094 117.824219 80.84375 117.824219 80.199219 Z M 117.824219 80.199219 " fill-opacity="1" fill-rule="nonzero"/><path fill="#000000" d="M 144.808594 125.894531 C 146.742188 125.894531 148.328125 124.3125 148.328125 122.378906 C 148.328125 120.445312 146.742188 118.863281 144.808594 118.863281 C 142.871094 118.863281 141.289062 120.445312 141.289062 122.378906 C 141.289062 124.3125 142.871094 125.894531 144.808594 125.894531 Z M 144.808594 121.207031 C 145.453125 121.207031 145.980469 121.734375 145.980469 122.378906 C 145.980469 123.023438 145.453125 123.550781 144.808594 123.550781 C 144.164062 123.550781 143.632812 123.023438 143.632812 122.378906 C 143.632812 121.734375 144.164062 121.207031 144.808594 121.207031 Z M 144.808594 121.207031 " fill-opacity="1" fill-rule="nonzero"/><path fill="#000000" d="M 151.847656 102.460938 C 153.78125 102.460938 155.367188 100.878906 155.367188 98.945312 C 155.367188 97.011719 153.78125 95.429688 151.847656 95.429688 C 149.910156 95.429688 148.328125 97.011719 148.328125 98.945312 C 148.328125 100.878906 149.910156 102.460938 151.847656 102.460938 Z M 151.847656 97.773438 C 152.492188 97.773438 153.019531 98.300781 153.019531 98.945312 C 153.019531 99.589844 152.492188 100.117188 151.847656 100.117188 C 151.203125 100.117188 150.671875 99.589844 150.671875 98.945312 C 150.671875 98.300781 151.203125 97.773438 151.847656 97.773438 Z M 151.847656 97.773438 " fill-opacity="1" fill-rule="nonzero"/><g fill="#000000" fill-opacity="1"><g transform="translate(26.341754, 58.791794)"><g><path d="M 3.578125 -17.234375 L 6.25 -31.015625 L 11.84375 -31.015625 L 10.125 -17.234375 Z M 13.140625 -17.234375 L 15.8125 -31.015625 L 21.40625 -31.015625 L 19.6875 -17.234375 Z M 13.140625 -17.234375 "/></g></g></g><g fill="#000000" fill-opacity="1"><g transform="translate(50.293029, 58.791794)"><g><path d="M 2.109375 0 L 2.109375 -30.15625 L 28.6875 -30.15625 C 30.988281 -30.15625 32.785156 -29.796875 34.078125 -29.078125 C 35.367188 -28.359375 36.285156 -27.394531 36.828125 -26.1875 C 37.378906 -24.976562 37.65625 -23.644531 37.65625 -22.1875 C 37.65625 -21.09375 37.457031 -20.035156 37.0625 -19.015625 C 36.675781 -17.992188 36.082031 -17.066406 35.28125 -16.234375 C 36.601562 -15.515625 37.632812 -14.535156 38.375 -13.296875 C 39.125 -12.066406 39.5 -10.550781 39.5 -8.75 C 39.5 -7.050781 39.15625 -5.539062 38.46875 -4.21875 C 37.78125 -2.894531 36.71875 -1.859375 35.28125 -1.109375 C 33.84375 -0.367188 31.976562 0 29.6875 0 Z M 8.921875 -18 L 26.5 -18 C 27.300781 -18 28.023438 -18.050781 28.671875 -18.15625 C 29.316406 -18.257812 29.835938 -18.550781 30.234375 -19.03125 C 30.640625 -19.519531 30.84375 -20.34375 30.84375 -21.5 C 30.84375 -22.675781 30.640625 -23.507812 30.234375 -24 C 29.835938 -24.488281 29.316406 -24.78125 28.671875 -24.875 C 28.023438 -24.976562 27.300781 -25.03125 26.5 -25.03125 L 8.921875 -25.03125 Z M 8.921875 -5.390625 L 28.296875 -5.390625 C 29.109375 -5.390625 29.84375 -5.4375 30.5 -5.53125 C 31.15625 -5.632812 31.6875 -5.9375 32.09375 -6.4375 C 32.5 -6.9375 32.703125 -7.789062 32.703125 -9 C 32.703125 -10.207031 32.5 -11.0625 32.09375 -11.5625 C 31.6875 -12.070312 31.15625 -12.375 30.5 -12.46875 C 29.84375 -12.570312 29.109375 -12.625 28.296875 -12.625 L 8.921875 -12.625 Z M 8.921875 -5.390625 "/></g></g></g><g fill="#000000" fill-opacity="1"><g transform="translate(91.475441, 58.791794)"><g><path d="M 12.015625 3.65625 L 13.1875 -0.34375 C 9.1875 -1.257812 6.269531 -2.984375 4.4375 -5.515625 C 2.601562 -8.046875 1.6875 -11.25 1.6875 -15.125 C 1.6875 -18.394531 2.34375 -21.1875 3.65625 -23.5 C 4.976562 -25.8125 7.03125 -27.566406 9.8125 -28.765625 C 12.601562 -29.972656 16.210938 -30.578125 20.640625 -30.578125 C 20.890625 -30.578125 21.148438 -30.578125 21.421875 -30.578125 C 21.703125 -30.578125 21.972656 -30.566406 22.234375 -30.546875 L 23.21875 -33.8125 L 29.296875 -33.8125 L 28.09375 -29.8125 C 32.082031 -28.914062 34.992188 -27.203125 36.828125 -24.671875 C 38.671875 -22.148438 39.59375 -18.96875 39.59375 -15.125 C 39.59375 -11.84375 38.929688 -9.046875 37.609375 -6.734375 C 36.285156 -4.429688 34.226562 -2.660156 31.4375 -1.421875 C 28.65625 -0.179688 25.054688 0.4375 20.640625 0.4375 C 20.378906 0.4375 20.109375 0.4375 19.828125 0.4375 C 19.554688 0.4375 19.296875 0.421875 19.046875 0.390625 L 18.09375 3.65625 Z M 14.859375 -5.9375 L 20.546875 -24.859375 C 17.617188 -24.796875 15.269531 -24.421875 13.5 -23.734375 C 11.738281 -23.046875 10.460938 -22 9.671875 -20.59375 C 8.878906 -19.1875 8.484375 -17.363281 8.484375 -15.125 C 8.484375 -12.539062 9.003906 -10.515625 10.046875 -9.046875 C 11.097656 -7.578125 12.703125 -6.539062 14.859375 -5.9375 Z M 20.765625 -5.296875 C 23.691406 -5.359375 26.03125 -5.738281 27.78125 -6.4375 C 29.53125 -7.144531 30.800781 -8.207031 31.59375 -9.625 C 32.382812 -11.050781 32.78125 -12.882812 32.78125 -15.125 C 32.78125 -17.675781 32.265625 -19.679688 31.234375 -21.140625 C 30.203125 -22.609375 28.59375 -23.628906 26.40625 -24.203125 Z M 20.765625 -5.296875 "/></g></g></g><g fill="#000000" fill-opacity="1"><g transform="translate(132.744002, 58.791794)"><g><path d="M 2.109375 0 L 2.109375 -30.15625 L 25.796875 -30.15625 C 28.097656 -30.15625 30.109375 -29.71875 31.828125 -28.84375 C 33.554688 -27.96875 34.90625 -26.707031 35.875 -25.0625 C 36.851562 -23.425781 37.34375 -21.488281 37.34375 -19.25 C 37.34375 -16.726562 36.722656 -14.597656 35.484375 -12.859375 C 34.253906 -11.117188 32.578125 -9.875 30.453125 -9.125 L 36.09375 0 L 28.09375 0 L 23 -8.3125 L 8.921875 -8.3125 L 8.921875 0 Z M 8.921875 -14.046875 L 23.65625 -14.046875 C 24.3125 -14.046875 25.035156 -14.070312 25.828125 -14.125 C 26.617188 -14.1875 27.367188 -14.375 28.078125 -14.6875 C 28.796875 -15 29.382812 -15.515625 29.84375 -16.234375 C 30.3125 -16.953125 30.546875 -17.957031 30.546875 -19.25 C 30.546875 -20.539062 30.3125 -21.539062 29.84375 -22.25 C 29.382812 -22.957031 28.796875 -23.46875 28.078125 -23.78125 C 27.367188 -24.09375 26.617188 -24.273438 25.828125 -24.328125 C 25.035156 -24.390625 24.3125 -24.421875 23.65625 -24.421875 L 8.921875 -24.421875 Z M 8.921875 -14.046875 "/></g></g></g><g fill="#000000" fill-opacity="1"><g transform="translate(171.77252, 58.791794)"><g><path d="M 21.578125 0.4375 C 17.472656 0.4375 13.925781 0.144531 10.9375 -0.4375 C 7.957031 -1.03125 5.671875 -2.109375 4.078125 -3.671875 C 2.484375 -5.242188 1.6875 -7.46875 1.6875 -10.34375 L 8.484375 -10.34375 C 8.484375 -9.132812 8.878906 -8.132812 9.671875 -7.34375 C 10.460938 -6.550781 11.835938 -5.96875 13.796875 -5.59375 C 15.765625 -5.226562 18.503906 -5.046875 22.015625 -5.046875 C 24.859375 -5.046875 27.101562 -5.171875 28.75 -5.421875 C 30.40625 -5.679688 31.59375 -6.082031 32.3125 -6.625 C 33.03125 -7.175781 33.390625 -7.894531 33.390625 -8.78125 C 33.390625 -9.5 33.226562 -10.082031 32.90625 -10.53125 C 32.59375 -10.976562 31.988281 -11.328125 31.09375 -11.578125 C 30.207031 -11.835938 28.953125 -12.046875 27.328125 -12.203125 C 25.710938 -12.367188 23.582031 -12.523438 20.9375 -12.671875 C 16.625 -12.898438 13.132812 -13.3125 10.46875 -13.90625 C 7.800781 -14.507812 5.847656 -15.457031 4.609375 -16.75 C 3.367188 -18.050781 2.75 -19.820312 2.75 -22.0625 C 2.75 -24.269531 3.472656 -25.988281 4.921875 -27.21875 C 6.378906 -28.457031 8.441406 -29.328125 11.109375 -29.828125 C 13.785156 -30.328125 16.972656 -30.578125 20.671875 -30.578125 C 24.441406 -30.578125 27.6875 -30.238281 30.40625 -29.5625 C 33.132812 -28.894531 35.234375 -27.804688 36.703125 -26.296875 C 38.171875 -24.785156 38.90625 -22.796875 38.90625 -20.328125 L 32.09375 -20.328125 C 32.09375 -21.597656 31.675781 -22.578125 30.84375 -23.265625 C 30.007812 -23.953125 28.691406 -24.429688 26.890625 -24.703125 C 25.097656 -24.972656 22.738281 -25.109375 19.8125 -25.109375 C 17.082031 -25.109375 14.972656 -25 13.484375 -24.78125 C 11.992188 -24.570312 10.96875 -24.210938 10.40625 -23.703125 C 9.84375 -23.203125 9.5625 -22.539062 9.5625 -21.71875 C 9.5625 -21.050781 9.71875 -20.5 10.03125 -20.0625 C 10.351562 -19.632812 10.921875 -19.289062 11.734375 -19.03125 C 12.554688 -18.78125 13.710938 -18.566406 15.203125 -18.390625 C 16.703125 -18.222656 18.613281 -18.066406 20.9375 -17.921875 C 23.925781 -17.742188 26.601562 -17.535156 28.96875 -17.296875 C 31.34375 -17.054688 33.359375 -16.644531 35.015625 -16.0625 C 36.679688 -15.488281 37.957031 -14.648438 38.84375 -13.546875 C 39.738281 -12.441406 40.1875 -10.941406 40.1875 -9.046875 C 40.1875 -7.035156 39.726562 -5.40625 38.8125 -4.15625 C 37.894531 -2.90625 36.601562 -1.945312 34.9375 -1.28125 C 33.269531 -0.625 31.300781 -0.175781 29.03125 0.0625 C 26.757812 0.3125 24.273438 0.4375 21.578125 0.4375 Z M 21.578125 0.4375 "/></g></g></g><g fill="#000000" fill-opacity="1"><g transform="translate(213.64418, 58.791794)"><g><path d="M 16.796875 0 L 16.796875 -24.421875 L 1.6875 -24.421875 L 1.6875 -30.15625 L 38.734375 -30.15625 L 38.734375 -24.421875 L 23.609375 -24.421875 L 23.609375 0 Z M 16.796875 0 "/></g></g></g><g fill="#000000" fill-opacity="1"><g transform="translate(254.051195, 58.791794)"><g><path d="M 2.546875 -17.234375 L 4.265625 -31.015625 L 10.859375 -31.015625 L 8.140625 -17.234375 Z M 12.109375 -17.234375 L 13.828125 -31.015625 L 20.421875 -31.015625 L 17.703125 -17.234375 Z M 12.109375 -17.234375 "/></g></g></g></svg>