<svg xmlns="http://www.w3.org/2000/svg" xmlns:xlink="http://www.w3.org/1999/xlink" width="500" zoomAndPan="magnify" viewBox="0 0 375 374.999991" height="500" preserveAspectRatio="xMidYMid meet" version="1.0"><defs><clipPath id="4937a99125"><path d="M 100 356 L 107 356 L 107 362.25 L 100 362.25 Z M 100 356 " clip-rule="nonzero"/></clipPath></defs><path fill="#000000" d="M 38.867188 46.742188 C 37.253906 46.742188 35.917969 45.4375 35.917969 43.820312 C 35.917969 42.207031 37.195312 40.898438 38.804688 40.898438 L 38.867188 40.898438 C 40.476562 40.898438 41.789062 42.207031 41.789062 43.820312 C 41.789062 45.4375 40.476562 46.742188 38.867188 46.742188 Z M 38.867188 46.742188 " fill-opacity="1" fill-rule="nonzero"/><path fill="#000000" d="M 313.546875 297.980469 C 311.929688 297.980469 310.597656 296.671875 310.597656 295.058594 C 310.597656 293.441406 311.875 292.136719 313.484375 292.136719 L 313.546875 292.136719 C 315.15625 292.136719 316.46875 293.441406 316.46875 295.058594 C 316.46875 296.671875 315.15625 297.980469 313.546875 297.980469 Z M 313.546875 297.980469 " fill-opacity="1" fill-rule="nonzero"/><g clip-path="url(#4937a99125)"><path fill="#000000" d="M 103.15625 362.25 C 101.539062 362.25 100.203125 360.941406 100.203125 359.328125 C 100.203125 357.714844 101.484375 356.40625 103.09375 356.40625 L 103.15625 356.40625 C 104.765625 356.40625 106.078125 357.714844 106.078125 359.328125 C 106.078125 360.941406 104.765625 362.25 103.15625 362.25 Z M 103.15625 362.25 " fill-opacity="1" fill-rule="nonzero"/></g><path fill="#000000" d="M 38.867188 274.609375 C 37.253906 274.609375 35.917969 273.300781 35.917969 271.6875 C 35.917969 270.070312 37.195312 268.765625 38.804688 268.765625 L 38.867188 268.765625 C 40.476562 268.765625 41.789062 270.070312 41.789062 271.6875 C 41.789062 273.300781 40.476562 274.609375 38.867188 274.609375 Z M 38.867188 274.609375 " fill-opacity="1" fill-rule="nonzero"/><path fill="#000000" d="M 360.300781 87.914062 C 358.683594 87.914062 357.351562 86.609375 357.351562 84.992188 C 357.351562 83.378906 358.628906 82.070312 360.238281 82.070312 L 360.300781 82.070312 C 361.910156 82.070312 363.222656 83.378906 363.222656 84.992188 C 363.222656 86.609375 361.910156 87.914062 360.300781 87.914062 Z M 360.300781 87.914062 " fill-opacity="1" fill-rule="nonzero"/><path fill="#000000" d="M 187.71875 338.878906 C 116.824219 338.878906 59.144531 281.214844 59.144531 210.339844 C 59.144531 139.460938 116.824219 81.800781 187.71875 81.800781 C 223 81.800781 255.910156 95.800781 280.375 121.226562 C 281.496094 122.390625 281.460938 124.238281 280.296875 125.355469 C 279.144531 126.480469 277.296875 126.441406 276.164062 125.277344 C 252.8125 101.003906 221.398438 87.640625 187.71875 87.640625 C 120.050781 87.640625 64.992188 142.683594 64.992188 210.339844 C 64.992188 277.992188 120.050781 333.035156 187.71875 333.035156 C 255.390625 333.035156 310.449219 277.992188 310.449219 210.339844 C 310.449219 193.484375 307.09375 177.152344 300.472656 161.8125 C 299.832031 160.328125 300.519531 158.609375 301.996094 157.972656 C 303.46875 157.320312 305.203125 158.015625 305.835938 159.496094 C 312.777344 175.578125 316.292969 192.683594 316.292969 210.339844 C 316.292969 281.214844 258.613281 338.878906 187.71875 338.878906 Z M 187.71875 338.878906 " fill-opacity="1" fill-rule="nonzero"/><path fill="#000000" d="M 217.496094 324.757812 C 217.300781 324.757812 217.105469 324.738281 216.910156 324.699219 C 215.332031 324.378906 214.304688 322.84375 214.625 321.257812 C 214.738281 320.683594 226.253906 262.621094 226.253906 210.339844 C 226.253906 158.039062 214.738281 99.996094 214.625 99.417969 C 214.304688 97.832031 215.332031 96.296875 216.910156 95.976562 C 218.46875 95.65625 220.035156 96.679688 220.351562 98.265625 C 220.472656 98.851562 232.097656 157.460938 232.097656 210.339844 C 232.097656 263.214844 220.472656 321.824219 220.351562 322.410156 C 220.074219 323.796875 218.859375 324.757812 217.496094 324.757812 Z M 217.496094 324.757812 " fill-opacity="1" fill-rule="nonzero"/><path fill="#000000" d="M 246.710938 313.070312 C 246.382812 313.070312 246.058594 313.019531 245.734375 312.90625 C 244.214844 312.363281 243.417969 310.695312 243.953125 309.171875 C 244.128906 308.683594 261.320312 259.480469 261.320312 210.339844 C 261.320312 161.1875 244.128906 111.992188 243.953125 111.503906 C 243.417969 109.980469 244.214844 108.3125 245.734375 107.773438 C 247.253906 107.230469 248.917969 108.027344 249.464844 109.550781 C 249.644531 110.054688 267.164062 160.160156 267.164062 210.339844 C 267.164062 260.507812 249.644531 310.625 249.464844 311.125 C 249.039062 312.324219 247.914062 313.070312 246.710938 313.070312 Z M 246.710938 313.070312 " fill-opacity="1" fill-rule="nonzero"/><path fill="#000000" d="M 275.929688 289.820312 C 275.519531 289.820312 275.101562 289.734375 274.710938 289.550781 C 273.242188 288.878906 272.601562 287.136719 273.277344 285.675781 C 273.449219 285.300781 290.539062 247.769531 290.539062 210.339844 C 290.539062 198.898438 288.960938 186.34375 285.84375 173.039062 C 285.480469 171.464844 286.453125 169.894531 288.023438 169.527344 C 289.65625 169.160156 291.167969 170.140625 291.539062 171.703125 C 294.75 185.449219 296.382812 198.449219 296.382812 210.339844 C 296.382812 249.082031 279.308594 286.542969 278.585938 288.121094 C 278.09375 289.191406 277.03125 289.820312 275.929688 289.820312 Z M 275.929688 289.820312 " fill-opacity="1" fill-rule="nonzero"/><path fill="#000000" d="M 148.195312 186.96875 C 148.140625 186.96875 148.082031 186.96875 148.019531 186.960938 C 146.410156 186.863281 145.183594 185.480469 145.28125 183.871094 C 147.945312 139.730469 156.101562 98.675781 156.179688 98.265625 C 156.5 96.679688 158.070312 95.664062 159.621094 95.976562 C 161.203125 96.296875 162.230469 97.832031 161.910156 99.417969 C 161.832031 99.824219 153.75 140.5 151.113281 184.222656 C 151.023438 185.773438 149.730469 186.96875 148.195312 186.96875 Z M 148.195312 186.96875 " fill-opacity="1" fill-rule="nonzero"/><path fill="#000000" d="M 159.039062 324.757812 C 157.675781 324.757812 156.460938 323.796875 156.179688 322.410156 C 156.101562 322 147.945312 280.949219 145.28125 236.808594 C 145.183594 235.199219 146.410156 233.8125 148.019531 233.714844 C 149.804688 233.5625 151.019531 234.84375 151.113281 236.453125 C 153.753906 280.195312 161.832031 320.855469 161.910156 321.257812 C 162.230469 322.84375 161.203125 324.378906 159.621094 324.699219 C 159.429688 324.738281 159.234375 324.757812 159.039062 324.757812 Z M 159.039062 324.757812 " fill-opacity="1" fill-rule="nonzero"/><path fill="#000000" d="M 129.824219 313.070312 C 128.621094 313.070312 127.496094 312.324219 127.066406 311.125 C 126.890625 310.621094 109.371094 260.507812 109.371094 210.339844 C 109.371094 160.167969 126.890625 110.054688 127.066406 109.550781 C 127.609375 108.035156 129.277344 107.246094 130.800781 107.769531 C 132.320312 108.3125 133.117188 109.980469 132.582031 111.503906 C 132.402344 111.992188 115.214844 161.195312 115.214844 210.339844 C 115.214844 259.480469 132.402344 308.683594 132.582031 309.171875 C 133.117188 310.695312 132.320312 312.363281 130.800781 312.90625 C 130.476562 313.019531 130.148438 313.070312 129.824219 313.070312 Z M 129.824219 313.070312 " fill-opacity="1" fill-rule="nonzero"/><path fill="#000000" d="M 100.601562 289.820312 C 99.5 289.820312 98.441406 289.191406 97.949219 288.121094 C 97.222656 286.542969 80.148438 249.074219 80.148438 210.339844 C 80.148438 171.597656 97.222656 134.132812 97.949219 132.558594 C 98.621094 131.085938 100.378906 130.457031 101.824219 131.125 C 103.292969 131.796875 103.929688 133.53125 103.257812 135 C 103.085938 135.375 85.992188 172.910156 85.992188 210.339844 C 85.992188 247.761719 103.085938 285.300781 103.257812 285.675781 C 103.929688 287.144531 103.292969 288.878906 101.824219 289.550781 C 101.429688 289.734375 101.015625 289.820312 100.601562 289.820312 Z M 100.601562 289.820312 " fill-opacity="1" fill-rule="nonzero"/><path fill="#000000" d="M 126.355469 213.261719 L 70.898438 213.261719 C 69.28125 213.261719 67.976562 211.953125 67.976562 210.339844 C 67.976562 208.722656 69.28125 207.417969 70.898438 207.417969 L 126.355469 207.417969 C 127.96875 207.417969 129.277344 208.722656 129.277344 210.339844 C 129.277344 211.953125 127.96875 213.261719 126.355469 213.261719 Z M 126.355469 213.261719 " fill-opacity="1" fill-rule="nonzero"/><path fill="#000000" d="M 305.636719 213.261719 L 167.265625 213.261719 C 165.648438 213.261719 164.34375 211.953125 164.34375 210.339844 C 164.34375 208.722656 165.648438 207.417969 167.265625 207.417969 L 305.636719 207.417969 C 307.25 207.417969 308.558594 208.722656 308.558594 210.339844 C 308.558594 211.953125 307.25 213.261719 305.636719 213.261719 Z M 305.636719 213.261719 " fill-opacity="1" fill-rule="nonzero"/><path fill="#000000" d="M 187.78125 253.671875 C 134.894531 253.671875 76.269531 242.050781 75.679688 241.929688 C 74.097656 241.609375 73.074219 240.078125 73.390625 238.492188 C 73.710938 236.90625 75.285156 235.878906 76.832031 236.203125 C 77.410156 236.316406 135.484375 247.832031 187.78125 247.832031 C 240.09375 247.832031 298.15625 236.316406 298.730469 236.203125 C 300.289062 235.871094 301.851562 236.910156 302.171875 238.492188 C 302.492188 240.078125 301.464844 241.609375 299.882812 241.929688 C 299.296875 242.050781 240.671875 253.671875 187.78125 253.671875 Z M 187.78125 253.671875 " fill-opacity="1" fill-rule="nonzero"/><path fill="#000000" d="M 187.78125 288.730469 C 137.597656 288.730469 87.472656 271.214844 86.96875 271.035156 C 85.453125 270.492188 84.652344 268.828125 85.1875 267.304688 C 85.734375 265.78125 87.402344 265 88.921875 265.523438 C 89.410156 265.699219 138.625 282.886719 187.78125 282.886719 C 236.9375 282.886719 286.152344 265.699219 286.640625 265.523438 C 288.160156 264.988281 289.828125 265.78125 290.375 267.304688 C 290.910156 268.828125 290.113281 270.492188 288.59375 271.035156 C 288.09375 271.214844 237.964844 288.730469 187.78125 288.730469 Z M 187.78125 288.730469 " fill-opacity="1" fill-rule="nonzero"/><path fill="#000000" d="M 187.78125 317.945312 C 149.03125 317.945312 111.554688 300.871094 109.980469 300.148438 C 108.511719 299.472656 107.875 297.734375 108.546875 296.273438 C 109.222656 294.800781 110.980469 294.171875 112.421875 294.839844 C 112.800781 295.011719 150.34375 312.101562 187.78125 312.101562 C 225.214844 312.101562 262.765625 295.011719 263.140625 294.839844 C 264.597656 294.171875 266.34375 294.800781 267.015625 296.273438 C 267.691406 297.738281 267.050781 299.472656 265.582031 300.148438 C 264.007812 300.871094 226.527344 317.945312 187.78125 317.945312 Z M 187.78125 317.945312 " fill-opacity="1" fill-rule="nonzero"/><path fill="#000000" d="M 76.25 183.5625 C 74.886719 183.5625 73.671875 182.601562 73.390625 181.214844 C 73.070312 179.628906 74.097656 178.09375 75.679688 177.777344 C 76.269531 177.65625 134.894531 166.03125 187.78125 166.03125 C 240.671875 166.03125 299.296875 177.65625 299.882812 177.777344 C 301.464844 178.09375 302.492188 179.628906 302.171875 181.214844 C 301.851562 182.800781 300.289062 183.816406 298.730469 183.503906 C 298.15625 183.390625 240.078125 171.875 187.78125 171.875 C 135.46875 171.875 77.410156 183.390625 76.832031 183.503906 C 76.640625 183.542969 76.445312 183.5625 76.25 183.5625 Z M 76.25 183.5625 " fill-opacity="1" fill-rule="nonzero"/><path fill="#000000" d="M 87.945312 154.347656 C 86.742188 154.347656 85.617188 153.601562 85.1875 152.402344 C 84.652344 150.878906 85.453125 149.210938 86.96875 148.671875 C 87.472656 148.492188 137.597656 130.976562 187.78125 130.976562 C 218.113281 130.976562 248.121094 137.242188 267.945312 142.496094 C 269.511719 142.914062 270.433594 144.511719 270.023438 146.070312 C 269.609375 147.625 268.039062 148.585938 266.453125 148.144531 C 246.953125 142.976562 217.484375 136.820312 187.78125 136.820312 C 138.625 136.820312 89.414062 154.003906 88.921875 154.183594 C 88.59375 154.296875 88.269531 154.347656 87.945312 154.347656 Z M 87.945312 154.347656 " fill-opacity="1" fill-rule="nonzero"/><path fill="#000000" d="M 111.203125 125.132812 C 110.101562 125.132812 109.039062 124.507812 108.546875 123.433594 C 107.875 121.96875 108.511719 120.234375 109.980469 119.558594 C 111.554688 118.835938 149.035156 101.761719 187.78125 101.761719 C 226.535156 101.761719 264.007812 118.835938 265.582031 119.558594 C 267.050781 120.234375 267.691406 121.972656 267.015625 123.433594 C 266.34375 124.90625 264.597656 125.539062 263.140625 124.867188 C 262.765625 124.695312 225.222656 107.605469 187.78125 107.605469 C 150.347656 107.605469 112.800781 124.695312 112.421875 124.867188 C 112.03125 125.046875 111.613281 125.132812 111.203125 125.132812 Z M 111.203125 125.132812 " fill-opacity="1" fill-rule="nonzero"/><path fill="#000000" d="M 187.78125 330.113281 C 186.167969 330.113281 184.859375 328.808594 184.859375 327.191406 L 184.859375 92.515625 C 184.859375 90.898438 186.167969 89.59375 187.78125 89.59375 C 189.398438 89.59375 190.703125 90.898438 190.703125 92.515625 L 190.703125 327.191406 C 190.703125 328.808594 189.398438 330.113281 187.78125 330.113281 Z M 187.78125 330.113281 " fill-opacity="1" fill-rule="nonzero"/><path fill="#000000" d="M 187.71875 75.957031 C 186.105469 75.957031 184.796875 74.648438 184.796875 73.035156 L 184.796875 2.921875 C 184.796875 1.308594 186.105469 0 187.71875 0 C 189.335938 0 190.640625 1.308594 190.640625 2.921875 L 190.640625 73.035156 C 190.640625 74.648438 189.335938 75.957031 187.71875 75.957031 Z M 187.71875 75.957031 " fill-opacity="1" fill-rule="nonzero"/><path fill="#000000" d="M 15.3125 163.597656 C 13.699219 163.597656 12.390625 162.289062 12.390625 160.675781 C 12.390625 147.105469 25.1875 140.78125 25.734375 140.515625 C 27.1875 139.816406 28.925781 140.425781 29.628906 141.867188 C 30.332031 143.316406 29.726562 145.0625 28.28125 145.773438 C 27.871094 145.976562 18.238281 150.816406 18.238281 160.675781 C 18.238281 162.289062 16.929688 163.597656 15.3125 163.597656 Z M 15.3125 163.597656 " fill-opacity="1" fill-rule="nonzero"/><path fill="#000000" d="M 27.003906 146.070312 C 26.574219 146.070312 26.140625 145.976562 25.734375 145.777344 C 25.1875 145.515625 12.390625 139.1875 12.390625 125.621094 C 12.390625 124.003906 13.699219 122.699219 15.3125 122.699219 C 16.929688 122.699219 18.238281 124.003906 18.238281 125.621094 C 18.238281 135.558594 28.171875 140.464844 28.269531 140.515625 C 29.726562 141.21875 30.335938 142.964844 29.632812 144.414062 C 29.132812 145.457031 28.085938 146.070312 27.003906 146.070312 Z M 27.003906 146.070312 " fill-opacity="1" fill-rule="nonzero"/><path fill="#000000" d="M 3.632812 146.070312 C 2.546875 146.070312 1.507812 145.464844 1 144.425781 C 0.296875 142.976562 0.902344 141.230469 2.347656 140.523438 C 2.757812 140.316406 12.390625 135.480469 12.390625 125.617188 C 12.390625 124.003906 13.699219 122.699219 15.3125 122.699219 C 16.929688 122.699219 18.238281 124.003906 18.238281 125.617188 C 18.238281 139.1875 5.441406 145.515625 4.894531 145.777344 C 4.488281 145.976562 4.054688 146.070312 3.632812 146.070312 Z M 3.632812 146.070312 " fill-opacity="1" fill-rule="nonzero"/><path fill="#000000" d="M 15.3125 163.597656 C 13.699219 163.597656 12.390625 162.289062 12.390625 160.675781 C 12.390625 150.734375 2.457031 145.828125 2.359375 145.777344 C 0.902344 145.074219 0.292969 143.328125 0.996094 141.878906 C 1.699219 140.421875 3.460938 139.808594 4.894531 140.515625 C 5.441406 140.78125 18.238281 147.105469 18.238281 160.675781 C 18.238281 162.289062 16.929688 163.597656 15.3125 163.597656 Z M 15.3125 163.597656 " fill-opacity="1" fill-rule="nonzero"/><path fill="#000000" d="M 289.992188 163.597656 C 288.378906 163.597656 287.070312 162.289062 287.070312 160.675781 C 287.070312 147.105469 299.867188 140.78125 300.414062 140.515625 C 301.863281 139.816406 303.605469 140.425781 304.308594 141.867188 C 305.007812 143.316406 304.402344 145.0625 302.960938 145.773438 C 302.550781 145.976562 292.914062 150.816406 292.914062 160.675781 C 292.914062 162.289062 291.609375 163.597656 289.992188 163.597656 Z M 289.992188 163.597656 " fill-opacity="1" fill-rule="nonzero"/><path fill="#000000" d="M 301.679688 146.070312 C 301.253906 146.070312 300.820312 145.976562 300.414062 145.777344 C 299.867188 145.515625 287.070312 139.1875 287.070312 125.621094 C 287.070312 124.003906 288.378906 122.699219 289.992188 122.699219 C 291.609375 122.699219 292.914062 124.003906 292.914062 125.621094 C 292.914062 135.558594 302.851562 140.464844 302.949219 140.515625 C 304.402344 141.21875 305.015625 142.964844 304.3125 144.414062 C 303.808594 145.457031 302.765625 146.070312 301.679688 146.070312 Z M 301.679688 146.070312 " fill-opacity="1" fill-rule="nonzero"/><path fill="#000000" d="M 278.3125 146.070312 C 277.226562 146.070312 276.1875 145.464844 275.679688 144.425781 C 274.976562 142.976562 275.582031 141.230469 277.027344 140.523438 C 277.4375 140.316406 287.070312 135.480469 287.070312 125.617188 C 287.070312 124.003906 288.378906 122.699219 289.992188 122.699219 C 291.609375 122.699219 292.914062 124.003906 292.914062 125.617188 C 292.914062 139.1875 280.121094 145.515625 279.570312 145.777344 C 279.167969 145.976562 278.734375 146.070312 278.3125 146.070312 Z M 278.3125 146.070312 " fill-opacity="1" fill-rule="nonzero"/><path fill="#000000" d="M 289.992188 163.597656 C 288.378906 163.597656 287.070312 162.289062 287.070312 160.675781 C 287.070312 150.734375 277.136719 145.828125 277.039062 145.777344 C 275.582031 145.074219 274.972656 143.328125 275.675781 141.878906 C 276.375 140.421875 278.144531 139.808594 279.574219 140.515625 C 280.121094 140.78125 292.914062 147.105469 292.914062 160.675781 C 292.914062 162.289062 291.609375 163.597656 289.992188 163.597656 Z M 289.992188 163.597656 " fill-opacity="1" fill-rule="nonzero"/><path fill="#000000" d="M 146.808594 230.296875 C 145.195312 230.296875 143.886719 228.992188 143.886719 227.375 C 143.886719 213.808594 156.683594 207.480469 157.230469 207.21875 C 158.6875 206.507812 160.414062 207.132812 161.125 208.570312 C 161.824219 210.019531 161.21875 211.765625 159.777344 212.472656 C 159.367188 212.679688 149.730469 217.515625 149.730469 227.375 C 149.730469 228.992188 148.425781 230.296875 146.808594 230.296875 Z M 146.808594 230.296875 " fill-opacity="1" fill-rule="nonzero"/><path fill="#000000" d="M 158.496094 212.769531 C 158.070312 212.769531 157.636719 212.679688 157.230469 212.480469 C 156.683594 212.214844 143.886719 205.890625 143.886719 192.320312 C 143.886719 190.703125 145.195312 189.398438 146.808594 189.398438 C 148.425781 189.398438 149.730469 190.703125 149.730469 192.320312 C 149.730469 202.257812 159.667969 207.167969 159.765625 207.21875 C 161.21875 207.917969 161.832031 209.664062 161.128906 211.113281 C 160.625 212.160156 159.582031 212.769531 158.496094 212.769531 Z M 158.496094 212.769531 " fill-opacity="1" fill-rule="nonzero"/><path fill="#000000" d="M 135.125 212.769531 C 134.042969 212.769531 133.003906 212.164062 132.496094 211.125 C 131.792969 209.675781 132.398438 207.929688 133.84375 207.222656 C 134.253906 207.019531 143.886719 202.179688 143.886719 192.320312 C 143.886719 190.703125 145.195312 189.398438 146.808594 189.398438 C 148.425781 189.398438 149.730469 190.703125 149.730469 192.320312 C 149.730469 205.886719 136.933594 212.214844 136.386719 212.480469 C 135.984375 212.679688 135.550781 212.769531 135.125 212.769531 Z M 135.125 212.769531 " fill-opacity="1" fill-rule="nonzero"/><path fill="#000000" d="M 146.808594 230.296875 C 145.195312 230.296875 143.886719 228.992188 143.886719 227.375 C 143.886719 217.4375 133.949219 212.53125 133.855469 212.480469 C 132.398438 211.777344 131.789062 210.03125 132.492188 208.582031 C 133.191406 207.125 134.957031 206.511719 136.386719 207.21875 C 136.933594 207.480469 149.730469 213.808594 149.730469 227.375 C 149.730469 228.992188 148.425781 230.296875 146.808594 230.296875 Z M 146.808594 230.296875 " fill-opacity="1" fill-rule="nonzero"/><path fill="#000000" d="M 139.425781 57.859375 C 138.957031 57.859375 138.496094 57.75 138.066406 57.519531 L 132.199219 54.441406 L 126.332031 57.519531 C 125.351562 58.046875 124.15625 57.953125 123.253906 57.296875 C 122.355469 56.648438 121.902344 55.535156 122.089844 54.441406 L 123.214844 47.910156 L 118.472656 43.289062 C 117.671875 42.515625 117.390625 41.351562 117.730469 40.292969 C 118.074219 39.238281 118.988281 38.460938 120.089844 38.304688 L 126.644531 37.351562 L 129.578125 31.410156 C 130.5625 29.425781 133.835938 29.425781 134.820312 31.410156 L 137.753906 37.351562 L 144.308594 38.304688 C 145.410156 38.460938 146.324219 39.238281 146.667969 40.292969 C 147.011719 41.351562 146.726562 42.515625 145.925781 43.289062 L 141.183594 47.910156 L 142.308594 54.441406 C 142.496094 55.535156 142.042969 56.648438 141.144531 57.296875 C 140.632812 57.667969 140.03125 57.859375 139.425781 57.859375 Z M 132.199219 48.214844 C 132.667969 48.214844 133.132812 48.328125 133.558594 48.550781 L 135.542969 49.597656 L 135.160156 47.386719 C 135 46.433594 135.316406 45.472656 136.003906 44.796875 L 137.609375 43.234375 L 135.390625 42.914062 C 134.441406 42.773438 133.613281 42.179688 133.191406 41.316406 L 132.199219 39.300781 L 131.207031 41.316406 C 130.785156 42.179688 129.957031 42.769531 129.007812 42.914062 L 126.789062 43.234375 L 128.390625 44.796875 C 129.082031 45.472656 129.394531 46.433594 129.238281 47.386719 L 128.855469 49.597656 L 130.839844 48.550781 C 131.261719 48.328125 131.730469 48.214844 132.199219 48.214844 Z M 132.199219 48.214844 " fill-opacity="1" fill-rule="nonzero"/><path fill="#000000" d="M 303.0625 361.679688 C 302.59375 361.679688 302.132812 361.570312 301.703125 361.34375 L 295.835938 358.261719 L 289.980469 361.34375 C 289 361.863281 287.800781 361.78125 286.898438 361.121094 C 286.003906 360.46875 285.546875 359.363281 285.734375 358.265625 L 286.855469 351.734375 L 282.113281 347.113281 C 281.3125 346.335938 281.027344 345.171875 281.371094 344.117188 C 281.710938 343.054688 282.632812 342.285156 283.730469 342.125 L 290.289062 341.175781 L 293.21875 335.238281 C 293.707031 334.238281 294.722656 333.605469 295.835938 333.605469 C 296.949219 333.605469 297.964844 334.238281 298.457031 335.230469 L 301.394531 341.179688 L 307.941406 342.125 C 309.042969 342.285156 309.960938 343.054688 310.304688 344.117188 C 310.648438 345.171875 310.363281 346.335938 309.5625 347.113281 L 304.820312 351.734375 L 305.945312 358.261719 C 306.132812 359.359375 305.683594 360.46875 304.78125 361.121094 C 304.273438 361.492188 303.667969 361.679688 303.0625 361.679688 Z M 295.835938 352.035156 C 296.304688 352.035156 296.773438 352.148438 297.195312 352.371094 L 299.179688 353.417969 L 298.800781 351.210938 C 298.640625 350.257812 298.953125 349.292969 299.644531 348.617188 L 301.242188 347.0625 L 299.039062 346.742188 C 298.085938 346.605469 297.265625 346.003906 296.835938 345.144531 L 295.84375 343.128906 L 294.851562 345.136719 C 294.429688 346.003906 293.601562 346.605469 292.648438 346.742188 L 290.433594 347.058594 L 292.03125 348.617188 C 292.722656 349.292969 293.035156 350.253906 292.875 351.203125 L 292.492188 353.417969 L 294.472656 352.371094 C 294.902344 352.148438 295.367188 352.035156 295.835938 352.035156 Z M 295.835938 352.035156 " fill-opacity="1" fill-rule="nonzero"/><path fill="#000000" d="M 365.96875 280.449219 C 364.351562 280.449219 363.046875 279.144531 363.046875 277.53125 L 363.046875 254.160156 C 363.046875 252.542969 364.351562 251.238281 365.96875 251.238281 C 367.582031 251.238281 368.890625 252.542969 368.890625 254.160156 L 368.890625 277.53125 C 368.890625 279.144531 367.582031 280.449219 365.96875 280.449219 Z M 365.96875 280.449219 " fill-opacity="1" fill-rule="nonzero"/><path fill="#000000" d="M 371.8125 268.765625 L 360.125 268.765625 C 358.507812 268.765625 357.203125 267.457031 357.203125 265.84375 C 357.203125 264.230469 358.507812 262.921875 360.125 262.921875 L 371.8125 262.921875 C 373.425781 262.921875 374.734375 264.230469 374.734375 265.84375 C 374.734375 267.457031 373.425781 268.765625 371.8125 268.765625 Z M 371.8125 268.765625 " fill-opacity="1" fill-rule="nonzero"/><path fill="#000000" d="M 27.003906 350.5625 C 25.386719 350.5625 24.082031 349.257812 24.082031 347.640625 L 24.082031 324.269531 C 24.082031 322.65625 25.386719 321.351562 27.003906 321.351562 C 28.617188 321.351562 29.925781 322.65625 29.925781 324.269531 L 29.925781 347.640625 C 29.925781 349.257812 28.617188 350.5625 27.003906 350.5625 Z M 27.003906 350.5625 " fill-opacity="1" fill-rule="nonzero"/><path fill="#000000" d="M 32.847656 338.878906 L 21.160156 338.878906 C 19.542969 338.878906 18.238281 337.570312 18.238281 335.957031 C 18.238281 334.34375 19.542969 333.035156 21.160156 333.035156 L 32.847656 333.035156 C 34.460938 333.035156 35.769531 334.34375 35.769531 335.957031 C 35.769531 337.570312 34.460938 338.878906 32.847656 338.878906 Z M 32.847656 338.878906 " fill-opacity="1" fill-rule="nonzero"/><path fill="#000000" d="M 284.148438 81.800781 C 282.535156 81.800781 281.226562 80.492188 281.226562 78.878906 L 281.226562 55.507812 C 281.226562 53.890625 282.535156 52.585938 284.148438 52.585938 C 285.765625 52.585938 287.070312 53.890625 287.070312 55.507812 L 287.070312 78.878906 C 287.070312 80.492188 285.765625 81.800781 284.148438 81.800781 Z M 284.148438 81.800781 " fill-opacity="1" fill-rule="nonzero"/><path fill="#000000" d="M 289.992188 70.113281 L 278.304688 70.113281 C 276.691406 70.113281 275.382812 68.808594 275.382812 67.191406 C 275.382812 65.578125 276.691406 64.269531 278.304688 64.269531 L 289.992188 64.269531 C 291.609375 64.269531 292.914062 65.578125 292.914062 67.191406 C 292.914062 68.808594 291.609375 70.113281 289.992188 70.113281 Z M 289.992188 70.113281 " fill-opacity="1" fill-rule="nonzero"/></svg>