<svg xmlns="http://www.w3.org/2000/svg" xmlns:xlink="http://www.w3.org/1999/xlink" width="405" zoomAndPan="magnify" viewBox="0 0 303.75 154.499995" height="206" preserveAspectRatio="xMidYMid meet" version="1.0"><defs><g/></defs><path stroke-linecap="butt" transform="matrix(0.747581, 0, 0, 0.747581, 21.083587, 88.361076)" fill="none" stroke-linejoin="miter" d="M 50.645677 41.997795 L 50.645677 1.779514 L 59.721831 1.779514 L 59.721831 34.353343 L 92.018725 34.353343 L 92.018725 41.997795 Z M 97.071483 41.997795 L 97.071483 1.779514 L 139.588847 1.779514 L 139.588847 9.073878 L 106.147637 9.073878 L 106.147637 18.447868 L 139.588847 18.447868 L 139.588847 25.334667 L 106.147637 25.334667 L 106.147637 34.703431 L 139.588847 34.703431 L 139.588847 41.997795 Z M 144.641605 41.997795 L 144.641605 1.779514 L 153.717759 1.779514 L 153.717759 24.017919 L 185.199524 1.779514 L 199.338885 1.779514 L 174.74392 19.35705 L 199.338885 41.997795 L 186.75663 41.997795 L 167.914598 24.420259 L 153.717759 34.295866 L 153.717759 41.997795 Z M 204.391643 41.997795 L 204.391643 1.779514 L 246.914233 1.779514 L 246.914233 9.073878 L 213.467797 9.073878 L 213.467797 18.447868 L 246.914233 18.447868 L 246.914233 25.334667 L 213.467797 25.334667 L 213.467797 34.703431 L 246.914233 34.703431 L 246.914233 41.997795 Z M 251.961766 41.997795 L 251.961766 1.779514 L 283.553259 1.779514 C 286.620445 1.779514 289.306193 2.364735 291.605276 3.535178 C 293.909584 4.70562 295.707049 6.382906 297.008121 8.57226 C 298.309193 10.751164 298.957117 13.332407 298.957117 16.31599 C 298.957117 19.691463 298.136762 22.539191 296.490828 24.859175 C 294.844893 27.168708 292.603287 28.825093 289.771234 29.823104 L 297.290282 41.997795 L 286.61522 41.997795 L 279.822474 30.904719 L 261.037919 30.904719 L 261.037919 41.997795 Z M 261.037919 23.270717 L 280.695081 23.270717 C 281.572913 23.270717 282.534347 23.234141 283.58461 23.160988 C 284.640099 23.077385 285.643335 22.821351 286.599545 22.403336 C 287.560979 21.980095 288.349983 21.295596 288.956105 20.339386 C 289.572677 19.377951 289.880963 18.035078 289.880963 16.31599 C 289.880963 14.591678 289.572677 13.26448 288.956105 12.329171 C 288.349983 11.383412 287.560979 10.704137 286.599545 10.280897 C 285.643335 9.862882 284.640099 9.612073 283.58461 9.53892 C 282.534347 9.465767 281.572913 9.423966 280.695081 9.423966 L 261.037919 9.423966 Z M 261.037919 23.270717 " stroke="#000000" stroke-width="1.652168" stroke-opacity="1" stroke-miterlimit="4"/><g fill="#000000" fill-opacity="1"><g transform="translate(23.82861, 58.564235)"><g><path d="M 2.109375 0 L 2.109375 -30.09375 L 23.859375 -30.09375 C 25.835938 -30.09375 27.707031 -29.78125 29.46875 -29.15625 C 31.226562 -28.539062 32.785156 -27.617188 34.140625 -26.390625 C 35.503906 -25.160156 36.582031 -23.597656 37.375 -21.703125 C 38.164062 -19.816406 38.5625 -17.597656 38.5625 -15.046875 C 38.5625 -12.492188 38.164062 -10.269531 37.375 -8.375 C 36.582031 -6.488281 35.503906 -4.925781 34.140625 -3.6875 C 32.785156 -2.457031 31.226562 -1.535156 29.46875 -0.921875 C 27.707031 -0.304688 25.835938 0 23.859375 0 Z M 8.890625 -5.71875 L 21.015625 -5.71875 C 23.285156 -5.71875 25.222656 -5.953125 26.828125 -6.421875 C 28.429688 -6.898438 29.65625 -7.8125 30.5 -9.15625 C 31.34375 -10.5 31.765625 -12.460938 31.765625 -15.046875 C 31.765625 -17.648438 31.34375 -19.617188 30.5 -20.953125 C 29.65625 -22.285156 28.429688 -23.1875 26.828125 -23.65625 C 25.222656 -24.132812 23.285156 -24.375 21.015625 -24.375 L 8.890625 -24.375 Z M 8.890625 -5.71875 "/></g></g></g><g fill="#000000" fill-opacity="1"><g transform="translate(64.052474, 58.564235)"><g><path d="M 2.109375 0 L 2.109375 -30.09375 L 25.75 -30.09375 C 28.039062 -30.09375 30.046875 -29.65625 31.765625 -28.78125 C 33.484375 -27.90625 34.828125 -26.648438 35.796875 -25.015625 C 36.773438 -23.378906 37.265625 -21.445312 37.265625 -19.21875 C 37.265625 -16.695312 36.648438 -14.566406 35.421875 -12.828125 C 34.191406 -11.097656 32.515625 -9.859375 30.390625 -9.109375 L 36.015625 0 L 28.03125 0 L 22.953125 -8.296875 L 8.890625 -8.296875 L 8.890625 0 Z M 8.890625 -14.015625 L 23.59375 -14.015625 C 24.257812 -14.015625 24.984375 -14.039062 25.765625 -14.09375 C 26.554688 -14.15625 27.304688 -14.34375 28.015625 -14.65625 C 28.734375 -14.96875 29.320312 -15.484375 29.78125 -16.203125 C 30.238281 -16.921875 30.46875 -17.925781 30.46875 -19.21875 C 30.46875 -20.5 30.238281 -21.488281 29.78125 -22.1875 C 29.320312 -22.894531 28.734375 -23.40625 28.015625 -23.71875 C 27.304688 -24.039062 26.554688 -24.226562 25.765625 -24.28125 C 24.984375 -24.34375 24.257812 -24.375 23.59375 -24.375 L 8.890625 -24.375 Z M 8.890625 -14.015625 "/></g></g></g><g fill="#000000" fill-opacity="1"><g transform="translate(102.987111, 58.564235)"><g><path d="M 2.109375 0 L 2.109375 -30.09375 L 8.890625 -30.09375 L 8.890625 0 Z M 2.109375 0 "/></g></g></g><g fill="#000000" fill-opacity="1"><g transform="translate(113.98851, 58.564235)"><g><path d="M 2.109375 0 L 2.109375 -30.09375 L 8.890625 -30.09375 L 8.890625 -13.453125 L 32.453125 -30.09375 L 43.03125 -30.09375 L 24.625 -16.9375 L 43.03125 0 L 33.609375 0 L 19.515625 -13.15625 L 8.890625 -5.765625 L 8.890625 0 Z M 2.109375 0 "/></g></g></g><g fill="#000000" fill-opacity="1"><g transform="translate(158.681694, 58.564235)"><g><path d="M 2.109375 0 L 2.109375 -30.09375 L 8.890625 -30.09375 L 8.890625 -13.453125 L 32.453125 -30.09375 L 43.03125 -30.09375 L 24.625 -16.9375 L 43.03125 0 L 33.609375 0 L 19.515625 -13.15625 L 8.890625 -5.765625 L 8.890625 0 Z M 2.109375 0 "/></g></g></g><g fill="#000000" fill-opacity="1"><g transform="translate(203.374879, 58.564235)"><g><path d="M 2.109375 0 L 2.109375 -30.09375 L 33.921875 -30.09375 L 33.921875 -24.625 L 8.890625 -24.625 L 8.890625 -17.625 L 33.921875 -17.625 L 33.921875 -12.46875 L 8.890625 -12.46875 L 8.890625 -5.453125 L 33.921875 -5.453125 L 33.921875 0 Z M 2.109375 0 "/></g></g></g><g fill="#000000" fill-opacity="1"><g transform="translate(238.957518, 58.564235)"><g><path d="M 2.96875 -11.859375 L 2.96875 -17.359375 L 37.359375 -17.359375 L 37.359375 -11.859375 Z M 2.96875 -11.859375 "/></g></g></g></svg>