<svg xmlns="http://www.w3.org/2000/svg" xmlns:xlink="http://www.w3.org/1999/xlink" width="500" zoomAndPan="magnify" viewBox="0 0 375 374.999991" height="500" preserveAspectRatio="xMidYMid meet" version="1.0"><defs><clipPath id="b2bcd24094"><path d="M 126 342 L 218 342 L 218 367.5 L 126 367.5 Z M 126 342 " clip-rule="nonzero"/></clipPath><clipPath id="b475871ed0"><path d="M 332 0 L 369.570312 0 L 369.570312 49 L 332 49 Z M 332 0 " clip-rule="nonzero"/></clipPath><clipPath id="c2c31f282f"><path d="M 18.570312 162 L 50 162 L 50 200 L 18.570312 200 Z M 18.570312 162 " clip-rule="nonzero"/></clipPath></defs><path fill="#000000" d="M 289.054688 71.386719 C 260.984375 73.023438 233.058594 74.660156 204.988281 76.296875 C 210.335938 65.4375 216.574219 54.730469 223.40625 44.46875 C 224.890625 42.238281 221.328125 40.15625 219.839844 42.386719 C 212.5625 53.390625 206.027344 64.84375 200.382812 76.59375 C 161.171875 78.824219 121.8125 81.203125 82.601562 83.433594 C 80.96875 81.054688 79.332031 78.675781 77.699219 76.445312 C 76.214844 74.363281 72.648438 76.296875 74.136719 78.527344 C 75.769531 80.757812 77.253906 82.988281 78.886719 85.21875 C 78.589844 86.410156 79.183594 87.746094 80.671875 87.746094 C 96.265625 109.015625 113.050781 129.390625 131.617188 148.429688 C 142.011719 158.988281 155.230469 175.347656 171.273438 178.617188 C 167.410156 208.808594 164.589844 239.148438 163.101562 269.640625 C 161.914062 294.773438 157.90625 322.734375 167.707031 346.53125 C 168.597656 348.613281 171.570312 348.464844 171.71875 345.933594 C 174.242188 290.3125 176.769531 234.6875 179.144531 179.066406 C 197.859375 177.578125 216.574219 155.714844 229.050781 143.964844 C 251.773438 122.699219 272.121094 99.347656 290.835938 74.511719 C 291.875 73.320312 290.539062 71.386719 289.054688 71.386719 Z M 168.300781 336.269531 C 168.894531 333.886719 166.074219 308.605469 166.222656 300.871094 C 166.519531 287.039062 167.113281 273.058594 167.855469 259.226562 C 169.339844 233.351562 171.867188 207.472656 175.132812 181.742188 C 173.945312 207.917969 172.757812 234.09375 171.570312 260.121094 C 170.382812 283.769531 173.945312 313.511719 168.300781 336.269531 Z M 266.480469 98.753906 C 242.863281 126.566406 195.484375 189.921875 154.042969 164.488281 C 127.902344 148.277344 104.136719 114.371094 85.273438 87.449219 C 121.960938 85.367188 158.648438 83.136719 195.332031 81.054688 C 196.375 81.054688 197.414062 80.90625 198.304688 80.90625 C 193.253906 91.914062 188.796875 103.214844 185.085938 114.816406 C 178.253906 113.179688 170.679688 114.964844 165.480469 119.871094 C 164.886719 118.683594 162.804688 118.085938 161.765625 119.574219 C 155.082031 128.796875 155.972656 142.925781 165.183594 150.210938 C 173.796875 157.203125 187.90625 156.308594 195.035156 147.535156 C 201.867188 139.207031 200.976562 125.671875 192.808594 118.683594 C 191.621094 117.640625 190.285156 116.898438 188.945312 116.15625 C 192.957031 103.957031 197.5625 92.0625 203.058594 80.609375 C 217.910156 79.714844 232.613281 78.824219 247.46875 78.082031 C 249.398438 77.933594 277.914062 74.957031 278.65625 76.296875 C 282.371094 82.097656 269.449219 95.332031 266.480469 98.753906 Z M 183.453125 135.339844 C 184.789062 130.132812 186.125 125.078125 187.757812 120.019531 C 188.796875 120.617188 189.691406 121.210938 190.582031 121.953125 C 196.820312 127.605469 197.117188 138.464844 191.769531 144.859375 C 185.828125 151.996094 173.796875 152.441406 166.964844 146.046875 C 160.726562 140.246094 160.28125 130.878906 163.996094 123.738281 C 164.589844 124.78125 166.074219 125.226562 167.113281 124.035156 C 171.125 119.128906 177.957031 117.046875 184.046875 118.386719 C 182.410156 123.589844 180.925781 128.796875 179.738281 134 C 178.847656 136.828125 182.710938 137.867188 183.453125 135.339844 Z M 183.453125 135.339844 " fill-opacity="1" fill-rule="nonzero"/><g clip-path="url(#b2bcd24094)"><path fill="#000000" d="M 215.980469 356.046875 C 204.246094 351.585938 192.660156 347.273438 180.925781 342.8125 C 178.402344 341.917969 177.363281 345.785156 179.886719 346.828125 C 189.542969 350.546875 199.195312 354.113281 208.851562 357.832031 C 184.640625 364.078125 160.429688 365.269531 135.921875 360.957031 C 142.753906 358.425781 149.585938 356.046875 156.566406 353.519531 C 159.09375 352.628906 157.90625 348.613281 155.527344 349.503906 C 146.320312 352.777344 136.960938 356.195312 127.753906 359.46875 C 125.972656 360.0625 125.675781 363.039062 127.753906 363.484375 C 157.460938 369.878906 187.015625 368.691406 216.128906 360.0625 C 218.058594 359.320312 217.761719 356.792969 215.980469 356.046875 Z M 215.980469 356.046875 " fill-opacity="1" fill-rule="nonzero"/></g><g clip-path="url(#b475871ed0)"><path fill="#000000" d="M 364.953125 1.488281 C 362.128906 10.410156 358.714844 18.886719 354.703125 27.214844 C 348.019531 24.984375 341.335938 22.902344 334.652344 20.671875 C 332.128906 19.929688 331.089844 23.796875 333.613281 24.6875 C 340 26.769531 346.535156 28.851562 352.921875 30.933594 C 350.398438 35.695312 347.722656 40.453125 344.902344 45.0625 C 343.414062 47.292969 346.980469 49.375 348.464844 47.144531 C 351.585938 42.238281 354.40625 37.328125 356.933594 32.125 C 359.011719 32.71875 360.941406 33.464844 363.023438 34.058594 C 365.546875 34.800781 366.585938 30.933594 364.0625 30.042969 C 362.277344 29.449219 360.496094 28.851562 358.714844 28.257812 C 362.722656 19.929688 366.140625 11.304688 369.109375 2.378906 C 369.707031 0 365.695312 -1.042969 364.953125 1.488281 Z M 364.953125 1.488281 " fill-opacity="1" fill-rule="nonzero"/></g><path fill="#000000" d="M 342.523438 111.097656 C 344.605469 113.328125 347.425781 116.75 346.386719 120.019531 C 345.792969 121.804688 343.5625 123.738281 341.632812 122.996094 C 341.929688 120.765625 342.375 118.386719 342.671875 116.15625 C 343.117188 113.625 339.109375 112.4375 338.664062 115.113281 C 338.367188 117.492188 337.921875 120.019531 337.625 122.402344 C 337.328125 124.183594 337.328125 125.078125 338.960938 126.269531 C 341.335938 127.902344 344.308594 127.457031 346.683594 125.96875 C 353.8125 121.65625 350.097656 112.882812 345.496094 108.273438 C 343.5625 106.339844 340.59375 109.164062 342.523438 111.097656 Z M 342.523438 111.097656 " fill-opacity="1" fill-rule="nonzero"/><g clip-path="url(#c2c31f282f)"><path fill="#000000" d="M 45.171875 164.042969 C 43.09375 169.398438 40.269531 174.453125 36.855469 178.917969 C 34.480469 174.902344 32.101562 171.035156 29.578125 167.019531 C 28.242188 164.789062 24.675781 166.871094 26.011719 169.101562 C 28.6875 173.5625 31.359375 177.875 34.03125 182.335938 C 30.023438 187.097656 25.269531 191.113281 19.921875 194.53125 C 17.695312 196.019531 19.773438 199.589844 22.003906 198.101562 C 27.347656 194.679688 32.101562 190.664062 36.261719 186.054688 C 38.636719 190.070312 41.164062 194.085938 43.539062 198.25 C 44.875 200.480469 48.441406 198.398438 47.101562 196.167969 C 44.429688 191.707031 41.757812 187.246094 38.933594 182.785156 C 43.09375 177.578125 46.359375 171.628906 48.886719 165.234375 C 50.074219 162.707031 46.210938 161.664062 45.171875 164.042969 Z M 45.171875 164.042969 " fill-opacity="1" fill-rule="nonzero"/></g><path fill="#000000" d="M 88.839844 247.179688 L 88.839844 245.992188 C 88.691406 243.3125 84.679688 243.3125 84.679688 245.992188 C 84.828125 248.667969 84.828125 251.34375 84.976562 253.875 C 84.976562 254.765625 85.570312 255.660156 86.464844 255.808594 C 91.066406 256.699219 95.226562 251.34375 92.253906 247.328125 C 91.214844 246.140625 89.582031 246.289062 88.839844 247.179688 Z M 88.839844 247.179688 " fill-opacity="1" fill-rule="nonzero"/></svg>