<svg xmlns="http://www.w3.org/2000/svg" xmlns:xlink="http://www.w3.org/1999/xlink" width="354" zoomAndPan="magnify" viewBox="0 0 265.5 154.499995" height="206" preserveAspectRatio="xMidYMid meet" version="1.0"><defs><g/></defs><path stroke-linecap="butt" transform="matrix(0.747581, 0, 0, 0.747581, 20.897296, 88.361076)" fill="none" stroke-linejoin="miter" d="M 61.648308 41.997795 L 39.822693 1.779514 L 50.105866 1.779514 L 67.568448 34.536225 L 85.036255 1.779514 L 95.319427 1.779514 L 73.546064 41.997795 Z M 125.082105 42.572566 C 119.182866 42.572566 114.375692 41.762662 110.660583 40.132403 C 106.950698 38.507369 104.207474 36.140358 102.44136 33.036596 C 100.680471 29.932833 99.80264 26.196823 99.80264 21.828565 C 99.80264 17.460307 100.680471 13.739972 102.44136 10.662336 C 104.207474 7.574249 106.950698 5.228139 110.660583 3.618781 C 114.375692 2.009422 119.182866 1.204743 125.082105 1.204743 C 130.986569 1.204743 135.788517 2.019873 139.503627 3.644907 C 143.218736 5.275166 145.95151 7.621276 147.712399 10.688462 C 149.478513 13.745197 150.36157 17.460307 150.36157 21.828565 C 150.36157 26.196823 149.478513 29.922383 147.712399 33.005245 C 145.95151 36.093331 143.218736 38.460342 139.503627 40.106277 C 135.788517 41.752211 130.986569 42.572566 125.082105 42.572566 Z M 125.082105 34.928114 C 130.751435 34.928114 134.863659 33.903977 137.429227 31.855703 C 140.00002 29.807429 141.285416 26.468533 141.285416 21.828565 C 141.285416 17.235624 140.01047 13.922854 137.455353 11.89548 C 134.910686 9.868107 130.788011 8.849195 125.082105 8.849195 C 119.412775 8.849195 115.295326 9.857657 112.724532 11.869354 C 110.158965 13.875827 108.878793 17.199047 108.878793 21.828565 C 108.878793 26.468533 110.158965 29.807429 112.724532 31.855703 C 115.295326 33.903977 119.412775 34.928114 125.082105 34.928114 Z M 155.419553 41.997795 L 155.419553 1.779514 L 187.011047 1.779514 C 190.078233 1.779514 192.76398 2.364735 195.063063 3.535178 C 197.362147 4.70562 199.164837 6.382906 200.465909 8.57226 C 201.761756 10.751164 202.414905 13.332407 202.414905 16.31599 C 202.414905 19.691463 201.589325 22.539191 199.94339 24.859175 C 198.297455 27.168708 196.061075 28.825093 193.223797 29.823104 L 200.742844 41.997795 L 190.067783 41.997795 L 183.280262 30.904719 L 164.495707 30.904719 L 164.495707 41.997795 Z M 164.495707 23.270717 L 184.147643 23.270717 C 185.0307 23.270717 185.992135 23.234141 187.037173 23.160988 C 188.097886 23.077385 189.101123 22.821351 190.057332 22.403336 C 191.018767 21.980095 191.802545 21.295596 192.413892 20.339386 C 193.030465 19.377951 193.338751 18.035078 193.338751 16.31599 C 193.338751 14.591678 193.030465 13.26448 192.413892 12.329171 C 191.802545 11.383412 191.018767 10.704137 190.057332 10.280897 C 189.101123 9.862882 188.097886 9.612073 187.037173 9.53892 C 185.992135 9.465767 185.0307 9.423966 184.147643 9.423966 L 164.495707 9.423966 Z M 233.436853 42.572566 C 227.955629 42.572566 223.226833 42.180677 219.240014 41.396898 C 215.25842 40.61312 212.201684 39.176193 210.080257 37.091342 C 207.95883 35.006492 206.898117 32.04381 206.898117 28.208521 L 215.97427 28.208521 C 215.97427 29.817879 216.496789 31.150302 217.541827 32.205791 C 218.602541 33.256054 220.436582 34.029382 223.059627 34.536225 C 225.682672 35.032618 229.335079 35.278202 234.011623 35.278202 C 237.810336 35.278202 240.809595 35.105771 243.004174 34.760908 C 245.214429 34.416046 246.792436 33.877851 247.748646 33.146325 C 248.69963 32.420023 249.180348 31.458589 249.180348 30.272471 C 249.180348 29.316261 248.966115 28.548158 248.5481 27.957712 C 248.124859 27.356815 247.32018 26.886548 246.134062 26.541686 C 244.947944 26.196823 243.265433 25.919888 241.09698 25.71088 C 238.938977 25.496648 236.096474 25.298091 232.579922 25.109984 C 226.832214 24.801698 222.171345 24.242602 218.607766 23.437923 C 215.049412 22.638469 212.442043 21.373973 210.796108 19.654886 C 209.150173 17.920123 208.329819 15.563563 208.329819 12.585205 C 208.329819 9.627748 209.296479 7.328665 211.229799 5.68273 C 213.168344 4.036796 215.916793 2.882029 219.480372 2.213205 C 223.043951 1.544381 227.29203 1.204743 232.229834 1.204743 C 237.251241 1.204743 241.582923 1.65411 245.219654 2.552842 C 248.861611 3.451575 251.657087 4.904177 253.611308 6.915875 C 255.565529 8.927573 256.542639 11.581969 256.542639 14.884289 L 247.466486 14.884289 C 247.466486 13.191327 246.90739 11.88503 245.794425 10.970622 C 244.68146 10.050989 242.931021 9.413515 240.537885 9.047752 C 238.144748 8.681989 234.988734 8.499107 231.080292 8.499107 C 227.443561 8.499107 224.627184 8.645413 222.636387 8.932798 C 220.64559 9.214958 219.27659 9.69045 218.524163 10.3645 C 217.776961 11.038549 217.405972 11.932057 217.405972 13.045022 C 217.405972 13.922854 217.61498 14.65438 218.032995 15.234376 C 218.456235 15.803922 219.213888 16.263738 220.305952 16.608601 C 221.403242 16.943013 222.944673 17.230398 224.93547 17.465532 C 226.931492 17.700665 229.476159 17.909673 232.579922 18.09778 C 236.566741 18.327688 240.135545 18.609848 243.286334 18.939035 C 246.447574 19.257772 249.138546 19.795966 251.364477 20.564069 C 253.590407 21.332172 255.299044 22.455588 256.485162 23.929091 C 257.676505 25.407819 258.266952 27.409067 258.266952 29.938059 C 258.266952 32.618581 257.650379 34.792259 256.417235 36.459095 C 255.189315 38.12593 253.465003 39.395651 251.239072 40.273483 C 249.023592 41.151314 246.400547 41.757436 243.369937 42.086623 C 240.349778 42.410585 237.037008 42.572566 233.436853 42.572566 Z M 233.436853 42.572566 " stroke="#000000" stroke-width="1.652168" stroke-opacity="1" stroke-miterlimit="4"/><g fill="#000000" fill-opacity="1"><g transform="translate(64.584037, 58.564235)"><g><path d="M 20.15625 0.4375 C 13.96875 0.4375 9.410156 -0.835938 6.484375 -3.390625 C 3.566406 -5.941406 2.109375 -9.84375 2.109375 -15.09375 L 8.890625 -15.09375 C 8.890625 -13.96875 9.007812 -12.832031 9.25 -11.6875 C 9.5 -10.539062 9.992188 -9.476562 10.734375 -8.5 C 11.484375 -7.53125 12.609375 -6.75 14.109375 -6.15625 C 15.617188 -5.570312 17.632812 -5.28125 20.15625 -5.28125 C 22.675781 -5.28125 24.6875 -5.582031 26.1875 -6.1875 C 27.695312 -6.789062 28.820312 -7.570312 29.5625 -8.53125 C 30.3125 -9.488281 30.804688 -10.539062 31.046875 -11.6875 C 31.296875 -12.832031 31.421875 -13.96875 31.421875 -15.09375 L 31.421875 -24.375 L 15.90625 -24.375 L 15.90625 -30.09375 L 38.21875 -30.09375 L 38.21875 -15.09375 C 38.21875 -9.875 36.75 -5.976562 33.8125 -3.40625 C 30.875 -0.84375 26.320312 0.4375 20.15625 0.4375 Z M 20.15625 0.4375 "/></g></g></g><g fill="#000000" fill-opacity="1"><g transform="translate(104.893843, 58.564235)"><g><path d="M 20.59375 0.4375 C 16.175781 0.4375 12.578125 -0.171875 9.796875 -1.390625 C 7.015625 -2.609375 4.960938 -4.378906 3.640625 -6.703125 C 2.328125 -9.023438 1.671875 -11.820312 1.671875 -15.09375 C 1.671875 -18.351562 2.328125 -21.132812 3.640625 -23.4375 C 4.960938 -25.75 7.015625 -27.503906 9.796875 -28.703125 C 12.578125 -29.910156 16.175781 -30.515625 20.59375 -30.515625 C 25 -30.515625 28.59375 -29.90625 31.375 -28.6875 C 34.15625 -27.46875 36.203125 -25.710938 37.515625 -23.421875 C 38.835938 -21.128906 39.5 -18.351562 39.5 -15.09375 C 39.5 -11.820312 38.835938 -9.03125 37.515625 -6.71875 C 36.203125 -4.414062 34.15625 -2.644531 31.375 -1.40625 C 28.59375 -0.175781 25 0.4375 20.59375 0.4375 Z M 20.59375 -5.28125 C 24.832031 -5.28125 27.910156 -6.046875 29.828125 -7.578125 C 31.753906 -9.117188 32.71875 -11.625 32.71875 -15.09375 C 32.71875 -18.53125 31.765625 -21.003906 29.859375 -22.515625 C 27.953125 -24.035156 24.863281 -24.796875 20.59375 -24.796875 C 16.351562 -24.796875 13.269531 -24.039062 11.34375 -22.53125 C 9.425781 -21.03125 8.46875 -18.550781 8.46875 -15.09375 C 8.46875 -11.625 9.425781 -9.117188 11.34375 -7.578125 C 13.269531 -6.046875 16.351562 -5.28125 20.59375 -5.28125 Z M 20.59375 -5.28125 "/></g></g></g><g fill="#000000" fill-opacity="1"><g transform="translate(146.063135, 58.564235)"><g><path d="M 2.109375 0 L 2.109375 -30.09375 L 8.890625 -30.09375 L 8.890625 0 Z M 2.109375 0 "/></g></g></g><g fill="#000000" fill-opacity="1"><g transform="translate(157.064533, 58.564235)"><g><path d="M 2.109375 0 L 2.109375 -30.09375 L 11.515625 -30.09375 L 34.09375 -6.96875 L 34.09375 -30.09375 L 40.875 -30.09375 L 40.875 0 L 31.5 0 L 8.890625 -23.125 L 8.890625 0 Z M 2.109375 0 "/></g></g></g></svg>