<svg xmlns="http://www.w3.org/2000/svg" xmlns:xlink="http://www.w3.org/1999/xlink" width="500" zoomAndPan="magnify" viewBox="0 0 375 374.999991" height="500" preserveAspectRatio="xMidYMid meet" version="1.0"><defs><clipPath id="13b902611c"><path d="M 8 46 L 351 46 L 351 338 L 8 338 Z M 8 46 " clip-rule="nonzero"/></clipPath><clipPath id="e196d7688e"><path d="M -16.378906 137.179688 L 310.769531 -0.0195312 L 412 241.363281 L 84.851562 378.5625 Z M -16.378906 137.179688 " clip-rule="nonzero"/></clipPath><clipPath id="55832b28e6"><path d="M -16.378906 137.179688 L 310.769531 -0.0195312 L 412 241.363281 L 84.851562 378.5625 Z M -16.378906 137.179688 " clip-rule="nonzero"/></clipPath><clipPath id="4c4b3c2a41"><path d="M -16.378906 137.179688 L 310.769531 -0.0195312 L 412 241.363281 L 84.851562 378.5625 Z M -16.378906 137.179688 " clip-rule="nonzero"/></clipPath><clipPath id="9c21b733a2"><path d="M 15 192 L 42 192 L 42 217 L 15 217 Z M 15 192 " clip-rule="nonzero"/></clipPath><clipPath id="dfc2424497"><path d="M -16.378906 137.179688 L 310.769531 -0.0195312 L 412 241.363281 L 84.851562 378.5625 Z M -16.378906 137.179688 " clip-rule="nonzero"/></clipPath><clipPath id="cf2f580a2e"><path d="M -16.378906 137.179688 L 310.769531 -0.0195312 L 412 241.363281 L 84.851562 378.5625 Z M -16.378906 137.179688 " clip-rule="nonzero"/></clipPath><clipPath id="a1d23dfa6a"><path d="M -16.378906 137.179688 L 310.769531 -0.0195312 L 412 241.363281 L 84.851562 378.5625 Z M -16.378906 137.179688 " clip-rule="nonzero"/></clipPath><clipPath id="ecadc1eb71"><path d="M 11 188 L 45 188 L 45 221 L 11 221 Z M 11 188 " clip-rule="nonzero"/></clipPath><clipPath id="a5fabaef55"><path d="M -16.378906 137.179688 L 310.769531 -0.0195312 L 412 241.363281 L 84.851562 378.5625 Z M -16.378906 137.179688 " clip-rule="nonzero"/></clipPath><clipPath id="7213bf021e"><path d="M -16.378906 137.179688 L 310.769531 -0.0195312 L 412 241.363281 L 84.851562 378.5625 Z M -16.378906 137.179688 " clip-rule="nonzero"/></clipPath><clipPath id="cce2b1a84d"><path d="M -16.378906 137.179688 L 310.769531 -0.0195312 L 412 241.363281 L 84.851562 378.5625 Z M -16.378906 137.179688 " clip-rule="nonzero"/></clipPath><clipPath id="242d8ff683"><path d="M 23 181 L 52 181 L 52 209 L 23 209 Z M 23 181 " clip-rule="nonzero"/></clipPath><clipPath id="dd8cfadbfa"><path d="M -16.378906 137.179688 L 310.769531 -0.0195312 L 412 241.363281 L 84.851562 378.5625 Z M -16.378906 137.179688 " clip-rule="nonzero"/></clipPath><clipPath id="d87f57f904"><path d="M -16.378906 137.179688 L 310.769531 -0.0195312 L 412 241.363281 L 84.851562 378.5625 Z M -16.378906 137.179688 " clip-rule="nonzero"/></clipPath><clipPath id="59a9827ff1"><path d="M -16.378906 137.179688 L 310.769531 -0.0195312 L 412 241.363281 L 84.851562 378.5625 Z M -16.378906 137.179688 " clip-rule="nonzero"/></clipPath><clipPath id="d9e95ab1d3"><path d="M 20 177 L 55 177 L 55 213 L 20 213 Z M 20 177 " clip-rule="nonzero"/></clipPath><clipPath id="f9eb4429a0"><path d="M -16.378906 137.179688 L 310.769531 -0.0195312 L 412 241.363281 L 84.851562 378.5625 Z M -16.378906 137.179688 " clip-rule="nonzero"/></clipPath><clipPath id="9ba66fb201"><path d="M -16.378906 137.179688 L 310.769531 -0.0195312 L 412 241.363281 L 84.851562 378.5625 Z M -16.378906 137.179688 " clip-rule="nonzero"/></clipPath><clipPath id="b426efbc22"><path d="M -16.378906 137.179688 L 310.769531 -0.0195312 L 412 241.363281 L 84.851562 378.5625 Z M -16.378906 137.179688 " clip-rule="nonzero"/></clipPath><clipPath id="d699a0a25f"><path d="M 49 211 L 73 211 L 73 235 L 49 235 Z M 49 211 " clip-rule="nonzero"/></clipPath><clipPath id="cf319a6254"><path d="M -16.378906 137.179688 L 310.769531 -0.0195312 L 412 241.363281 L 84.851562 378.5625 Z M -16.378906 137.179688 " clip-rule="nonzero"/></clipPath><clipPath id="a0afd7dd3f"><path d="M -16.378906 137.179688 L 310.769531 -0.0195312 L 412 241.363281 L 84.851562 378.5625 Z M -16.378906 137.179688 " clip-rule="nonzero"/></clipPath><clipPath id="c5da87ed71"><path d="M -16.378906 137.179688 L 310.769531 -0.0195312 L 412 241.363281 L 84.851562 378.5625 Z M -16.378906 137.179688 " clip-rule="nonzero"/></clipPath><clipPath id="02e2c1300d"><path d="M 56 138 L 66 138 L 66 147 L 56 147 Z M 56 138 " clip-rule="nonzero"/></clipPath><clipPath id="83904497f8"><path d="M -16.378906 137.179688 L 310.769531 -0.0195312 L 412 241.363281 L 84.851562 378.5625 Z M -16.378906 137.179688 " clip-rule="nonzero"/></clipPath><clipPath id="709ea08d8b"><path d="M -16.378906 137.179688 L 310.769531 -0.0195312 L 412 241.363281 L 84.851562 378.5625 Z M -16.378906 137.179688 " clip-rule="nonzero"/></clipPath><clipPath id="46cd577bcf"><path d="M -16.378906 137.179688 L 310.769531 -0.0195312 L 412 241.363281 L 84.851562 378.5625 Z M -16.378906 137.179688 " clip-rule="nonzero"/></clipPath><clipPath id="d1be52d597"><path d="M 52 134 L 70 134 L 70 151 L 52 151 Z M 52 134 " clip-rule="nonzero"/></clipPath><clipPath id="f35f467fb2"><path d="M -16.378906 137.179688 L 310.769531 -0.0195312 L 412 241.363281 L 84.851562 378.5625 Z M -16.378906 137.179688 " clip-rule="nonzero"/></clipPath><clipPath id="d6d7c0aaf3"><path d="M -16.378906 137.179688 L 310.769531 -0.0195312 L 412 241.363281 L 84.851562 378.5625 Z M -16.378906 137.179688 " clip-rule="nonzero"/></clipPath><clipPath id="6936660e40"><path d="M -16.378906 137.179688 L 310.769531 -0.0195312 L 412 241.363281 L 84.851562 378.5625 Z M -16.378906 137.179688 " clip-rule="nonzero"/></clipPath><clipPath id="b84a4b0582"><path d="M 61 143 L 79 143 L 79 176 L 61 176 Z M 61 143 " clip-rule="nonzero"/></clipPath><clipPath id="a9f36b13af"><path d="M -16.378906 137.179688 L 310.769531 -0.0195312 L 412 241.363281 L 84.851562 378.5625 Z M -16.378906 137.179688 " clip-rule="nonzero"/></clipPath><clipPath id="e254b4019c"><path d="M -16.378906 137.179688 L 310.769531 -0.0195312 L 412 241.363281 L 84.851562 378.5625 Z M -16.378906 137.179688 " clip-rule="nonzero"/></clipPath><clipPath id="b9ea2dbe96"><path d="M -16.378906 137.179688 L 310.769531 -0.0195312 L 412 241.363281 L 84.851562 378.5625 Z M -16.378906 137.179688 " clip-rule="nonzero"/></clipPath><clipPath id="f430cbd580"><path d="M 57 139 L 83 139 L 83 180 L 57 180 Z M 57 139 " clip-rule="nonzero"/></clipPath><clipPath id="e163437d63"><path d="M -16.378906 137.179688 L 310.769531 -0.0195312 L 412 241.363281 L 84.851562 378.5625 Z M -16.378906 137.179688 " clip-rule="nonzero"/></clipPath><clipPath id="a3c2f94208"><path d="M -16.378906 137.179688 L 310.769531 -0.0195312 L 412 241.363281 L 84.851562 378.5625 Z M -16.378906 137.179688 " clip-rule="nonzero"/></clipPath><clipPath id="39c787eebd"><path d="M -16.378906 137.179688 L 310.769531 -0.0195312 L 412 241.363281 L 84.851562 378.5625 Z M -16.378906 137.179688 " clip-rule="nonzero"/></clipPath><clipPath id="429f41daf5"><path d="M 79 175 L 102 175 L 102 200 L 79 200 Z M 79 175 " clip-rule="nonzero"/></clipPath><clipPath id="bb6be31daa"><path d="M -16.378906 137.179688 L 310.769531 -0.0195312 L 412 241.363281 L 84.851562 378.5625 Z M -16.378906 137.179688 " clip-rule="nonzero"/></clipPath><clipPath id="5b4a617ef4"><path d="M -16.378906 137.179688 L 310.769531 -0.0195312 L 412 241.363281 L 84.851562 378.5625 Z M -16.378906 137.179688 " clip-rule="nonzero"/></clipPath><clipPath id="b85e2e55ba"><path d="M -16.378906 137.179688 L 310.769531 -0.0195312 L 412 241.363281 L 84.851562 378.5625 Z M -16.378906 137.179688 " clip-rule="nonzero"/></clipPath><clipPath id="5f0ab0edfa"><path d="M 92 110 L 122 110 L 122 142 L 92 142 Z M 92 110 " clip-rule="nonzero"/></clipPath><clipPath id="14afceebea"><path d="M -16.378906 137.179688 L 310.769531 -0.0195312 L 412 241.363281 L 84.851562 378.5625 Z M -16.378906 137.179688 " clip-rule="nonzero"/></clipPath><clipPath id="c883756c42"><path d="M -16.378906 137.179688 L 310.769531 -0.0195312 L 412 241.363281 L 84.851562 378.5625 Z M -16.378906 137.179688 " clip-rule="nonzero"/></clipPath><clipPath id="60e2f2f137"><path d="M -16.378906 137.179688 L 310.769531 -0.0195312 L 412 241.363281 L 84.851562 378.5625 Z M -16.378906 137.179688 " clip-rule="nonzero"/></clipPath><clipPath id="24a7a8ca64"><path d="M 88 106 L 126 106 L 126 146 L 88 146 Z M 88 106 " clip-rule="nonzero"/></clipPath><clipPath id="d68bf33969"><path d="M -16.378906 137.179688 L 310.769531 -0.0195312 L 412 241.363281 L 84.851562 378.5625 Z M -16.378906 137.179688 " clip-rule="nonzero"/></clipPath><clipPath id="a4580a2b4e"><path d="M -16.378906 137.179688 L 310.769531 -0.0195312 L 412 241.363281 L 84.851562 378.5625 Z M -16.378906 137.179688 " clip-rule="nonzero"/></clipPath><clipPath id="a34a3d2978"><path d="M -16.378906 137.179688 L 310.769531 -0.0195312 L 412 241.363281 L 84.851562 378.5625 Z M -16.378906 137.179688 " clip-rule="nonzero"/></clipPath><clipPath id="d99f341f34"><path d="M 110 144 L 133 144 L 133 173 L 110 173 Z M 110 144 " clip-rule="nonzero"/></clipPath><clipPath id="7abdaff8a3"><path d="M -16.378906 137.179688 L 310.769531 -0.0195312 L 412 241.363281 L 84.851562 378.5625 Z M -16.378906 137.179688 " clip-rule="nonzero"/></clipPath><clipPath id="244025e755"><path d="M -16.378906 137.179688 L 310.769531 -0.0195312 L 412 241.363281 L 84.851562 378.5625 Z M -16.378906 137.179688 " clip-rule="nonzero"/></clipPath><clipPath id="e29a56a8d0"><path d="M -16.378906 137.179688 L 310.769531 -0.0195312 L 412 241.363281 L 84.851562 378.5625 Z M -16.378906 137.179688 " clip-rule="nonzero"/></clipPath><clipPath id="43371ce0a4"><path d="M 138 84 L 169 84 L 169 122 L 138 122 Z M 138 84 " clip-rule="nonzero"/></clipPath><clipPath id="6c75c3b9c7"><path d="M -16.378906 137.179688 L 310.769531 -0.0195312 L 412 241.363281 L 84.851562 378.5625 Z M -16.378906 137.179688 " clip-rule="nonzero"/></clipPath><clipPath id="fe213b4c00"><path d="M -16.378906 137.179688 L 310.769531 -0.0195312 L 412 241.363281 L 84.851562 378.5625 Z M -16.378906 137.179688 " clip-rule="nonzero"/></clipPath><clipPath id="167a3e42d1"><path d="M -16.378906 137.179688 L 310.769531 -0.0195312 L 412 241.363281 L 84.851562 378.5625 Z M -16.378906 137.179688 " clip-rule="nonzero"/></clipPath><clipPath id="8de05784a7"><path d="M 134 80 L 173 80 L 173 126 L 134 126 Z M 134 80 " clip-rule="nonzero"/></clipPath><clipPath id="f62b118b13"><path d="M -16.378906 137.179688 L 310.769531 -0.0195312 L 412 241.363281 L 84.851562 378.5625 Z M -16.378906 137.179688 " clip-rule="nonzero"/></clipPath><clipPath id="fc3515d180"><path d="M -16.378906 137.179688 L 310.769531 -0.0195312 L 412 241.363281 L 84.851562 378.5625 Z M -16.378906 137.179688 " clip-rule="nonzero"/></clipPath><clipPath id="a418bbde6c"><path d="M -16.378906 137.179688 L 310.769531 -0.0195312 L 412 241.363281 L 84.851562 378.5625 Z M -16.378906 137.179688 " clip-rule="nonzero"/></clipPath><clipPath id="7b0e3d9548"><path d="M 152 121 L 175 121 L 175 150 L 152 150 Z M 152 121 " clip-rule="nonzero"/></clipPath><clipPath id="40e238d203"><path d="M -16.378906 137.179688 L 310.769531 -0.0195312 L 412 241.363281 L 84.851562 378.5625 Z M -16.378906 137.179688 " clip-rule="nonzero"/></clipPath><clipPath id="92fc0306e9"><path d="M -16.378906 137.179688 L 310.769531 -0.0195312 L 412 241.363281 L 84.851562 378.5625 Z M -16.378906 137.179688 " clip-rule="nonzero"/></clipPath><clipPath id="62efa02804"><path d="M -16.378906 137.179688 L 310.769531 -0.0195312 L 412 241.363281 L 84.851562 378.5625 Z M -16.378906 137.179688 " clip-rule="nonzero"/></clipPath><clipPath id="86c270e0e3"><path d="M 192 66 L 214 66 L 214 100 L 192 100 Z M 192 66 " clip-rule="nonzero"/></clipPath><clipPath id="be43235044"><path d="M -16.378906 137.179688 L 310.769531 -0.0195312 L 412 241.363281 L 84.851562 378.5625 Z M -16.378906 137.179688 " clip-rule="nonzero"/></clipPath><clipPath id="dde6676255"><path d="M -16.378906 137.179688 L 310.769531 -0.0195312 L 412 241.363281 L 84.851562 378.5625 Z M -16.378906 137.179688 " clip-rule="nonzero"/></clipPath><clipPath id="52d5cddb7a"><path d="M -16.378906 137.179688 L 310.769531 -0.0195312 L 412 241.363281 L 84.851562 378.5625 Z M -16.378906 137.179688 " clip-rule="nonzero"/></clipPath><clipPath id="afe8190dfc"><path d="M 188 62 L 218 62 L 218 104 L 188 104 Z M 188 62 " clip-rule="nonzero"/></clipPath><clipPath id="814bb89418"><path d="M -16.378906 137.179688 L 310.769531 -0.0195312 L 412 241.363281 L 84.851562 378.5625 Z M -16.378906 137.179688 " clip-rule="nonzero"/></clipPath><clipPath id="a6010674bd"><path d="M -16.378906 137.179688 L 310.769531 -0.0195312 L 412 241.363281 L 84.851562 378.5625 Z M -16.378906 137.179688 " clip-rule="nonzero"/></clipPath><clipPath id="bfdbbf707c"><path d="M -16.378906 137.179688 L 310.769531 -0.0195312 L 412 241.363281 L 84.851562 378.5625 Z M -16.378906 137.179688 " clip-rule="nonzero"/></clipPath><clipPath id="5848be8160"><path d="M 193 102 L 215 102 L 215 129 L 193 129 Z M 193 102 " clip-rule="nonzero"/></clipPath><clipPath id="8c38f4c270"><path d="M -16.378906 137.179688 L 310.769531 -0.0195312 L 412 241.363281 L 84.851562 378.5625 Z M -16.378906 137.179688 " clip-rule="nonzero"/></clipPath><clipPath id="fed2327eab"><path d="M -16.378906 137.179688 L 310.769531 -0.0195312 L 412 241.363281 L 84.851562 378.5625 Z M -16.378906 137.179688 " clip-rule="nonzero"/></clipPath><clipPath id="98ec9e2458"><path d="M -16.378906 137.179688 L 310.769531 -0.0195312 L 412 241.363281 L 84.851562 378.5625 Z M -16.378906 137.179688 " clip-rule="nonzero"/></clipPath><clipPath id="e45cd682f1"><path d="M 231 121 L 300 121 L 300 211 L 231 211 Z M 231 121 " clip-rule="nonzero"/></clipPath><clipPath id="0e70a8c760"><path d="M -16.378906 137.179688 L 310.769531 -0.0195312 L 412 241.363281 L 84.851562 378.5625 Z M -16.378906 137.179688 " clip-rule="nonzero"/></clipPath><clipPath id="d27b39c6a2"><path d="M -16.378906 137.179688 L 310.769531 -0.0195312 L 412 241.363281 L 84.851562 378.5625 Z M -16.378906 137.179688 " clip-rule="nonzero"/></clipPath><clipPath id="984a21d30d"><path d="M -16.378906 137.179688 L 310.769531 -0.0195312 L 412 241.363281 L 84.851562 378.5625 Z M -16.378906 137.179688 " clip-rule="nonzero"/></clipPath><clipPath id="758e2d6810"><path d="M 317 201 L 340 201 L 340 228 L 317 228 Z M 317 201 " clip-rule="nonzero"/></clipPath><clipPath id="9e65bc205b"><path d="M -16.378906 137.179688 L 310.769531 -0.0195312 L 412 241.363281 L 84.851562 378.5625 Z M -16.378906 137.179688 " clip-rule="nonzero"/></clipPath><clipPath id="41154d7718"><path d="M -16.378906 137.179688 L 310.769531 -0.0195312 L 412 241.363281 L 84.851562 378.5625 Z M -16.378906 137.179688 " clip-rule="nonzero"/></clipPath><clipPath id="ccfcd3033a"><path d="M -16.378906 137.179688 L 310.769531 -0.0195312 L 412 241.363281 L 84.851562 378.5625 Z M -16.378906 137.179688 " clip-rule="nonzero"/></clipPath><clipPath id="1691a7fa5f"><path d="M 318 231 L 341 231 L 341 265 L 318 265 Z M 318 231 " clip-rule="nonzero"/></clipPath><clipPath id="e488f912a0"><path d="M -16.378906 137.179688 L 310.769531 -0.0195312 L 412 241.363281 L 84.851562 378.5625 Z M -16.378906 137.179688 " clip-rule="nonzero"/></clipPath><clipPath id="c352f5ecf2"><path d="M -16.378906 137.179688 L 310.769531 -0.0195312 L 412 241.363281 L 84.851562 378.5625 Z M -16.378906 137.179688 " clip-rule="nonzero"/></clipPath><clipPath id="e33d2c9510"><path d="M -16.378906 137.179688 L 310.769531 -0.0195312 L 412 241.363281 L 84.851562 378.5625 Z M -16.378906 137.179688 " clip-rule="nonzero"/></clipPath><clipPath id="167aeb27db"><path d="M 314 227 L 344 227 L 344 269 L 314 269 Z M 314 227 " clip-rule="nonzero"/></clipPath><clipPath id="df5ecce570"><path d="M -16.378906 137.179688 L 310.769531 -0.0195312 L 412 241.363281 L 84.851562 378.5625 Z M -16.378906 137.179688 " clip-rule="nonzero"/></clipPath><clipPath id="2edb88ba32"><path d="M -16.378906 137.179688 L 310.769531 -0.0195312 L 412 241.363281 L 84.851562 378.5625 Z M -16.378906 137.179688 " clip-rule="nonzero"/></clipPath><clipPath id="16379f67e9"><path d="M -16.378906 137.179688 L 310.769531 -0.0195312 L 412 241.363281 L 84.851562 378.5625 Z M -16.378906 137.179688 " clip-rule="nonzero"/></clipPath></defs><g clip-path="url(#13b902611c)"><g clip-path="url(#e196d7688e)"><g clip-path="url(#55832b28e6)"><g clip-path="url(#4c4b3c2a41)"><path fill="#000000" d="M 147.308594 69.960938 C 148.898438 68.828125 150.40625 67.5 152.21875 66.683594 C 156.1875 64.84375 161.019531 64.910156 164.914062 66.914062 C 166.363281 67.667969 167.613281 68.773438 168.914062 69.796875 C 180.460938 64.027344 192.050781 58.292969 203.617188 52.570312 C 206.988281 50.691406 211.082031 50.253906 214.757812 51.386719 C 218.496094 52.464844 221.527344 55.179688 223.441406 58.503906 C 236.769531 54.832031 250.0625 51.003906 263.367188 47.28125 C 266.011719 46.582031 268.867188 46.664062 271.480469 47.542969 C 275.675781 48.953125 279.191406 52.335938 280.617188 56.5625 C 293.714844 55.75 306.785156 54.863281 319.863281 54 C 321.964844 53.875 324.078125 53.570312 326.164062 54.035156 C 331.046875 54.925781 335.316406 58.511719 337.035156 63.167969 C 337.5625 64.839844 337.886719 66.589844 337.953125 68.339844 C 342.003906 130.660156 346.058594 192.984375 350.113281 255.304688 C 350.527344 262.605469 344.414062 269.675781 337.074219 270.136719 C 308.90625 272.003906 280.761719 273.777344 252.632812 275.660156 C 251.542969 275.769531 250.507812 276.144531 249.445312 276.386719 C 243.53125 277.964844 237.675781 279.753906 231.761719 281.332031 C 229.792969 281.835938 227.808594 282.378906 226.035156 283.355469 C 223.738281 284.609375 221.261719 285.5 219.121094 286.980469 C 214.125 290.675781 209.15625 294.445312 204.148438 298.175781 C 202.292969 299.445312 200.777344 301.101562 199.285156 302.742188 C 189.675781 312.996094 180.058594 323.222656 170.4375 333.449219 C 166.21875 337.746094 159.242188 338.726562 153.914062 336.015625 C 151.746094 335.007812 150.113281 333.191406 148.367188 331.597656 C 103.96875 289.976562 59.621094 248.332031 15.199219 206.71875 C 13.339844 205.054688 11.519531 203.289062 10.398438 201.027344 L 9.546875 199 C 8.0625 194.273438 9.082031 188.726562 12.476562 185.035156 C 22.351562 174.441406 32.289062 163.933594 42.167969 153.363281 C 42.675781 152.773438 43.371094 152.277344 43.59375 151.488281 C 44.4375 148.925781 45.722656 146.4375 47.746094 144.601562 C 51.386719 141.417969 55.761719 139.085938 59 135.433594 C 72.257812 121.324219 85.503906 107.191406 98.761719 93.085938 C 103.566406 87.550781 112.738281 86.875 118.378906 91.515625 C 128.109375 84.46875 137.667969 77.144531 147.308594 69.960938 Z M 148.949219 72.414062 C 139.433594 79.488281 129.984375 86.648438 120.457031 93.695312 C 120.28125 93.828125 120.125 94.011719 120.003906 94.207031 C 124.441406 91.675781 129.113281 89.632812 133.613281 87.25 C 134.320312 86.925781 134.699219 86.238281 135.21875 85.671875 C 136.984375 83.566406 139.503906 82.21875 142.105469 81.417969 C 145.277344 80.378906 148.667969 80.003906 151.59375 78.371094 C 156.394531 75.949219 161.230469 73.601562 166.042969 71.207031 C 162.910156 68.449219 158.246094 67.527344 154.3125 68.972656 C 152.273438 69.65625 150.679688 71.195312 148.949219 72.414062 Z M 102.625 93.558594 C 101.679688 94.214844 100.945312 95.105469 100.15625 95.929688 C 90.3125 106.453125 80.371094 116.875 70.617188 127.476562 C 74.910156 124.109375 79.332031 120.917969 83.675781 117.613281 C 83.976562 117.425781 84 117.066406 84.117188 116.789062 C 85.203125 113.277344 87.707031 110.222656 90.949219 108.457031 C 95.816406 105.976562 100.78125 103.664062 105.617188 101.113281 C 109.171875 98.691406 112.457031 95.917969 115.976562 93.484375 C 112.140625 90.582031 106.453125 90.757812 102.625 93.558594 Z M 201.101562 57.054688 C 188.941406 63.085938 176.8125 69.132812 164.636719 75.140625 C 171.511719 73.070312 178.460938 71.261719 185.355469 69.242188 C 185.929688 68.535156 186.378906 67.734375 187.027344 67.058594 C 189.519531 64.121094 193.179688 62.238281 197.03125 62.050781 C 202.320312 61.691406 207.621094 61.359375 212.910156 61 C 215.484375 61.027344 217.90625 60.007812 220.363281 59.414062 C 218.257812 55.296875 213.285156 53.082031 208.789062 53.804688 C 205.984375 54.195312 203.667969 55.953125 201.101562 57.054688 Z M 134.652344 97.917969 C 151.550781 158.054688 168.5 218.167969 185.421875 278.289062 C 185.757812 279.574219 186.125 280.875 186.808594 282.011719 C 189.238281 286.285156 194.550781 288.679688 199.332031 287.457031 C 208.664062 284.941406 217.925781 282.191406 227.257812 279.671875 C 228.652344 279.320312 230.070312 279.101562 231.410156 278.542969 C 233.5 277.636719 235.777344 277.378906 237.902344 276.546875 C 229.121094 277.320312 220.328125 277.722656 211.554688 278.378906 C 207.820312 278.695312 203.949219 277.585938 201.03125 275.203125 C 198.019531 272.746094 196.066406 269.058594 195.773438 265.167969 C 191.792969 203.714844 187.789062 142.273438 183.808594 80.824219 C 183.582031 78.128906 183.355469 75.371094 184.015625 72.710938 C 170.074219 76.582031 156.136719 80.535156 142.191406 84.464844 C 136.796875 86.175781 133.207031 92.390625 134.652344 97.917969 Z M 92.039062 111.195312 C 87.144531 113.949219 84.960938 120.675781 87.351562 125.753906 C 115.277344 182.074219 143.253906 238.378906 171.179688 294.699219 C 173.214844 298.789062 177.902344 301.359375 182.46875 300.871094 C 185.417969 300.621094 187.960938 298.914062 190.589844 297.695312 C 197.980469 294.015625 205.402344 290.351562 212.800781 286.695312 C 208.863281 287.707031 204.96875 288.960938 201.046875 290.023438 C 197.527344 291.066406 193.597656 290.851562 190.320312 289.144531 C 186.832031 287.410156 184.113281 284.1875 182.980469 280.449219 C 166.078125 220.375 149.140625 160.285156 132.253906 100.175781 C 131.289062 97.324219 131.164062 94.179688 132.007812 91.265625 C 118.738281 97.992188 105.355469 104.507812 92.039062 111.195312 Z M 191.695312 66.816406 C 188.769531 68.710938 186.828125 71.996094 186.535156 75.460938 C 186.425781 76.585938 186.578125 77.714844 186.636719 78.824219 C 190.632812 140.238281 194.609375 201.691406 198.605469 263.109375 C 198.632812 265.945312 199.335938 268.878906 201.148438 271.113281 C 203.414062 274.089844 207.25 275.675781 210.96875 275.457031 C 251.308594 272.785156 291.652344 270.199219 331.96875 267.539062 C 334.074219 267.351562 336.199219 267.363281 338.273438 266.960938 C 343.527344 265.890625 347.449219 260.609375 347.144531 255.300781 C 343.070312 192.582031 339.003906 129.886719 334.929688 67.164062 C 334.589844 62.128906 330.390625 57.730469 325.441406 56.894531 C 323.863281 56.597656 322.257812 56.863281 320.65625 56.925781 C 279.378906 59.582031 238.132812 62.3125 196.867188 64.996094 C 195.03125 65.125 193.238281 65.847656 191.695312 66.816406 Z M 229.335938 59.925781 C 242.230469 59.113281 255.117188 58.273438 267.992188 57.410156 C 271.238281 57.238281 274.496094 57.09375 277.722656 56.671875 C 277.230469 56.125 276.886719 55.511719 276.507812 54.886719 C 274.679688 51.988281 271.453125 50.113281 268.070312 49.816406 C 265.128906 49.539062 262.335938 50.652344 259.542969 51.414062 C 249.480469 54.269531 239.386719 57.046875 229.335938 59.925781 Z M 81.085938 123.234375 C 71.304688 130.503906 61.582031 137.839844 51.84375 145.148438 C 48.632812 147.136719 46.414062 150.652344 46.128906 154.410156 C 45.882812 157.15625 46.804688 159.910156 48.449219 162.097656 C 85.496094 211.515625 122.515625 260.941406 159.527344 310.34375 C 160.691406 312.007812 161.949219 313.691406 163.625 314.90625 C 166.648438 317.128906 170.773438 317.664062 174.265625 316.347656 C 176.40625 315.625 178.0625 314.027344 179.882812 312.742188 C 188.285156 306.484375 196.644531 300.128906 205.058594 293.898438 C 205.160156 293.796875 205.34375 293.601562 205.445312 293.5 C 199.808594 296.503906 194.058594 299.234375 188.363281 302.089844 C 185.941406 303.394531 183.171875 304.003906 180.417969 303.824219 C 176.648438 303.574219 172.980469 301.765625 170.550781 298.890625 C 168.492188 296.410156 167.335938 293.375 165.90625 290.515625 C 139.480469 237.285156 113.042969 184.03125 86.617188 130.800781 C 85.175781 127.914062 83.460938 124.941406 83.507812 121.578125 C 82.582031 121.9375 81.859375 122.648438 81.085938 123.234375 Z M 37.84375 162.273438 C 30.140625 170.472656 22.464844 178.667969 14.761719 186.867188 C 11.546875 190.308594 10.90625 195.785156 13.105469 199.917969 C 14.210938 201.929688 15.933594 203.472656 17.625 205.003906 C 61.894531 246.535156 106.15625 288.039062 150.425781 329.570312 C 152.132812 331.210938 153.804688 332.980469 156.082031 333.828125 C 160.117188 335.480469 165.140625 334.621094 168.261719 331.511719 C 175.050781 324.390625 181.703125 317.152344 188.492188 310.03125 C 184.96875 312.382812 181.765625 315.148438 178.285156 317.539062 C 175.421875 319.523438 171.789062 320.292969 168.34375 319.847656 C 164.648438 319.363281 161.164062 317.363281 158.898438 314.390625 C 121.222656 264.101562 83.539062 213.789062 45.867188 163.5 C 44.359375 161.429688 43.589844 158.902344 43.144531 156.386719 C 41.617188 158.566406 39.578125 160.296875 37.84375 162.273438 Z M 37.84375 162.273438 " fill-opacity="1" fill-rule="nonzero"/></g></g></g></g><g clip-path="url(#9c21b733a2)"><g clip-path="url(#dfc2424497)"><g clip-path="url(#cf2f580a2e)"><g clip-path="url(#a1d23dfa6a)"><path fill="#000000" d="M 15.566406 193.304688 C 15.75 193.113281 16.113281 192.726562 16.292969 192.535156 C 24.566406 200.402344 32.894531 208.253906 41.152344 216.15625 C 40.972656 216.347656 40.597656 216.707031 40.441406 216.890625 C 32.117188 209.042969 23.867188 201.164062 15.566406 193.304688 Z M 15.566406 193.304688 " fill-opacity="1" fill-rule="nonzero"/></g></g></g></g><g clip-path="url(#ecadc1eb71)"><g clip-path="url(#a5fabaef55)"><g clip-path="url(#7213bf021e)"><g clip-path="url(#cce2b1a84d)"><path stroke-linecap="butt" transform="matrix(0.247425, -0.103764, 0.103695, 0.24726, -16.344655, 137.257491)" fill="none" stroke-linejoin="miter" d="M 28.893032 238.798369 C 29.799966 238.404861 31.606039 237.598775 32.499547 237.199633 C 49.59618 276.191838 66.903303 315.209184 83.895556 354.299768 C 83.002048 354.69891 81.195111 355.394046 80.393422 355.800125 C 63.094095 316.801849 46.09491 277.803145 28.893032 238.798369 Z M 28.893032 238.798369 " stroke="#000000" stroke-width="1" stroke-opacity="1" stroke-miterlimit="10"/></g></g></g></g><g clip-path="url(#242d8ff683)"><g clip-path="url(#dd8cfadbfa)"><g clip-path="url(#d87f57f904)"><g clip-path="url(#59a9827ff1)"><path fill="#000000" d="M 24.628906 185.144531 C 26.265625 181.839844 31.101562 180.597656 33.941406 183.070312 C 39.113281 187.910156 44.21875 192.800781 49.339844 197.660156 C 51.210938 199.347656 51.652344 202.273438 50.589844 204.523438 C 49.542969 206.882812 46.980469 208.476562 44.40625 208.308594 C 42.921875 208.234375 41.550781 207.527344 40.511719 206.511719 C 35.539062 201.792969 30.5625 197.074219 25.578125 192.335938 C 23.679688 190.511719 23.34375 187.425781 24.628906 185.144531 Z M 25.757812 185.339844 C 24.410156 187.328125 24.730469 190.246094 26.558594 191.835938 C 31.535156 196.550781 36.484375 201.277344 41.476562 205.960938 C 43.304688 207.753906 46.449219 207.625 48.285156 205.894531 C 50.4375 204.09375 50.722656 200.398438 48.601562 198.464844 C 43.5625 193.660156 38.496094 188.863281 33.4375 184.09375 C 31.238281 181.964844 27.289062 182.75 25.757812 185.339844 Z M 25.757812 185.339844 " fill-opacity="1" fill-rule="nonzero"/></g></g></g></g><g clip-path="url(#d9e95ab1d3)"><g clip-path="url(#f9eb4429a0)"><g clip-path="url(#9ba66fb201)"><g clip-path="url(#b426efbc22)"><path stroke-linecap="butt" transform="matrix(0.247425, -0.103764, 0.103695, 0.24726, -16.344655, 137.257491)" fill="none" stroke-linejoin="miter" d="M 71.80429 223.804043 C 82.193402 214.798671 100.605615 217.501675 106.802285 230.102383 C 117.602243 254.208574 128.100756 278.393638 138.69802 302.493758 C 142.696745 310.996653 139.996557 321.696317 133.101373 327.90244 C 126.102236 334.507287 114.99733 336.29268 106.391564 332.001888 C 101.39658 329.605543 97.703121 325.196091 95.595712 320.204181 C 85.305942 296.801837 75.002745 273.393858 64.70085 249.907434 C 60.805214 240.894865 64.098766 229.796487 71.80429 223.804043 Z M 75.402937 226.104149 C 67.904892 230.998801 64.799752 241.496927 68.791555 249.601964 C 79.100382 272.996508 89.298333 296.391916 99.70591 319.701516 C 103.404919 328.505184 114.398843 332.597523 123.203544 329.293897 C 133.197121 326.204825 139.503824 313.906424 135.000551 304.196508 C 124.606409 280.402804 114.107022 256.596529 103.595073 232.89557 C 99.104808 222.401204 84.399134 219.405292 75.402937 226.104149 Z M 75.402937 226.104149 " stroke="#000000" stroke-width="1" stroke-opacity="1" stroke-miterlimit="10"/></g></g></g></g><g clip-path="url(#d699a0a25f)"><g clip-path="url(#cf319a6254)"><g clip-path="url(#a0afd7dd3f)"><g clip-path="url(#c5da87ed71)"><path fill="#000000" d="M 49.769531 211.933594 C 55.773438 213.28125 62.136719 212.707031 68.058594 214.613281 C 69.894531 215.179688 71.617188 216.433594 72.324219 218.261719 C 73.398438 221.035156 71.085938 224.535156 68.082031 224.519531 C 66.800781 224.589844 65.625 224.007812 64.449219 223.628906 C 64.3125 223.714844 64.058594 223.878906 63.945312 223.953125 C 66.484375 225.914062 69.488281 227.183594 72.558594 228.046875 C 70.746094 229.972656 68.949219 231.859375 67.125 233.757812 C 66.039062 230.753906 64.65625 227.726562 62.496094 225.347656 C 62.4375 225.488281 62.332031 225.792969 62.261719 225.96875 C 62.753906 227.214844 63.417969 228.449219 63.324219 229.828125 C 63.25 232.910156 59.535156 235.222656 56.753906 233.863281 C 54.140625 232.691406 53.167969 229.753906 52.535156 227.199219 C 51.171875 222.21875 51.175781 216.953125 49.769531 211.933594 Z M 49.769531 211.933594 " fill-opacity="1" fill-rule="nonzero"/></g></g></g></g><g clip-path="url(#02e2c1300d)"><g clip-path="url(#83904497f8)"><g clip-path="url(#709ea08d8b)"><g clip-path="url(#46cd577bcf)"><path fill="#000000" d="M 56.101562 145.660156 C 59.140625 143.195312 62.238281 140.792969 65.320312 138.363281 C 65.464844 138.566406 65.785156 138.984375 65.953125 139.175781 C 62.902344 141.617188 59.875 144.109375 56.726562 146.386719 C 56.570312 146.21875 56.269531 145.851562 56.101562 145.660156 Z M 56.101562 145.660156 " fill-opacity="1" fill-rule="nonzero"/></g></g></g></g><g clip-path="url(#d1be52d597)"><g clip-path="url(#f35f467fb2)"><g clip-path="url(#d6d7c0aaf3)"><g clip-path="url(#6936660e40)"><path stroke-linecap="butt" transform="matrix(0.247425, -0.103764, 0.103695, 0.24726, -16.344655, 137.257491)" fill="none" stroke-linejoin="miter" d="M 236.893932 133.397359 C 250.892472 129.303311 265.002315 125.508743 279.097867 121.597591 C 279.301844 122.504696 279.800316 124.404285 280.101742 125.304891 C 266.096708 129.301424 252.099032 133.506421 237.994829 136.797814 C 237.699898 135.994724 237.195359 134.297964 236.893932 133.397359 Z M 236.893932 133.397359 " stroke="#000000" stroke-width="1" stroke-opacity="1" stroke-miterlimit="10"/></g></g></g></g><g clip-path="url(#b84a4b0582)"><g clip-path="url(#a9f36b13af)"><g clip-path="url(#e254b4019c)"><g clip-path="url(#b9ea2dbe96)"><path fill="#000000" d="M 61.785156 144.292969 C 62.066406 144.0625 62.371094 143.816406 62.675781 143.574219 C 67.636719 149.921875 72.652344 156.195312 77.613281 162.542969 C 79.394531 164.851562 79.492188 168.269531 77.710938 170.617188 C 75.917969 172.996094 73.246094 175.019531 70.207031 175.332031 C 67.519531 175.585938 65.085938 173.875 63.628906 171.722656 C 63.847656 171.546875 64.289062 171.214844 64.480469 171.046875 C 65.480469 172.460938 66.835938 173.75 68.589844 174.121094 C 70.558594 174.574219 72.570312 173.757812 74.136719 172.636719 C 75.742188 171.46875 77.261719 169.960938 77.734375 167.960938 C 78.207031 166.105469 77.519531 164.125 76.308594 162.6875 C 71.464844 156.546875 66.660156 150.363281 61.785156 144.292969 Z M 61.785156 144.292969 " fill-opacity="1" fill-rule="nonzero"/></g></g></g></g><g clip-path="url(#f430cbd580)"><g clip-path="url(#e163437d63)"><g clip-path="url(#a3c2f94208)"><g clip-path="url(#39c787eebd)"><path stroke-linecap="butt" transform="matrix(0.247425, -0.103764, 0.103695, 0.24726, -16.344655, 137.257491)" fill="none" stroke-linejoin="miter" d="M 258.399817 136.893103 C 259.698713 136.506103 261.100689 136.099169 262.497035 135.70567 C 270.398548 164.693595 278.595011 193.505133 286.496525 222.493059 C 289.291174 233.002562 284.700017 244.899234 275.193642 250.404506 C 265.601943 256.000356 253.501731 259.105859 242.605675 255.797104 C 233.00244 252.793917 227.104122 243.399055 225.198623 233.894617 C 226.203871 233.605559 228.199639 233.100255 229.099642 232.798627 C 230.498463 239.104583 233.299252 245.493345 238.792717 249.299541 C 244.90638 253.69777 252.997691 253.791532 259.997602 252.195025 C 267.199344 250.493639 274.595574 247.499433 279.103036 241.302367 C 283.402165 235.602404 283.893885 227.799095 281.803831 221.108268 C 274.00668 193.001441 266.405729 164.803171 258.399817 136.893103 Z M 258.399817 136.893103 " stroke="#000000" stroke-width="1" stroke-opacity="1" stroke-miterlimit="10"/></g></g></g></g><g clip-path="url(#429f41daf5)"><g clip-path="url(#bb6be31daa)"><g clip-path="url(#5b4a617ef4)"><g clip-path="url(#b85e2e55ba)"><path fill="#000000" d="M 79.414062 175.164062 C 84.269531 177.023438 89.5 177.5625 94.398438 179.257812 C 97.117188 180.183594 100.230469 181.4375 101.210938 184.398438 C 102.378906 187.601562 99.085938 191.335938 95.785156 190.539062 C 94.398438 190.425781 93.402344 189.15625 92.027344 189.210938 C 92.492188 190.175781 93.414062 190.78125 94.226562 191.398438 C 96.09375 192.738281 98.054688 194.007812 100.195312 194.882812 C 98.066406 196.53125 95.945312 198.207031 93.835938 199.90625 C 93.386719 197.449219 92.5625 195.0625 91.585938 192.738281 C 91.265625 191.972656 90.84375 191.246094 90.273438 190.644531 C 89.769531 191.871094 90.792969 193.070312 90.660156 194.347656 C 90.855469 197.582031 87.03125 200.054688 84.109375 198.839844 C 82.105469 198.023438 80.898438 195.96875 80.46875 193.910156 C 79.621094 189.875 79.769531 185.714844 79.78125 181.582031 C 79.765625 179.464844 79.898438 177.285156 79.414062 175.164062 Z M 79.414062 175.164062 " fill-opacity="1" fill-rule="nonzero"/></g></g></g></g><g clip-path="url(#5f0ab0edfa)"><g clip-path="url(#14afceebea)"><g clip-path="url(#c883756c42)"><g clip-path="url(#60e2f2f137)"><path fill="#010101" d="M 93.269531 114.402344 C 94.199219 112.179688 96.449219 110.886719 98.679688 110.300781 C 100.839844 109.773438 103.152344 110.636719 104.648438 112.1875 C 107.160156 114.710938 108.683594 117.996094 110.289062 121.132812 C 112.441406 125.636719 115.101562 130.105469 115.652344 135.167969 C 117.601562 135.511719 119.546875 135.160156 121.34375 134.378906 C 121.445312 134.625 121.667969 135.085938 121.773438 135.332031 C 120.082031 136.15625 118.175781 136.609375 116.292969 136.351562 C 116.003906 136.355469 115.441406 136.125 115.402344 136.578125 C 114.765625 139.578125 111.824219 141.511719 108.945312 141.933594 C 107.050781 142.203125 105.171875 141.394531 103.8125 140.101562 C 101.597656 138.007812 100.207031 135.246094 98.796875 132.582031 C 97.519531 133 96.273438 133.496094 95.054688 134.0625 C 94.925781 133.828125 94.671875 133.351562 94.542969 133.117188 C 95.738281 132.5 97.019531 132.019531 98.277344 131.550781 C 96.601562 128.035156 94.738281 124.632812 93.503906 120.933594 C 92.839844 118.855469 92.398438 116.484375 93.269531 114.402344 Z M 95.183594 113.484375 C 93.492188 115.210938 93.757812 117.859375 94.363281 119.992188 C 95.554688 123.941406 97.570312 127.570312 99.390625 131.285156 C 101.824219 130.847656 104.355469 130.773438 106.757812 131.511719 C 109.460938 132.265625 111.820312 133.867188 114.476562 134.726562 C 113.824219 129.769531 111.09375 125.476562 109.023438 121.023438 C 107.320312 117.871094 105.8125 114.347656 102.832031 112.164062 C 100.429688 110.382812 97.105469 111.542969 95.183594 113.484375 Z M 99.980469 132.347656 C 101.613281 135.414062 103.253906 138.96875 106.5625 140.546875 C 109.757812 141.648438 113.960938 139.394531 114.410156 135.949219 C 111.765625 134.992188 109.320312 133.460938 106.621094 132.644531 C 104.476562 131.972656 102.179688 131.832031 99.980469 132.347656 Z M 99.980469 132.347656 " fill-opacity="1" fill-rule="nonzero"/></g></g></g></g><g clip-path="url(#24a7a8ca64)"><g clip-path="url(#d68bf33969)"><g clip-path="url(#a4580a2b4e)"><g clip-path="url(#a34a3d2978)"><path stroke-linecap="butt" transform="matrix(0.247425, -0.103764, 0.103695, 0.24726, -16.344655, 137.257491)" fill="none" stroke-linejoin="miter" d="M 409.70088 79.500207 C 416.100158 73.19656 425.697407 71.994926 434.208379 73.196893 C 442.393219 74.498969 449.097173 80.803723 452.004052 88.295482 C 456.999721 100.597557 457.500579 114.093993 458.497352 127.198213 C 459.403072 145.793575 462.104877 165.000494 456.700662 183.206983 C 462.904852 187.200854 470.097871 188.797622 477.400064 188.702408 C 477.394415 189.695321 477.495294 191.601838 477.503072 192.600386 C 470.50145 192.995516 463.296297 191.804407 457.196478 188.201897 C 456.197307 187.798385 454.596138 186.194353 453.808721 187.696493 C 447.295913 197.096328 434.398796 199.504047 423.895558 196.802488 C 416.995324 194.996828 411.702852 189.505587 408.894268 183.097756 C 404.299622 172.70177 403.500749 161.197223 402.49398 150.000385 C 397.501125 149.5955 392.503067 149.504395 387.497641 149.694564 C 387.392414 148.702516 387.206648 146.697183 387.101421 145.705134 C 392.099488 145.306501 397.195859 145.502056 402.194781 145.704111 C 401.502509 131.195256 400.002488 116.805571 401.092019 102.301949 C 401.805063 94.196565 403.705699 85.404702 409.70088 79.500207 Z M 417.602932 79.103793 C 409.300632 82.602458 406.39604 92.094673 405.402774 100.303633 C 403.805193 115.60513 405.502259 130.9938 406.40414 146.396324 C 415.399311 148.401819 424.206488 151.797649 431.399426 157.802067 C 439.60366 164.294077 445.404538 173.205699 453.29563 179.992846 C 458.198736 162.002613 455.00188 143.298859 454.304912 124.996477 C 452.995006 111.697656 452.891322 97.40421 445.794641 85.59487 C 440.105085 76.003249 427.007065 75.198623 417.602932 79.103793 Z M 406.899965 150.901499 C 408.092073 163.803326 408.607204 178.395823 417.704438 188.595996 C 427.09925 196.993676 444.79475 195.304184 451.304993 184.102283 C 443.594945 176.996159 437.397339 168.202413 429.296621 161.501075 C 422.894093 156.096926 415.202175 152.300224 406.899965 150.901499 Z M 406.899965 150.901499 " stroke="#000000" stroke-width="1" stroke-opacity="1" stroke-miterlimit="10"/></g></g></g></g><g clip-path="url(#d99f341f34)"><g clip-path="url(#7abdaff8a3)"><g clip-path="url(#244025e755)"><g clip-path="url(#e29a56a8d0)"><path fill="#010101" d="M 113.484375 144.914062 C 118.28125 147.960938 123.820312 149.652344 128.574219 152.800781 C 130.59375 154.078125 132.625 155.871094 132.902344 158.402344 C 133.363281 161.582031 129.832031 164.542969 126.789062 163.523438 C 125.417969 163.167969 124.441406 162.09375 123.367188 161.265625 C 123.253906 161.34375 122.992188 161.480469 122.878906 161.558594 C 124.644531 164.308594 127.085938 166.597656 129.722656 168.515625 C 127.300781 169.675781 124.875 170.898438 122.464844 172.082031 C 122.34375 168.820312 122.289062 165.351562 120.890625 162.363281 C 120.796875 162.488281 120.578125 162.726562 120.484375 162.855469 C 120.554688 164.132812 120.742188 165.480469 120.261719 166.699219 C 119.433594 169.226562 116.1875 170.441406 113.789062 169.441406 C 111.898438 168.605469 110.824219 166.527344 110.644531 164.507812 C 110.203125 157.832031 112.984375 151.492188 113.484375 144.914062 Z M 113.484375 144.914062 " fill-opacity="1" fill-rule="nonzero"/></g></g></g></g><g clip-path="url(#43371ce0a4)"><g clip-path="url(#6c75c3b9c7)"><g clip-path="url(#fe213b4c00)"><g clip-path="url(#167a3e42d1)"><path fill="#050505" d="M 142.082031 87.535156 C 142.339844 87.457031 142.839844 87.332031 143.097656 87.253906 C 143.226562 87.695312 143.339844 88.113281 143.46875 88.554688 C 145.140625 88.171875 146.773438 87.691406 148.433594 87.285156 C 148.503906 87.515625 148.617188 87.992188 148.683594 88.226562 C 147.070312 88.816406 145.410156 89.164062 143.769531 89.617188 C 145.3125 95.308594 146.832031 101.011719 148.347656 106.710938 C 150.992188 99.90625 153.589844 93.058594 156.234375 86.25 C 154.519531 86.738281 152.769531 87.210938 151.03125 87.648438 C 150.953125 87.390625 150.828125 86.890625 150.75 86.632812 C 152.824219 86.023438 154.988281 85.640625 156.992188 84.800781 C 158.148438 84.636719 159.269531 84.398438 160.375 84.050781 C 160.453125 84.308594 160.585938 84.832031 160.65625 85.066406 C 159.589844 85.367188 158.503906 85.621094 157.457031 85.972656 C 155.808594 90.5 153.980469 94.960938 152.308594 99.5 C 152.425781 99.855469 152.710938 100.117188 152.953125 100.421875 C 157.128906 105.242188 161.339844 110.074219 165.488281 114.90625 C 166.492188 114.660156 167.484375 114.390625 168.476562 114.117188 C 168.554688 114.375 168.675781 114.875 168.730469 115.144531 C 165.5625 116.125 162.296875 116.796875 159.105469 117.726562 C 159.027344 117.46875 158.90625 116.96875 158.828125 116.710938 C 160.667969 116.171875 162.523438 115.742188 164.351562 115.179688 C 160.308594 110.535156 156.28125 105.855469 152.230469 101.1875 C 151.953125 100.808594 151.734375 100.84375 151.609375 101.304688 C 150.691406 103.695312 149.703125 106.058594 148.890625 108.492188 C 149.648438 111.894531 150.710938 115.257812 151.554688 118.65625 C 153.214844 118.25 154.828125 117.71875 156.507812 117.421875 C 156.574219 117.65625 156.710938 118.121094 156.78125 118.355469 C 155.148438 118.835938 153.476562 119.214844 151.867188 119.746094 C 151.980469 120.164062 152.074219 120.589844 152.199219 121.03125 C 151.933594 121.085938 151.464844 121.222656 151.199219 121.277344 C 151.082031 120.859375 150.953125 120.417969 150.839844 120.003906 C 149.601562 120.316406 148.378906 120.65625 147.128906 121.007812 C 147.050781 120.75 146.925781 120.246094 146.847656 119.988281 C 148.074219 119.652344 149.308594 119.335938 150.558594 118.988281 C 148.007812 109.296875 145.398438 99.605469 142.773438 89.949219 C 141.546875 90.289062 140.324219 90.628906 139.0625 90.953125 C 138.984375 90.695312 138.863281 90.195312 138.78125 89.9375 C 140.019531 89.621094 141.269531 89.273438 142.492188 88.933594 C 142.300781 88.402344 142.207031 87.976562 142.082031 87.535156 Z M 142.082031 87.535156 " fill-opacity="1" fill-rule="nonzero"/></g></g></g></g><g clip-path="url(#8de05784a7)"><g clip-path="url(#f62b118b13)"><g clip-path="url(#fc3515d180)"><g clip-path="url(#a418bbde6c)"><path stroke-linecap="butt" transform="matrix(0.247425, -0.103764, 0.103695, 0.24726, -16.344655, 137.257491)" fill="none" stroke-linejoin="miter" d="M 616.202567 57.500417 C 617.20131 57.603584 619.100048 57.894862 620.098792 57.998029 C 619.905595 59.702144 619.692476 61.303109 619.499279 63.007224 C 625.797507 64.102101 632.102239 64.804754 638.393972 65.802117 C 638.303436 66.696214 638.005858 68.498708 637.896266 69.400606 C 631.501007 69.102311 625.293734 67.90342 619.001564 67.095452 C 616.101077 88.896151 613.103141 110.70335 610.097409 132.491478 C 628.995544 112.901833 647.794501 93.096787 666.698267 73.493706 C 660.100323 72.699601 653.404066 71.801045 646.798763 70.798476 C 646.901861 69.799064 647.192944 67.899055 647.296042 66.899643 C 655.303748 67.795622 663.293681 69.600435 671.391923 69.602318 C 675.602573 70.705824 679.799369 71.503353 684.100119 71.902157 C 683.997021 72.90157 683.699006 74.893458 683.60284 75.80099 C 679.503921 75.297307 675.405438 74.60423 671.300451 74.303377 C 659.108669 87.497068 646.395001 100.203177 634.105769 113.403367 C 633.996168 114.795004 634.599029 116.106475 634.992265 117.503756 C 642.396688 140.105996 649.905055 162.799251 657.198603 185.402356 C 661.003874 186.003981 664.80265 186.508092 668.607056 186.998768 C 668.503958 187.99818 668.199449 189.892554 667.998902 190.898466 C 655.696941 189.701197 643.504145 187.301685 631.194825 185.895951 C 631.297923 184.896539 631.602432 183.002165 631.70553 182.002753 C 638.806311 182.802501 645.80314 184.000973 652.897426 184.703207 C 645.696116 162.897122 638.599186 140.992657 631.404807 119.094691 C 630.997717 117.391432 630.195173 117.196822 629.101118 118.601876 C 622.500001 125.50014 615.696627 132.202938 609.396082 139.401119 C 607.09648 152.196266 605.90043 165.296545 603.901836 178.202214 C 610.193569 179.199577 616.504368 179.6994 622.705574 181.101121 C 622.595982 182.003019 622.395853 183.799014 622.299687 184.706546 C 615.994955 184.003893 609.702358 182.89558 603.404985 182.401392 C 603.191867 184.002358 602.900356 185.602022 602.693733 187.300502 C 601.70192 187.105455 599.893701 186.899558 598.901888 186.704511 C 599.10158 185.097911 599.294777 183.393796 599.502265 181.806266 C 594.7957 181.094974 590.103425 180.500267 585.300275 179.906424 C 585.403373 178.907012 585.700086 176.993568 585.803184 175.994156 C 590.503254 176.607933 595.202024 177.300155 599.999544 177.907432 C 605.201842 140.895396 610.202747 103.798843 615.099272 66.80067 C 610.393571 66.200328 605.701296 65.605621 600.897281 64.900829 C 601.000379 63.901416 601.304888 62.007042 601.39456 61.001996 C 606.106756 61.699852 610.904276 62.30713 615.59655 62.901837 C 615.704433 60.798562 615.995943 59.198897 616.202567 57.500417 Z M 616.202567 57.500417 " stroke="#000000" stroke-width="1" stroke-opacity="1" stroke-miterlimit="10"/></g></g></g></g><g clip-path="url(#7b0e3d9548)"><g clip-path="url(#40e238d203)"><g clip-path="url(#92fc0306e9)"><g clip-path="url(#62efa02804)"><path fill="#050505" d="M 156.996094 127.191406 C 157.738281 125.425781 158.589844 123.640625 158.921875 121.730469 C 159.363281 122.359375 159.898438 122.949219 160.53125 123.410156 C 164.445312 126.566406 168.847656 129.226562 172.328125 132.882812 C 173.804688 134.386719 174.9375 136.46875 174.601562 138.648438 C 174.160156 141.621094 170.289062 143.421875 167.742188 141.785156 C 166.640625 141.171875 166.003906 140.070312 165.171875 139.199219 C 165.027344 139.199219 164.765625 139.195312 164.632812 139.164062 C 165.683594 142.152344 167.621094 144.828125 169.800781 147.113281 C 167.246094 147.75 164.6875 148.445312 162.136719 149.164062 C 162.738281 147.402344 162.816406 145.507812 162.914062 143.664062 C 162.957031 142.308594 163.0625 140.898438 162.550781 139.601562 C 161.976562 140.042969 162.070312 140.820312 161.933594 141.460938 C 161.746094 142.816406 161.125 144.183594 159.964844 144.957031 C 158.132812 146.136719 155.386719 146.035156 153.886719 144.339844 C 152.511719 142.792969 152.3125 140.582031 152.71875 138.636719 C 153.585938 134.667969 155.398438 130.941406 156.996094 127.191406 Z M 156.996094 127.191406 " fill-opacity="1" fill-rule="nonzero"/></g></g></g></g><g clip-path="url(#86c270e0e3)"><g clip-path="url(#be43235044)"><g clip-path="url(#dde6676255)"><g clip-path="url(#52d5cddb7a)"><path fill="#000000" d="M 200.757812 66.910156 C 201.085938 66.863281 201.386719 66.820312 201.714844 66.769531 C 204.675781 76.957031 207.480469 87.175781 210.441406 97.363281 C 211.492188 97.300781 212.542969 97.238281 213.566406 97.183594 C 213.59375 97.523438 213.585938 97.847656 213.609375 98.183594 C 211.003906 98.289062 208.382812 98.488281 205.777344 98.589844 C 205.117188 98.75 205.289062 97.980469 205.304688 97.597656 C 206.664062 97.578125 208.015625 97.476562 209.347656 97.386719 C 208.761719 95.160156 208.136719 92.976562 207.480469 90.78125 C 204.195312 90.996094 200.894531 91.101562 197.59375 91.351562 C 197.25 93.589844 196.824219 95.832031 196.457031 98.078125 C 197.820312 98.003906 199.171875 97.960938 200.523438 97.855469 C 200.542969 98.109375 200.605469 98.609375 200.652344 98.851562 C 197.847656 99.039062 195.0625 99.1875 192.289062 99.304688 C 192.304688 99.066406 192.324219 98.5625 192.332031 98.296875 C 193.367188 98.269531 194.417969 98.207031 195.457031 98.121094 C 197.175781 87.71875 199.011719 77.324219 200.757812 66.910156 Z M 201.085938 70.960938 C 200.042969 77.417969 198.867188 83.839844 197.820312 90.296875 C 200.957031 90.144531 204.082031 89.96875 207.210938 89.792969 C 205.328125 83.019531 203.367188 76.253906 201.460938 69.496094 C 201.285156 69.976562 201.167969 70.460938 201.085938 70.960938 Z M 201.085938 70.960938 " fill-opacity="1" fill-rule="nonzero"/></g></g></g></g><g clip-path="url(#afe8190dfc)"><g clip-path="url(#814bb89418)"><g clip-path="url(#a6010674bd)"><g clip-path="url(#bfdbbf707c)"><path stroke-linecap="butt" transform="matrix(0.247425, -0.103764, 0.103695, 0.24726, -16.344655, 137.257491)" fill="none" stroke-linejoin="miter" d="M 847.607708 71.196989 C 848.803079 71.509057 849.898835 71.795119 851.099837 72.093752 C 846.592201 111.403674 841.50247 150.595701 836.994834 189.905623 C 840.696579 191.206316 844.398324 192.507009 847.994825 193.795132 C 847.598942 195.003437 847.104747 196.107291 846.701069 197.296526 C 837.593748 193.901124 828.297587 190.805629 819.195898 187.396792 C 816.696009 186.99542 818.396 184.596597 819.001507 183.302484 C 823.701988 185.196083 828.493859 186.796274 833.201707 188.408599 C 834.397239 179.905365 835.396572 171.493575 836.305387 162.996403 C 824.704245 158.9968 813.207056 154.598472 801.501534 150.697248 C 797.093668 157.899797 792.39822 164.997459 787.898535 172.193072 C 792.691271 173.904213 797.398682 175.705932 802.196184 177.292688 C 801.897323 178.194149 801.391421 180.004007 801.203435 180.904603 C 791.293134 177.503986 781.50627 173.997188 771.80473 170.399812 C 772.201904 169.602802 772.995388 167.897831 773.405124 166.995505 C 777.002489 168.394578 780.704234 169.695271 784.399484 170.89845 C 805.301425 137.599617 826.594892 104.496687 847.607708 71.196989 Z M 842.896535 85.602596 C 830.00428 106.306617 816.706209 126.69815 803.800528 147.396536 C 814.801383 151.396996 825.795744 155.29994 836.80353 159.20852 C 840.095623 133.196072 843.10793 107.097807 846.296944 81.105295 C 845.000194 82.504277 843.899208 84.001212 842.896535 85.602596 Z M 842.896535 85.602596 " stroke="#000000" stroke-width="1" stroke-opacity="1" stroke-miterlimit="10"/></g></g></g></g><g clip-path="url(#5848be8160)"><g clip-path="url(#8c38f4c270)"><g clip-path="url(#fed2327eab)"><g clip-path="url(#98ec9e2458)"><path fill="#000000" d="M 203.152344 102.597656 C 206.394531 107.34375 211.019531 111.015625 213.816406 116.09375 C 214.710938 117.667969 215.105469 119.652344 214.367188 121.359375 C 213.28125 123.90625 209.460938 124.785156 207.449219 122.835938 C 206.542969 122.054688 206.148438 120.910156 205.578125 119.898438 C 205.433594 119.902344 205.144531 119.90625 205.027344 119.898438 C 205.515625 122.804688 206.761719 125.566406 208.214844 128.125 C 205.777344 128.277344 203.363281 128.417969 200.902344 128.519531 C 202.09375 125.808594 203.105469 122.882812 203.128906 119.878906 C 202.980469 119.941406 202.71875 120.082031 202.570312 120.144531 C 202.128906 121.316406 201.757812 122.578125 200.808594 123.441406 C 198.6875 125.523438 194.496094 124.546875 193.679688 121.632812 C 192.792969 118.894531 194.328125 116.242188 195.636719 113.949219 C 197.917969 110.027344 201.078125 106.667969 203.152344 102.597656 Z M 203.152344 102.597656 " fill-opacity="1" fill-rule="nonzero"/></g></g></g></g><g clip-path="url(#e45cd682f1)"><g clip-path="url(#0e70a8c760)"><g clip-path="url(#d27b39c6a2)"><g clip-path="url(#984a21d30d)"><path fill="#000000" d="M 262.257812 121.570312 C 263.925781 125.40625 266.59375 128.648438 269.152344 131.90625 C 276.871094 141.433594 285.109375 150.597656 291.925781 160.820312 C 294.75 165.191406 297.472656 169.746094 298.734375 174.832031 C 299.71875 179.535156 299.386719 184.847656 296.578125 188.90625 C 292.890625 194.203125 285.148438 196.34375 279.371094 193.386719 C 274.625 190.8125 272.15625 185.6875 270.425781 180.800781 C 269.808594 180.855469 269.191406 180.910156 268.609375 180.980469 C 268.613281 185.222656 270.332031 189.183594 271.570312 193.171875 C 273.644531 198.667969 275.511719 204.371094 278.976562 209.167969 C 271.066406 209.519531 263.125 209.941406 255.226562 210.460938 C 258.066406 205.375 259.34375 199.605469 260.777344 194.003906 C 261.65625 189.855469 262.851562 185.632812 262.503906 181.332031 C 261.878906 181.300781 261.292969 181.285156 260.679688 181.28125 C 259.582031 185.8125 257.988281 190.550781 254.421875 193.761719 C 249.648438 198.0625 241.828125 197.589844 236.996094 193.628906 C 231.523438 188.972656 230.726562 180.761719 232.761719 174.238281 C 235.578125 165.207031 240.722656 157.144531 245.738281 149.199219 C 249.902344 142.683594 254.367188 136.332031 258.441406 129.742188 C 259.945312 127.160156 261.625 124.566406 262.257812 121.570312 Z M 262.257812 121.570312 " fill-opacity="1" fill-rule="nonzero"/></g></g></g></g><g clip-path="url(#758e2d6810)"><g clip-path="url(#9e65bc205b)"><g clip-path="url(#41154d7718)"><g clip-path="url(#ccfcd3033a)"><path fill="#000000" d="M 324.683594 201.394531 C 327.214844 201.324219 329.753906 201.277344 332.285156 201.203125 C 331.257812 203.058594 330.636719 205.121094 330.070312 207.160156 C 329.835938 208.132812 329.527344 209.132812 329.773438 210.136719 C 330.429688 209.6875 330.554688 208.875 330.863281 208.222656 C 331.402344 207.011719 332.375 205.933594 333.664062 205.539062 C 335.515625 205.023438 337.773438 205.617188 338.851562 207.289062 C 339.882812 208.917969 339.800781 211.078125 339.011719 212.804688 C 336.59375 218.351562 332.007812 222.542969 329.050781 227.765625 C 328.261719 226.089844 326.957031 224.71875 325.804688 223.285156 C 323.265625 220.21875 320.558594 217.226562 318.667969 213.6875 C 317.746094 211.980469 317.363281 209.816406 318.238281 208.023438 C 319.453125 205.507812 323.253906 204.785156 325.273438 206.757812 C 326.195312 207.566406 326.582031 208.769531 327.136719 209.816406 C 327.671875 210.464844 327.773438 209.316406 327.617188 208.945312 C 326.996094 206.355469 326.101562 203.738281 324.683594 201.394531 Z M 324.683594 201.394531 " fill-opacity="1" fill-rule="nonzero"/></g></g></g></g><g clip-path="url(#1691a7fa5f)"><g clip-path="url(#e488f912a0)"><g clip-path="url(#c352f5ecf2)"><g clip-path="url(#e33d2c9510)"><path fill="#000000" d="M 318.332031 231.972656 C 321.15625 231.832031 323.996094 231.804688 326.839844 231.71875 C 326.859375 231.972656 326.871094 232.488281 326.855469 232.730469 C 325.46875 232.757812 324.0625 232.796875 322.652344 232.835938 C 323.171875 235.117188 323.777344 237.390625 324.347656 239.652344 C 327.71875 239.578125 331.089844 239.5 334.464844 239.421875 C 334.964844 237.148438 335.382812 234.820312 335.886719 232.546875 C 334.457031 232.535156 333.054688 232.597656 331.636719 232.613281 C 331.617188 232.359375 331.613281 231.867188 331.621094 231.601562 C 334.464844 231.515625 337.316406 231.453125 340.148438 231.398438 C 340.164062 231.652344 340.179688 232.171875 340.164062 232.410156 C 339.066406 232.433594 338.007812 232.472656 336.910156 232.496094 C 334.769531 243.132812 332.648438 253.761719 330.496094 264.375 C 330.269531 264.382812 329.75 264.398438 329.519531 264.40625 C 326.832031 253.90625 324.242188 243.359375 321.53125 232.867188 C 320.445312 232.917969 319.375 232.929688 318.304688 232.941406 C 318.320312 232.703125 318.316406 232.210938 318.332031 231.972656 Z M 324.640625 240.695312 C 326.335938 247.65625 328.144531 254.605469 329.867188 261.558594 C 330.457031 260.46875 330.445312 259.191406 330.765625 258.011719 C 331.917969 252.152344 333.160156 246.308594 334.285156 240.457031 C 331.058594 240.53125 327.832031 240.605469 324.640625 240.695312 Z M 324.640625 240.695312 " fill-opacity="1" fill-rule="nonzero"/></g></g></g></g><g clip-path="url(#167aeb27db)"><g clip-path="url(#df5ecce570)"><g clip-path="url(#2edb88ba32)"><g clip-path="url(#16379f67e9)"><path stroke-linecap="butt" transform="matrix(0.247425, -0.103764, 0.103695, 0.24726, -16.344655, 137.257491)" fill="none" stroke-linejoin="miter" d="M 1013.795266 808.505546 C 1023.705131 812.095558 1033.505412 816.097729 1043.403579 819.904006 C 1043.104718 820.805467 1042.401752 822.595818 1041.998947 823.406264 C 1037.193223 821.500094 1032.303475 819.606058 1027.4003 817.706387 C 1025.897693 826.301929 1024.701724 834.994557 1023.401811 843.59617 C 1035.095627 848.203398 1046.795073 852.797192 1058.507946 857.396619 C 1063.503537 850.29853 1068.296006 842.894024 1073.305023 835.801569 C 1068.407916 833.699068 1063.497811 831.891278 1058.601568 829.899727 C 1058.900429 828.998266 1059.596463 827.299795 1060.0062 826.397469 C 1069.904367 830.203747 1079.795602 834.101904 1089.608445 837.998759 C 1089.296159 838.894586 1088.600988 840.704007 1088.203814 841.501017 C 1084.39726 839.998359 1080.702447 838.605785 1076.895893 837.103127 C 1054.206081 870.599556 1031.594662 904.097288 1008.898355 937.496202 C 1008.108372 937.196277 1006.300162 936.500641 1005.496753 936.195081 C 1011.394677 896.204751 1017.695823 856.194059 1023.501928 816.196793 C 1019.696239 814.805084 1016.000561 813.301561 1012.304883 811.798038 C 1012.702057 811.001027 1013.398092 809.302556 1013.795266 808.505546 Z M 1022.905397 847.605953 C 1018.698574 873.992839 1014.898004 900.502817 1010.796426 926.902273 C 1014.394735 924.004645 1016.195677 919.594426 1018.997081 915.999014 C 1031.403782 897.508344 1044.096763 879.201008 1056.398219 860.697768 C 1045.201174 856.299013 1034.004129 851.900258 1022.905397 847.605953 Z M 1022.905397 847.605953 " stroke="#000000" stroke-width="1" stroke-opacity="1" stroke-miterlimit="10"/></g></g></g></g></svg>