<svg xmlns="http://www.w3.org/2000/svg" xmlns:xlink="http://www.w3.org/1999/xlink" width="405" zoomAndPan="magnify" viewBox="0 0 303.75 224.249992" height="299" preserveAspectRatio="xMidYMid meet" version="1.0"><defs><g/><clipPath id="68fc15a920"><path d="M 96 114 L 219 114 L 219 223.300781 L 96 223.300781 Z M 96 114 " clip-rule="nonzero"/></clipPath></defs><g clip-path="url(#68fc15a920)"><path fill="#000000" d="M 153.324219 164.28125 C 159.398438 121.574219 226.265625 88.027344 217.296875 144.441406 C 213.292969 169.628906 175.207031 215.3125 150.175781 223.484375 C 136.320312 216.578125 76.777344 143.15625 103.125 123.394531 C 118.511719 111.859375 144.785156 121.03125 153.324219 164.28125 Z M 150.492188 218.730469 C 161.113281 214.535156 175.5 202.863281 188.371094 187.601562 C 201.871094 171.601562 222.324219 129.433594 207.164062 120.964844 C 201.8125 117.976562 197.835938 120.199219 192.054688 122.183594 C 167.289062 130.683594 156.5625 170.757812 152.859375 171.746094 C 150.96875 172.25 147.574219 158.804688 147.003906 157.375 C 144.480469 151.066406 141.488281 144.886719 137.691406 139.242188 C 133.378906 132.824219 126.503906 124.207031 117.902344 124.207031 C 114 124.207031 109.742188 125.214844 106.566406 127.847656 C 86.328125 144.648438 137.132812 207.195312 150.492188 218.730469 Z M 150.492188 218.730469 " fill-opacity="1" fill-rule="nonzero"/></g><g fill="#000000" fill-opacity="1"><g transform="translate(99.421675, 58.557917)"><g><path d="M 2.109375 0 L 2.109375 -30.078125 L 11.640625 -30.078125 L 25.140625 -7.859375 L 38.625 -30.078125 L 48.171875 -30.078125 L 48.171875 0 L 41.375 0 L 41.375 -22.046875 L 27.71875 0 L 22.609375 0 L 8.890625 -22.046875 L 8.890625 0 Z M 2.109375 0 "/></g></g></g><g fill="#000000" fill-opacity="1"><g transform="translate(149.696076, 58.557917)"><g><path d="M 2.109375 0 L 2.109375 -30.078125 L 8.890625 -30.078125 L 8.890625 0 Z M 2.109375 0 "/></g></g></g><g fill="#000000" fill-opacity="1"><g transform="translate(160.696288, 58.557917)"><g><path d="M 2.109375 0 L 2.109375 -30.078125 L 11.515625 -30.078125 L 34.078125 -6.96875 L 34.078125 -30.078125 L 40.859375 -30.078125 L 40.859375 0 L 31.5 0 L 8.890625 -23.125 L 8.890625 0 Z M 2.109375 0 "/></g></g></g><g fill="#000000" fill-opacity="1"><g transform="translate(33.828555, 96.680414)"><g><path d="M 19.59375 0.4375 C 15.894531 0.4375 12.707031 -0.171875 10.03125 -1.390625 C 7.351562 -2.609375 5.289062 -4.367188 3.84375 -6.671875 C 2.394531 -8.984375 1.671875 -11.773438 1.671875 -15.046875 C 1.671875 -19.972656 3.328125 -23.78125 6.640625 -26.46875 C 9.953125 -29.164062 14.703125 -30.515625 20.890625 -30.515625 C 24.898438 -30.515625 28.242188 -30.003906 30.921875 -28.984375 C 33.597656 -27.960938 35.632812 -26.550781 37.03125 -24.75 C 38.4375 -22.945312 39.210938 -20.828125 39.359375 -18.390625 L 32.484375 -18.390625 C 32.367188 -19.023438 32.125 -19.707031 31.75 -20.4375 C 31.382812 -21.164062 30.785156 -21.859375 29.953125 -22.515625 C 29.117188 -23.171875 27.972656 -23.710938 26.515625 -24.140625 C 25.054688 -24.578125 23.179688 -24.796875 20.890625 -24.796875 C 18.710938 -24.796875 16.878906 -24.570312 15.390625 -24.125 C 13.898438 -23.6875 12.695312 -23.097656 11.78125 -22.359375 C 10.863281 -21.628906 10.164062 -20.828125 9.6875 -19.953125 C 9.21875 -19.085938 8.894531 -18.21875 8.71875 -17.34375 C 8.550781 -16.46875 8.46875 -15.671875 8.46875 -14.953125 C 8.46875 -14.210938 8.550781 -13.394531 8.71875 -12.5 C 8.894531 -11.613281 9.21875 -10.726562 9.6875 -9.84375 C 10.164062 -8.957031 10.863281 -8.144531 11.78125 -7.40625 C 12.695312 -6.675781 13.898438 -6.082031 15.390625 -5.625 C 16.878906 -5.164062 18.710938 -4.9375 20.890625 -4.9375 C 22.972656 -4.9375 24.742188 -5.148438 26.203125 -5.578125 C 27.671875 -6.015625 28.863281 -6.566406 29.78125 -7.234375 C 30.695312 -7.910156 31.367188 -8.613281 31.796875 -9.34375 C 32.222656 -10.070312 32.453125 -10.722656 32.484375 -11.296875 L 20.375 -11.296875 L 20.375 -16.078125 L 39.359375 -16.078125 L 39.359375 0 L 33.859375 0 L 33.640625 -4.859375 C 32.179688 -3.285156 30.285156 -2.007812 27.953125 -1.03125 C 25.617188 -0.0507812 22.832031 0.4375 19.59375 0.4375 Z M 19.59375 0.4375 "/></g></g></g><g fill="#000000" fill-opacity="1"><g transform="translate(74.864507, 96.680414)"><g><path d="M 2.109375 0 L 2.109375 -30.078125 L 25.734375 -30.078125 C 28.023438 -30.078125 30.03125 -29.640625 31.75 -28.765625 C 33.46875 -27.890625 34.8125 -26.632812 35.78125 -25 C 36.757812 -23.375 37.25 -21.441406 37.25 -19.203125 C 37.25 -16.679688 36.632812 -14.554688 35.40625 -12.828125 C 34.175781 -11.097656 32.5 -9.859375 30.375 -9.109375 L 36.015625 0 L 28.015625 0 L 22.953125 -8.296875 L 8.890625 -8.296875 L 8.890625 0 Z M 8.890625 -14.015625 L 23.59375 -14.015625 C 24.25 -14.015625 24.96875 -14.039062 25.75 -14.09375 C 26.539062 -14.15625 27.296875 -14.34375 28.015625 -14.65625 C 28.734375 -14.96875 29.320312 -15.484375 29.78125 -16.203125 C 30.238281 -16.921875 30.46875 -17.921875 30.46875 -19.203125 C 30.46875 -20.492188 30.238281 -21.488281 29.78125 -22.1875 C 29.320312 -22.894531 28.734375 -23.40625 28.015625 -23.71875 C 27.296875 -24.03125 26.539062 -24.210938 25.75 -24.265625 C 24.96875 -24.328125 24.25 -24.359375 23.59375 -24.359375 L 8.890625 -24.359375 Z M 8.890625 -14.015625 "/></g></g></g><g fill="#000000" fill-opacity="1"><g transform="translate(113.794943, 96.680414)"><g><path d="M 21.015625 0.4375 C 14.398438 0.4375 9.59375 -0.835938 6.59375 -3.390625 C 3.601562 -5.941406 2.109375 -9.835938 2.109375 -15.078125 L 2.109375 -30.078125 L 8.890625 -30.078125 L 8.890625 -15.078125 C 8.890625 -13.960938 9.007812 -12.832031 9.25 -11.6875 C 9.5 -10.539062 10.023438 -9.476562 10.828125 -8.5 C 11.628906 -7.53125 12.835938 -6.75 14.453125 -6.15625 C 16.078125 -5.570312 18.265625 -5.28125 21.015625 -5.28125 C 23.765625 -5.28125 25.945312 -5.582031 27.5625 -6.1875 C 29.1875 -6.789062 30.398438 -7.570312 31.203125 -8.53125 C 32.003906 -9.488281 32.523438 -10.539062 32.765625 -11.6875 C 33.003906 -12.832031 33.125 -13.960938 33.125 -15.078125 L 33.125 -30.078125 L 39.921875 -30.078125 L 39.921875 -15.078125 C 39.921875 -9.867188 38.414062 -5.976562 35.40625 -3.40625 C 32.394531 -0.84375 27.597656 0.4375 21.015625 0.4375 Z M 21.015625 0.4375 "/></g></g></g><g fill="#000000" fill-opacity="1"><g transform="translate(155.819186, 96.680414)"><g><path d="M 2.109375 0 L 2.109375 -30.078125 L 25.734375 -30.078125 C 28.023438 -30.078125 30.03125 -29.640625 31.75 -28.765625 C 33.46875 -27.890625 34.8125 -26.632812 35.78125 -25 C 36.757812 -23.375 37.25 -21.441406 37.25 -19.203125 C 37.25 -16.972656 36.757812 -15.039062 35.78125 -13.40625 C 34.8125 -11.769531 33.46875 -10.507812 31.75 -9.625 C 30.03125 -8.738281 28.023438 -8.296875 25.734375 -8.296875 L 8.890625 -8.296875 L 8.890625 0 Z M 8.890625 -14.015625 L 23.59375 -14.015625 C 24.25 -14.015625 24.96875 -14.039062 25.75 -14.09375 C 26.539062 -14.15625 27.296875 -14.34375 28.015625 -14.65625 C 28.734375 -14.96875 29.320312 -15.484375 29.78125 -16.203125 C 30.238281 -16.921875 30.46875 -17.921875 30.46875 -19.203125 C 30.46875 -20.492188 30.238281 -21.488281 29.78125 -22.1875 C 29.320312 -22.894531 28.734375 -23.40625 28.015625 -23.71875 C 27.296875 -24.03125 26.539062 -24.210938 25.75 -24.265625 C 24.96875 -24.328125 24.25 -24.359375 23.59375 -24.359375 L 8.890625 -24.359375 Z M 8.890625 -14.015625 "/></g></g></g><g fill="#000000" fill-opacity="1"><g transform="translate(194.749623, 96.680414)"><g><path d="M 2.109375 0 L 2.109375 -30.078125 L 25.734375 -30.078125 C 28.023438 -30.078125 30.03125 -29.640625 31.75 -28.765625 C 33.46875 -27.890625 34.8125 -26.632812 35.78125 -25 C 36.757812 -23.375 37.25 -21.441406 37.25 -19.203125 C 37.25 -16.972656 36.757812 -15.039062 35.78125 -13.40625 C 34.8125 -11.769531 33.46875 -10.507812 31.75 -9.625 C 30.03125 -8.738281 28.023438 -8.296875 25.734375 -8.296875 L 8.890625 -8.296875 L 8.890625 0 Z M 8.890625 -14.015625 L 23.59375 -14.015625 C 24.25 -14.015625 24.96875 -14.039062 25.75 -14.09375 C 26.539062 -14.15625 27.296875 -14.34375 28.015625 -14.65625 C 28.734375 -14.96875 29.320312 -15.484375 29.78125 -16.203125 C 30.238281 -16.921875 30.46875 -17.921875 30.46875 -19.203125 C 30.46875 -20.492188 30.238281 -21.488281 29.78125 -22.1875 C 29.320312 -22.894531 28.734375 -23.40625 28.015625 -23.71875 C 27.296875 -24.03125 26.539062 -24.210938 25.75 -24.265625 C 24.96875 -24.328125 24.25 -24.359375 23.59375 -24.359375 L 8.890625 -24.359375 Z M 8.890625 -14.015625 "/></g></g></g><g fill="#000000" fill-opacity="1"><g transform="translate(233.68006, 96.680414)"><g><path d="M 2.109375 0 L 2.109375 -30.078125 L 33.90625 -30.078125 L 33.90625 -24.625 L 8.890625 -24.625 L 8.890625 -17.625 L 33.90625 -17.625 L 33.90625 -12.46875 L 8.890625 -12.46875 L 8.890625 -5.453125 L 33.90625 -5.453125 L 33.90625 0 Z M 2.109375 0 "/></g></g></g></svg>