<svg xmlns="http://www.w3.org/2000/svg" xmlns:xlink="http://www.w3.org/1999/xlink" width="505" zoomAndPan="magnify" viewBox="0 0 378.75 154.499995" height="206" preserveAspectRatio="xMidYMid meet" version="1.0"><defs><g/></defs><path stroke-linecap="butt" transform="matrix(0.747581, 0, 0, 0.747581, 21.204556, 88.361076)" fill="none" stroke-linejoin="miter" d="M 6.665427 41.997795 L 6.665427 1.779514 L 35.727929 1.779514 C 38.3771 1.779514 40.879966 2.192304 43.236526 3.017884 C 45.593086 3.838239 47.677937 5.071383 49.491077 6.717318 C 51.314668 8.363252 52.751595 10.453328 53.796633 12.987545 C 54.857347 15.516536 55.385091 18.479219 55.385091 21.880817 C 55.385091 25.298091 54.857347 28.271223 53.796633 30.80544 C 52.751595 33.329206 51.314668 35.414057 49.491077 37.059991 C 47.677937 38.705926 45.593086 39.944296 43.236526 40.76465 C 40.879966 41.59023 38.3771 41.997795 35.727929 41.997795 Z M 15.741581 34.353343 L 31.944892 34.353343 C 34.970277 34.353343 37.556745 34.039832 39.699073 33.412809 C 41.8414 32.780561 43.476885 31.563092 44.610751 29.765627 C 45.739392 27.962937 46.308937 25.334667 46.308937 21.880817 C 46.308937 18.406066 45.739392 15.777796 44.610751 14.001232 C 43.476885 12.214217 41.8414 11.007198 39.699073 10.380175 C 37.556745 9.742702 34.970277 9.423966 31.944892 9.423966 L 15.741581 9.423966 Z M 60.437849 41.997795 L 60.437849 1.779514 L 92.029342 1.779514 C 95.096528 1.779514 97.782276 2.364735 100.081359 3.535178 C 102.385667 4.70562 104.183132 6.382906 105.484205 8.57226 C 106.785277 10.751164 107.4332 13.332407 107.4332 16.31599 C 107.4332 19.691463 106.612845 22.539191 104.966911 24.859175 C 103.320976 27.168708 101.07937 28.825093 98.247318 29.823104 L 105.766365 41.997795 L 95.091303 41.997795 L 88.298557 30.904719 L 69.514002 30.904719 L 69.514002 41.997795 Z M 69.514002 23.270717 L 89.171164 23.270717 C 90.048996 23.270717 91.010431 23.234141 92.060694 23.160988 C 93.116182 23.077385 94.119418 22.821351 95.075628 22.403336 C 96.037063 21.980095 96.826066 21.295596 97.432188 20.339386 C 98.04876 19.377951 98.357047 18.035078 98.357047 16.31599 C 98.357047 14.591678 98.04876 13.26448 97.432188 12.329171 C 96.826066 11.383412 96.037063 10.704137 95.075628 10.280897 C 94.119418 9.862882 93.116182 9.612073 92.060694 9.53892 C 91.010431 9.465767 90.048996 9.423966 89.171164 9.423966 L 69.514002 9.423966 Z M 112.491183 41.997795 L 112.491183 1.779514 L 121.567337 1.779514 L 121.567337 41.997795 Z M 127.200091 41.997795 L 127.200091 1.779514 L 136.276244 1.779514 L 136.276244 24.017919 L 167.758009 1.779514 L 181.897371 1.779514 L 157.302406 19.35705 L 181.897371 41.997795 L 169.315115 41.997795 L 150.473083 24.420259 L 136.276244 34.295866 L 136.276244 41.997795 Z M 186.950129 41.997795 L 186.950129 1.779514 L 196.026282 1.779514 L 196.026282 24.017919 L 227.508047 1.779514 L 241.647409 1.779514 L 217.057669 19.35705 L 241.647409 41.997795 L 229.065154 41.997795 L 210.223121 24.420259 L 196.026282 34.295866 L 196.026282 41.997795 Z M 246.700167 41.997795 L 246.700167 1.779514 L 289.222756 1.779514 L 289.222756 9.073878 L 255.781546 9.073878 L 255.781546 18.447868 L 289.222756 18.447868 L 289.222756 25.334667 L 255.781546 25.334667 L 255.781546 34.703431 L 289.222756 34.703431 L 289.222756 41.997795 Z M 294.275514 41.997795 L 294.275514 1.779514 L 303.351668 1.779514 L 303.351668 34.353343 L 335.643337 34.353343 L 335.643337 41.997795 Z M 340.696095 41.997795 L 340.696095 1.779514 L 383.213459 1.779514 L 383.213459 9.073878 L 349.772249 9.073878 L 349.772249 18.447868 L 383.213459 18.447868 L 383.213459 25.334667 L 349.772249 25.334667 L 349.772249 34.703431 L 383.213459 34.703431 L 383.213459 41.997795 Z M 388.266217 41.997795 L 388.266217 1.779514 L 397.342371 1.779514 L 397.342371 24.017919 L 428.824135 1.779514 L 442.963497 1.779514 L 418.373757 19.35705 L 442.963497 41.997795 L 430.381242 41.997795 L 411.53921 24.420259 L 397.342371 34.295866 L 397.342371 41.997795 Z M 388.266217 41.997795 " stroke="#000000" stroke-width="1.652168" stroke-opacity="1" stroke-miterlimit="4"/><g fill="#000000" fill-opacity="1"><g transform="translate(61.690717, 58.564235)"><g><path d="M 20.59375 0.4375 C 16.175781 0.4375 12.578125 -0.171875 9.796875 -1.390625 C 7.015625 -2.609375 4.960938 -4.378906 3.640625 -6.703125 C 2.328125 -9.023438 1.671875 -11.820312 1.671875 -15.09375 C 1.671875 -18.351562 2.328125 -21.132812 3.640625 -23.4375 C 4.960938 -25.75 7.015625 -27.503906 9.796875 -28.703125 C 12.578125 -29.910156 16.175781 -30.515625 20.59375 -30.515625 C 25 -30.515625 28.59375 -29.90625 31.375 -28.6875 C 34.15625 -27.46875 36.203125 -25.710938 37.515625 -23.421875 C 38.835938 -21.128906 39.5 -18.351562 39.5 -15.09375 C 39.5 -11.820312 38.835938 -9.03125 37.515625 -6.71875 C 36.203125 -4.414062 34.15625 -2.644531 31.375 -1.40625 C 28.59375 -0.175781 25 0.4375 20.59375 0.4375 Z M 20.59375 -5.28125 C 24.832031 -5.28125 27.910156 -6.046875 29.828125 -7.578125 C 31.753906 -9.117188 32.71875 -11.625 32.71875 -15.09375 C 32.71875 -18.53125 31.765625 -21.003906 29.859375 -22.515625 C 27.953125 -24.035156 24.863281 -24.796875 20.59375 -24.796875 C 16.351562 -24.796875 13.269531 -24.039062 11.34375 -22.53125 C 9.425781 -21.03125 8.46875 -18.550781 8.46875 -15.09375 C 8.46875 -11.625 9.425781 -9.117188 11.34375 -7.578125 C 13.269531 -6.046875 16.351562 -5.28125 20.59375 -5.28125 Z M 20.59375 -5.28125 "/></g></g></g><g fill="#000000" fill-opacity="1"><g transform="translate(102.860009, 58.564235)"><g><path d="M 2.109375 0 L 2.109375 -30.09375 L 11.65625 -30.09375 L 25.140625 -7.859375 L 38.640625 -30.09375 L 48.1875 -30.09375 L 48.1875 0 L 41.390625 0 L 41.390625 -22.046875 L 27.71875 0 L 22.609375 0 L 8.890625 -22.046875 L 8.890625 0 Z M 2.109375 0 "/></g></g></g><g fill="#000000" fill-opacity="1"><g transform="translate(153.139834, 58.564235)"><g><path d="M 2.109375 0 L 2.109375 -30.09375 L 33.921875 -30.09375 L 33.921875 -24.625 L 8.890625 -24.625 L 8.890625 -17.625 L 33.921875 -17.625 L 33.921875 -12.46875 L 8.890625 -12.46875 L 8.890625 -5.453125 L 33.921875 -5.453125 L 33.921875 0 Z M 2.109375 0 "/></g></g></g><g fill="#000000" fill-opacity="1"><g transform="translate(188.722484, 58.564235)"><g><path d="M 19.59375 0.4375 C 15.90625 0.4375 12.71875 -0.171875 10.03125 -1.390625 C 7.351562 -2.609375 5.289062 -4.367188 3.84375 -6.671875 C 2.394531 -8.984375 1.671875 -11.773438 1.671875 -15.046875 C 1.671875 -19.972656 3.328125 -23.78125 6.640625 -26.46875 C 9.953125 -29.164062 14.703125 -30.515625 20.890625 -30.515625 C 24.898438 -30.515625 28.242188 -30.003906 30.921875 -28.984375 C 33.609375 -27.972656 35.648438 -26.5625 37.046875 -24.75 C 38.453125 -22.945312 39.226562 -20.828125 39.375 -18.390625 L 32.5 -18.390625 C 32.382812 -19.023438 32.140625 -19.707031 31.765625 -20.4375 C 31.390625 -21.164062 30.785156 -21.859375 29.953125 -22.515625 C 29.128906 -23.179688 27.984375 -23.726562 26.515625 -24.15625 C 25.054688 -24.582031 23.179688 -24.796875 20.890625 -24.796875 C 18.710938 -24.796875 16.878906 -24.570312 15.390625 -24.125 C 13.898438 -23.6875 12.695312 -23.101562 11.78125 -22.375 C 10.863281 -21.644531 10.164062 -20.84375 9.6875 -19.96875 C 9.21875 -19.09375 8.894531 -18.21875 8.71875 -17.34375 C 8.550781 -16.46875 8.46875 -15.671875 8.46875 -14.953125 C 8.46875 -14.210938 8.550781 -13.394531 8.71875 -12.5 C 8.894531 -11.613281 9.21875 -10.726562 9.6875 -9.84375 C 10.164062 -8.957031 10.863281 -8.144531 11.78125 -7.40625 C 12.695312 -6.675781 13.898438 -6.082031 15.390625 -5.625 C 16.878906 -5.164062 18.710938 -4.9375 20.890625 -4.9375 C 22.984375 -4.9375 24.757812 -5.148438 26.21875 -5.578125 C 27.675781 -6.015625 28.863281 -6.566406 29.78125 -7.234375 C 30.695312 -7.910156 31.367188 -8.613281 31.796875 -9.34375 C 32.234375 -10.070312 32.46875 -10.726562 32.5 -11.3125 L 20.375 -11.3125 L 20.375 -16.078125 L 39.375 -16.078125 L 39.375 0 L 33.875 0 L 33.65625 -4.859375 C 32.195312 -3.285156 30.296875 -2.007812 27.953125 -1.03125 C 25.617188 -0.0507812 22.832031 0.4375 19.59375 0.4375 Z M 19.59375 0.4375 "/></g></g></g><g fill="#000000" fill-opacity="1"><g transform="translate(229.762863, 58.564235)"><g><path d="M 1.671875 0 L 18.046875 -30.09375 L 26.828125 -30.09375 L 43.203125 0 L 35.671875 0 L 32.03125 -6.65625 L 12.859375 -6.65625 L 9.203125 0 Z M 15.46875 -11.90625 L 29.40625 -11.90625 L 22.4375 -24.546875 Z M 15.46875 -11.90625 "/></g></g></g><g fill="#000000" fill-opacity="1"><g transform="translate(274.627942, 58.564235)"><g><path d="M 21.53125 0.4375 C 17.4375 0.4375 13.898438 0.144531 10.921875 -0.4375 C 7.941406 -1.03125 5.65625 -2.109375 4.0625 -3.671875 C 2.46875 -5.234375 1.671875 -7.445312 1.671875 -10.3125 L 8.46875 -10.3125 C 8.46875 -9.113281 8.859375 -8.117188 9.640625 -7.328125 C 10.429688 -6.535156 11.804688 -5.953125 13.765625 -5.578125 C 15.734375 -5.210938 18.46875 -5.03125 21.96875 -5.03125 C 24.800781 -5.03125 27.039062 -5.15625 28.6875 -5.40625 C 30.332031 -5.664062 31.515625 -6.066406 32.234375 -6.609375 C 32.953125 -7.160156 33.3125 -7.878906 33.3125 -8.765625 C 33.3125 -9.484375 33.15625 -10.0625 32.84375 -10.5 C 32.53125 -10.945312 31.925781 -11.300781 31.03125 -11.5625 C 30.144531 -11.820312 28.890625 -12.03125 27.265625 -12.1875 C 25.648438 -12.34375 23.523438 -12.492188 20.890625 -12.640625 C 16.585938 -12.867188 13.101562 -13.28125 10.4375 -13.875 C 7.78125 -14.476562 5.832031 -15.425781 4.59375 -16.71875 C 3.363281 -18.007812 2.75 -19.773438 2.75 -22.015625 C 2.75 -24.210938 3.472656 -25.925781 4.921875 -27.15625 C 6.367188 -28.394531 8.425781 -29.265625 11.09375 -29.765625 C 13.757812 -30.265625 16.9375 -30.515625 20.625 -30.515625 C 24.382812 -30.515625 27.625 -30.175781 30.34375 -29.5 C 33.070312 -28.832031 35.164062 -27.742188 36.625 -26.234375 C 38.082031 -24.734375 38.8125 -22.75 38.8125 -20.28125 L 32.03125 -20.28125 C 32.03125 -21.550781 31.613281 -22.53125 30.78125 -23.21875 C 29.945312 -23.90625 28.632812 -24.382812 26.84375 -24.65625 C 25.050781 -24.925781 22.691406 -25.0625 19.765625 -25.0625 C 17.046875 -25.0625 14.941406 -24.953125 13.453125 -24.734375 C 11.960938 -24.523438 10.9375 -24.164062 10.375 -23.65625 C 9.820312 -23.15625 9.546875 -22.492188 9.546875 -21.671875 C 9.546875 -21.003906 9.703125 -20.457031 10.015625 -20.03125 C 10.328125 -19.601562 10.890625 -19.257812 11.703125 -19 C 12.523438 -18.738281 13.679688 -18.519531 15.171875 -18.34375 C 16.660156 -18.175781 18.566406 -18.019531 20.890625 -17.875 C 23.867188 -17.707031 26.539062 -17.5 28.90625 -17.25 C 31.269531 -17.007812 33.28125 -16.601562 34.9375 -16.03125 C 36.601562 -15.457031 37.878906 -14.617188 38.765625 -13.515625 C 39.660156 -12.410156 40.109375 -10.914062 40.109375 -9.03125 C 40.109375 -7.019531 39.648438 -5.390625 38.734375 -4.140625 C 37.816406 -2.898438 36.523438 -1.945312 34.859375 -1.28125 C 33.203125 -0.625 31.238281 -0.175781 28.96875 0.0625 C 26.707031 0.3125 24.226562 0.4375 21.53125 0.4375 Z M 21.53125 0.4375 "/></g></g></g></svg>