<svg xmlns="http://www.w3.org/2000/svg" xmlns:xlink="http://www.w3.org/1999/xlink" width="405" zoomAndPan="magnify" viewBox="0 0 303.75 154.499995" height="206" preserveAspectRatio="xMidYMid meet" version="1.0"><defs><g/></defs><g fill="#000000" fill-opacity="1"><g transform="translate(24.331509, 119.741517)"><g/></g></g><g fill="#000000" fill-opacity="1"><g transform="translate(44.656356, 119.741517)"><g><path d="M 2.109375 0 L 2.109375 -30.0625 L 25.734375 -30.0625 C 28.023438 -30.0625 30.023438 -29.625 31.734375 -28.75 C 33.453125 -27.882812 34.796875 -26.632812 35.765625 -25 C 36.742188 -23.363281 37.234375 -21.429688 37.234375 -19.203125 C 37.234375 -16.679688 36.617188 -14.550781 35.390625 -12.8125 C 34.160156 -11.082031 32.488281 -9.847656 30.375 -9.109375 L 36 0 L 28 0 L 22.9375 -8.296875 L 8.890625 -8.296875 L 8.890625 0 Z M 8.890625 -14 L 23.578125 -14 C 24.234375 -14 24.957031 -14.023438 25.75 -14.078125 C 26.539062 -14.140625 27.289062 -14.328125 28 -14.640625 C 28.71875 -14.960938 29.304688 -15.476562 29.765625 -16.1875 C 30.222656 -16.90625 30.453125 -17.910156 30.453125 -19.203125 C 30.453125 -20.492188 30.222656 -21.488281 29.765625 -22.1875 C 29.304688 -22.882812 28.71875 -23.390625 28 -23.703125 C 27.289062 -24.023438 26.539062 -24.210938 25.75 -24.265625 C 24.957031 -24.328125 24.234375 -24.359375 23.578125 -24.359375 L 8.890625 -24.359375 Z M 8.890625 -14 "/></g></g></g><g fill="#000000" fill-opacity="1"><g transform="translate(83.569845, 119.741517)"><g><path d="M 2.109375 0 L 2.109375 -30.0625 L 33.890625 -30.0625 L 33.890625 -24.609375 L 8.890625 -24.609375 L 8.890625 -17.609375 L 33.890625 -17.609375 L 33.890625 -12.453125 L 8.890625 -12.453125 L 8.890625 -5.453125 L 33.890625 -5.453125 L 33.890625 0 Z M 2.109375 0 "/></g></g></g><g fill="#000000" fill-opacity="1"><g transform="translate(119.133161, 119.741517)"><g><path d="M 2.109375 0 L 2.109375 -30.0625 L 25.734375 -30.0625 C 28.023438 -30.0625 30.023438 -29.625 31.734375 -28.75 C 33.453125 -27.882812 34.796875 -26.632812 35.765625 -25 C 36.742188 -23.363281 37.234375 -21.429688 37.234375 -19.203125 C 37.234375 -16.960938 36.742188 -15.023438 35.765625 -13.390625 C 34.796875 -11.765625 33.453125 -10.507812 31.734375 -9.625 C 30.023438 -8.738281 28.023438 -8.296875 25.734375 -8.296875 L 8.890625 -8.296875 L 8.890625 0 Z M 8.890625 -14 L 23.578125 -14 C 24.234375 -14 24.957031 -14.023438 25.75 -14.078125 C 26.539062 -14.140625 27.289062 -14.328125 28 -14.640625 C 28.71875 -14.960938 29.304688 -15.476562 29.765625 -16.1875 C 30.222656 -16.90625 30.453125 -17.910156 30.453125 -19.203125 C 30.453125 -20.492188 30.222656 -21.488281 29.765625 -22.1875 C 29.304688 -22.882812 28.71875 -23.390625 28 -23.703125 C 27.289062 -24.023438 26.539062 -24.210938 25.75 -24.265625 C 24.957031 -24.328125 24.234375 -24.359375 23.578125 -24.359375 L 8.890625 -24.359375 Z M 8.890625 -14 "/></g></g></g><g fill="#000000" fill-opacity="1"><g transform="translate(158.046649, 119.741517)"><g><path d="M 2.109375 0 L 2.109375 -30.0625 L 33.890625 -30.0625 L 33.890625 -24.609375 L 8.890625 -24.609375 L 8.890625 -17.609375 L 33.890625 -17.609375 L 33.890625 -12.453125 L 8.890625 -12.453125 L 8.890625 -5.453125 L 33.890625 -5.453125 L 33.890625 0 Z M 2.109375 0 "/></g></g></g><g fill="#000000" fill-opacity="1"><g transform="translate(193.609965, 119.741517)"><g><path d="M 1.671875 0 L 18.046875 -30.0625 L 26.796875 -30.0625 L 43.171875 0 L 35.65625 0 L 32 -6.65625 L 12.84375 -6.65625 L 9.1875 0 Z M 15.46875 -11.890625 L 29.375 -11.890625 L 22.421875 -24.53125 Z M 15.46875 -11.890625 "/></g></g></g><g fill="#000000" fill-opacity="1"><g transform="translate(238.450655, 119.741517)"><g><path d="M 16.75 0 L 16.75 -24.359375 L 1.671875 -24.359375 L 1.671875 -30.0625 L 38.609375 -30.0625 L 38.609375 -24.359375 L 23.53125 -24.359375 L 23.53125 0 Z M 16.75 0 "/></g></g></g><g fill="#000000" fill-opacity="1"><g transform="translate(109.660825, 58.549731)"><g><path d="M 2.109375 0 L 2.109375 -30.0625 L 25.734375 -30.0625 C 28.023438 -30.0625 30.023438 -29.625 31.734375 -28.75 C 33.453125 -27.882812 34.796875 -26.632812 35.765625 -25 C 36.742188 -23.363281 37.234375 -21.429688 37.234375 -19.203125 C 37.234375 -16.960938 36.742188 -15.023438 35.765625 -13.390625 C 34.796875 -11.765625 33.453125 -10.507812 31.734375 -9.625 C 30.023438 -8.738281 28.023438 -8.296875 25.734375 -8.296875 L 8.890625 -8.296875 L 8.890625 0 Z M 8.890625 -14 L 23.578125 -14 C 24.234375 -14 24.957031 -14.023438 25.75 -14.078125 C 26.539062 -14.140625 27.289062 -14.328125 28 -14.640625 C 28.71875 -14.960938 29.304688 -15.476562 29.765625 -16.1875 C 30.222656 -16.90625 30.453125 -17.910156 30.453125 -19.203125 C 30.453125 -20.492188 30.222656 -21.488281 29.765625 -22.1875 C 29.304688 -22.882812 28.71875 -23.390625 28 -23.703125 C 27.289062 -24.023438 26.539062 -24.210938 25.75 -24.265625 C 24.957031 -24.328125 24.234375 -24.359375 23.578125 -24.359375 L 8.890625 -24.359375 Z M 8.890625 -14 "/></g></g></g><g fill="#000000" fill-opacity="1"><g transform="translate(148.574314, 58.549731)"><g><path d="M 22.421875 -33.28125 C 19.128906 -33.28125 16.800781 -33.78125 15.4375 -34.78125 C 14.082031 -35.789062 13.40625 -37.179688 13.40625 -38.953125 C 13.40625 -40.734375 14.082031 -42.125 15.4375 -43.125 C 16.800781 -44.125 19.128906 -44.625 22.421875 -44.625 C 25.742188 -44.625 28.078125 -44.125 29.421875 -43.125 C 30.765625 -42.125 31.4375 -40.734375 31.4375 -38.953125 C 31.4375 -37.179688 30.765625 -35.789062 29.421875 -34.78125 C 28.078125 -33.78125 25.742188 -33.28125 22.421875 -33.28125 Z M 22.421875 -36.515625 C 25.429688 -36.515625 26.9375 -37.328125 26.9375 -38.953125 C 26.9375 -39.816406 26.5625 -40.429688 25.8125 -40.796875 C 25.070312 -41.171875 23.941406 -41.359375 22.421875 -41.359375 C 20.929688 -41.359375 19.8125 -41.171875 19.0625 -40.796875 C 18.320312 -40.429688 17.953125 -39.816406 17.953125 -38.953125 C 17.953125 -37.328125 19.441406 -36.515625 22.421875 -36.515625 Z M 1.671875 0 L 18.046875 -30.0625 L 26.796875 -30.0625 L 43.171875 0 L 35.65625 0 L 32 -6.65625 L 12.84375 -6.65625 L 9.1875 0 Z M 15.46875 -11.890625 L 29.375 -11.890625 L 22.421875 -24.53125 Z M 15.46875 -11.890625 "/></g></g></g></svg>