<svg xmlns="http://www.w3.org/2000/svg" xmlns:xlink="http://www.w3.org/1999/xlink" width="500" zoomAndPan="magnify" viewBox="0 0 375 374.999991" height="500" preserveAspectRatio="xMidYMid meet" version="1.0"><defs><clipPath id="bc16bf8373"><path d="M 90 177 L 133 177 L 133 222.175781 L 90 222.175781 Z M 90 177 " clip-rule="nonzero"/></clipPath><clipPath id="cfa0b6c0de"><path d="M 193 124.675781 L 235 124.675781 L 235 170 L 193 170 Z M 193 124.675781 " clip-rule="nonzero"/></clipPath></defs><path fill="#000000" d="M 42.652344 129.277344 L 42.675781 129.28125 C 43.503906 129.511719 43.847656 130.4375 43.707031 132.0625 C 43.5 133.617188 42.859375 135.339844 41.777344 137.230469 C 39.804688 140.347656 36.875 143.335938 32.992188 146.191406 C 34.105469 141.429688 35.457031 137.609375 37.050781 134.730469 C 37.851562 133.257812 38.828125 131.957031 39.984375 130.832031 C 40.992188 129.867188 41.878906 129.351562 42.652344 129.277344 M 29.460938 168.199219 L 29.539062 168.222656 C 30.347656 168.484375 31.054688 168.917969 31.660156 169.527344 C 32.300781 170.210938 32.800781 170.945312 33.15625 171.738281 C 33.632812 172.742188 33.941406 173.777344 34.085938 174.847656 C 34.214844 176 34.207031 177.046875 34.054688 177.988281 C 33.804688 179.921875 33.023438 181.609375 31.710938 183.050781 C 30.425781 184.460938 28.914062 185.304688 27.175781 185.574219 L 29.460938 168.199219 M 27.640625 153.984375 L 27.570312 154.414062 C 27.285156 156.152344 26.765625 159.816406 26.019531 165.402344 C 24.019531 165.898438 22.261719 166.953125 20.742188 168.566406 C 19.214844 170.257812 18.308594 172.214844 18.03125 174.4375 C 17.847656 175.589844 17.960938 176.867188 18.375 178.265625 C 18.734375 179.4375 19.324219 180.347656 20.144531 180.992188 C 19.574219 179.074219 19.316406 177.753906 19.367188 177.035156 C 19.355469 175.851562 19.59375 174.671875 20.082031 173.488281 C 21.292969 170.824219 23.140625 169.117188 25.625 168.363281 L 23.371094 185.375 C 20.324219 184.632812 17.851562 182.425781 15.953125 178.753906 C 15.316406 177.519531 14.835938 175.808594 14.515625 173.628906 C 14.25 171.753906 14.277344 169.738281 14.59375 167.578125 C 15.101562 164.722656 16.429688 162.148438 18.578125 159.867188 C 19.285156 159.097656 20.109375 158.394531 21.050781 157.75 L 27.640625 153.984375 M 42.863281 125.597656 L 42.707031 125.585938 C 36.207031 126.285156 31.472656 134.109375 28.503906 149.0625 L 19.378906 154.304688 L 16.976562 156.121094 C 14.269531 158.714844 12.464844 161.417969 11.558594 164.234375 C 10.726562 166.628906 10.410156 169.289062 10.613281 172.207031 C 10.828125 175.351562 11.394531 177.898438 12.316406 179.851562 C 13.394531 182.351562 15.027344 184.539062 17.207031 186.414062 C 18.683594 187.746094 20.570312 188.65625 22.871094 189.144531 C 22.472656 192.914062 21.398438 197.507812 19.648438 202.921875 C 18.636719 205.480469 17.402344 207.210938 15.941406 208.113281 C 14.363281 209.066406 13.355469 209.222656 12.921875 208.585938 C 11.546875 207.652344 10.46875 206.125 9.6875 204.003906 C 8.957031 202.046875 8.785156 200.515625 9.171875 199.414062 C 9.75 197.910156 10.386719 197.472656 11.082031 198.105469 C 12.144531 199.140625 12.351562 200.355469 11.710938 201.742188 C 13.121094 200.492188 13.15625 198.933594 11.808594 197.066406 C 10.054688 195.789062 8.550781 196.476562 7.289062 199.132812 C 6.5 201.5 6.917969 204.363281 8.542969 207.722656 C 9.976562 210.359375 11.757812 211.769531 13.890625 211.953125 C 17.207031 211.804688 19.953125 209.859375 22.125 206.113281 C 24.191406 202.019531 25.703125 196.449219 26.65625 189.402344 C 31.5 188.953125 35 186.226562 37.164062 181.226562 C 38.230469 177.453125 38.050781 174.050781 36.621094 171.019531 C 35.171875 167.789062 32.917969 165.84375 29.859375 165.183594 C 30.589844 159.5 31.277344 154.914062 31.925781 151.429688 C 40 146.296875 44.972656 140.886719 46.84375 135.199219 C 47.652344 132.785156 47.714844 130.695312 47.039062 128.929688 C 46.121094 126.851562 44.730469 125.738281 42.863281 125.597656 " fill-opacity="1" fill-rule="nonzero"/><path fill="#000000" d="M 77.035156 137.824219 L 76.964844 137.820312 C 75.332031 137.855469 74.214844 138.332031 73.613281 139.25 C 72.703125 140.433594 71.667969 142.882812 70.507812 146.589844 C 69.636719 149.378906 68.988281 152.058594 68.550781 154.632812 L 68.136719 157.570312 L 66.804688 168.566406 C 66.738281 169.15625 66.527344 170.417969 66.167969 172.355469 C 65.664062 175 65.140625 176.746094 64.589844 177.589844 C 63.390625 179.699219 61.988281 180.84375 60.386719 181.027344 C 59.007812 181.179688 57.972656 180.289062 57.285156 178.363281 C 57.0625 177.257812 57.390625 176.117188 58.269531 174.9375 C 59.339844 173.441406 60.976562 171.898438 63.1875 170.300781 C 60.507812 171.660156 58.804688 172.660156 58.074219 173.308594 C 56.75 174.453125 55.945312 175.503906 55.664062 176.460938 C 55.128906 178.226562 55.375 179.878906 56.402344 181.414062 C 57.425781 182.792969 58.679688 183.515625 60.167969 183.574219 C 63.640625 183.582031 66.367188 181.394531 68.355469 177.011719 C 69.035156 175.214844 69.695312 172.671875 70.332031 169.382812 C 70.722656 167.394531 71.320312 163.03125 72.121094 156.296875 L 72.644531 153.429688 C 72.941406 151.679688 73.683594 149.023438 74.875 145.457031 C 75.101562 147.902344 75.511719 149.984375 76.109375 151.699219 C 76.542969 153.132812 77.890625 156.28125 80.15625 161.144531 C 80.476562 161.953125 80.742188 162.757812 80.953125 163.566406 C 81.203125 164.492188 81.378906 165.582031 81.480469 166.832031 C 81.550781 167.625 81.574219 169.222656 81.539062 171.625 L 81.652344 173.621094 L 82.007812 172.789062 C 83.09375 169.417969 83.4375 166.242188 83.03125 163.261719 C 82.867188 162.210938 82.65625 161.261719 82.394531 160.421875 C 80.289062 154.632812 79.128906 151.164062 78.917969 150.011719 C 78.699219 149.164062 78.523438 147.847656 78.386719 146.0625 C 78.335938 145.59375 78.285156 143.335938 78.230469 139.292969 C 77.980469 138.261719 77.578125 137.773438 77.035156 137.824219 " fill-opacity="1" fill-rule="nonzero"/><g clip-path="url(#bc16bf8373)"><path fill="#000000" d="M 99.277344 211.984375 L 99.371094 211.996094 L 99.636719 212.019531 C 99.515625 212.972656 99.417969 213.65625 99.34375 214.0625 C 99.089844 215.492188 98.792969 216.597656 98.445312 217.375 C 97.800781 218.6875 96.945312 219.351562 95.882812 219.363281 C 95.296875 219.289062 94.722656 219.082031 94.15625 218.746094 C 93.6875 218.460938 93.351562 218.125 93.144531 217.742188 C 92.917969 217.3125 92.804688 216.871094 92.808594 216.414062 C 92.839844 215.894531 93 215.304688 93.285156 214.636719 C 93.6875 213.710938 94.367188 213.046875 95.324219 212.644531 C 95.847656 212.351562 97.164062 212.132812 99.277344 211.984375 M 126.902344 177.992188 L 126.722656 177.980469 C 116.722656 177.425781 110.507812 177.335938 108.085938 177.703125 C 104.679688 178.136719 102.546875 179.078125 101.6875 180.523438 C 101.125 181.445312 100.867188 182.21875 100.914062 182.84375 C 100.675781 196.8125 100.277344 206.328125 99.707031 211.398438 C 97.484375 210.675781 95.5 210.710938 93.765625 211.511719 C 92.054688 212.40625 91 213.953125 90.601562 216.152344 C 90.328125 217.515625 90.714844 218.847656 91.769531 220.148438 C 92.914062 221.347656 94.308594 222.03125 95.953125 222.191406 C 99.257812 222.128906 101.4375 219.933594 102.496094 215.613281 C 103.835938 210.925781 104.558594 200.03125 104.660156 182.933594 C 104.765625 182.488281 105.386719 182.121094 106.519531 181.824219 C 108.8125 181.105469 115.628906 181.121094 126.96875 181.871094 C 127.921875 183.386719 128.386719 187.597656 128.363281 194.507812 C 128.144531 200.621094 127.46875 205.183594 126.339844 208.195312 C 125.140625 211.542969 123.699219 213.65625 122.019531 214.527344 C 120.988281 214.710938 120.207031 214.476562 119.675781 213.820312 C 118.8125 212.609375 118.488281 211.550781 118.707031 210.65625 C 118.988281 210.042969 119.507812 209.484375 120.269531 208.980469 L 124.804688 206.378906 C 124.84375 206.34375 124.636719 206.390625 124.179688 206.519531 C 123.367188 206.449219 122.453125 206.5 121.425781 206.679688 C 120.386719 206.941406 119.480469 207.328125 118.707031 207.839844 C 117.117188 208.960938 116.355469 210.246094 116.414062 211.699219 C 116.707031 214.808594 118.164062 216.679688 120.785156 217.3125 C 122.972656 217.789062 125.144531 216.574219 127.304688 213.65625 C 130.667969 208.929688 132.289062 201.714844 132.160156 192.011719 C 132.035156 186.628906 131.609375 183.082031 130.886719 181.375 C 130.167969 179.253906 128.839844 178.125 126.902344 177.992188 " fill-opacity="1" fill-rule="nonzero"/></g><path fill="#000000" d="M 171.054688 150.582031 L 171.011719 150.753906 C 170.828125 151.441406 170.601562 153.429688 170.328125 156.710938 C 169.15625 171.507812 168.46875 180.882812 168.265625 184.839844 C 168.203125 185.644531 168.125 186.152344 168.039062 186.367188 C 167.625 187.769531 166.722656 188.65625 165.335938 189.035156 C 163.398438 189.5 161.988281 189.273438 161.113281 188.359375 C 160.777344 187.921875 160.644531 187.535156 160.714844 187.195312 C 160.765625 186.675781 161.066406 186.101562 161.613281 185.464844 C 162.144531 184.910156 162.660156 184.484375 163.15625 184.179688 C 165.890625 182.570312 167.21875 181.761719 167.144531 181.753906 L 164.605469 182.003906 C 162.996094 182.257812 161.523438 182.96875 160.191406 184.136719 C 159.6875 184.605469 159.28125 185.128906 158.976562 185.714844 C 158.777344 186.105469 158.632812 186.496094 158.546875 186.890625 C 158.464844 187.375 158.433594 187.65625 158.457031 187.742188 C 158.890625 190.65625 160.984375 192.105469 164.738281 192.078125 C 168.148438 191.757812 170.347656 190.035156 171.335938 186.914062 C 171.632812 185.648438 171.796875 184.324219 171.820312 182.941406 C 172.082031 174.847656 172.199219 169.144531 172.175781 165.839844 C 172.050781 156.859375 171.675781 151.773438 171.054688 150.582031 " fill-opacity="1" fill-rule="nonzero"/><g clip-path="url(#cfa0b6c0de)"><path fill="#000000" d="M 230.945312 153.71875 L 230.929688 154.179688 C 230.855469 155.757812 230.761719 156.851562 230.644531 157.449219 C 230.550781 158.09375 230.355469 158.796875 230.054688 159.566406 C 229.535156 160.890625 228.722656 161.867188 227.621094 162.492188 C 226.992188 162.820312 226.492188 162.960938 226.117188 162.917969 C 225.558594 162.863281 225.082031 162.660156 224.675781 162.304688 C 224.253906 161.949219 223.863281 161.402344 223.503906 160.664062 C 223.046875 159.613281 222.828125 158.867188 222.839844 158.425781 C 222.839844 158.027344 222.996094 157.640625 223.308594 157.265625 C 223.628906 156.871094 224.171875 156.457031 224.941406 156.019531 C 226.644531 155.125 228.644531 154.355469 230.945312 153.71875 M 227.800781 124.664062 L 227.71875 124.65625 C 219.683594 125.128906 214.367188 125.675781 211.769531 126.300781 C 209.300781 126.789062 207.582031 127.769531 206.613281 129.25 C 206.226562 129.636719 205.988281 130.488281 205.902344 131.804688 C 205.648438 143.324219 205.339844 150.734375 204.976562 154.039062 C 204.609375 158.019531 204.128906 160.703125 203.539062 162.082031 C 202.75 164.035156 201.683594 165.3125 200.34375 165.917969 C 198.765625 166.601562 197.316406 166.417969 196 165.371094 C 195.484375 164.859375 195.261719 164.195312 195.335938 163.371094 C 195.617188 162.316406 196.257812 161.328125 197.253906 160.398438 C 198.410156 159.355469 200.59375 158.722656 203.800781 158.488281 C 202.472656 157.90625 200.917969 157.710938 199.140625 157.898438 C 196.089844 158.375 194.09375 160.207031 193.144531 163.402344 C 192.84375 164.6875 193.214844 165.964844 194.253906 167.230469 C 195.371094 168.375 196.777344 169.015625 198.480469 169.152344 C 202.203125 169.347656 205.046875 167.171875 207.019531 162.621094 C 207.847656 160.402344 208.464844 157.058594 208.871094 152.589844 C 209.027344 151.0625 209.171875 148.527344 209.3125 144.984375 L 209.660156 131.570312 C 209.824219 130.871094 210.898438 130.324219 212.878906 129.933594 C 215.046875 129.457031 219.839844 128.960938 227.261719 128.449219 C 227.898438 128.34375 228.507812 128.707031 229.097656 129.546875 C 229.773438 130.769531 230.230469 132.90625 230.472656 135.964844 C 230.863281 141.570312 231.023438 147.378906 230.953125 153.386719 C 223.59375 153.792969 220.210938 155.882812 220.8125 159.652344 C 221.371094 163.007812 222.957031 165.011719 225.574219 165.664062 C 228.125 165.996094 230.367188 164.863281 232.300781 162.265625 C 234.757812 159.796875 235.363281 150.441406 234.117188 134.199219 C 233.757812 131.027344 233.128906 128.785156 232.234375 127.476562 C 231.164062 125.796875 229.683594 124.859375 227.800781 124.664062 " fill-opacity="1" fill-rule="nonzero"/></g><path fill="#000000" d="M 234.570312 134.792969 L 234.542969 134.792969 C 234.476562 134.792969 234.15625 134.808594 233.578125 134.839844 C 231.082031 134.679688 228.660156 134.617188 226.316406 134.660156 C 224.394531 134.691406 222.496094 134.835938 220.621094 135.082031 C 218.894531 135.3125 216.910156 135.714844 214.679688 136.292969 C 213.785156 136.550781 213.285156 136.707031 213.175781 136.757812 L 211.082031 137.550781 C 210.820312 137.667969 210.59375 137.792969 210.40625 137.921875 C 210.179688 137.992188 209.980469 138.046875 209.804688 138.082031 C 210.542969 138.113281 211.53125 138.074219 212.769531 137.964844 C 215.820312 137.679688 218.066406 137.4375 219.507812 137.238281 C 220.890625 137.058594 222.28125 136.851562 223.671875 136.621094 L 230.503906 135.4375 C 231.664062 135.246094 232.914062 135.054688 234.253906 134.863281 C 234.53125 134.824219 234.636719 134.800781 234.570312 134.792969 " fill-opacity="1" fill-rule="nonzero"/><path fill="#000000" d="M 269.328125 146.480469 C 269.335938 146.492188 269.347656 146.519531 269.363281 146.5625 L 269.347656 146.546875 L 269.34375 146.539062 L 269.339844 146.535156 L 269.335938 146.527344 L 269.332031 146.523438 L 269.332031 146.515625 L 269.328125 146.511719 L 269.328125 146.503906 C 269.328125 146.503906 269.328125 146.496094 269.324219 146.480469 L 269.328125 146.480469 M 262.535156 185.40625 L 262.511719 185.5 C 262.097656 187.445312 261.308594 189.207031 260.148438 190.78125 C 259.082031 192.207031 257.890625 193.15625 256.582031 193.636719 C 255.808594 193.929688 255.1875 194.054688 254.722656 194.015625 C 254.15625 193.933594 253.59375 193.675781 253.027344 193.242188 C 251.839844 192.253906 251.359375 191.097656 251.585938 189.765625 C 251.78125 188.871094 252.429688 188.222656 253.535156 187.816406 C 254.199219 187.550781 255.066406 187.28125 256.136719 187 C 260.003906 185.976562 262.136719 185.445312 262.535156 185.40625 M 270.535156 143.71875 L 270.378906 143.714844 C 269.683594 143.734375 269.125 144.179688 268.703125 145.050781 C 268.257812 145.929688 267.78125 147.707031 267.269531 150.378906 C 267.082031 151.34375 266.902344 152.648438 266.734375 154.289062 C 265.753906 165.09375 265.128906 171.371094 264.855469 173.121094 C 264.210938 177.476562 263.441406 181.542969 262.554688 185.320312 C 258.039062 185.25 254.703125 185.539062 252.554688 186.183594 C 250.933594 186.6875 249.863281 187.753906 249.34375 189.375 C 248.921875 191.195312 249.289062 192.878906 250.4375 194.429688 C 251.757812 196.050781 253.296875 196.902344 255.054688 196.988281 C 259.984375 196.558594 263.519531 193.523438 265.65625 187.878906 C 266.464844 185.699219 267.421875 181.183594 268.523438 174.324219 C 268.699219 173.132812 268.941406 171.058594 269.242188 168.105469 C 269.519531 165.480469 269.945312 160.6875 270.527344 153.722656 C 270.605469 152.792969 270.75 151.664062 270.949219 150.34375 C 271.617188 151.785156 272.863281 154.292969 274.6875 157.875 C 275.054688 158.691406 275.316406 159.402344 275.46875 160.015625 C 275.875 161.714844 276.113281 163.226562 276.175781 164.550781 C 276.242188 164.832031 276.234375 166.660156 276.144531 170.027344 C 276.132812 170.234375 276.160156 170.425781 276.230469 170.605469 C 276.21875 170.730469 276.199219 170.835938 276.171875 170.925781 C 276.421875 170.570312 276.726562 169.789062 277.089844 168.582031 C 278.03125 165.328125 278.117188 161.886719 277.339844 158.261719 C 277.203125 157.722656 277.035156 157.199219 276.832031 156.683594 C 274.574219 151.226562 273.03125 147.289062 272.199219 144.871094 C 271.890625 144.183594 271.335938 143.800781 270.535156 143.71875 " fill-opacity="1" fill-rule="nonzero"/><path fill="#000000" d="M 269.089844 156.0625 L 269.042969 156.171875 C 268.457031 158.148438 268.402344 160.445312 268.886719 163.058594 C 268.992188 163.628906 269.191406 164.285156 269.480469 165.023438 C 269.953125 166.179688 270.871094 168.175781 272.238281 171.011719 C 272.480469 171.5625 272.714844 172.195312 272.933594 172.917969 C 273.25 174.125 273.398438 174.757812 273.375 174.804688 C 273.394531 174.9375 273.429688 175.253906 273.46875 175.746094 C 273.5625 177.511719 273.648438 178.65625 273.722656 179.1875 C 273.90625 180.375 274.039062 181 274.113281 181.066406 C 274.125 181.078125 274.140625 180.898438 274.160156 180.53125 C 274.546875 179.625 274.796875 178.894531 274.910156 178.34375 C 274.992188 177.988281 275.058594 177.464844 275.113281 176.769531 C 275.203125 175.867188 275.230469 175.042969 275.199219 174.292969 C 275.179688 173.976562 275.152344 173.710938 275.121094 173.492188 C 275.050781 172.972656 274.976562 172.511719 274.894531 172.117188 C 274.664062 171.019531 274.433594 170.234375 274.207031 169.765625 C 274.101562 169.453125 273.089844 167.589844 271.164062 164.175781 C 270.921875 163.707031 270.71875 163.25 270.546875 162.800781 C 270.265625 161.988281 270.027344 161.140625 269.832031 160.253906 C 269.75 159.875 269.679688 159.492188 269.617188 159.101562 L 269.25 156.578125 C 269.234375 156.457031 269.1875 156.34375 269.097656 156.242188 L 269.089844 156.0625 " fill-opacity="1" fill-rule="nonzero"/><path fill="#000000" d="M 311.96875 156.214844 L 311.863281 156.453125 C 310.949219 158.535156 309.871094 160.214844 308.632812 161.496094 C 307.296875 162.953125 305.886719 163.917969 304.414062 164.382812 C 303.84375 164.554688 303.363281 164.570312 302.972656 164.425781 C 302.398438 164.230469 301.949219 163.90625 301.625 163.453125 C 301.269531 162.976562 301.019531 162.304688 300.875 161.4375 C 300.761719 160.457031 300.808594 159.8125 301.007812 159.507812 C 302 157.574219 305.652344 156.480469 311.96875 156.214844 M 320.800781 127.273438 L 320.710938 127.269531 C 319.40625 127.113281 318.59375 127.589844 318.273438 128.691406 C 317.640625 133.097656 316.347656 139.78125 314.390625 148.734375 C 313.867188 151.253906 313.101562 153.648438 312.09375 155.925781 C 304.75 154.613281 300.289062 155.65625 298.707031 159.058594 C 298.054688 160.71875 298.226562 162.621094 299.214844 164.769531 C 300.050781 166.292969 301.453125 167.214844 303.414062 167.539062 C 307.445312 167.507812 311.113281 164.886719 314.417969 159.679688 C 315.699219 157.367188 316.726562 154.824219 317.492188 152.054688 C 318.316406 148.746094 319.417969 143.554688 320.792969 136.484375 L 323.320312 142.554688 C 323.789062 143.941406 324.15625 145.4375 324.417969 147.039062 C 324.585938 148.011719 324.683594 149.019531 324.703125 150.058594 C 324.746094 150.371094 324.710938 152.492188 324.59375 156.425781 L 324.671875 159.621094 L 324.804688 159.332031 C 326.605469 153.796875 327.210938 149.039062 326.621094 145.066406 C 326.425781 143.605469 326.183594 142.398438 325.886719 141.441406 L 323.078125 133.027344 C 322.839844 131.992188 322.535156 130.351562 322.171875 128.105469 C 322.078125 127.652344 321.621094 127.375 320.800781 127.273438 " fill-opacity="1" fill-rule="nonzero"/><path fill="#000000" d="M 325.394531 196.675781 L 325.445312 196.683594 C 325.8125 196.722656 326.074219 196.761719 326.238281 196.804688 C 326.667969 196.898438 327.09375 197.019531 327.511719 197.160156 C 327.773438 197.242188 328.316406 197.445312 329.152344 197.773438 L 329.558594 198.027344 C 329.039062 198.894531 328.539062 199.609375 328.054688 200.171875 C 327.515625 200.746094 326.9375 201.246094 326.320312 201.671875 C 325.222656 202.398438 324.105469 202.707031 322.96875 202.59375 C 321.890625 202.472656 321.042969 202.121094 320.4375 201.539062 C 320.003906 201.136719 319.890625 200.527344 320.097656 199.710938 C 320.476562 198.953125 321.265625 198.175781 322.453125 197.378906 C 322.957031 197.078125 323.472656 196.875 324.007812 196.761719 C 324.183594 196.722656 324.367188 196.699219 324.546875 196.679688 L 324.824219 196.664062 C 325.011719 196.65625 325.203125 196.664062 325.394531 196.675781 M 354.617188 202.304688 L 354.472656 202.476562 C 353.097656 204.09375 351.585938 205.507812 349.9375 206.714844 C 348.574219 207.714844 347.265625 208.355469 346.023438 208.644531 C 345.488281 208.765625 345.003906 208.738281 344.5625 208.558594 C 344.101562 208.363281 343.820312 208.109375 343.722656 207.792969 C 343.5625 207.261719 343.554688 206.726562 343.695312 206.1875 C 343.851562 205.519531 344.113281 204.976562 344.480469 204.5625 C 344.875 204.097656 345.421875 203.6875 346.121094 203.335938 C 346.46875 203.164062 346.855469 203.011719 347.277344 202.878906 C 347.828125 202.722656 348.167969 202.636719 348.300781 202.617188 C 348.945312 202.472656 349.835938 202.363281 350.980469 202.292969 C 352.171875 202.230469 353.386719 202.234375 354.617188 202.304688 M 346.984375 171.195312 L 346.886719 171.191406 C 344.953125 171.105469 343.464844 171.863281 342.417969 173.457031 C 338.546875 181.246094 334.363281 189.257812 329.867188 197.492188 C 327.492188 195.296875 325.105469 194.511719 322.703125 195.132812 C 321.355469 195.496094 320.1875 196.171875 319.191406 197.160156 C 318.035156 198.34375 317.453125 199.507812 317.441406 200.65625 C 317.578125 203.203125 319.253906 204.847656 322.472656 205.585938 C 325.128906 206.027344 327.660156 205.183594 330.070312 203.046875 C 331.332031 201.949219 332.765625 199.9375 334.371094 197.011719 C 338.292969 189.957031 341.96875 182.914062 345.402344 175.875 C 345.644531 175.367188 345.878906 175.078125 346.109375 175.015625 C 346.378906 174.863281 347.300781 175.042969 348.875 175.558594 C 355.714844 178.214844 361.34375 180.246094 365.761719 181.652344 C 361.304688 192.160156 357.695312 198.914062 354.9375 201.910156 C 348.703125 200.128906 344.429688 200.796875 342.113281 203.90625 C 341.019531 205.601562 340.761719 207.269531 341.339844 208.917969 C 342.128906 210.574219 343.4375 211.488281 345.261719 211.660156 C 349.167969 211.78125 353.59375 209.015625 358.53125 203.367188 C 360.15625 201.34375 361.796875 198.769531 363.449219 195.644531 C 364.363281 193.871094 366.183594 190 368.914062 184.03125 C 369.316406 183.140625 369.542969 182.316406 369.585938 181.558594 C 369.664062 179.996094 369.015625 178.910156 367.644531 178.296875 C 362.535156 176.636719 356.800781 174.5625 350.441406 172.070312 C 348.957031 171.5625 347.800781 171.273438 346.984375 171.195312 " fill-opacity="1" fill-rule="nonzero"/><path fill="#000000" d="M 9.65625 195.542969 L 9.167969 195.539062 C 8.851562 195.558594 8.542969 195.625 8.246094 195.738281 L 7.8125 195.945312 C 7.527344 196.105469 7.253906 196.308594 6.992188 196.5625 C 6.457031 197.058594 5.996094 197.757812 5.605469 198.65625 C 5.269531 199.535156 5.136719 200.488281 5.207031 201.515625 L 5.292969 202.304688 C 5.378906 202.835938 5.515625 203.390625 5.699219 203.960938 L 6.015625 204.832031 L 6.566406 205.953125 L 7.183594 206.953125 C 7.613281 207.578125 8.089844 208.121094 8.605469 208.582031 C 9.121094 209.046875 9.679688 209.425781 10.28125 209.726562 L 11.21875 210.117188 L 12.214844 210.382812 C 13.042969 210.519531 13.632812 210.578125 13.984375 210.558594 C 14.570312 210.589844 15.460938 210.492188 16.660156 210.273438 L 10.535156 207.449219 C 10.730469 207.234375 11.132812 206.511719 11.742188 205.277344 C 11.964844 204.773438 12.15625 204.257812 12.316406 203.726562 L 12.535156 202.917969 C 12.667969 202.371094 12.765625 201.8125 12.835938 201.238281 C 12.925781 200.628906 12.941406 200.078125 12.882812 199.585938 L 12.796875 198.875 C 12.726562 198.421875 12.621094 198.015625 12.480469 197.65625 C 12.34375 197.296875 12.171875 196.980469 11.964844 196.710938 L 11.636719 196.339844 C 11.398438 196.117188 11.128906 195.9375 10.824219 195.804688 C 10.335938 195.640625 9.945312 195.550781 9.65625 195.542969 " fill-opacity="1" fill-rule="nonzero"/><path fill="#000000" d="M 68.65625 169.285156 L 67.765625 169.273438 C 67.453125 169.238281 66.613281 169.320312 65.238281 169.519531 C 64.164062 169.726562 63.148438 170.054688 62.199219 170.507812 C 60.171875 171.425781 58.570312 172.78125 57.394531 174.566406 C 57.105469 175.015625 56.84375 175.488281 56.613281 175.992188 C 56.40625 176.585938 56.25 177.144531 56.144531 177.671875 C 55.929688 178.730469 55.921875 179.652344 56.113281 180.441406 C 56.644531 182.15625 57.679688 183.027344 59.222656 183.058594 C 60.210938 183.015625 61.253906 182.65625 62.347656 181.980469 C 63.484375 181.3125 64.425781 180.449219 65.179688 179.382812 C 65.335938 179.222656 65.664062 178.652344 66.164062 177.667969 C 66.359375 177.25 66.550781 176.78125 66.738281 176.253906 C 67.300781 174.671875 67.839844 172.597656 68.351562 170.027344 L 68.65625 169.285156 " fill-opacity="1" fill-rule="nonzero"/><path fill="#000000" d="M 98.625 210.472656 L 98.398438 210.460938 C 97.472656 210.433594 96.507812 210.554688 95.507812 210.828125 C 94.738281 211.097656 94.289062 211.28125 94.164062 211.386719 C 93.878906 211.542969 93.609375 211.722656 93.351562 211.917969 C 93.089844 212.117188 92.839844 212.339844 92.605469 212.578125 L 91.875 213.695312 L 91.328125 214.753906 L 90.964844 215.757812 L 90.78125 216.707031 L 90.78125 217.601562 L 90.960938 218.441406 L 91.328125 219.222656 L 91.875 219.949219 C 92.53125 220.566406 92.847656 220.847656 92.820312 220.785156 C 93.398438 221.199219 94 221.429688 94.621094 221.476562 C 95.304688 221.53125 96.015625 221.363281 96.75 220.972656 C 97.390625 220.628906 98.242188 219.96875 99.300781 218.988281 C 100.210938 218.09375 101.03125 217.046875 101.765625 215.847656 C 102.132812 215.25 102.476562 214.613281 102.796875 213.9375 L 103.265625 212.894531 L 101.21875 211.257812 L 100.953125 211.117188 C 100.230469 210.753906 99.453125 210.539062 98.625 210.472656 " fill-opacity="1" fill-rule="nonzero"/><path fill="#000000" d="M 126.230469 205.207031 L 126.078125 205.195312 C 124.488281 205.082031 122.898438 205.417969 121.308594 206.210938 C 119.675781 207.097656 118.394531 208.378906 117.457031 210.046875 C 116.859375 211.261719 116.5625 212.082031 116.570312 212.511719 C 116.496094 213.105469 116.5625 213.636719 116.773438 214.101562 C 116.882812 214.332031 117.015625 214.554688 117.167969 214.761719 L 117.410156 215.058594 C 117.585938 215.246094 117.78125 215.417969 117.996094 215.570312 C 118.683594 216.042969 119.476562 216.332031 120.375 216.429688 C 121.179688 216.492188 121.957031 216.414062 122.707031 216.195312 C 123.328125 215.988281 123.695312 215.847656 123.8125 215.765625 L 124.609375 215.277344 C 126.179688 214.199219 127.566406 212.542969 128.773438 210.308594 C 129.171875 209.5625 129.554688 208.753906 129.917969 207.882812 L 128.898438 206.082031 L 128.679688 205.925781 C 128.078125 205.527344 127.261719 205.285156 126.230469 205.207031 " fill-opacity="1" fill-rule="nonzero"/><path fill="#000000" d="M 169.050781 180.742188 L 167.570312 180.742188 L 166.179688 180.851562 L 164.871094 181.074219 L 163.65625 181.410156 L 162.527344 181.855469 L 161.484375 182.414062 L 160.53125 183.082031 L 159.664062 183.863281 L 158.882812 184.757812 C 158.4375 185.496094 158.214844 185.9375 158.207031 186.070312 C 158.117188 186.21875 158.046875 186.628906 158.003906 187.304688 C 158.011719 187.570312 158.054688 187.828125 158.132812 188.082031 C 158.324219 188.628906 158.667969 189.128906 159.164062 189.585938 C 159.398438 189.804688 159.65625 190.003906 159.9375 190.179688 C 160.050781 190.292969 160.527344 190.507812 161.375 190.824219 C 162.011719 191.035156 162.902344 191.152344 164.046875 191.183594 C 165.625 191.1875 167.023438 190.828125 168.238281 190.105469 L 168.828125 189.714844 C 169.234375 189.414062 169.578125 189.113281 169.863281 188.816406 C 170.164062 188.480469 170.429688 188.074219 170.660156 187.597656 C 171.351562 186.167969 171.742188 184.097656 171.828125 181.382812 L 169.050781 180.742188 " fill-opacity="1" fill-rule="nonzero"/><path fill="#000000" d="M 202.292969 156.882812 L 201.238281 156.84375 L 200.246094 156.890625 C 199.605469 156.949219 199.003906 157.066406 198.441406 157.242188 C 197.878906 157.417969 197.355469 157.648438 196.875 157.941406 C 195.429688 158.835938 194.339844 160.199219 193.609375 162.03125 C 193.316406 162.824219 193.1875 163.609375 193.21875 164.382812 L 193.273438 164.964844 C 193.347656 165.339844 193.460938 165.6875 193.605469 166.003906 C 194.242188 167.300781 195.335938 168.058594 196.894531 168.285156 C 198.667969 168.421875 200.527344 167.738281 202.476562 166.234375 L 203.210938 165.632812 C 203.617188 165.257812 204.003906 164.839844 204.371094 164.378906 C 205.105469 163.457031 205.769531 162.355469 206.355469 161.082031 C 206.648438 160.441406 206.921875 159.761719 207.175781 159.035156 L 207.546875 157.914062 L 204.300781 157.167969 C 203.601562 157.027344 202.929688 156.933594 202.292969 156.882812 " fill-opacity="1" fill-rule="nonzero"/><path fill="#000000" d="M 233.414062 152.871094 L 232.167969 152.875 C 229.800781 152.890625 228.175781 152.945312 227.289062 153.035156 C 226.058594 153.230469 225.28125 153.398438 224.953125 153.546875 C 224.8125 153.578125 224.421875 153.738281 223.785156 154.03125 C 223.535156 154.15625 223.289062 154.292969 223.050781 154.441406 L 222.238281 155.136719 C 221.738281 155.609375 221.320312 156.101562 220.984375 156.609375 C 220.648438 157.113281 220.394531 157.640625 220.222656 158.179688 L 220.023438 159.003906 C 219.875 160.289062 219.992188 161.304688 220.371094 162.058594 C 220.804688 162.875 221.441406 163.515625 222.289062 163.96875 C 222.90625 164.371094 223.941406 164.585938 225.394531 164.613281 C 226.636719 164.597656 227.800781 164.238281 228.894531 163.527344 C 230.195312 162.722656 231.308594 161.660156 232.230469 160.34375 C 233.15625 159.03125 233.886719 157.460938 234.429688 155.636719 L 233.414062 152.871094 " fill-opacity="1" fill-rule="nonzero"/><path fill="#000000" d="M 230.199219 133.558594 L 230.148438 133.554688 C 224.226562 134.1875 220.625 134.617188 219.347656 134.847656 C 217.6875 135.128906 216.132812 135.421875 214.679688 135.71875 C 211.753906 136.335938 209.464844 136.84375 207.808594 137.246094 L 208.003906 139.613281 C 213.875 138.851562 217.542969 138.316406 219.011719 138.003906 L 225.710938 136.59375 C 227.324219 136.25 228.59375 135.96875 229.515625 135.742188 C 230.636719 135.464844 231.335938 135.203125 231.621094 134.953125 C 231.320312 134.109375 230.847656 133.644531 230.199219 133.558594 " fill-opacity="1" fill-rule="nonzero"/><path fill="#000000" d="M 263.15625 184.960938 L 262.761719 184.933594 C 261.820312 184.828125 260.238281 184.890625 258.007812 185.121094 C 256.351562 185.289062 255.085938 185.511719 254.203125 185.785156 C 252.914062 186.148438 251.710938 187.015625 250.597656 188.390625 C 250.019531 189.140625 249.667969 189.808594 249.546875 190.398438 C 249.488281 190.878906 249.484375 191.152344 249.53125 191.226562 C 249.71875 191.882812 249.871094 192.261719 249.988281 192.367188 C 250.445312 193.078125 251.210938 193.695312 252.28125 194.214844 C 252.976562 194.542969 253.855469 194.765625 254.917969 194.882812 C 255.742188 194.921875 256.375 194.886719 256.824219 194.777344 C 257.074219 194.738281 257.539062 194.613281 258.226562 194.40625 L 259.09375 194.015625 C 260.253906 193.402344 261.421875 192.414062 262.59375 191.050781 C 263.179688 190.367188 263.769531 189.59375 264.359375 188.722656 L 265.246094 187.347656 L 264.894531 185.152344 C 264.171875 185.054688 263.59375 184.988281 263.15625 184.960938 " fill-opacity="1" fill-rule="nonzero"/><path fill="#000000" d="M 307.953125 155.421875 L 307.886719 155.417969 C 306.699219 155.402344 305.835938 155.46875 305.292969 155.625 C 304.605469 155.78125 303.949219 156.023438 303.320312 156.351562 C 301.664062 157.289062 300.4375 158.417969 299.644531 159.746094 C 299.089844 160.871094 298.828125 161.640625 298.863281 162.050781 C 298.832031 162.636719 298.96875 163.214844 299.265625 163.789062 C 299.417969 164.074219 299.609375 164.355469 299.839844 164.636719 C 300.003906 164.773438 300.175781 164.898438 300.359375 165.007812 C 300.824219 165.257812 301.117188 165.394531 301.230469 165.414062 C 301.640625 165.554688 302.085938 165.644531 302.5625 165.679688 C 303.558594 165.757812 304.699219 165.605469 305.980469 165.230469 C 307.554688 164.726562 308.691406 164.253906 309.386719 163.808594 L 310.101562 163.304688 C 310.589844 162.9375 311.089844 162.496094 311.601562 161.988281 C 312.632812 160.96875 313.71875 159.667969 314.859375 158.089844 L 313.511719 156.710938 C 312.527344 156.414062 311.292969 156.089844 309.808594 155.738281 C 309.027344 155.5625 308.410156 155.457031 307.953125 155.421875 " fill-opacity="1" fill-rule="nonzero"/><path fill="#000000" d="M 325.769531 194.039062 L 325.542969 194.023438 C 323.882812 193.898438 322.316406 194.261719 320.851562 195.121094 C 319.355469 196.074219 318.304688 197.269531 317.703125 198.695312 C 317.453125 199.300781 317.363281 199.8125 317.4375 200.238281 C 317.53125 200.800781 317.621094 201.128906 317.703125 201.222656 C 317.800781 201.433594 317.921875 201.636719 318.070312 201.832031 C 318.3125 202.210938 318.769531 202.585938 319.4375 202.957031 C 320.015625 203.261719 320.703125 203.445312 321.496094 203.507812 C 321.652344 203.554688 322.175781 203.527344 323.066406 203.425781 L 324.128906 203.257812 C 324.835938 203.121094 325.546875 202.929688 326.257812 202.691406 L 327.328125 202.292969 C 328.042969 202.003906 328.757812 201.664062 329.472656 201.269531 C 330.1875 200.878906 330.90625 200.4375 331.625 199.945312 L 332.0625 197.175781 L 331.75 196.828125 C 331.09375 196.148438 330.214844 195.542969 329.113281 195.015625 C 328.054688 194.460938 326.941406 194.136719 325.769531 194.039062 " fill-opacity="1" fill-rule="nonzero"/><path fill="#000000" d="M 351.214844 200.753906 L 350.71875 200.722656 C 348.851562 200.632812 347.3125 200.9375 346.09375 201.628906 C 345.179688 202.085938 344.28125 202.71875 343.390625 203.519531 C 343.242188 203.617188 342.960938 203.914062 342.546875 204.421875 C 342.398438 204.625 342.28125 204.828125 342.191406 205.035156 C 341.734375 206.113281 341.953125 207.234375 342.847656 208.402344 L 343.136719 208.703125 C 343.34375 208.898438 343.578125 209.082031 343.835938 209.261719 C 344.078125 209.394531 344.320312 209.515625 344.558594 209.625 C 345.035156 209.839844 345.5 210.003906 345.957031 210.117188 C 346.476562 210.230469 346.855469 210.289062 347.09375 210.289062 C 347.40625 210.316406 347.949219 210.285156 348.722656 210.199219 L 349.410156 210.011719 C 349.890625 209.835938 350.421875 209.570312 351.003906 209.207031 C 351.582031 208.847656 352.214844 208.390625 352.894531 207.84375 L 353.953125 206.949219 C 354.683594 206.304688 355.460938 205.566406 356.292969 204.734375 L 356.222656 202.042969 C 355.402344 201.445312 353.734375 201.015625 351.214844 200.753906 " fill-opacity="1" fill-rule="nonzero"/></svg>