<svg xmlns="http://www.w3.org/2000/svg" xmlns:xlink="http://www.w3.org/1999/xlink" width="456" zoomAndPan="magnify" viewBox="0 0 342 225.75" height="301" preserveAspectRatio="xMidYMid meet" version="1.0"><defs><g/></defs><path stroke-linecap="butt" transform="matrix(0.74917, 0, 0, 0.74917, 20.951476, 93.793178)" fill="none" stroke-linejoin="miter" d="M 26.651473 41.999307 L 4.825244 1.782943 L 15.107452 1.782943 L 32.569478 34.537927 L 50.036717 1.782943 L 60.318925 1.782943 L 38.544838 41.999307 Z M 90.081016 42.572858 C 84.183867 42.572858 79.376466 41.759458 75.664025 40.132658 C 71.946371 38.505859 69.208968 36.138657 67.441387 33.036266 C 65.684235 29.928662 64.803052 26.195365 64.803052 21.825948 C 64.803052 17.461746 65.684235 13.738877 67.441387 10.662557 C 69.208968 7.575809 71.946371 5.229464 75.664025 3.618306 C 79.376466 2.012363 84.183867 1.204177 90.081016 1.204177 C 95.983378 1.204177 100.79078 2.017577 104.50322 3.644377 C 108.21566 5.276391 110.953063 7.622736 112.710216 10.688628 C 114.477796 13.749305 115.364193 17.461746 115.364193 21.825948 C 115.364193 26.195365 114.477796 29.923448 112.710216 33.010196 C 110.953063 36.09173 108.21566 38.458932 104.50322 40.106588 C 100.79078 41.754244 95.983378 42.572858 90.081016 42.572858 Z M 90.081016 34.928985 C 95.748744 34.928985 99.86267 33.907021 102.428008 31.857879 C 104.99856 29.808738 106.286443 26.466499 106.286443 21.825948 C 106.286443 17.237539 105.008988 13.926585 102.454078 11.893085 C 99.909597 9.8648 95.785242 8.853264 90.081016 8.853264 C 84.413287 8.853264 80.294147 9.854372 77.723595 11.867015 C 75.163472 13.879658 73.880803 17.195826 73.880803 21.825948 C 73.880803 26.466499 75.163472 29.808738 77.723595 31.857879 C 80.294147 33.907021 84.413287 34.928985 90.081016 34.928985 Z M 120.416657 41.999307 L 120.416657 1.782943 L 152.008897 1.782943 C 155.080003 1.782943 157.760051 2.366922 160.064684 3.534881 C 162.364103 4.702839 164.162968 6.38178 165.466493 8.571703 C 166.764804 10.751197 167.411353 13.332177 167.411353 16.314643 C 167.411353 19.688167 166.592739 22.54028 164.945083 24.855341 C 163.297427 27.165188 161.060577 28.823272 158.224106 29.82438 L 165.74284 41.999307 L 155.069575 41.999307 L 148.280815 30.903699 L 129.494408 30.903699 L 129.494408 41.999307 Z M 129.494408 23.270254 L 149.15157 23.270254 C 150.027539 23.270254 150.992148 23.233756 152.040182 23.160758 C 153.093431 23.077333 154.099752 22.821842 155.053933 22.404714 C 156.018541 21.982371 156.805871 21.29411 157.410706 20.339929 C 158.031185 19.375321 158.338817 18.035297 158.338817 16.314643 C 158.338817 14.59399 158.031185 13.264394 157.410706 12.33107 C 156.805871 11.387317 156.018541 10.70427 155.053933 10.281928 C 154.099752 9.859586 153.093431 9.614523 152.040182 9.536311 C 150.992148 9.463314 150.027539 9.426815 149.15157 9.426815 L 129.494408 9.426815 Z M 198.44047 42.572858 C 192.955235 42.572858 188.226046 42.1818 184.242472 41.394471 C 180.258899 40.612356 177.203435 39.173264 175.081296 37.087623 C 172.959157 35.001983 171.89548 32.045587 171.89548 28.208008 L 180.973231 28.208008 C 180.973231 29.819166 181.494641 31.153976 182.542675 32.207224 C 183.601138 33.255259 185.436501 34.03216 188.059194 34.537927 C 190.687101 35.033267 194.336972 35.27833 199.014021 35.27833 C 202.809887 35.27833 205.807995 35.106265 208.003132 34.762134 C 210.213911 34.412789 211.793784 33.875737 212.747964 33.145762 C 213.702145 32.421002 214.176628 31.461608 214.176628 30.272793 C 214.176628 29.318612 213.968064 28.546925 213.545722 27.957732 C 213.12338 27.35811 212.320408 26.888841 211.131593 26.539496 C 209.947992 26.195365 208.269051 25.919018 206.099985 25.715668 C 203.936133 25.496676 201.099662 25.29854 197.580143 25.110832 C 191.82899 24.8032 187.172797 24.245291 183.611566 23.44232 C 180.04512 22.634134 177.443284 21.372322 175.795628 19.651668 C 174.147972 17.920586 173.329358 15.563813 173.329358 12.581347 C 173.329358 9.624951 174.293967 7.325532 176.233612 5.683091 C 178.168044 4.035435 180.915875 2.877904 184.482321 2.215713 C 188.043552 1.543094 192.293045 1.204177 197.230799 1.204177 C 202.251978 1.204177 206.584896 1.65259 210.224339 2.55463 C 213.858568 3.451455 216.65854 4.906189 218.608614 6.913618 C 220.563902 8.926262 221.544153 11.580239 221.544153 14.880765 L 212.466403 14.880765 C 212.466403 13.191397 211.908494 11.887871 210.79789 10.970189 C 209.682073 10.052507 207.930135 9.411173 205.536862 9.046186 C 203.14359 8.681199 199.989058 8.498705 196.083696 8.498705 C 192.444254 8.498705 189.628639 8.6447 187.636852 8.93669 C 185.645065 9.218251 184.273757 9.692734 183.52814 10.365354 C 182.77731 11.037973 182.401894 11.934798 182.401894 13.045402 C 182.401894 13.926585 182.615672 14.656559 183.032801 15.235324 C 183.455143 15.803661 184.211187 16.262502 185.306149 16.606633 C 186.40111 16.945549 187.944484 17.232325 189.936271 17.46696 C 191.928057 17.69638 194.477753 17.910158 197.580143 18.097866 C 201.568931 18.327286 205.135376 18.608848 208.284693 18.937336 C 211.444439 19.255396 214.140129 19.797663 216.366551 20.564136 C 218.592972 21.330609 220.297983 22.451641 221.486798 23.932445 C 222.675613 25.408036 223.270021 27.410251 223.270021 29.933876 C 223.270021 32.619138 222.649543 34.793418 221.419015 36.456717 C 220.193701 38.125229 218.467833 39.39747 216.241412 40.273439 C 214.025419 41.154622 211.402726 41.754244 208.368119 42.082732 C 205.349154 42.411221 202.0382 42.572858 198.44047 42.572858 Z M 254.283496 42.572858 C 248.803475 42.572858 244.069071 42.1818 240.085498 41.394471 C 236.101924 40.612356 233.046461 39.173264 230.924322 37.087623 C 228.802182 35.001983 227.738506 32.045587 227.738506 28.208008 L 236.816256 28.208008 C 236.816256 29.819166 237.34288 31.153976 238.390915 32.207224 C 239.444163 33.255259 241.284741 34.03216 243.90222 34.537927 C 246.530127 35.033267 250.179998 35.27833 254.857047 35.27833 C 258.652913 35.27833 261.651021 35.106265 263.851372 34.762134 C 266.056937 34.412789 267.636809 33.875737 268.59099 33.145762 C 269.54517 32.421002 270.024868 31.461608 270.024868 30.272793 C 270.024868 29.318612 269.81109 28.546925 269.388747 27.957732 C 268.971619 27.35811 268.163434 26.888841 266.979832 26.539496 C 265.791017 26.195365 264.112077 25.919018 261.943011 25.715668 C 259.779159 25.496676 256.942687 25.29854 253.428383 25.110832 C 247.677229 24.8032 243.015823 24.245291 239.454591 23.44232 C 235.89336 22.634134 233.286309 21.372322 231.638653 19.651668 C 229.996212 17.920586 229.172384 15.563813 229.172384 12.581347 C 229.172384 9.624951 230.142206 7.325532 232.076638 5.683091 C 234.01107 4.035435 236.758901 2.877904 240.325346 2.215713 C 243.886578 1.543094 248.13607 1.204177 253.073824 1.204177 C 258.100218 1.204177 262.427922 1.65259 266.067365 2.55463 C 269.706808 3.451455 272.501566 4.906189 274.456854 6.913618 C 276.412142 8.926262 277.387179 11.580239 277.387179 14.880765 L 268.309428 14.880765 C 268.309428 13.191397 267.756734 11.887871 266.640916 10.970189 C 265.530312 10.052507 263.77316 9.411173 261.379888 9.046186 C 258.986615 8.681199 255.837298 8.498705 251.926722 8.498705 C 248.287279 8.498705 245.471664 8.6447 243.479878 8.93669 C 241.488091 9.218251 240.116782 9.692734 239.371166 10.365354 C 238.620335 11.037973 238.250134 11.934798 238.250134 13.045402 C 238.250134 13.926585 238.458698 14.656559 238.88104 15.235324 C 239.298168 15.803661 240.059427 16.262502 241.154388 16.606633 C 242.244136 16.945549 243.78751 17.232325 245.779296 17.46696 C 247.771083 17.69638 250.320779 17.910158 253.428383 18.097866 C 257.411956 18.327286 260.978402 18.608848 264.132933 18.937336 C 267.292679 19.255396 269.983155 19.797663 272.209576 20.564136 C 274.435997 21.330609 276.141009 22.451641 277.329824 23.932445 C 278.518639 25.408036 279.113046 27.410251 279.113046 29.933876 C 279.113046 32.619138 278.497782 34.793418 277.26204 36.456717 C 276.036727 38.125229 274.310859 39.39747 272.084438 40.273439 C 269.868445 41.154622 267.245752 41.754244 264.216359 42.082732 C 261.19218 42.411221 257.881226 42.572858 254.283496 42.572858 Z M 284.160296 41.999307 L 284.160296 1.782943 L 293.238047 1.782943 L 293.238047 41.999307 Z M 298.869276 41.999307 L 298.869276 1.782943 L 327.932677 1.782943 C 330.581441 1.782943 333.08421 2.194857 335.440983 3.013471 C 337.797757 3.837299 339.883398 5.073041 341.697905 6.720697 C 343.52284 8.363139 344.956718 10.453993 346.004753 12.988047 C 347.058001 15.516886 347.58984 18.478495 347.58984 21.883303 C 347.58984 25.29854 347.058001 28.270578 346.004753 30.804631 C 344.956718 33.328256 343.52284 35.413897 341.697905 37.061553 C 339.883398 38.709209 337.797757 39.944951 335.440983 40.763565 C 333.08421 41.587393 330.581441 41.999307 327.932677 41.999307 Z M 307.947027 34.355434 L 324.14724 34.355434 C 327.176633 34.355434 329.762827 34.042588 331.905823 33.416896 C 334.048818 32.780775 335.686046 31.560676 336.817506 29.767025 C 337.948966 27.962946 338.512089 25.335039 338.512089 21.883303 C 338.512089 18.405498 337.948966 15.777591 336.817506 13.999582 C 335.686046 12.211145 334.048818 11.006688 331.905823 10.380996 C 329.762827 9.744876 327.176633 9.426815 324.14724 9.426815 L 307.947027 9.426815 Z M 352.642304 41.999307 L 352.642304 1.782943 L 395.1633 1.782943 L 395.1633 9.077471 L 361.720054 9.077471 L 361.720054 18.447211 L 395.1633 18.447211 L 395.1633 25.335039 L 361.720054 25.335039 L 361.720054 34.704779 L 395.1633 34.704779 L 395.1633 41.999307 Z M 352.642304 41.999307 " stroke="#ffffff" stroke-width="1.652168" stroke-opacity="1" stroke-miterlimit="4"/><g fill="#ffffff" fill-opacity="1"><g transform="translate(22.800991, 58.688782)"><g><path d="M 18.046875 0 L 1.671875 -30.140625 L 9.390625 -30.140625 L 22.484375 -5.59375 L 35.5625 -30.140625 L 43.28125 -30.140625 L 26.953125 0 Z M 18.046875 0 "/></g></g></g><g fill="#ffffff" fill-opacity="1"><g transform="translate(67.761475, 58.688782)"><g><path d="M 20.625 0.4375 C 16.207031 0.4375 12.601562 -0.171875 9.8125 -1.390625 C 7.03125 -2.617188 4.976562 -4.394531 3.65625 -6.71875 C 2.332031 -9.039062 1.671875 -11.835938 1.671875 -15.109375 C 1.671875 -18.390625 2.332031 -21.179688 3.65625 -23.484375 C 4.976562 -25.796875 7.03125 -27.554688 9.8125 -28.765625 C 12.601562 -29.972656 16.207031 -30.578125 20.625 -30.578125 C 25.050781 -30.578125 28.65625 -29.960938 31.4375 -28.734375 C 34.21875 -27.515625 36.269531 -25.757812 37.59375 -23.46875 C 38.914062 -21.175781 39.578125 -18.390625 39.578125 -15.109375 C 39.578125 -11.835938 38.914062 -9.046875 37.59375 -6.734375 C 36.269531 -4.421875 34.21875 -2.644531 31.4375 -1.40625 C 28.65625 -0.175781 25.050781 0.4375 20.625 0.4375 Z M 20.625 -5.296875 C 24.875 -5.296875 27.957031 -6.0625 29.875 -7.59375 C 31.800781 -9.132812 32.765625 -11.640625 32.765625 -15.109375 C 32.765625 -18.554688 31.8125 -21.039062 29.90625 -22.5625 C 28 -24.082031 24.90625 -24.84375 20.625 -24.84375 C 16.375 -24.84375 13.285156 -24.085938 11.359375 -22.578125 C 9.441406 -21.078125 8.484375 -18.585938 8.484375 -15.109375 C 8.484375 -11.640625 9.441406 -9.132812 11.359375 -7.59375 C 13.285156 -6.0625 16.375 -5.296875 20.625 -5.296875 Z M 20.625 -5.296875 "/></g></g></g><g fill="#ffffff" fill-opacity="1"><g transform="translate(109.018313, 58.688782)"><g><path d="M 2.109375 0 L 2.109375 -30.140625 L 25.796875 -30.140625 C 28.085938 -30.140625 30.09375 -29.703125 31.8125 -28.828125 C 33.539062 -27.953125 34.890625 -26.695312 35.859375 -25.0625 C 36.835938 -23.425781 37.328125 -21.488281 37.328125 -19.25 C 37.328125 -16.71875 36.707031 -14.582031 35.46875 -12.84375 C 34.238281 -11.113281 32.5625 -9.875 30.4375 -9.125 L 36.09375 0 L 28.078125 0 L 23 -8.3125 L 8.90625 -8.3125 L 8.90625 0 Z M 8.90625 -14.03125 L 23.640625 -14.03125 C 24.296875 -14.03125 25.019531 -14.054688 25.8125 -14.109375 C 26.601562 -14.171875 27.359375 -14.359375 28.078125 -14.671875 C 28.796875 -14.992188 29.382812 -15.515625 29.84375 -16.234375 C 30.300781 -16.953125 30.53125 -17.957031 30.53125 -19.25 C 30.53125 -20.539062 30.300781 -21.535156 29.84375 -22.234375 C 29.382812 -22.941406 28.796875 -23.453125 28.078125 -23.765625 C 27.359375 -24.085938 26.601562 -24.273438 25.8125 -24.328125 C 25.019531 -24.390625 24.296875 -24.421875 23.640625 -24.421875 L 8.90625 -24.421875 Z M 8.90625 -14.03125 "/></g></g></g><g fill="#ffffff" fill-opacity="1"><g transform="translate(148.035745, 58.688782)"><g><path d="M 21.578125 0.4375 C 17.472656 0.4375 13.925781 0.144531 10.9375 -0.4375 C 7.945312 -1.03125 5.65625 -2.109375 4.0625 -3.671875 C 2.46875 -5.242188 1.671875 -7.460938 1.671875 -10.328125 L 8.484375 -10.328125 C 8.484375 -9.128906 8.878906 -8.132812 9.671875 -7.34375 C 10.460938 -6.550781 11.835938 -5.96875 13.796875 -5.59375 C 15.765625 -5.21875 18.5 -5.03125 22 -5.03125 C 24.84375 -5.03125 27.085938 -5.160156 28.734375 -5.421875 C 30.390625 -5.679688 31.578125 -6.082031 32.296875 -6.625 C 33.015625 -7.175781 33.375 -7.894531 33.375 -8.78125 C 33.375 -9.5 33.210938 -10.082031 32.890625 -10.53125 C 32.578125 -10.976562 31.972656 -11.328125 31.078125 -11.578125 C 30.191406 -11.835938 28.9375 -12.046875 27.3125 -12.203125 C 25.695312 -12.359375 23.566406 -12.507812 20.921875 -12.65625 C 16.617188 -12.882812 13.128906 -13.300781 10.453125 -13.90625 C 7.785156 -14.507812 5.832031 -15.457031 4.59375 -16.75 C 3.363281 -18.039062 2.75 -19.804688 2.75 -22.046875 C 2.75 -24.253906 3.472656 -25.972656 4.921875 -27.203125 C 6.378906 -28.441406 8.441406 -29.3125 11.109375 -29.8125 C 13.773438 -30.320312 16.960938 -30.578125 20.671875 -30.578125 C 24.429688 -30.578125 27.675781 -30.238281 30.40625 -29.5625 C 33.132812 -28.882812 35.226562 -27.789062 36.6875 -26.28125 C 38.15625 -24.78125 38.890625 -22.796875 38.890625 -20.328125 L 32.078125 -20.328125 C 32.078125 -21.585938 31.660156 -22.5625 30.828125 -23.25 C 29.992188 -23.9375 28.679688 -24.414062 26.890625 -24.6875 C 25.097656 -24.96875 22.738281 -25.109375 19.8125 -25.109375 C 17.082031 -25.109375 14.96875 -25 13.46875 -24.78125 C 11.976562 -24.5625 10.953125 -24.203125 10.390625 -23.703125 C 9.835938 -23.203125 9.5625 -22.535156 9.5625 -21.703125 C 9.5625 -21.046875 9.71875 -20.5 10.03125 -20.0625 C 10.34375 -19.632812 10.910156 -19.289062 11.734375 -19.03125 C 12.554688 -18.769531 13.710938 -18.550781 15.203125 -18.375 C 16.691406 -18.207031 18.597656 -18.050781 20.921875 -17.90625 C 23.910156 -17.738281 26.585938 -17.53125 28.953125 -17.28125 C 31.328125 -17.039062 33.34375 -16.632812 35 -16.0625 C 36.664062 -15.488281 37.941406 -14.648438 38.828125 -13.546875 C 39.722656 -12.441406 40.171875 -10.941406 40.171875 -9.046875 C 40.171875 -7.035156 39.710938 -5.40625 38.796875 -4.15625 C 37.878906 -2.90625 36.585938 -1.945312 34.921875 -1.28125 C 33.253906 -0.625 31.285156 -0.175781 29.015625 0.0625 C 26.753906 0.3125 24.273438 0.4375 21.578125 0.4375 Z M 21.578125 0.4375 "/></g></g></g><g fill="#ffffff" fill-opacity="1"><g transform="translate(189.895511, 58.688782)"><g><path d="M 21.578125 0.4375 C 17.472656 0.4375 13.925781 0.144531 10.9375 -0.4375 C 7.945312 -1.03125 5.65625 -2.109375 4.0625 -3.671875 C 2.46875 -5.242188 1.671875 -7.460938 1.671875 -10.328125 L 8.484375 -10.328125 C 8.484375 -9.128906 8.878906 -8.132812 9.671875 -7.34375 C 10.460938 -6.550781 11.835938 -5.96875 13.796875 -5.59375 C 15.765625 -5.21875 18.5 -5.03125 22 -5.03125 C 24.84375 -5.03125 27.085938 -5.160156 28.734375 -5.421875 C 30.390625 -5.679688 31.578125 -6.082031 32.296875 -6.625 C 33.015625 -7.175781 33.375 -7.894531 33.375 -8.78125 C 33.375 -9.5 33.210938 -10.082031 32.890625 -10.53125 C 32.578125 -10.976562 31.972656 -11.328125 31.078125 -11.578125 C 30.191406 -11.835938 28.9375 -12.046875 27.3125 -12.203125 C 25.695312 -12.359375 23.566406 -12.507812 20.921875 -12.65625 C 16.617188 -12.882812 13.128906 -13.300781 10.453125 -13.90625 C 7.785156 -14.507812 5.832031 -15.457031 4.59375 -16.75 C 3.363281 -18.039062 2.75 -19.804688 2.75 -22.046875 C 2.75 -24.253906 3.472656 -25.972656 4.921875 -27.203125 C 6.378906 -28.441406 8.441406 -29.3125 11.109375 -29.8125 C 13.773438 -30.320312 16.960938 -30.578125 20.671875 -30.578125 C 24.429688 -30.578125 27.675781 -30.238281 30.40625 -29.5625 C 33.132812 -28.882812 35.226562 -27.789062 36.6875 -26.28125 C 38.15625 -24.78125 38.890625 -22.796875 38.890625 -20.328125 L 32.078125 -20.328125 C 32.078125 -21.585938 31.660156 -22.5625 30.828125 -23.25 C 29.992188 -23.9375 28.679688 -24.414062 26.890625 -24.6875 C 25.097656 -24.96875 22.738281 -25.109375 19.8125 -25.109375 C 17.082031 -25.109375 14.96875 -25 13.46875 -24.78125 C 11.976562 -24.5625 10.953125 -24.203125 10.390625 -23.703125 C 9.835938 -23.203125 9.5625 -22.535156 9.5625 -21.703125 C 9.5625 -21.046875 9.71875 -20.5 10.03125 -20.0625 C 10.34375 -19.632812 10.910156 -19.289062 11.734375 -19.03125 C 12.554688 -18.769531 13.710938 -18.550781 15.203125 -18.375 C 16.691406 -18.207031 18.597656 -18.050781 20.921875 -17.90625 C 23.910156 -17.738281 26.585938 -17.53125 28.953125 -17.28125 C 31.328125 -17.039062 33.34375 -16.632812 35 -16.0625 C 36.664062 -15.488281 37.941406 -14.648438 38.828125 -13.546875 C 39.722656 -12.441406 40.171875 -10.941406 40.171875 -9.046875 C 40.171875 -7.035156 39.710938 -5.40625 38.796875 -4.15625 C 37.878906 -2.90625 36.585938 -1.945312 34.921875 -1.28125 C 33.253906 -0.625 31.285156 -0.175781 29.015625 0.0625 C 26.753906 0.3125 24.273438 0.4375 21.578125 0.4375 Z M 21.578125 0.4375 "/></g></g></g><g fill="#ffffff" fill-opacity="1"><g transform="translate(231.755266, 58.688782)"><g><path d="M 2.109375 0 L 2.109375 -30.140625 L 8.90625 -30.140625 L 8.90625 0 Z M 2.109375 0 "/></g></g></g><g fill="#ffffff" fill-opacity="1"><g transform="translate(242.780059, 58.688782)"><g><path d="M 2.109375 0 L 2.109375 -30.140625 L 23.90625 -30.140625 C 25.882812 -30.140625 27.753906 -29.832031 29.515625 -29.21875 C 31.285156 -28.601562 32.851562 -27.675781 34.21875 -26.4375 C 35.582031 -25.207031 36.65625 -23.644531 37.4375 -21.75 C 38.226562 -19.851562 38.625 -17.628906 38.625 -15.078125 C 38.625 -12.515625 38.226562 -10.285156 37.4375 -8.390625 C 36.65625 -6.503906 35.582031 -4.941406 34.21875 -3.703125 C 32.851562 -2.472656 31.285156 -1.546875 29.515625 -0.921875 C 27.753906 -0.304688 25.882812 0 23.90625 0 Z M 8.90625 -5.734375 L 21.0625 -5.734375 C 23.320312 -5.734375 25.253906 -5.96875 26.859375 -6.4375 C 28.472656 -6.90625 29.703125 -7.816406 30.546875 -9.171875 C 31.398438 -10.523438 31.828125 -12.492188 31.828125 -15.078125 C 31.828125 -17.679688 31.398438 -19.648438 30.546875 -20.984375 C 29.703125 -22.328125 28.472656 -23.234375 26.859375 -23.703125 C 25.253906 -24.179688 23.320312 -24.421875 21.0625 -24.421875 L 8.90625 -24.421875 Z M 8.90625 -5.734375 "/></g></g></g><g fill="#ffffff" fill-opacity="1"><g transform="translate(283.089459, 58.688782)"><g><path d="M 2.109375 0 L 2.109375 -30.140625 L 33.96875 -30.140625 L 33.96875 -24.671875 L 8.90625 -24.671875 L 8.90625 -17.65625 L 33.96875 -17.65625 L 33.96875 -12.484375 L 8.90625 -12.484375 L 8.90625 -5.46875 L 33.96875 -5.46875 L 33.96875 0 Z M 2.109375 0 "/></g></g></g><path stroke-linecap="butt" transform="matrix(0.74917, 0, 0, 0.74917, 20.951476, 160.033502)" fill="none" stroke-linejoin="miter" d="M 26.651473 42.001794 L 4.825244 1.780216 L 15.107452 1.780216 L 32.569478 34.535201 L 50.036717 1.780216 L 60.318925 1.780216 L 38.544838 42.001794 Z M 90.081016 42.575345 C 84.183867 42.575345 79.376466 41.761946 75.664025 40.135146 C 71.946371 38.508346 69.208968 36.141144 67.441387 33.03354 C 65.684235 29.93115 64.803052 26.192639 64.803052 21.828436 C 64.803052 17.459019 65.684235 13.736151 67.441387 10.659831 C 69.208968 7.573083 71.946371 5.226737 75.664025 3.620794 C 79.376466 2.009637 84.183867 1.206665 90.081016 1.206665 C 95.983378 1.206665 100.79078 2.020065 104.50322 3.646865 C 108.21566 5.273664 110.953063 7.62001 112.710216 10.691116 C 114.477796 13.746579 115.364193 17.459019 115.364193 21.828436 C 115.364193 26.192639 114.477796 29.920721 112.710216 33.007469 C 110.953063 36.094217 108.21566 38.461419 104.50322 40.103861 C 100.79078 41.751517 95.983378 42.575345 90.081016 42.575345 Z M 90.081016 34.931473 C 95.748744 34.931473 99.86267 33.904295 102.428008 31.855153 C 104.99856 29.811225 106.286443 26.463772 106.286443 21.828436 C 106.286443 17.234813 105.008988 13.923858 102.454078 11.895573 C 99.909597 9.867288 95.785242 8.850538 90.081016 8.850538 C 84.413287 8.850538 80.294147 9.856859 77.723595 11.869502 C 75.163472 13.876931 73.880803 17.198314 73.880803 21.828436 C 73.880803 26.463772 75.163472 29.811225 77.723595 31.855153 C 80.294147 33.904295 84.413287 34.931473 90.081016 34.931473 Z M 120.416657 42.001794 L 120.416657 1.780216 L 152.008897 1.780216 C 155.080003 1.780216 157.760051 2.364196 160.064684 3.532154 C 162.364103 4.705327 164.162968 6.384268 165.466493 8.568976 C 166.764804 10.748471 167.411353 13.329451 167.411353 16.311917 C 167.411353 19.690654 166.592739 22.537554 164.945083 24.857829 C 163.297427 27.167676 161.060577 28.820546 158.224106 29.821653 L 165.74284 42.001794 L 155.069575 42.001794 L 148.280815 30.906187 L 129.494408 30.906187 L 129.494408 42.001794 Z M 129.494408 23.272742 L 149.15157 23.272742 C 150.027539 23.272742 150.992148 23.236243 152.040182 23.158032 C 153.093431 23.074606 154.099752 22.824329 155.053933 22.401987 C 156.018541 21.979645 156.805871 21.296598 157.410706 20.342417 C 158.031185 19.377808 158.338817 18.03257 158.338817 16.311917 C 158.338817 14.591263 158.031185 13.266882 157.410706 12.328343 C 156.805871 11.384591 156.018541 10.701544 155.053933 10.284416 C 154.099752 9.862073 153.093431 9.611797 152.040182 9.538799 C 150.992148 9.465802 150.027539 9.424089 149.15157 9.424089 L 129.494408 9.424089 Z M 198.44047 42.575345 C 192.955235 42.575345 188.226046 42.184288 184.242472 41.396958 C 180.258899 40.609629 177.203435 39.175751 175.081296 37.090111 C 172.959157 35.00447 171.89548 32.042861 171.89548 28.210496 L 180.973231 28.210496 C 180.973231 29.816439 181.494641 31.151249 182.542675 32.209712 C 183.601138 33.257746 185.436501 34.029433 188.059194 34.535201 C 190.687101 35.030541 194.336972 35.280818 199.014021 35.280818 C 202.809887 35.280818 205.807995 35.108752 208.003132 34.759407 C 210.213911 34.415277 211.793784 33.878224 212.747964 33.14825 C 213.702145 32.418276 214.176628 31.458881 214.176628 30.270066 C 214.176628 29.315886 213.968064 28.549413 213.545722 27.960219 C 213.12338 27.360598 212.320408 26.886114 211.131593 26.541984 C 209.947992 26.192639 208.269051 25.916292 206.099985 25.712942 C 203.936133 25.499163 201.099662 25.295813 197.580143 25.108106 C 191.82899 24.800474 187.172797 24.242565 183.611566 23.439593 C 180.04512 22.636622 177.443284 21.374809 175.795628 19.654156 C 174.147972 17.923074 173.329358 15.5663 173.329358 12.583834 C 173.329358 9.627439 174.293967 7.32802 176.233612 5.680364 C 178.168044 4.032708 180.915875 2.880392 184.482321 2.218201 C 188.043552 1.540368 192.293045 1.206665 197.230799 1.206665 C 202.251978 1.206665 206.584896 1.655078 210.224339 2.551903 C 213.858568 3.448729 216.65854 4.903463 218.608614 6.916106 C 220.563902 8.923535 221.544153 11.582727 221.544153 14.883253 L 212.466403 14.883253 C 212.466403 13.18867 211.908494 11.885145 210.79789 10.967463 C 209.682073 10.054995 207.930135 9.413661 205.536862 9.048674 C 203.14359 8.683687 199.989058 8.501193 196.083696 8.501193 C 192.444254 8.501193 189.628639 8.647188 187.636852 8.933963 C 185.645065 9.215525 184.273757 9.695222 183.52814 10.367841 C 182.77731 11.04046 182.401894 11.932072 182.401894 13.047889 C 182.401894 13.923858 182.615672 14.653833 183.032801 15.232598 C 183.455143 15.806149 184.211187 16.26499 185.306149 16.609121 C 186.40111 16.942823 187.944484 17.229599 189.936271 17.464233 C 191.928057 17.698868 194.477753 17.907432 197.580143 18.095139 C 201.568931 18.329774 205.135376 18.611336 208.284693 18.939824 C 211.444439 19.257884 214.140129 19.800151 216.366551 20.566624 C 218.592972 21.333096 220.297983 22.454128 221.486798 23.929719 C 222.675613 25.410524 223.270021 27.412739 223.270021 29.936364 C 223.270021 32.621626 222.649543 34.795906 221.419015 36.459204 C 220.193701 38.122503 218.467833 39.394744 216.241412 40.275927 C 214.025419 41.151896 211.402726 41.756731 208.368119 42.08522 C 205.349154 42.413708 202.0382 42.575345 198.44047 42.575345 Z M 254.283496 42.575345 C 248.803475 42.575345 244.069071 42.184288 240.085498 41.396958 C 236.101924 40.609629 233.046461 39.175751 230.924322 37.090111 C 228.802182 35.00447 227.738506 32.042861 227.738506 28.210496 L 236.816256 28.210496 C 236.816256 29.816439 237.34288 31.151249 238.390915 32.209712 C 239.444163 33.257746 241.284741 34.029433 243.90222 34.535201 C 246.530127 35.030541 250.179998 35.280818 254.857047 35.280818 C 258.652913 35.280818 261.651021 35.108752 263.851372 34.759407 C 266.056937 34.415277 267.636809 33.878224 268.59099 33.14825 C 269.54517 32.418276 270.024868 31.458881 270.024868 30.270066 C 270.024868 29.315886 269.81109 28.549413 269.388747 27.960219 C 268.971619 27.360598 268.163434 26.886114 266.979832 26.541984 C 265.791017 26.192639 264.112077 25.916292 261.943011 25.712942 C 259.779159 25.499163 256.942687 25.295813 253.428383 25.108106 C 247.677229 24.800474 243.015823 24.242565 239.454591 23.439593 C 235.89336 22.636622 233.286309 21.374809 231.638653 19.654156 C 229.996212 17.923074 229.172384 15.5663 229.172384 12.583834 C 229.172384 9.627439 230.142206 7.32802 232.076638 5.680364 C 234.01107 4.032708 236.758901 2.880392 240.325346 2.218201 C 243.886578 1.540368 248.13607 1.206665 253.073824 1.206665 C 258.100218 1.206665 262.427922 1.655078 266.067365 2.551903 C 269.706808 3.448729 272.501566 4.903463 274.456854 6.916106 C 276.412142 8.923535 277.387179 11.582727 277.387179 14.883253 L 268.309428 14.883253 C 268.309428 13.18867 267.756734 11.885145 266.640916 10.967463 C 265.530312 10.054995 263.77316 9.413661 261.379888 9.048674 C 258.986615 8.683687 255.837298 8.501193 251.926722 8.501193 C 248.287279 8.501193 245.471664 8.647188 243.479878 8.933963 C 241.488091 9.215525 240.116782 9.695222 239.371166 10.367841 C 238.620335 11.04046 238.250134 11.932072 238.250134 13.047889 C 238.250134 13.923858 238.458698 14.653833 238.88104 15.232598 C 239.298168 15.806149 240.059427 16.26499 241.154388 16.609121 C 242.244136 16.942823 243.78751 17.229599 245.779296 17.464233 C 247.771083 17.698868 250.320779 17.907432 253.428383 18.095139 C 257.411956 18.329774 260.978402 18.611336 264.132933 18.939824 C 267.292679 19.257884 269.983155 19.800151 272.209576 20.566624 C 274.435997 21.333096 276.141009 22.454128 277.329824 23.929719 C 278.518639 25.410524 279.113046 27.412739 279.113046 29.936364 C 279.113046 32.621626 278.497782 34.795906 277.26204 36.459204 C 276.036727 38.122503 274.310859 39.394744 272.084438 40.275927 C 269.868445 41.151896 267.245752 41.756731 264.216359 42.08522 C 261.19218 42.413708 257.881226 42.575345 254.283496 42.575345 Z M 284.160296 42.001794 L 284.160296 1.780216 L 293.238047 1.780216 L 293.238047 42.001794 Z M 298.869276 42.001794 L 298.869276 1.780216 L 327.932677 1.780216 C 330.581441 1.780216 333.08421 2.19213 335.440983 3.015958 C 337.797757 3.839786 339.883398 5.070314 341.697905 6.71797 C 343.52284 8.365626 344.956718 10.456481 346.004753 12.990534 C 347.058001 15.514159 347.58984 18.480983 347.58984 21.885791 C 347.58984 25.295813 347.058001 28.273065 346.004753 30.807119 C 344.956718 33.330744 343.52284 35.416384 341.697905 37.06404 C 339.883398 38.706482 337.797757 39.942224 335.440983 40.766052 C 333.08421 41.58988 330.581441 42.001794 327.932677 42.001794 Z M 307.947027 34.352708 L 324.14724 34.352708 C 327.176633 34.352708 329.762827 34.039861 331.905823 33.414169 C 334.048818 32.778049 335.686046 31.563163 336.817506 29.769512 C 337.948966 27.960219 338.512089 25.332312 338.512089 21.885791 C 338.512089 18.402771 337.948966 15.774864 336.817506 14.00207 C 335.686046 12.213633 334.048818 11.009176 331.905823 10.378269 C 329.762827 9.742149 327.176633 9.424089 324.14724 9.424089 L 307.947027 9.424089 Z M 352.642304 42.001794 L 352.642304 1.780216 L 395.1633 1.780216 L 395.1633 9.074744 L 361.720054 9.074744 L 361.720054 18.444484 L 395.1633 18.444484 L 395.1633 25.332312 L 361.720054 25.332312 L 361.720054 34.707266 L 395.1633 34.707266 L 395.1633 42.001794 Z M 352.642304 42.001794 " stroke="#ffffff" stroke-width="1.652168" stroke-opacity="1" stroke-miterlimit="4"/></svg>