<svg xmlns="http://www.w3.org/2000/svg" xmlns:xlink="http://www.w3.org/1999/xlink" width="500" zoomAndPan="magnify" viewBox="0 0 375 374.999991" height="500" preserveAspectRatio="xMidYMid meet" version="1.0"><defs><g/></defs><path stroke-linecap="butt" transform="matrix(0.75, 0, 0, 0.75, 37.500002, 151.559844)" fill="none" stroke-linejoin="miter" d="M 26.651041 41.998336 L 4.822914 1.779584 L 15.104165 1.779584 L 32.572916 34.534794 L 50.036459 1.779584 L 60.31771 1.779584 L 38.546875 41.998336 Z M 90.083337 42.576461 C 84.182294 42.576461 79.375002 41.763961 75.661461 40.133753 C 71.947919 38.508753 69.208335 36.138961 67.44271 33.034794 C 65.682293 29.930627 64.802085 26.196252 64.802085 21.82646 C 64.802085 17.461876 65.682293 13.737918 67.44271 10.659793 C 69.208335 7.576459 71.947919 5.2275 75.661461 3.618125 C 79.375002 2.00875 84.182294 1.206667 90.083337 1.206667 C 95.984379 1.206667 100.791671 2.019167 104.505212 3.644167 C 108.218754 5.274375 110.95313 7.623334 112.708338 10.691043 C 114.479171 13.748334 115.35938 17.461876 115.35938 21.82646 C 115.35938 26.196252 114.479171 29.92021 112.708338 33.008752 C 110.95313 36.092086 108.218754 38.461878 104.505212 40.107711 C 100.791671 41.753545 95.984379 42.576461 90.083337 42.576461 Z M 90.083337 34.930627 C 95.750004 34.930627 99.864587 33.904586 102.427087 31.857711 C 105.000004 29.810835 106.286463 26.467085 106.286463 21.82646 C 106.286463 17.237918 105.010421 13.925418 102.458337 11.894168 C 99.911462 9.868126 95.786462 8.852501 90.083337 8.852501 C 84.416669 8.852501 80.296878 9.857709 77.723961 11.868126 C 75.161461 13.878543 73.88021 17.196251 73.88021 21.82646 C 73.88021 26.467085 75.161461 29.810835 77.723961 31.857711 C 80.296878 33.904586 84.416669 34.930627 90.083337 34.930627 Z M 120.416672 41.998336 L 120.416672 1.779584 L 152.010424 1.779584 C 155.078132 1.779584 157.760424 2.362917 160.062508 3.534792 C 162.364591 4.701459 164.161466 6.383751 165.46355 8.571251 C 166.765633 10.748334 167.411467 13.331668 167.411467 16.316043 C 167.411467 19.691043 166.58855 22.540002 164.942716 24.85771 C 163.296883 27.165002 161.0573 28.821252 158.223966 29.821252 L 165.7448 41.998336 L 155.067716 41.998336 L 148.281257 30.904585 L 129.494797 30.904585 L 129.494797 41.998336 Z M 129.494797 23.274377 L 149.151049 23.274377 C 150.026049 23.274377 150.989591 23.23271 152.036466 23.159793 C 153.093757 23.07646 154.098966 22.821252 155.057299 22.404585 C 156.015633 21.98271 156.802091 21.29521 157.411466 20.342085 C 158.031258 19.378543 158.338549 18.034793 158.338549 16.316043 C 158.338549 14.592084 158.031258 13.263959 157.411466 12.331668 C 156.802091 11.383751 156.015633 10.701459 155.057299 10.279584 C 154.098966 9.862917 153.093757 9.612917 152.036466 9.540001 C 150.989591 9.461876 150.026049 9.425417 149.151049 9.425417 L 129.494797 9.425417 Z M 198.43751 42.576461 C 192.958343 42.576461 188.223968 42.180628 184.239593 41.399378 C 180.255217 40.612919 177.203134 39.175419 175.083342 37.092086 C 172.958342 35.003544 171.895842 32.045211 171.895842 28.211877 L 180.973968 28.211877 C 180.973968 29.821252 181.494801 31.149377 182.541676 32.206669 C 183.598968 33.253544 185.437509 34.029586 188.057301 34.534794 C 190.68751 35.034794 194.338552 35.279586 199.015635 35.279586 C 202.812511 35.279586 205.807302 35.107711 208.005219 34.763961 C 210.213553 34.415002 211.791678 33.878544 212.744803 33.149377 C 213.703136 32.420211 214.177095 31.461877 214.177095 30.274377 C 214.177095 29.316044 213.968761 28.54521 213.546886 27.956669 C 213.125011 27.35771 212.322928 26.88896 211.135428 26.540002 C 209.947928 26.196252 208.265636 25.92021 206.098969 25.711877 C 203.937511 25.498335 201.098969 25.29521 197.583344 25.10771 C 191.828135 24.800418 187.171885 24.243127 183.609384 23.441043 C 180.046884 22.633752 177.442717 21.373335 175.796884 19.654585 C 174.15105 17.92021 173.328134 15.566043 173.328134 12.581668 C 173.328134 9.628542 174.296884 7.326459 176.229176 5.680626 C 178.166676 4.034792 180.916676 2.878542 184.479176 2.217084 C 188.041676 1.54 192.291677 1.206667 197.229177 1.206667 C 202.255219 1.206667 206.583344 1.654584 210.223969 2.550417 C 213.859386 3.451459 216.656262 4.904584 218.609387 6.915001 C 220.56772 8.925417 221.541678 11.581668 221.541678 14.883751 L 212.468761 14.883751 C 212.468761 13.191043 211.91147 11.883751 210.796886 10.967084 C 209.682303 10.050417 207.932303 9.409792 205.536469 9.045209 C 203.140636 8.680626 199.989594 8.498334 196.083343 8.498334 C 192.442718 8.498334 189.630218 8.644167 187.635426 8.935834 C 185.645843 9.217084 184.276051 9.691042 183.526051 10.368126 C 182.776051 11.040001 182.406259 11.930626 182.406259 13.045209 C 182.406259 13.925418 182.614593 14.654584 183.036468 15.232709 C 183.458343 15.805626 184.213551 16.26396 185.307301 16.60771 C 186.401051 16.946251 187.942718 17.23271 189.93751 17.461876 C 191.927093 17.696251 194.479177 17.909793 197.583344 18.097293 C 201.567719 18.331668 205.135427 18.60771 208.286469 18.935835 C 211.447928 19.253543 214.140636 19.800418 216.364595 20.566043 C 218.593762 21.331668 220.296887 22.45146 221.484387 23.930627 C 222.671887 25.409793 223.265637 27.409794 223.265637 29.935835 C 223.265637 32.618127 222.651054 34.795211 221.416678 36.456669 C 220.19272 38.123336 218.463553 39.394169 216.239595 40.274378 C 214.026053 41.154586 211.401053 41.758753 208.369803 42.08167 C 205.348969 42.409795 202.036469 42.576461 198.43751 42.576461 Z M 254.281264 42.576461 C 248.802097 42.576461 244.067722 42.180628 240.083346 41.399378 C 236.104179 40.612919 233.046888 39.175419 230.927096 37.092086 C 228.802096 35.003544 227.739596 32.045211 227.739596 28.211877 L 236.817721 28.211877 C 236.817721 29.821252 237.338555 31.149377 238.390638 32.206669 C 239.442721 33.253544 241.281263 34.029586 243.901055 34.534794 C 246.531263 35.034794 250.182305 35.279586 254.859389 35.279586 C 258.656264 35.279586 261.651056 35.107711 263.848973 34.763961 C 266.057306 34.415002 267.635432 33.878544 268.593765 33.149377 C 269.54689 32.420211 270.020848 31.461877 270.020848 30.274377 C 270.020848 29.316044 269.812515 28.54521 269.39064 27.956669 C 268.968765 27.35771 268.166682 26.88896 266.979181 26.540002 C 265.791681 26.196252 264.10939 25.92021 261.942723 25.711877 C 259.781264 25.498335 256.942722 25.29521 253.427097 25.10771 C 247.677097 24.800418 243.015638 24.243127 239.453138 23.441043 C 235.890638 22.633752 233.286471 21.373335 231.640637 19.654585 C 229.994804 17.92021 229.171887 15.566043 229.171887 12.581668 C 229.171887 9.628542 230.140637 7.326459 232.078138 5.680626 C 234.010429 4.034792 236.760429 2.878542 240.32293 2.217084 C 243.88543 1.54 248.140639 1.206667 253.078139 1.206667 C 258.098973 1.206667 262.427098 1.654584 266.067723 2.550417 C 269.70314 3.451459 272.500015 4.904584 274.45314 6.915001 C 276.411474 8.925417 277.385432 11.581668 277.385432 14.883751 L 268.312515 14.883751 C 268.312515 13.191043 267.755223 11.883751 266.64064 10.967084 C 265.526056 10.050417 263.776056 9.409792 261.380223 9.045209 C 258.984389 8.680626 255.833347 8.498334 251.927097 8.498334 C 248.286472 8.498334 245.473972 8.644167 243.47918 8.935834 C 241.489596 9.217084 240.119805 9.691042 239.369805 10.368126 C 238.619805 11.040001 238.250013 11.930626 238.250013 13.045209 C 238.250013 13.925418 238.458346 14.654584 238.880221 15.232709 C 239.302096 15.805626 240.057305 16.26396 241.151055 16.60771 C 242.244805 16.946251 243.79168 17.23271 245.781263 17.461876 C 247.770847 17.696251 250.32293 17.909793 253.427097 18.097293 C 257.411473 18.331668 260.979181 18.60771 264.130223 18.935835 C 267.291682 19.253543 269.98439 19.800418 272.208348 20.566043 C 274.437515 21.331668 276.145849 22.45146 277.333349 23.930627 C 278.520849 25.409793 279.114599 27.409794 279.114599 29.935835 C 279.114599 32.618127 278.494807 34.795211 277.260432 36.456669 C 276.036474 38.123336 274.312515 39.394169 272.083348 40.274378 C 269.869807 41.154586 267.244806 41.758753 264.213556 42.08167 C 261.192723 42.409795 257.885431 42.576461 254.281264 42.576461 Z M 284.161474 41.998336 L 284.161474 1.779584 L 293.234392 1.779584 L 293.234392 41.998336 Z M 298.869809 41.998336 L 298.869809 1.779584 L 327.937519 1.779584 C 330.583352 1.779584 333.083352 2.191042 335.442728 3.013959 C 337.796894 3.836875 339.880228 5.07125 341.697936 6.717084 C 343.520853 8.362917 344.958353 10.456667 346.005228 12.987918 C 347.06252 15.513959 347.588562 18.477501 347.588562 21.883752 C 347.588562 25.29521 347.06252 28.269169 346.005228 30.805627 C 344.958353 33.331669 343.520853 35.415002 341.697936 37.060836 C 339.880228 38.706669 337.796894 39.941044 335.442728 40.763961 C 333.083352 41.586878 330.583352 41.998336 327.937519 41.998336 Z M 307.942726 34.352502 L 324.145852 34.352502 C 327.177102 34.352502 329.765644 34.040002 331.906269 33.415002 C 334.046894 32.779586 335.682311 31.560836 336.817728 29.769169 C 337.947936 27.961877 338.510436 25.336877 338.510436 21.883752 C 338.510436 18.404585 337.947936 15.774376 336.817728 13.998334 C 335.682311 12.211876 334.046894 11.008751 331.906269 10.378542 C 329.765644 9.743126 327.177102 9.425417 324.145852 9.425417 L 307.942726 9.425417 Z M 352.645854 41.998336 L 352.645854 1.779584 L 395.16669 1.779584 L 395.16669 9.076459 L 361.718771 9.076459 L 361.718771 18.446251 L 395.16669 18.446251 L 395.16669 25.336877 L 361.718771 25.336877 L 361.718771 34.706669 L 395.16669 34.706669 L 395.16669 41.998336 Z M 352.645854 41.998336 " stroke="#ffffff" stroke-width="1.652168" stroke-opacity="1" stroke-miterlimit="4"/><g fill="#ffffff" fill-opacity="1"><g transform="translate(39.351564, 116.416567)"><g><path d="M 18.0625 0 L 1.6875 -30.1875 L 9.40625 -30.1875 L 22.515625 -5.609375 L 35.625 -30.1875 L 43.34375 -30.1875 L 27 0 Z M 18.0625 0 "/></g></g></g><g fill="#ffffff" fill-opacity="1"><g transform="translate(84.361838, 116.416567)"><g><path d="M 20.65625 0.4375 C 16.226562 0.4375 12.617188 -0.171875 9.828125 -1.390625 C 7.046875 -2.617188 4.992188 -4.394531 3.671875 -6.71875 C 2.347656 -9.050781 1.6875 -11.859375 1.6875 -15.140625 C 1.6875 -18.410156 2.347656 -21.203125 3.671875 -23.515625 C 4.992188 -25.835938 7.046875 -27.601562 9.828125 -28.8125 C 12.617188 -30.019531 16.226562 -30.625 20.65625 -30.625 C 25.082031 -30.625 28.691406 -30.007812 31.484375 -28.78125 C 34.273438 -27.5625 36.328125 -25.800781 37.640625 -23.5 C 38.960938 -21.195312 39.625 -18.410156 39.625 -15.140625 C 39.625 -11.859375 38.960938 -9.0625 37.640625 -6.75 C 36.328125 -4.4375 34.273438 -2.660156 31.484375 -1.421875 C 28.691406 -0.179688 25.082031 0.4375 20.65625 0.4375 Z M 20.65625 -5.296875 C 24.914062 -5.296875 28.003906 -6.066406 29.921875 -7.609375 C 31.847656 -9.148438 32.8125 -11.660156 32.8125 -15.140625 C 32.8125 -18.585938 31.851562 -21.070312 29.9375 -22.59375 C 28.03125 -24.125 24.9375 -24.890625 20.65625 -24.890625 C 16.40625 -24.890625 13.316406 -24.132812 11.390625 -22.625 C 9.460938 -21.113281 8.5 -18.617188 8.5 -15.140625 C 8.5 -11.660156 9.460938 -9.148438 11.390625 -7.609375 C 13.316406 -6.066406 16.40625 -5.296875 20.65625 -5.296875 Z M 20.65625 -5.296875 "/></g></g></g><g fill="#ffffff" fill-opacity="1"><g transform="translate(125.664364, 116.416567)"><g><path d="M 2.109375 0 L 2.109375 -30.1875 L 25.828125 -30.1875 C 28.128906 -30.1875 30.140625 -29.75 31.859375 -28.875 C 33.585938 -28 34.941406 -26.738281 35.921875 -25.09375 C 36.898438 -23.457031 37.390625 -21.519531 37.390625 -19.28125 C 37.390625 -16.75 36.769531 -14.613281 35.53125 -12.875 C 34.300781 -11.132812 32.617188 -9.890625 30.484375 -9.140625 L 36.140625 0 L 28.125 0 L 23.03125 -8.328125 L 8.921875 -8.328125 L 8.921875 0 Z M 8.921875 -14.0625 L 23.671875 -14.0625 C 24.335938 -14.0625 25.066406 -14.085938 25.859375 -14.140625 C 26.648438 -14.203125 27.40625 -14.390625 28.125 -14.703125 C 28.84375 -15.023438 29.429688 -15.546875 29.890625 -16.265625 C 30.347656 -16.984375 30.578125 -17.988281 30.578125 -19.28125 C 30.578125 -20.570312 30.347656 -21.566406 29.890625 -22.265625 C 29.429688 -22.972656 28.84375 -23.484375 28.125 -23.796875 C 27.40625 -24.117188 26.648438 -24.304688 25.859375 -24.359375 C 25.066406 -24.421875 24.335938 -24.453125 23.671875 -24.453125 L 8.921875 -24.453125 Z M 8.921875 -14.0625 "/></g></g></g><g fill="#ffffff" fill-opacity="1"><g transform="translate(164.725003, 116.416567)"><g><path d="M 21.609375 0.4375 C 17.492188 0.4375 13.941406 0.140625 10.953125 -0.453125 C 7.960938 -1.046875 5.671875 -2.125 4.078125 -3.6875 C 2.484375 -5.25 1.6875 -7.46875 1.6875 -10.34375 L 8.5 -10.34375 C 8.5 -9.132812 8.894531 -8.132812 9.6875 -7.34375 C 10.476562 -6.5625 11.859375 -5.984375 13.828125 -5.609375 C 15.796875 -5.234375 18.53125 -5.046875 22.03125 -5.046875 C 24.882812 -5.046875 27.132812 -5.175781 28.78125 -5.4375 C 30.4375 -5.695312 31.625 -6.097656 32.34375 -6.640625 C 33.0625 -7.179688 33.421875 -7.898438 33.421875 -8.796875 C 33.421875 -9.515625 33.257812 -10.097656 32.9375 -10.546875 C 32.625 -10.992188 32.019531 -11.34375 31.125 -11.59375 C 30.238281 -11.851562 28.984375 -12.0625 27.359375 -12.21875 C 25.734375 -12.382812 23.597656 -12.535156 20.953125 -12.671875 C 16.640625 -12.910156 13.144531 -13.328125 10.46875 -13.921875 C 7.800781 -14.523438 5.847656 -15.472656 4.609375 -16.765625 C 3.378906 -18.066406 2.765625 -19.835938 2.765625 -22.078125 C 2.765625 -24.296875 3.488281 -26.019531 4.9375 -27.25 C 6.382812 -28.488281 8.445312 -29.359375 11.125 -29.859375 C 13.800781 -30.367188 16.992188 -30.625 20.703125 -30.625 C 24.460938 -30.625 27.707031 -30.285156 30.4375 -29.609375 C 33.175781 -28.929688 35.273438 -27.835938 36.734375 -26.328125 C 38.203125 -24.816406 38.9375 -22.828125 38.9375 -20.359375 L 32.125 -20.359375 C 32.125 -21.617188 31.707031 -22.59375 30.875 -23.28125 C 30.039062 -23.976562 28.722656 -24.460938 26.921875 -24.734375 C 25.128906 -25.003906 22.769531 -25.140625 19.84375 -25.140625 C 17.101562 -25.140625 14.984375 -25.03125 13.484375 -24.8125 C 11.992188 -24.601562 10.96875 -24.242188 10.40625 -23.734375 C 9.851562 -23.234375 9.578125 -22.566406 9.578125 -21.734375 C 9.578125 -21.078125 9.734375 -20.53125 10.046875 -20.09375 C 10.359375 -19.664062 10.925781 -19.320312 11.75 -19.0625 C 12.570312 -18.800781 13.726562 -18.582031 15.21875 -18.40625 C 16.71875 -18.238281 18.628906 -18.082031 20.953125 -17.9375 C 23.941406 -17.769531 26.625 -17.5625 29 -17.3125 C 31.375 -17.070312 33.394531 -16.660156 35.0625 -16.078125 C 36.726562 -15.503906 38.003906 -14.664062 38.890625 -13.5625 C 39.785156 -12.457031 40.234375 -10.957031 40.234375 -9.0625 C 40.234375 -7.039062 39.769531 -5.40625 38.84375 -4.15625 C 37.925781 -2.90625 36.632812 -1.945312 34.96875 -1.28125 C 33.300781 -0.625 31.332031 -0.175781 29.0625 0.0625 C 26.789062 0.3125 24.304688 0.4375 21.609375 0.4375 Z M 21.609375 0.4375 "/></g></g></g><g fill="#ffffff" fill-opacity="1"><g transform="translate(206.631124, 116.416567)"><g><path d="M 21.609375 0.4375 C 17.492188 0.4375 13.941406 0.140625 10.953125 -0.453125 C 7.960938 -1.046875 5.671875 -2.125 4.078125 -3.6875 C 2.484375 -5.25 1.6875 -7.46875 1.6875 -10.34375 L 8.5 -10.34375 C 8.5 -9.132812 8.894531 -8.132812 9.6875 -7.34375 C 10.476562 -6.5625 11.859375 -5.984375 13.828125 -5.609375 C 15.796875 -5.234375 18.53125 -5.046875 22.03125 -5.046875 C 24.882812 -5.046875 27.132812 -5.175781 28.78125 -5.4375 C 30.4375 -5.695312 31.625 -6.097656 32.34375 -6.640625 C 33.0625 -7.179688 33.421875 -7.898438 33.421875 -8.796875 C 33.421875 -9.515625 33.257812 -10.097656 32.9375 -10.546875 C 32.625 -10.992188 32.019531 -11.34375 31.125 -11.59375 C 30.238281 -11.851562 28.984375 -12.0625 27.359375 -12.21875 C 25.734375 -12.382812 23.597656 -12.535156 20.953125 -12.671875 C 16.640625 -12.910156 13.144531 -13.328125 10.46875 -13.921875 C 7.800781 -14.523438 5.847656 -15.472656 4.609375 -16.765625 C 3.378906 -18.066406 2.765625 -19.835938 2.765625 -22.078125 C 2.765625 -24.296875 3.488281 -26.019531 4.9375 -27.25 C 6.382812 -28.488281 8.445312 -29.359375 11.125 -29.859375 C 13.800781 -30.367188 16.992188 -30.625 20.703125 -30.625 C 24.460938 -30.625 27.707031 -30.285156 30.4375 -29.609375 C 33.175781 -28.929688 35.273438 -27.835938 36.734375 -26.328125 C 38.203125 -24.816406 38.9375 -22.828125 38.9375 -20.359375 L 32.125 -20.359375 C 32.125 -21.617188 31.707031 -22.59375 30.875 -23.28125 C 30.039062 -23.976562 28.722656 -24.460938 26.921875 -24.734375 C 25.128906 -25.003906 22.769531 -25.140625 19.84375 -25.140625 C 17.101562 -25.140625 14.984375 -25.03125 13.484375 -24.8125 C 11.992188 -24.601562 10.96875 -24.242188 10.40625 -23.734375 C 9.851562 -23.234375 9.578125 -22.566406 9.578125 -21.734375 C 9.578125 -21.078125 9.734375 -20.53125 10.046875 -20.09375 C 10.359375 -19.664062 10.925781 -19.320312 11.75 -19.0625 C 12.570312 -18.800781 13.726562 -18.582031 15.21875 -18.40625 C 16.71875 -18.238281 18.628906 -18.082031 20.953125 -17.9375 C 23.941406 -17.769531 26.625 -17.5625 29 -17.3125 C 31.375 -17.070312 33.394531 -16.660156 35.0625 -16.078125 C 36.726562 -15.503906 38.003906 -14.664062 38.890625 -13.5625 C 39.785156 -12.457031 40.234375 -10.957031 40.234375 -9.0625 C 40.234375 -7.039062 39.769531 -5.40625 38.84375 -4.15625 C 37.925781 -2.90625 36.632812 -1.945312 34.96875 -1.28125 C 33.300781 -0.625 31.332031 -0.175781 29.0625 0.0625 C 26.789062 0.3125 24.304688 0.4375 21.609375 0.4375 Z M 21.609375 0.4375 "/></g></g></g><g fill="#ffffff" fill-opacity="1"><g transform="translate(248.537234, 116.416567)"><g><path d="M 2.109375 0 L 2.109375 -30.1875 L 8.921875 -30.1875 L 8.921875 0 Z M 2.109375 0 "/></g></g></g><g fill="#ffffff" fill-opacity="1"><g transform="translate(259.574236, 116.416567)"><g><path d="M 2.109375 0 L 2.109375 -30.1875 L 23.9375 -30.1875 C 25.914062 -30.1875 27.789062 -29.875 29.5625 -29.25 C 31.332031 -28.632812 32.898438 -27.707031 34.265625 -26.46875 C 35.628906 -25.238281 36.707031 -23.675781 37.5 -21.78125 C 38.289062 -19.882812 38.6875 -17.65625 38.6875 -15.09375 C 38.6875 -12.53125 38.289062 -10.300781 37.5 -8.40625 C 36.707031 -6.507812 35.628906 -4.941406 34.265625 -3.703125 C 32.898438 -2.472656 31.332031 -1.546875 29.5625 -0.921875 C 27.789062 -0.304688 25.914062 0 23.9375 0 Z M 8.921875 -5.734375 L 21.09375 -5.734375 C 23.363281 -5.734375 25.300781 -5.96875 26.90625 -6.4375 C 28.519531 -6.914062 29.75 -7.832031 30.59375 -9.1875 C 31.445312 -10.539062 31.875 -12.507812 31.875 -15.09375 C 31.875 -17.707031 31.445312 -19.679688 30.59375 -21.015625 C 29.75 -22.359375 28.519531 -23.265625 26.90625 -23.734375 C 25.300781 -24.210938 23.363281 -24.453125 21.09375 -24.453125 L 8.921875 -24.453125 Z M 8.921875 -5.734375 "/></g></g></g><g fill="#ffffff" fill-opacity="1"><g transform="translate(299.928275, 116.416567)"><g><path d="M 2.109375 0 L 2.109375 -30.1875 L 34.03125 -30.1875 L 34.03125 -24.703125 L 8.921875 -24.703125 L 8.921875 -17.6875 L 34.03125 -17.6875 L 34.03125 -12.5 L 8.921875 -12.5 L 8.921875 -5.484375 L 34.03125 -5.484375 L 34.03125 0 Z M 2.109375 0 "/></g></g></g><path stroke-linecap="butt" transform="matrix(0.75, 0, 0, 0.75, 37.500002, 217.87349)" fill="none" stroke-linejoin="miter" d="M 26.651041 42.002015 L 4.822914 1.783263 L 15.104165 1.783263 L 32.572916 34.538473 L 50.036459 1.783263 L 60.31771 1.783263 L 38.546875 42.002015 Z M 90.083337 42.574932 C 84.182294 42.574932 79.375002 41.762432 75.661461 40.132224 C 71.947919 38.507224 69.208335 36.14264 67.44271 33.038473 C 65.682293 29.929098 64.802085 26.194723 64.802085 21.824931 C 64.802085 17.460347 65.682293 13.736389 67.44271 10.658263 C 69.208335 7.57493 71.947919 5.225971 75.661461 3.616596 C 79.375002 2.012429 84.182294 1.205138 90.083337 1.205138 C 95.984379 1.205138 100.791671 2.017638 104.505212 3.647846 C 108.218754 5.272846 110.95313 7.621805 112.708338 10.689513 C 114.479171 13.746805 115.35938 17.460347 115.35938 21.824931 C 115.35938 26.194723 114.479171 29.92389 112.708338 33.007223 C 110.95313 36.095765 108.218754 38.460349 104.505212 40.106182 C 100.791671 41.752015 95.984379 42.574932 90.083337 42.574932 Z M 90.083337 34.929098 C 95.750004 34.929098 99.864587 33.903057 102.427087 31.856181 C 105.000004 29.809306 106.286463 26.465556 106.286463 21.824931 C 106.286463 17.236389 105.010421 13.923889 102.458337 11.892638 C 99.911462 9.866597 95.786462 8.850972 90.083337 8.850972 C 84.416669 8.850972 80.296878 9.85618 77.723961 11.866597 C 75.161461 13.877014 73.88021 17.19993 73.88021 21.824931 C 73.88021 26.465556 75.161461 29.809306 77.723961 31.856181 C 80.296878 33.903057 84.416669 34.929098 90.083337 34.929098 Z M 120.416672 42.002015 L 120.416672 1.783263 L 152.010424 1.783263 C 155.078132 1.783263 157.760424 2.366596 160.062508 3.533263 C 162.364591 4.705138 164.161466 6.382221 165.46355 8.569722 C 166.765633 10.752013 167.411467 13.330139 167.411467 16.314514 C 167.411467 19.689514 166.58855 22.538472 164.942716 24.856181 C 163.296883 27.168681 161.0573 28.824931 158.223966 29.824931 L 165.7448 42.002015 L 155.067716 42.002015 L 148.281257 30.903056 L 129.494797 30.903056 L 129.494797 42.002015 Z M 129.494797 23.272848 L 149.151049 23.272848 C 150.026049 23.272848 150.989591 23.236389 152.036466 23.158264 C 153.093757 23.074931 154.098966 22.824931 155.057299 22.403056 C 156.015633 21.981181 156.802091 21.293681 157.411466 20.340556 C 158.031258 19.377014 158.338549 18.033264 158.338549 16.314514 C 158.338549 14.595764 158.031258 13.267639 157.411466 12.330138 C 156.802091 11.38743 156.015633 10.705138 155.057299 10.283263 C 154.098966 9.861388 153.093757 9.611388 152.036466 9.538472 C 150.989591 9.465555 150.026049 9.423888 149.151049 9.423888 L 129.494797 9.423888 Z M 198.43751 42.574932 C 192.958343 42.574932 188.223968 42.184307 184.239593 41.397849 C 180.255217 40.61139 177.203134 39.17389 175.083342 37.090557 C 172.958342 35.002015 171.895842 32.043681 171.895842 28.210348 L 180.973968 28.210348 C 180.973968 29.819723 181.494801 31.153056 182.541676 32.210348 C 183.598968 33.257223 185.437509 34.033265 188.057301 34.538473 C 190.68751 35.033265 194.338552 35.278057 199.015635 35.278057 C 202.812511 35.278057 205.807302 35.106182 208.005219 34.762432 C 210.213553 34.413473 211.791678 33.877015 212.744803 33.147848 C 213.703136 32.418681 214.177095 31.460348 214.177095 30.272848 C 214.177095 29.319723 213.968761 28.54889 213.546886 27.95514 C 213.125011 27.361389 212.322928 26.887431 211.135428 26.538473 C 209.947928 26.194723 208.265636 25.918681 206.098969 25.715556 C 203.937511 25.496806 201.098969 25.298889 197.583344 25.111389 C 191.828135 24.798889 187.171885 24.246806 183.609384 23.439514 C 180.046884 22.637431 177.442717 21.371806 175.796884 19.653056 C 174.15105 17.923889 173.328134 15.564514 173.328134 12.580139 C 173.328134 9.627013 174.296884 7.32493 176.229176 5.679096 C 178.166676 4.033263 180.916676 2.882221 184.479176 2.215554 C 188.041676 1.543679 192.291677 1.205138 197.229177 1.205138 C 202.255219 1.205138 206.583344 1.653054 210.223969 2.554096 C 213.859386 3.44993 216.656262 4.903055 218.609387 6.913471 C 220.56772 8.923888 221.541678 11.580138 221.541678 14.882222 L 212.468761 14.882222 C 212.468761 13.189514 211.91147 11.88743 210.796886 10.970763 C 209.682303 10.054097 207.932303 9.413472 205.536469 9.048888 C 203.140636 8.684305 199.989594 8.502013 196.083343 8.502013 C 192.442718 8.502013 189.630218 8.647847 187.635426 8.934305 C 185.645843 9.215555 184.276051 9.694722 183.526051 10.366597 C 182.776051 11.038472 182.406259 11.934305 182.406259 13.04368 C 182.406259 13.923889 182.614593 14.653055 183.036468 15.236389 C 183.458343 15.804097 184.213551 16.26243 185.307301 16.60618 C 186.401051 16.944722 187.942718 17.23118 189.93751 17.465555 C 191.927093 17.699931 194.479177 17.908264 197.583344 18.095764 C 201.567719 18.330139 205.135427 18.611389 208.286469 18.939514 C 211.447928 19.257222 214.140636 19.798889 216.364595 20.564514 C 218.593762 21.330139 220.296887 22.455139 221.484387 23.929098 C 222.671887 25.408264 223.265637 27.408264 223.265637 29.934306 C 223.265637 32.621806 222.651054 34.793682 221.416678 36.460348 C 220.19272 38.121807 218.463553 39.397849 216.239595 40.272849 C 214.026053 41.153057 211.401053 41.757224 208.369803 42.085349 C 205.348969 42.413474 202.036469 42.574932 198.43751 42.574932 Z M 254.281264 42.574932 C 248.802097 42.574932 244.067722 42.184307 240.083346 41.397849 C 236.104179 40.61139 233.046888 39.17389 230.927096 37.090557 C 228.802096 35.002015 227.739596 32.043681 227.739596 28.210348 L 236.817721 28.210348 C 236.817721 29.819723 237.338555 31.153056 238.390638 32.210348 C 239.442721 33.257223 241.281263 34.033265 243.901055 34.538473 C 246.531263 35.033265 250.182305 35.278057 254.859389 35.278057 C 258.656264 35.278057 261.651056 35.106182 263.848973 34.762432 C 266.057306 34.413473 267.635432 33.877015 268.593765 33.147848 C 269.54689 32.418681 270.020848 31.460348 270.020848 30.272848 C 270.020848 29.319723 269.812515 28.54889 269.39064 27.95514 C 268.968765 27.361389 268.166682 26.887431 266.979181 26.538473 C 265.791681 26.194723 264.10939 25.918681 261.942723 25.715556 C 259.781264 25.496806 256.942722 25.298889 253.427097 25.111389 C 247.677097 24.798889 243.015638 24.246806 239.453138 23.439514 C 235.890638 22.637431 233.286471 21.371806 231.640637 19.653056 C 229.994804 17.923889 229.171887 15.564514 229.171887 12.580139 C 229.171887 9.627013 230.140637 7.32493 232.078138 5.679096 C 234.010429 4.033263 236.760429 2.882221 240.32293 2.215554 C 243.88543 1.543679 248.140639 1.205138 253.078139 1.205138 C 258.098973 1.205138 262.427098 1.653054 266.067723 2.554096 C 269.70314 3.44993 272.500015 4.903055 274.45314 6.913471 C 276.411474 8.923888 277.385432 11.580138 277.385432 14.882222 L 268.312515 14.882222 C 268.312515 13.189514 267.755223 11.88743 266.64064 10.970763 C 265.526056 10.054097 263.776056 9.413472 261.380223 9.048888 C 258.984389 8.684305 255.833347 8.502013 251.927097 8.502013 C 248.286472 8.502013 245.473972 8.647847 243.47918 8.934305 C 241.489596 9.215555 240.119805 9.694722 239.369805 10.366597 C 238.619805 11.038472 238.250013 11.934305 238.250013 13.04368 C 238.250013 13.923889 238.458346 14.653055 238.880221 15.236389 C 239.302096 15.804097 240.057305 16.26243 241.151055 16.60618 C 242.244805 16.944722 243.79168 17.23118 245.781263 17.465555 C 247.770847 17.699931 250.32293 17.908264 253.427097 18.095764 C 257.411473 18.330139 260.979181 18.611389 264.130223 18.939514 C 267.291682 19.257222 269.98439 19.798889 272.208348 20.564514 C 274.437515 21.330139 276.145849 22.455139 277.333349 23.929098 C 278.520849 25.408264 279.114599 27.408264 279.114599 29.934306 C 279.114599 32.621806 278.494807 34.793682 277.260432 36.460348 C 276.036474 38.121807 274.312515 39.397849 272.083348 40.272849 C 269.869807 41.153057 267.244806 41.757224 264.213556 42.085349 C 261.192723 42.413474 257.885431 42.574932 254.281264 42.574932 Z M 284.161474 42.002015 L 284.161474 1.783263 L 293.234392 1.783263 L 293.234392 42.002015 Z M 298.869809 42.002015 L 298.869809 1.783263 L 327.937519 1.783263 C 330.583352 1.783263 333.083352 2.194721 335.442728 3.017638 C 337.796894 3.840555 339.880228 5.07493 341.697936 6.720763 C 343.520853 8.366597 344.958353 10.455138 346.005228 12.991597 C 347.06252 15.51243 347.588562 18.481181 347.588562 21.882222 C 347.588562 25.298889 347.06252 28.272848 346.005228 30.804098 C 344.958353 33.33014 343.520853 35.413473 341.697936 37.064515 C 339.880228 38.710349 337.796894 39.944724 335.442728 40.76764 C 333.083352 41.590557 330.583352 42.002015 327.937519 42.002015 Z M 307.942726 34.356182 L 324.145852 34.356182 C 327.177102 34.356182 329.765644 34.043682 331.906269 33.413473 C 334.046894 32.778056 335.682311 31.564515 336.817728 29.76764 C 337.947936 27.960348 338.510436 25.335348 338.510436 21.882222 C 338.510436 18.403056 337.947936 15.778055 336.817728 14.002014 C 335.682311 12.215555 334.046894 11.007222 331.906269 10.382222 C 329.765644 9.746805 327.177102 9.423888 324.145852 9.423888 L 307.942726 9.423888 Z M 352.645854 42.002015 L 352.645854 1.783263 L 395.16669 1.783263 L 395.16669 9.07493 L 361.718771 9.07493 L 361.718771 18.444722 L 395.16669 18.444722 L 395.16669 25.335348 L 361.718771 25.335348 L 361.718771 34.70514 L 395.16669 34.70514 L 395.16669 42.002015 Z M 352.645854 42.002015 " stroke="#ffffff" stroke-width="1.652168" stroke-opacity="1" stroke-miterlimit="4"/></svg>