<svg xmlns="http://www.w3.org/2000/svg" xmlns:xlink="http://www.w3.org/1999/xlink" width="456" zoomAndPan="magnify" viewBox="0 0 342 141.000003" height="188" preserveAspectRatio="xMidYMid meet" version="1.0"><defs><g/><clipPath id="11548d03e4"><path d="M 171 0 L 319.730469 0 L 319.730469 140 L 171 140 Z M 171 0 " clip-rule="nonzero"/></clipPath></defs><g clip-path="url(#11548d03e4)"><path fill="#000000" d="M 243.785156 0.507812 C 243.5625 0.621094 243.417969 0.738281 243.265625 0.933594 C 242.796875 1.527344 242.648438 1.675781 242.191406 2.003906 C 241.171875 2.734375 240.882812 3.332031 241.226562 4.011719 L 241.339844 4.230469 L 241.117188 4.382812 C 239.609375 5.4375 238.277344 7.179688 234.382812 13.21875 C 230.78125 18.792969 230.265625 19.429688 228.046875 20.980469 C 225.78125 22.566406 224.242188 24.144531 221.804688 27.386719 C 218.441406 31.863281 215.003906 37.476562 211.605469 44.054688 C 211.492188 44.269531 211.414062 44.410156 211.425781 44.367188 C 211.4375 44.320312 211.492188 44.132812 211.550781 43.945312 C 212.132812 41.976562 212.027344 40.316406 211.265625 39.632812 C 209.863281 38.367188 207.640625 40.25 204.347656 45.492188 C 200.570312 51.507812 199.488281 54.566406 197.867188 63.800781 C 197.25 67.316406 196.921875 68.796875 196.421875 70.355469 C 194.910156 75.039062 191.617188 79.8125 182.933594 89.910156 C 179.894531 93.441406 177.988281 95.542969 173.183594 100.65625 C 170.902344 103.085938 170.945312 103.023438 171.296875 103.371094 C 171.5625 103.636719 171.746094 103.566406 172.28125 102.988281 C 172.527344 102.726562 173.109375 102.105469 173.578125 101.609375 C 176.664062 98.335938 178.4375 96.410156 180.75 93.832031 C 182.113281 92.308594 184.648438 89.375 186.265625 87.445312 C 193.339844 79.011719 196.195312 74.585938 197.523438 70.007812 C 197.988281 68.398438 198.160156 67.574219 198.867188 63.582031 C 200.472656 54.484375 201.601562 51.453125 205.757812 45.054688 C 208.085938 41.472656 209.945312 39.6875 210.667969 40.339844 C 211.042969 40.683594 211.085938 41.871094 210.769531 43.175781 C 210.296875 45.109375 209.492188 46.816406 207.128906 50.878906 C 204.703125 55.046875 204.167969 56.554688 205.011719 56.859375 C 205.175781 56.917969 205.175781 56.917969 205.207031 57.3125 C 205.402344 59.664062 206.96875 61.898438 209.824219 63.894531 C 210.371094 64.277344 210.421875 64.324219 210.589844 64.636719 C 211.375 66.105469 211.105469 66.886719 208.851562 69.671875 C 206.851562 72.148438 206.550781 73.023438 207.394531 73.957031 C 208.234375 74.886719 211.183594 75.230469 213.4375 74.664062 C 213.542969 74.636719 213.542969 74.644531 213.390625 74.972656 C 212.867188 76.085938 213.390625 77.109375 214.652344 77.453125 C 216.933594 78.074219 223.136719 76.316406 225.421875 74.402344 C 225.78125 74.101562 225.78125 74.105469 225.679688 74.609375 C 224.988281 78.074219 222.609375 80.367188 216.546875 83.40625 C 211.335938 86.019531 208.8125 87.867188 206.21875 90.960938 C 202.941406 94.875 199.882812 100.890625 197.984375 107.15625 C 197.023438 110.324219 196.980469 111.554688 197.824219 111.554688 C 198.292969 111.554688 198.625 111.074219 199.957031 108.507812 C 205.273438 98.238281 208.371094 95.523438 221.425781 89.6875 C 222.882812 89.035156 224.246094 88.421875 224.457031 88.324219 L 224.839844 88.148438 L 224.636719 88.382812 C 222.988281 90.273438 222.476562 91.265625 221.222656 94.976562 C 221.007812 95.609375 220.648438 96.648438 220.417969 97.292969 C 219.328125 100.355469 218.949219 101.753906 218.703125 103.664062 C 218.597656 104.496094 218.558594 104.890625 218.382812 107.140625 C 218.128906 110.351562 217.832031 112.199219 216.847656 116.769531 C 215.679688 122.171875 215.398438 123.84375 214.617188 130.03125 C 214.378906 131.921875 214.082031 134.191406 213.960938 135.078125 C 213.835938 135.960938 213.675781 137.136719 213.601562 137.683594 L 213.46875 138.683594 L 213.90625 138.699219 C 214.144531 138.707031 214.355469 138.695312 214.378906 138.675781 C 214.433594 138.621094 214.984375 134.597656 215.496094 130.542969 C 216.296875 124.15625 216.507812 122.910156 217.679688 117.402344 C 218.375 114.15625 218.589844 113.050781 218.816406 111.601562 C 219.078125 109.933594 219.148438 109.277344 219.429688 105.75 C 219.664062 102.871094 219.996094 101.355469 221.0625 98.335938 C 221.292969 97.679688 221.769531 96.300781 222.125 95.269531 C 222.871094 93.101562 223.121094 92.457031 223.539062 91.613281 C 225.117188 88.460938 227.808594 86.515625 232.582031 85.082031 C 238.207031 83.390625 242.308594 83.722656 241.3125 85.789062 C 240.847656 86.75 239.792969 87.347656 236.859375 88.324219 C 233.96875 89.28125 232.632812 89.941406 231.289062 91.070312 C 229.34375 92.703125 227.96875 95.238281 227.964844 97.195312 C 227.960938 98.859375 228.90625 99.285156 231.246094 98.664062 C 231.714844 98.542969 232.4375 98.351562 232.851562 98.242188 C 236.144531 97.375 238.769531 97.34375 240.921875 98.144531 C 241.335938 98.300781 242.089844 98.574219 242.59375 98.757812 C 245.257812 99.726562 247.957031 102.195312 248.707031 104.351562 C 249.09375 105.464844 248.957031 105.488281 246.453125 104.726562 C 245.832031 104.539062 244.960938 104.292969 244.519531 104.179688 C 243.882812 104.019531 243.632812 103.929688 243.28125 103.738281 C 240.425781 102.179688 237.113281 101.875 233.167969 102.808594 C 232.148438 103.050781 231.84375 103.40625 232.289062 103.828125 L 232.457031 103.984375 L 234.949219 104.011719 C 237.824219 104.039062 239.515625 104.160156 241.21875 104.460938 C 241.664062 104.539062 241.636719 104.527344 242.453125 105.058594 C 244.828125 106.609375 247.191406 108.351562 248.007812 109.152344 C 249.421875 110.546875 249.203125 111.730469 247.476562 111.996094 C 246.421875 112.160156 245.011719 111.679688 242.96875 110.457031 C 240.195312 108.800781 238.53125 108.507812 235.425781 109.140625 C 232.957031 109.640625 231.617188 110.363281 231.828125 111.082031 C 232.046875 111.828125 232.648438 111.882812 237.957031 111.648438 C 240.871094 111.523438 243.015625 112.113281 244 113.320312 C 245.25 114.847656 243.332031 115.609375 239.21875 115.21875 C 235.324219 114.851562 233.105469 115.320312 229.808594 117.210938 C 227.425781 118.578125 227.011719 119.441406 227.945312 121.117188 C 229.21875 123.390625 229.183594 123.242188 228.632812 124.328125 C 226.894531 127.746094 226.4375 133.941406 227.621094 138.0625 C 228.019531 139.453125 228.554688 139.996094 229.078125 139.535156 C 229.46875 139.191406 229.542969 137.578125 229.308594 134.613281 C 228.992188 130.632812 228.992188 130.613281 228.988281 128.910156 C 228.980469 125.347656 229.5 123.980469 230.945312 123.746094 C 231.496094 123.660156 232.03125 123.753906 234.1875 124.328125 C 236.613281 124.972656 237.414062 125.101562 239.171875 125.140625 C 243.304688 125.230469 246.714844 123.882812 248.203125 121.574219 C 248.339844 121.359375 248.511719 121.109375 248.582031 121.023438 C 248.652344 120.9375 248.730469 120.792969 248.75 120.707031 C 248.773438 120.621094 248.878906 120.316406 248.988281 120.035156 C 250.242188 116.75 250.648438 107.207031 249.9375 97.636719 C 249.898438 97.101562 249.800781 95.828125 249.722656 94.808594 C 249.367188 90.1875 249.398438 88.636719 249.871094 87.210938 C 250.238281 86.105469 250.703125 85.75 252.304688 85.351562 C 253.679688 85.003906 254.464844 84.671875 255.527344 83.980469 L 256.019531 83.65625 L 255.066406 84.601562 C 253.25 86.398438 252.605469 87.535156 252.511719 89.101562 C 252.40625 90.878906 253.210938 92.117188 255.332031 93.4375 C 256.40625 94.105469 256.375 93.996094 255.839844 95.265625 C 255.25 96.667969 255.128906 97.5 255.410156 98.238281 C 255.925781 99.601562 259.125 100.59375 262.355469 100.394531 C 265.054688 100.222656 265.121094 100.25 268.511719 102.652344 C 272.292969 105.332031 274.589844 106.15625 278.777344 106.339844 C 280.179688 106.398438 280.304688 106.417969 280.945312 106.679688 C 284.75 108.214844 288.488281 111.421875 301.921875 124.644531 C 308.53125 131.15625 310.570312 132.941406 312.488281 133.898438 C 313.808594 134.554688 314.617188 133.921875 314.027344 132.691406 C 313.097656 130.746094 310.292969 127.941406 303.355469 122.011719 C 300.042969 119.179688 297.078125 116.585938 295.671875 115.285156 C 295.203125 114.851562 292.539062 112.441406 291.78125 111.769531 C 286.949219 107.460938 284.25 105.890625 281.085938 105.558594 C 280.804688 105.527344 280.410156 105.472656 280.210938 105.433594 C 279.953125 105.382812 279.539062 105.363281 278.800781 105.371094 C 275.144531 105.394531 272.558594 104.414062 268.433594 101.449219 C 265.503906 99.339844 265.6875 99.394531 261.5625 99.464844 C 260.351562 99.484375 260.085938 99.464844 259.121094 99.261719 L 258.621094 99.15625 L 258.914062 99.019531 C 259.667969 98.660156 260.535156 97.925781 260.988281 97.257812 L 261.214844 96.929688 L 261.496094 97.199219 C 262.050781 97.730469 262.484375 97.832031 263.992188 97.789062 C 267.789062 97.683594 273.160156 96.273438 275.386719 94.796875 C 276.65625 93.953125 277.675781 92.425781 277.679688 91.355469 C 277.683594 91.140625 277.738281 91.199219 278.019531 91.699219 C 279.039062 93.539062 280.832031 95.128906 283.296875 96.386719 C 284.496094 97 285.023438 97.074219 285.265625 96.671875 C 285.582031 96.15625 285.386719 95.945312 283.199219 94.417969 C 280.902344 92.816406 279.042969 91.195312 278.5625 90.378906 C 278.214844 89.789062 277.53125 87.988281 277.171875 86.71875 C 276.070312 82.8125 274.976562 81.183594 272.164062 79.253906 C 269.75 77.597656 269.171875 77.039062 268.503906 75.695312 C 267.734375 74.152344 268.046875 73.480469 269.535156 73.476562 C 270.167969 73.476562 271.3125 73.699219 271.3125 73.820312 C 271.3125 73.839844 271.042969 73.960938 270.714844 74.089844 C 269.226562 74.667969 268.84375 75.023438 269.121094 75.566406 C 269.390625 76.101562 270.410156 76.082031 271.453125 75.519531 C 271.824219 75.320312 271.972656 75.214844 272.546875 74.730469 C 273.164062 74.21875 273.4375 74.207031 274.886719 74.625 C 276.757812 75.164062 276.96875 75.316406 278.738281 77.441406 C 281.023438 80.183594 281.859375 80.867188 284.925781 82.507812 C 289.121094 84.753906 290.5625 86.011719 293.425781 89.925781 C 295.792969 93.15625 297.21875 94.464844 301.027344 96.882812 C 309.335938 102.160156 311.664062 103.90625 317.578125 109.285156 C 318.9375 110.523438 318.945312 110.527344 319.25 110.242188 C 319.605469 109.910156 319.519531 109.777344 318.136719 108.523438 C 312.519531 103.429688 309.324219 100.992188 303.386719 97.269531 C 297.71875 93.714844 296.894531 93 293.964844 89.078125 C 291.125 85.277344 289.679688 84.007812 285.800781 81.914062 C 282.257812 79.996094 281.613281 79.476562 279.382812 76.742188 C 277.667969 74.640625 276.96875 74.160156 274.773438 73.59375 C 274.453125 73.511719 274.421875 73.492188 274.453125 73.40625 C 274.625 72.917969 274.5 72.085938 273.914062 69.871094 C 273.710938 69.105469 273.21875 67.164062 272.816406 65.554688 C 271.214844 59.101562 271.015625 58.429688 270.285156 56.90625 C 269.460938 55.1875 268.699219 54.417969 266.839844 53.4375 C 264.984375 52.464844 264.570312 51.929688 263.890625 49.636719 C 263.363281 47.867188 263.144531 47.28125 262.875 46.925781 C 262.761719 46.777344 262.753906 46.730469 262.753906 46.191406 C 262.753906 44.523438 262.324219 43.257812 259.765625 37.328125 C 258.695312 34.855469 258.246094 33.648438 257.960938 32.492188 C 257.859375 32.078125 257.691406 31.550781 257.5625 31.257812 C 257.417969 30.921875 257.304688 30.554688 257.230469 30.171875 C 256.964844 28.84375 256.386719 28.511719 254.464844 28.59375 C 252.167969 28.683594 250.207031 29.171875 249.476562 29.832031 C 248.640625 30.585938 248.421875 33.0625 249.097656 34.109375 L 249.257812 34.351562 L 249.242188 35.132812 C 249.210938 36.984375 250.40625 42.789062 252.171875 49.34375 C 253.496094 54.265625 253.507812 54.472656 252.476562 55.585938 C 250.007812 58.253906 250.265625 62.699219 253.316406 69.964844 C 253.660156 70.785156 253.664062 70.742188 253.269531 70.539062 C 251.371094 69.574219 248.867188 72.703125 249.871094 74.777344 C 250.207031 75.46875 250.914062 75.917969 252.3125 76.324219 C 253.257812 76.601562 253.738281 76.785156 254.140625 77.023438 L 254.449219 77.207031 L 254.085938 77.242188 C 252.214844 77.414062 250.402344 79.582031 250.402344 81.644531 C 250.402344 83.035156 251.113281 83.882812 252.566406 84.230469 C 252.6875 84.257812 252.578125 84.296875 251.910156 84.472656 C 250.113281 84.933594 249.332031 85.609375 248.910156 87.066406 C 248.800781 87.453125 248.785156 87.449219 248.679688 86.996094 C 248.277344 85.246094 247.53125 83.734375 246.320312 82.203125 C 245.074219 80.628906 244.84375 80.066406 244.355469 77.414062 C 243.960938 75.289062 243.644531 74.570312 242.996094 74.355469 L 242.8125 74.296875 L 243.023438 74.164062 C 243.949219 73.574219 244.074219 72.890625 243.894531 69.453125 C 243.835938 68.382812 243.757812 66.484375 243.71875 65.238281 C 243.601562 61.488281 243.519531 60.617188 243.222656 59.992188 C 243.105469 59.742188 242.78125 59.386719 242.667969 59.386719 C 242.640625 59.386719 242.632812 59.367188 242.648438 59.339844 C 242.664062 59.3125 242.707031 59.289062 242.746094 59.289062 C 243.554688 59.289062 244.089844 58.429688 243.761719 57.65625 C 243.695312 57.496094 243.59375 57.246094 243.535156 57.101562 L 243.433594 56.839844 L 243.539062 56.417969 C 243.855469 55.1875 243.332031 54.761719 241.214844 54.535156 C 238.164062 54.207031 236.035156 54.703125 235.085938 55.960938 C 234.160156 57.183594 233.964844 58.4375 233.875 63.753906 C 233.761719 70.285156 233.632812 72.875 233.308594 75.328125 C 232.640625 80.363281 230.914062 83.386719 227.4375 85.636719 C 225.980469 86.578125 224.867188 87.128906 220.304688 89.152344 C 208.734375 94.289062 204.660156 97.707031 200.191406 106.042969 C 199.921875 106.539062 199.402344 107.53125 199.027344 108.246094 C 198.65625 108.960938 198.347656 109.539062 198.339844 109.53125 C 198.308594 109.503906 198.726562 107.96875 198.980469 107.160156 C 201.265625 99.882812 204.574219 93.839844 208.34375 90.050781 C 210.699219 87.683594 212.515625 86.472656 217.363281 84.046875 C 220.195312 82.632812 221.433594 81.875 222.785156 80.738281 C 225.410156 78.527344 226.765625 75.9375 226.773438 73.128906 C 226.773438 72.894531 226.796875 72.644531 226.824219 72.566406 C 227.164062 71.675781 226.800781 70.257812 226.230469 70.257812 C 226.09375 70.257812 226.117188 70.234375 226.488281 69.960938 C 228.167969 68.714844 228.75 67.585938 228.570312 65.910156 C 228.421875 64.546875 228.476562 64.332031 229.320312 62.980469 C 229.550781 62.613281 229.851562 62.097656 229.988281 61.835938 C 230.144531 61.539062 230.34375 61.253906 230.519531 61.070312 C 232.144531 59.363281 232.230469 57.183594 230.734375 55.644531 L 230.296875 55.191406 L 230.832031 54.871094 C 234.621094 52.601562 236.128906 49.125 234.355469 46.75 C 234.132812 46.449219 233.890625 46.273438 233.703125 46.273438 C 233.597656 46.273438 233.613281 46.238281 233.910156 45.835938 C 235.15625 44.171875 237.800781 39.296875 238.703125 37.007812 C 239.53125 34.910156 239.703125 34.007812 239.757812 31.476562 C 239.808594 29.09375 239.835938 28.957031 240.871094 26.308594 C 241.761719 24.035156 241.90625 23.464844 241.925781 22.207031 L 241.9375 21.324219 L 242.238281 20.867188 C 242.402344 20.617188 243.023438 19.421875 243.617188 18.214844 C 244.210938 17.007812 244.902344 15.636719 245.152344 15.167969 C 247.363281 11.003906 247.6875 10.328125 248.25 8.707031 C 248.523438 7.921875 248.734375 7.441406 249.0625 6.859375 C 250.273438 4.726562 250.21875 3.921875 248.789062 2.5625 C 247.085938 0.945312 244.78125 0 243.785156 0.507812 M 245.234375 1.4375 C 246.601562 1.90625 248.421875 3.25 248.835938 4.097656 C 249.109375 4.652344 248.996094 5.105469 248.304688 6.28125 L 248.039062 6.730469 L 247.902344 6.414062 C 247.433594 5.335938 245.921875 4.0625 244.617188 3.65625 C 244.105469 3.496094 243.050781 3.492188 242.574219 3.652344 C 242.167969 3.789062 242.160156 3.789062 242.089844 3.613281 C 241.992188 3.382812 242.074219 3.273438 242.683594 2.816406 C 243.234375 2.402344 243.570312 2.078125 243.886719 1.65625 C 244.207031 1.230469 244.492188 1.183594 245.234375 1.4375 M 244.46875 4.609375 C 245.324219 4.90625 246.320312 5.679688 246.851562 6.457031 C 247.050781 6.753906 247.03125 6.769531 246.621094 6.644531 C 245.785156 6.386719 242.988281 4.777344 242.988281 4.546875 C 242.988281 4.398438 243.976562 4.441406 244.46875 4.609375 M 243.160156 5.867188 C 244.75 6.960938 246.34375 7.683594 247.171875 7.683594 L 247.609375 7.683594 L 247.335938 8.441406 C 246.699219 10.195312 246.410156 10.8125 244.847656 13.734375 C 244.074219 15.179688 243.5 16.3125 242.410156 18.53125 C 242.074219 19.214844 241.734375 19.890625 241.648438 20.035156 L 241.5 20.292969 L 241.316406 20.011719 C 239.855469 17.746094 235.804688 15.9375 234.023438 16.753906 C 232.117188 17.628906 233.5625 20.523438 236.683594 22.089844 C 238.222656 22.859375 239.5625 22.976562 240.648438 22.441406 L 241.03125 22.25 L 241 22.617188 C 240.933594 23.34375 240.613281 24.382812 239.882812 26.242188 C 238.941406 28.636719 238.832031 29.167969 238.832031 31.296875 C 238.832031 34.519531 238.097656 36.730469 235.449219 41.496094 C 233.441406 45.109375 232.921875 45.804688 231.125 47.3125 C 229.648438 48.542969 229.019531 49.246094 228.550781 50.179688 C 227.832031 51.605469 228.121094 52.871094 229.289062 53.429688 L 229.664062 53.609375 L 230.359375 53.609375 C 231.171875 53.609375 231.183594 53.574219 230.199219 54.140625 C 229.257812 54.679688 228.269531 55.121094 226.09375 55.976562 C 221.34375 57.832031 219.542969 59.226562 219.632812 60.96875 C 219.695312 62.089844 220.96875 63.164062 222.542969 63.414062 C 222.742188 63.445312 222.792969 63.5 222.667969 63.546875 C 222.632812 63.5625 222.339844 63.769531 222.019531 64.007812 C 219.492188 65.898438 217.292969 66.214844 214.195312 65.136719 C 212.960938 64.703125 211.117188 63.710938 210.855469 63.335938 C 210.78125 63.230469 210.292969 62.585938 209.769531 61.910156 C 208.597656 60.398438 207.878906 59.316406 207.039062 57.820312 C 206.683594 57.1875 206.324219 56.585938 206.234375 56.484375 L 206.074219 56.296875 L 206.382812 55.878906 C 207.039062 54.988281 208 53.289062 209.332031 50.660156 C 209.8125 49.707031 210.214844 48.921875 210.222656 48.910156 C 210.28125 48.835938 212.535156 49.542969 213.523438 49.941406 C 215.523438 50.75 216.789062 51.496094 218.53125 52.898438 C 221.46875 55.265625 222.09375 54.976562 225.167969 49.832031 C 225.769531 48.824219 228.589844 43.972656 229.53125 42.324219 C 233.300781 35.71875 233.605469 33.582031 231.117188 31.207031 C 229.496094 29.660156 225.164062 27.304688 223.453125 27.039062 L 223.273438 27.011719 L 223.769531 26.390625 C 225.515625 24.21875 226.648438 23.125 228.5 21.828125 C 230.90625 20.136719 231.679688 19.195312 235.207031 13.679688 C 238.679688 8.253906 240.148438 6.296875 241.546875 5.246094 L 241.957031 4.9375 L 242.328125 5.242188 C 242.53125 5.414062 242.90625 5.691406 243.160156 5.867188 M 235.589844 17.53125 C 237.644531 17.84375 240.1875 19.527344 240.792969 20.980469 L 240.867188 21.160156 L 240.613281 21.351562 C 239.371094 22.300781 237.109375 21.714844 235.289062 19.972656 C 233.972656 18.710938 233.734375 17.734375 234.691406 17.527344 C 235.050781 17.449219 235.039062 17.449219 235.589844 17.53125 M 223.722656 28.1875 C 224.40625 28.363281 226.039062 29.136719 227.429688 29.929688 C 231.230469 32.113281 232.125 33.449219 231.4375 35.921875 C 230.972656 37.578125 230.140625 39.179688 226.457031 45.515625 C 226.222656 45.917969 225.867188 46.535156 225.664062 46.882812 C 222.871094 51.699219 221.960938 53.003906 221.222656 53.242188 C 220.886719 53.347656 220.519531 53.140625 219.242188 52.101562 C 216.859375 50.175781 214.28125 48.863281 211.335938 48.078125 C 211.015625 47.992188 210.742188 47.914062 210.734375 47.90625 C 210.71875 47.890625 212.304688 44.738281 212.84375 43.714844 C 216.023438 37.664062 219.574219 31.875 222.335938 28.246094 L 222.457031 28.089844 L 222.902344 28.089844 C 223.195312 28.089844 223.480469 28.121094 223.722656 28.1875 M 255.859375 29.621094 C 256.167969 29.734375 256.179688 29.753906 256.3125 30.417969 C 256.375 30.742188 256.460938 31.085938 256.503906 31.183594 C 256.542969 31.285156 256.578125 31.378906 256.578125 31.398438 C 256.578125 31.414062 256.136719 31.429688 255.59375 31.433594 C 253.304688 31.445312 251.105469 32.121094 250.003906 33.148438 C 249.84375 33.300781 249.765625 33.34375 249.75 33.296875 C 249.453125 32.460938 249.714844 30.792969 250.199219 30.460938 C 250.726562 30.09375 252.074219 29.742188 253.492188 29.601562 C 253.785156 29.574219 254.089844 29.539062 254.171875 29.53125 C 254.519531 29.480469 255.636719 29.542969 255.859375 29.621094 M 255.605469 32.414062 C 254.472656 32.914062 250.597656 34.035156 250.597656 33.859375 C 250.597656 33.722656 251.671875 33.144531 252.335938 32.921875 C 253.335938 32.585938 254.59375 32.351562 255.4375 32.339844 L 255.777344 32.335938 L 255.605469 32.414062 M 257.363281 33.839844 C 257.625 34.652344 258.144531 35.96875 258.839844 37.570312 C 260.65625 41.765625 261.066406 42.796875 261.472656 44.171875 C 261.65625 44.800781 261.832031 45.652344 261.832031 45.929688 L 261.832031 46.117188 L 261.648438 46.066406 C 259.984375 45.601562 254.890625 47.769531 254.148438 49.257812 C 253.527344 50.507812 254.9375 51.089844 257.429688 50.613281 C 259.65625 50.183594 261.433594 49.28125 262.210938 48.179688 L 262.363281 47.96875 L 262.414062 48.101562 C 262.492188 48.304688 262.734375 49.082031 262.851562 49.492188 C 263.640625 52.289062 264.273438 53.15625 266.28125 54.207031 C 268.714844 55.480469 269.46875 56.589844 270.5625 60.503906 C 270.902344 61.71875 270.925781 61.59375 270.328125 61.722656 C 268.074219 62.210938 265.851562 62.625 263.074219 63.070312 C 257.457031 63.976562 257.316406 64.164062 258.644531 68.894531 C 259.496094 71.933594 259.972656 74.203125 260.613281 78.253906 C 261.375 83.105469 261.746094 84.445312 262.558594 85.335938 C 263.417969 86.277344 264.382812 86.257812 266.523438 85.25 C 269.464844 83.867188 271.398438 83.648438 274.367188 84.363281 L 274.824219 84.472656 L 275.054688 84.984375 C 275.753906 86.523438 276.277344 88.425781 276.289062 89.46875 C 276.300781 90.472656 276.152344 90.53125 274.179688 90.277344 C 269.117188 89.621094 264.300781 90.730469 261.980469 93.078125 L 261.65625 93.40625 L 261.5 93.105469 C 260.996094 92.136719 260.191406 91.679688 259.03125 91.71875 L 258.429688 91.738281 L 258.574219 91.492188 C 260.3125 88.566406 260.121094 85.617188 258.125 84.59375 C 257.8125 84.429688 257.800781 84.417969 257.769531 84.203125 C 257.75 84.082031 257.679688 83.773438 257.613281 83.519531 C 257.511719 83.144531 257.488281 82.933594 257.480469 82.398438 C 257.46875 81.160156 257.375 80.070312 257.242188 79.621094 C 257.175781 79.390625 257.074219 78.921875 257.019531 78.570312 C 256.5625 75.714844 256.066406 74.097656 254.511719 70.382812 C 252.535156 65.652344 251.855469 63.234375 251.78125 60.679688 C 251.714844 58.523438 252.097656 57.367188 253.300781 56.074219 C 254.496094 54.78125 254.476562 54.261719 253.007812 48.789062 C 251.449219 42.96875 250.160156 36.878906 250.160156 35.328125 L 250.160156 34.792969 L 250.585938 34.785156 C 251.710938 34.765625 255.609375 33.59375 256.785156 32.917969 L 257.039062 32.769531 L 257.105469 33 C 257.140625 33.128906 257.257812 33.503906 257.363281 33.839844 M 233.476562 47.3125 C 234.152344 48.550781 234.183594 49.890625 233.550781 50.816406 C 232.046875 53.023438 228.699219 53.394531 229.136719 51.304688 C 229.347656 50.292969 230.046875 49.417969 231.828125 47.953125 C 232.164062 47.679688 232.613281 47.28125 232.828125 47.070312 C 233.207031 46.695312 233.214844 46.691406 233.246094 46.816406 C 233.261719 46.886719 233.363281 47.113281 233.476562 47.3125 M 261.503906 47.007812 C 262.042969 47.15625 261.164062 48.1875 259.980469 48.78125 C 258.636719 49.460938 256.402344 49.972656 255.398438 49.828125 C 254.960938 49.765625 254.929688 49.738281 255.097656 49.515625 C 255.980469 48.355469 260.285156 46.667969 261.503906 47.007812 M 207.246094 52.648438 C 207.148438 52.828125 207.042969 53 207.015625 53.023438 C 206.976562 53.0625 207.117188 52.789062 207.355469 52.355469 C 207.367188 52.335938 207.390625 52.316406 207.402344 52.316406 C 207.417969 52.316406 207.347656 52.464844 207.246094 52.648438 M 241.085938 55.464844 C 242.125 55.585938 242.746094 55.761719 242.699219 55.921875 C 242.53125 56.503906 242.515625 56.601562 242.535156 56.925781 C 242.554688 57.164062 242.601562 57.359375 242.695312 57.5625 C 242.769531 57.722656 242.859375 57.933594 242.894531 58.039062 L 242.960938 58.222656 L 242.789062 58.292969 C 242.378906 58.46875 241.71875 58.515625 239.246094 58.558594 C 236.53125 58.605469 236.066406 58.648438 235.566406 58.902344 C 234.945312 59.21875 235.066406 59.890625 235.789062 60.164062 C 236.613281 60.472656 239.375 60.558594 241.046875 60.324219 C 242.230469 60.160156 242.320312 60.171875 242.421875 60.507812 C 242.613281 61.125 242.695312 62.171875 242.792969 65.214844 C 242.832031 66.445312 242.914062 68.417969 242.972656 69.597656 C 243.171875 73.585938 243.152344 73.613281 240 73.746094 C 236.058594 73.90625 234.894531 74.175781 234.894531 74.914062 C 234.894531 75.773438 236.902344 75.914062 240.628906 75.320312 C 242.925781 74.957031 242.9375 74.96875 243.425781 77.597656 C 243.945312 80.382812 244.191406 80.984375 245.542969 82.742188 C 248.039062 85.988281 248.4375 88.085938 248.921875 100.546875 C 249.015625 102.921875 249.023438 102.835938 248.800781 102.484375 C 247.410156 100.300781 244.085938 97.933594 241.390625 97.210938 C 241.09375 97.132812 241.070312 97.070312 241.117188 96.511719 C 241.34375 93.9375 241.277344 93.410156 240.652344 92.835938 C 240.066406 92.292969 239.667969 92.230469 237.03125 92.257812 C 234.371094 92.289062 231.890625 92.167969 231.714844 92.003906 C 231.660156 91.953125 232.179688 91.523438 232.78125 91.125 C 233.828125 90.433594 234.75 90.035156 237.152344 89.226562 C 238.785156 88.675781 239.207031 88.519531 239.804688 88.234375 C 243.0625 86.675781 243.308594 83.824219 240.242188 83.175781 C 238.1875 82.742188 233.8125 83.492188 230.15625 84.902344 L 229.820312 85.03125 L 230.375 84.460938 C 233.707031 81.015625 234.542969 77.457031 234.746094 65.847656 C 234.875 58.550781 235.039062 57.304688 236.023438 56.316406 C 236.808594 55.53125 238.796875 55.195312 241.085938 55.464844 M 229.3125 56.246094 C 229.9375 57.707031 230.035156 58.894531 229.640625 60.214844 C 229.453125 60.855469 229.457031 60.847656 228.789062 61.296875 C 226.371094 62.921875 222.386719 63.097656 220.9375 61.636719 C 219.707031 60.398438 221.367188 58.871094 225.898438 57.074219 C 227.519531 56.429688 228.183594 56.160156 228.644531 55.957031 C 229.128906 55.746094 229.09375 55.730469 229.3125 56.246094 M 230.785156 57.542969 C 230.824219 57.6875 230.855469 57.976562 230.851562 58.191406 L 230.847656 58.582031 L 230.785156 58.09375 C 230.75 57.828125 230.707031 57.519531 230.6875 57.414062 C 230.632812 57.140625 230.703125 57.226562 230.785156 57.542969 M 206.933594 59.523438 C 207.074219 59.757812 207.332031 60.15625 207.5 60.410156 C 207.699219 60.710938 207.75 60.804688 207.640625 60.679688 C 207.339844 60.339844 206.640625 59.246094 206.640625 59.121094 C 206.640625 59.054688 206.695312 59.125 206.933594 59.523438 M 239.195312 59.535156 C 238.847656 59.550781 238.300781 59.550781 237.980469 59.535156 C 237.511719 59.507812 237.632812 59.5 238.613281 59.5 C 239.640625 59.5 239.730469 59.503906 239.195312 59.535156 M 271.621094 64.714844 C 271.914062 65.898438 272.421875 67.902344 272.753906 69.164062 C 273.316406 71.308594 273.597656 72.5 273.597656 72.734375 C 273.597656 72.859375 273.59375 72.859375 272.546875 72.433594 C 270.1875 71.476562 268.523438 71.472656 267.523438 72.425781 C 266.335938 73.566406 266.648438 75.390625 268.378906 77.410156 C 268.648438 77.726562 269.039062 78.191406 269.246094 78.4375 C 269.789062 79.09375 270.796875 80.09375 272.019531 81.183594 C 272.605469 81.710938 273.21875 82.28125 273.378906 82.453125 C 273.800781 82.90625 274.179688 83.390625 274.054688 83.3125 C 273.945312 83.246094 272.714844 83.074219 272.082031 83.039062 C 269.960938 82.914062 268.734375 83.199219 265.914062 84.46875 C 263.066406 85.753906 262.699219 85.25 261.636719 78.570312 C 260.867188 73.71875 260.449219 71.726562 259.519531 68.425781 C 258.453125 64.644531 258.300781 64.816406 263.410156 63.992188 C 266.289062 63.527344 268.949219 63.03125 270.558594 62.660156 C 270.773438 62.609375 270.980469 62.566406 271.019531 62.5625 C 271.078125 62.558594 271.210938 63.027344 271.621094 64.714844 M 228.28125 62.859375 C 227.582031 64.039062 227.480469 64.5 227.625 65.800781 C 227.792969 67.308594 227.402344 68.101562 225.996094 69.144531 C 222.617188 71.644531 213.992188 74.015625 212.167969 72.953125 C 211.324219 72.460938 213.175781 71.03125 217.582031 68.773438 C 218.691406 68.207031 219.871094 67.578125 220.199219 67.378906 C 222.3125 66.109375 223.894531 64.292969 223.449219 63.652344 C 223.382812 63.558594 223.394531 63.554688 224.285156 63.550781 C 225.660156 63.542969 226.855469 63.300781 227.96875 62.808594 C 228.207031 62.699219 228.410156 62.613281 228.417969 62.609375 C 228.425781 62.605469 228.367188 62.71875 228.28125 62.859375 M 212.453125 65.425781 C 215.210938 66.777344 218.117188 67.054688 220.179688 66.167969 C 220.707031 65.941406 220.40625 66.171875 219.4375 66.734375 C 219.179688 66.886719 218.058594 67.472656 216.949219 68.042969 C 213.214844 69.949219 211.820312 70.929688 211.214844 72.066406 C 210.863281 72.730469 211.125 73.542969 211.785156 73.8125 C 212.050781 73.921875 211.96875 73.953125 211.296875 73.988281 C 209.542969 74.082031 208.089844 73.667969 207.9375 73.03125 C 207.851562 72.667969 208.316406 71.820312 209.179688 70.761719 C 211.605469 67.789062 211.9375 67.171875 211.886719 65.726562 C 211.875 65.402344 211.875 65.144531 211.890625 65.152344 C 211.90625 65.160156 212.160156 65.28125 212.453125 65.425781 M 225.769531 70.53125 C 225.6875 70.65625 225.695312 71.230469 225.792969 72.175781 C 225.933594 73.519531 222.402344 75.484375 218.289062 76.347656 C 214.832031 77.078125 213.378906 76.464844 214.582031 74.792969 C 214.847656 74.421875 214.984375 74.226562 215.046875 74.121094 C 215.066406 74.085938 215.304688 74.027344 215.589844 73.984375 C 218.804688 73.515625 223.378906 71.941406 225.628906 70.53125 C 225.871094 70.378906 225.867188 70.378906 225.769531 70.53125 M 252.925781 71.425781 C 253.664062 71.804688 254.449219 73.320312 254.953125 75.328125 C 255.1875 76.265625 255.261719 76.648438 255.199219 76.613281 C 255.167969 76.59375 255.046875 76.503906 254.929688 76.414062 C 254.457031 76.050781 253.796875 75.769531 252.621094 75.421875 C 251.59375 75.121094 251.160156 74.917969 250.902344 74.625 C 249.886719 73.46875 251.605469 70.75 252.925781 71.425781 M 272.671875 73.503906 C 272.671875 73.605469 272.484375 73.605469 272.441406 73.503906 C 272.386719 73.390625 272.390625 73.386719 272.53125 73.4375 C 272.609375 73.464844 272.671875 73.496094 272.671875 73.503906 M 254.875 78.230469 C 255.28125 78.335938 255.5 78.519531 255.640625 78.863281 C 255.90625 79.523438 256.324219 81.277344 256.371094 81.921875 L 256.390625 82.25 L 256.132812 82.414062 C 254.742188 83.304688 252.980469 83.582031 252.074219 83.054688 C 250.050781 81.875 252.527344 77.601562 254.875 78.230469 M 256.792969 85.578125 C 256.539062 86.695312 255.242188 87.898438 255.058594 87.183594 C 254.886719 86.511719 255.972656 85.296875 256.757812 85.277344 C 256.859375 85.277344 256.859375 85.277344 256.792969 85.578125 M 258.125 85.753906 C 259.359375 87.023438 258.976562 89.386719 257.121094 91.980469 C 256.601562 92.699219 256.578125 92.742188 256.578125 92.914062 C 256.578125 93.003906 256.570312 93.074219 256.558594 93.074219 C 256.535156 93.074219 255.695312 92.554688 255.265625 92.273438 C 253.457031 91.089844 252.984375 89.464844 253.890625 87.566406 C 254.074219 87.183594 254.09375 87.179688 254.167969 87.527344 C 254.214844 87.734375 254.496094 88.070312 254.730469 88.1875 C 255.753906 88.707031 257.386719 87.410156 257.703125 85.824219 C 257.777344 85.453125 257.824219 85.445312 258.125 85.753906 M 276.753906 91.234375 C 276.445312 93.171875 274.929688 94.40625 271.570312 95.460938 C 268.339844 96.472656 263.628906 97.152344 262.523438 96.765625 C 261.546875 96.421875 261.566406 94.902344 262.570312 93.828125 C 264.597656 91.65625 269.246094 90.589844 274.011719 91.203125 C 275.585938 91.40625 276.425781 91.34375 276.707031 91.007812 C 276.796875 90.898438 276.800781 90.917969 276.753906 91.234375 M 259.722656 92.710938 C 261.558594 93.257812 261.171875 96.453125 259.105469 97.832031 C 258.015625 98.558594 257.105469 98.644531 256.511719 98.082031 C 256.042969 97.636719 256.089844 97.101562 256.738281 95.558594 C 257.222656 94.414062 257.273438 94.085938 257.039062 93.648438 L 256.917969 93.417969 L 257.046875 93.417969 C 257.117188 93.417969 257.34375 93.320312 257.546875 93.199219 C 258.449219 92.667969 259.097656 92.523438 259.722656 92.710938 M 231.121094 92.78125 C 231.367188 93.011719 233.660156 93.507812 236.109375 93.855469 C 238.773438 94.238281 238.980469 94.34375 239.25 95.5 C 239.324219 95.820312 239.328125 96.640625 239.257812 96.710938 C 239.242188 96.726562 238.890625 96.714844 238.480469 96.679688 C 237.621094 96.613281 236.320312 96.644531 235.453125 96.753906 C 234.285156 96.90625 233.640625 97.050781 231.027344 97.738281 C 229.855469 98.046875 229.269531 98.085938 229.050781 97.871094 C 228.46875 97.285156 229.382812 94.578125 230.703125 92.992188 C 230.988281 92.648438 230.984375 92.652344 231.121094 92.78125 M 239.363281 93.203125 C 240.304688 93.398438 240.480469 93.824219 240.316406 95.503906 C 240.277344 95.9375 240.242188 96.441406 240.242188 96.621094 C 240.242188 96.796875 240.226562 96.925781 240.203125 96.90625 C 240.183594 96.886719 240.175781 96.605469 240.183594 96.277344 C 240.234375 94.488281 239.550781 93.558594 237.953125 93.230469 C 237.667969 93.171875 237.53125 93.125 237.589844 93.109375 C 237.757812 93.058594 238.984375 93.125 239.363281 93.203125 M 246.6875 105.792969 C 247.617188 106.078125 247.953125 106.152344 248.445312 106.175781 L 248.945312 106.203125 L 248.945312 106.832031 C 248.945312 107.402344 248.886719 107.859375 248.804688 107.957031 C 248.753906 108.011719 248.25 107.609375 247.464844 106.882812 C 247.0625 106.507812 246.585938 106.078125 246.40625 105.921875 C 246.078125 105.644531 246.015625 105.570312 246.140625 105.621094 C 246.175781 105.632812 246.421875 105.710938 246.6875 105.792969 M 286.261719 108.570312 C 288.070312 109.757812 289.601562 111.035156 293.898438 114.941406 C 297.089844 117.84375 298.960938 119.492188 302.480469 122.5 C 309.386719 128.402344 312.082031 131.050781 313.082031 132.917969 L 313.230469 133.199219 L 313.109375 133.152344 C 312.367188 132.871094 310.746094 131.679688 309.011719 130.144531 C 307.59375 128.890625 306.398438 127.738281 302.015625 123.425781 C 293.359375 114.898438 288.339844 110.261719 285.648438 108.304688 C 285.289062 108.046875 284.976562 107.8125 284.949219 107.785156 C 284.832031 107.671875 285.550781 108.101562 286.261719 108.570312 M 239.292969 109.878906 C 239.878906 109.988281 240.546875 110.21875 241.117188 110.507812 C 241.628906 110.765625 242.296875 111.15625 242.113281 111.089844 C 241.042969 110.71875 239.253906 110.648438 235.453125 110.824219 C 234.148438 110.886719 233.105469 110.859375 233.246094 110.769531 C 233.367188 110.6875 234.496094 110.335938 235.085938 110.191406 C 236.765625 109.78125 238.199219 109.675781 239.292969 109.878906 M 245.132812 112.589844 C 246.476562 113.0625 247.769531 113.074219 248.652344 112.625 L 248.945312 112.476562 L 248.945312 113.027344 C 248.945312 116.019531 248.507812 119.085938 247.96875 119.867188 C 247.914062 119.945312 247.847656 120.0625 247.824219 120.121094 C 247.78125 120.230469 247.777344 120.230469 247.597656 120.152344 C 243.894531 118.546875 230.566406 119.78125 230.566406 121.730469 C 230.566406 122.609375 231.566406 122.632812 236.742188 121.863281 C 240.8125 121.257812 241.1875 121.230469 244.488281 121.238281 C 245.980469 121.242188 247.214844 121.257812 247.230469 121.277344 C 247.398438 121.441406 245.945312 122.613281 244.980469 123.082031 C 242.0625 124.515625 238.917969 124.59375 234.238281 123.359375 C 231.976562 122.765625 230.871094 122.652344 230.207031 122.953125 C 230.078125 123.011719 229.964844 123.058594 229.953125 123.058594 C 229.949219 123.058594 229.902344 122.945312 229.855469 122.804688 C 229.757812 122.496094 229.339844 121.652344 229.03125 121.125 C 228.503906 120.234375 228.355469 119.851562 228.429688 119.574219 C 228.6875 118.644531 232.390625 116.707031 234.867188 116.210938 C 236.144531 115.953125 236.902344 115.941406 239.074219 116.144531 C 241.175781 116.339844 242.738281 116.28125 243.664062 115.980469 C 245.414062 115.410156 245.828125 113.914062 244.605469 112.601562 C 244.265625 112.234375 244.261719 112.226562 244.449219 112.324219 C 244.558594 112.378906 244.863281 112.5 245.132812 112.589844 M 240.921875 120.382812 C 239.699219 120.492188 238.746094 120.613281 235.742188 121.054688 C 234.015625 121.308594 232.753906 121.46875 232.722656 121.433594 C 232.683594 121.398438 234.527344 120.964844 235.246094 120.84375 C 237.070312 120.53125 239.128906 120.34375 240.726562 120.34375 L 241.382812 120.34375 L 240.921875 120.382812 M 228.304688 133.734375 C 228.488281 136.15625 228.5625 137.792969 228.476562 137.597656 C 228.074219 136.683594 227.78125 133.144531 227.941406 131.175781 C 228.039062 129.976562 228.054688 129.925781 228.097656 130.738281 C 228.117188 131.140625 228.210938 132.488281 228.304688 133.734375 " fill-opacity="1" fill-rule="evenodd"/></g><g fill="#ffffff" fill-opacity="1"><g transform="translate(23.68168, 102.457783)"><g><path d="M 17.9375 0 L 1.671875 -29.96875 L 9.328125 -29.96875 L 22.34375 -5.5625 L 35.359375 -29.96875 L 43.03125 -29.96875 L 26.796875 0 Z M 17.9375 0 "/></g></g></g><g fill="#ffffff" fill-opacity="1"><g transform="translate(68.374982, 102.457783)"><g><path d="M 20.5 0.421875 C 16.113281 0.421875 12.535156 -0.179688 9.765625 -1.390625 C 6.992188 -2.609375 4.953125 -4.367188 3.640625 -6.671875 C 2.328125 -8.984375 1.671875 -11.769531 1.671875 -15.03125 C 1.671875 -18.28125 2.328125 -21.050781 3.640625 -23.34375 C 4.953125 -25.644531 6.992188 -27.394531 9.765625 -28.59375 C 12.535156 -29.789062 16.113281 -30.390625 20.5 -30.390625 C 24.894531 -30.390625 28.476562 -29.785156 31.25 -28.578125 C 34.019531 -27.367188 36.0625 -25.617188 37.375 -23.328125 C 38.6875 -21.046875 39.34375 -18.28125 39.34375 -15.03125 C 39.34375 -11.769531 38.6875 -8.988281 37.375 -6.6875 C 36.0625 -4.394531 34.019531 -2.632812 31.25 -1.40625 C 28.476562 -0.1875 24.894531 0.421875 20.5 0.421875 Z M 20.5 -5.265625 C 24.726562 -5.265625 27.796875 -6.023438 29.703125 -7.546875 C 31.617188 -9.078125 32.578125 -11.570312 32.578125 -15.03125 C 32.578125 -18.457031 31.628906 -20.925781 29.734375 -22.4375 C 27.835938 -23.945312 24.757812 -24.703125 20.5 -24.703125 C 16.28125 -24.703125 13.210938 -23.953125 11.296875 -22.453125 C 9.390625 -20.953125 8.4375 -18.476562 8.4375 -15.03125 C 8.4375 -11.570312 9.390625 -9.078125 11.296875 -7.546875 C 13.210938 -6.023438 16.28125 -5.265625 20.5 -5.265625 Z M 20.5 -5.265625 "/></g></g></g><g fill="#ffffff" fill-opacity="1"><g transform="translate(109.386646, 102.457783)"><g><path d="M 2.09375 0 L 2.09375 -29.96875 L 25.640625 -29.96875 C 27.921875 -29.96875 29.914062 -29.53125 31.625 -28.65625 C 33.34375 -27.789062 34.6875 -26.546875 35.65625 -24.921875 C 36.632812 -23.296875 37.125 -21.367188 37.125 -19.140625 C 37.125 -16.628906 36.507812 -14.507812 35.28125 -12.78125 C 34.050781 -11.050781 32.378906 -9.816406 30.265625 -9.078125 L 35.875 0 L 27.90625 0 L 22.859375 -8.265625 L 8.859375 -8.265625 L 8.859375 0 Z M 8.859375 -13.953125 L 23.5 -13.953125 C 24.15625 -13.953125 24.875 -13.976562 25.65625 -14.03125 C 26.445312 -14.09375 27.195312 -14.28125 27.90625 -14.59375 C 28.625 -14.90625 29.210938 -15.414062 29.671875 -16.125 C 30.128906 -16.84375 30.359375 -17.847656 30.359375 -19.140625 C 30.359375 -20.421875 30.128906 -21.410156 29.671875 -22.109375 C 29.210938 -22.804688 28.625 -23.3125 27.90625 -23.625 C 27.195312 -23.945312 26.445312 -24.132812 25.65625 -24.1875 C 24.875 -24.25 24.15625 -24.28125 23.5 -24.28125 L 8.859375 -24.28125 Z M 8.859375 -13.953125 "/></g></g></g><g fill="#ffffff" fill-opacity="1"><g transform="translate(148.172213, 102.457783)"><g><path d="M 21.453125 0.421875 C 17.367188 0.421875 13.84375 0.128906 10.875 -0.453125 C 7.90625 -1.035156 5.628906 -2.101562 4.046875 -3.65625 C 2.460938 -5.21875 1.671875 -7.425781 1.671875 -10.28125 L 8.4375 -10.28125 C 8.4375 -9.082031 8.828125 -8.085938 9.609375 -7.296875 C 10.390625 -6.515625 11.757812 -5.9375 13.71875 -5.5625 C 15.675781 -5.195312 18.394531 -5.015625 21.875 -5.015625 C 24.695312 -5.015625 26.929688 -5.140625 28.578125 -5.390625 C 30.222656 -5.648438 31.398438 -6.050781 32.109375 -6.59375 C 32.828125 -7.132812 33.1875 -7.847656 33.1875 -8.734375 C 33.1875 -9.441406 33.023438 -10.015625 32.703125 -10.453125 C 32.390625 -10.898438 31.789062 -11.253906 30.90625 -11.515625 C 30.019531 -11.773438 28.769531 -11.984375 27.15625 -12.140625 C 25.550781 -12.296875 23.4375 -12.445312 20.8125 -12.59375 C 16.53125 -12.8125 13.0625 -13.222656 10.40625 -13.828125 C 7.75 -14.429688 5.804688 -15.375 4.578125 -16.65625 C 3.347656 -17.9375 2.734375 -19.691406 2.734375 -21.921875 C 2.734375 -24.117188 3.453125 -25.832031 4.890625 -27.0625 C 6.335938 -28.289062 8.390625 -29.148438 11.046875 -29.640625 C 13.703125 -30.140625 16.867188 -30.390625 20.546875 -30.390625 C 24.285156 -30.390625 27.507812 -30.054688 30.21875 -29.390625 C 32.9375 -28.722656 35.019531 -27.640625 36.46875 -26.140625 C 37.925781 -24.640625 38.65625 -22.660156 38.65625 -20.203125 L 31.890625 -20.203125 C 31.890625 -21.460938 31.472656 -22.429688 30.640625 -23.109375 C 29.816406 -23.796875 28.515625 -24.273438 26.734375 -24.546875 C 24.953125 -24.816406 22.601562 -24.953125 19.6875 -24.953125 C 16.976562 -24.953125 14.878906 -24.84375 13.390625 -24.625 C 11.910156 -24.414062 10.890625 -24.0625 10.328125 -23.5625 C 9.773438 -23.0625 9.5 -22.398438 9.5 -21.578125 C 9.5 -20.921875 9.65625 -20.378906 9.96875 -19.953125 C 10.289062 -19.523438 10.859375 -19.179688 11.671875 -18.921875 C 12.484375 -18.660156 13.628906 -18.445312 15.109375 -18.28125 C 16.597656 -18.113281 18.5 -17.957031 20.8125 -17.8125 C 23.78125 -17.632812 26.441406 -17.425781 28.796875 -17.1875 C 31.148438 -16.945312 33.15625 -16.539062 34.8125 -15.96875 C 36.46875 -15.394531 37.734375 -14.554688 38.609375 -13.453125 C 39.492188 -12.359375 39.9375 -10.867188 39.9375 -8.984375 C 39.9375 -6.992188 39.476562 -5.375 38.5625 -4.125 C 37.65625 -2.882812 36.375 -1.9375 34.71875 -1.28125 C 33.0625 -0.625 31.101562 -0.175781 28.84375 0.0625 C 26.59375 0.300781 24.128906 0.421875 21.453125 0.421875 Z M 21.453125 0.421875 "/></g></g></g><g fill="#ffffff" fill-opacity="1"><g transform="translate(189.783222, 102.457783)"><g><path d="M 21.453125 0.421875 C 17.367188 0.421875 13.84375 0.128906 10.875 -0.453125 C 7.90625 -1.035156 5.628906 -2.101562 4.046875 -3.65625 C 2.460938 -5.21875 1.671875 -7.425781 1.671875 -10.28125 L 8.4375 -10.28125 C 8.4375 -9.082031 8.828125 -8.085938 9.609375 -7.296875 C 10.390625 -6.515625 11.757812 -5.9375 13.71875 -5.5625 C 15.675781 -5.195312 18.394531 -5.015625 21.875 -5.015625 C 24.695312 -5.015625 26.929688 -5.140625 28.578125 -5.390625 C 30.222656 -5.648438 31.398438 -6.050781 32.109375 -6.59375 C 32.828125 -7.132812 33.1875 -7.847656 33.1875 -8.734375 C 33.1875 -9.441406 33.023438 -10.015625 32.703125 -10.453125 C 32.390625 -10.898438 31.789062 -11.253906 30.90625 -11.515625 C 30.019531 -11.773438 28.769531 -11.984375 27.15625 -12.140625 C 25.550781 -12.296875 23.4375 -12.445312 20.8125 -12.59375 C 16.53125 -12.8125 13.0625 -13.222656 10.40625 -13.828125 C 7.75 -14.429688 5.804688 -15.375 4.578125 -16.65625 C 3.347656 -17.9375 2.734375 -19.691406 2.734375 -21.921875 C 2.734375 -24.117188 3.453125 -25.832031 4.890625 -27.0625 C 6.335938 -28.289062 8.390625 -29.148438 11.046875 -29.640625 C 13.703125 -30.140625 16.867188 -30.390625 20.546875 -30.390625 C 24.285156 -30.390625 27.507812 -30.054688 30.21875 -29.390625 C 32.9375 -28.722656 35.019531 -27.640625 36.46875 -26.140625 C 37.925781 -24.640625 38.65625 -22.660156 38.65625 -20.203125 L 31.890625 -20.203125 C 31.890625 -21.460938 31.472656 -22.429688 30.640625 -23.109375 C 29.816406 -23.796875 28.515625 -24.273438 26.734375 -24.546875 C 24.953125 -24.816406 22.601562 -24.953125 19.6875 -24.953125 C 16.976562 -24.953125 14.878906 -24.84375 13.390625 -24.625 C 11.910156 -24.414062 10.890625 -24.0625 10.328125 -23.5625 C 9.773438 -23.0625 9.5 -22.398438 9.5 -21.578125 C 9.5 -20.921875 9.65625 -20.378906 9.96875 -19.953125 C 10.289062 -19.523438 10.859375 -19.179688 11.671875 -18.921875 C 12.484375 -18.660156 13.628906 -18.445312 15.109375 -18.28125 C 16.597656 -18.113281 18.5 -17.957031 20.8125 -17.8125 C 23.78125 -17.632812 26.441406 -17.425781 28.796875 -17.1875 C 31.148438 -16.945312 33.15625 -16.539062 34.8125 -15.96875 C 36.46875 -15.394531 37.734375 -14.554688 38.609375 -13.453125 C 39.492188 -12.359375 39.9375 -10.867188 39.9375 -8.984375 C 39.9375 -6.992188 39.476562 -5.375 38.5625 -4.125 C 37.65625 -2.882812 36.375 -1.9375 34.71875 -1.28125 C 33.0625 -0.625 31.101562 -0.175781 28.84375 0.0625 C 26.59375 0.300781 24.128906 0.421875 21.453125 0.421875 Z M 21.453125 0.421875 "/></g></g></g><g fill="#ffffff" fill-opacity="1"><g transform="translate(231.394221, 102.457783)"><g><path d="M 2.09375 0 L 2.09375 -29.96875 L 8.859375 -29.96875 L 8.859375 0 Z M 2.09375 0 "/></g></g></g><g fill="#ffffff" fill-opacity="1"><g transform="translate(242.353498, 102.457783)"><g><path d="M 2.09375 0 L 2.09375 -29.96875 L 23.765625 -29.96875 C 25.734375 -29.96875 27.59375 -29.660156 29.34375 -29.046875 C 31.101562 -28.429688 32.660156 -27.507812 34.015625 -26.28125 C 35.367188 -25.0625 36.4375 -23.507812 37.21875 -21.625 C 38.007812 -19.738281 38.40625 -17.523438 38.40625 -14.984375 C 38.40625 -12.441406 38.007812 -10.226562 37.21875 -8.34375 C 36.4375 -6.457031 35.367188 -4.898438 34.015625 -3.671875 C 32.660156 -2.453125 31.101562 -1.535156 29.34375 -0.921875 C 27.59375 -0.304688 25.734375 0 23.765625 0 Z M 8.859375 -5.6875 L 20.9375 -5.6875 C 23.1875 -5.6875 25.109375 -5.921875 26.703125 -6.390625 C 28.304688 -6.867188 29.53125 -7.773438 30.375 -9.109375 C 31.21875 -10.453125 31.640625 -12.410156 31.640625 -14.984375 C 31.640625 -17.578125 31.21875 -19.535156 30.375 -20.859375 C 29.53125 -22.191406 28.304688 -23.09375 26.703125 -23.5625 C 25.109375 -24.039062 23.1875 -24.28125 20.9375 -24.28125 L 8.859375 -24.28125 Z M 8.859375 -5.6875 "/></g></g></g><g fill="#ffffff" fill-opacity="1"><g transform="translate(282.423355, 102.457783)"><g><path d="M 2.09375 0 L 2.09375 -29.96875 L 33.78125 -29.96875 L 33.78125 -24.53125 L 8.859375 -24.53125 L 8.859375 -17.546875 L 33.78125 -17.546875 L 33.78125 -12.421875 L 8.859375 -12.421875 L 8.859375 -5.4375 L 33.78125 -5.4375 L 33.78125 0 Z M 2.09375 0 "/></g></g></g></svg>